<?xml version="1.0" encoding="UTF-8" standalone="no"?>
<svg
   version="1.1"
   width="15.0129mm"
   height="11.2856mm"
   viewBox="0 0 15.0129 11.2856"
   id="svg1645"
   sodipodi:docname="Design By Tinabel at SoftEgg.svg"
   inkscape:version="1.4.2 (f4327f4, 2025-05-13)"
   xmlns:inkscape="http://www.inkscape.org/namespaces/inkscape"
   xmlns:sodipodi="http://sodipodi.sourceforge.net/DTD/sodipodi-0.dtd"
   xmlns="http://www.w3.org/2000/svg"
   xmlns:svg="http://www.w3.org/2000/svg"
   xmlns:rdf="http://www.w3.org/1999/02/22-rdf-syntax-ns#"
   xmlns:cc="http://creativecommons.org/ns#"
   xmlns:dc="http://purl.org/dc/elements/1.1/">
  <defs
     id="defs1645" />
  <sodipodi:namedview
     id="namedview1645"
     pagecolor="#ffffff"
     bordercolor="#000000"
     borderopacity="0.25"
     inkscape:showpageshadow="2"
     inkscape:pageopacity="0.0"
     inkscape:pagecheckerboard="0"
     inkscape:deskcolor="#d1d1d1"
     inkscape:document-units="mm"
     inkscape:zoom="10.623286"
     inkscape:cx="63.210194"
     inkscape:cy="24.851067"
     inkscape:window-width="2560"
     inkscape:window-height="1316"
     inkscape:window-x="-12"
     inkscape:window-y="-12"
     inkscape:window-maximized="1"
     inkscape:current-layer="svg1645" />
  <title
     id="title1">SVG Image created as X-DaysSynth-Bottom Overlay.svg date 2025/09/18 20:57:07 </title>
  <desc
     id="desc1">Image generated by PCBNEW </desc>
  <g
     style="fill:#000000;fill-opacity:1;stroke:#000000;stroke-linecap:round;stroke-linejoin:round;stroke-opacity:1"
     transform="matrix(-1,0,0,1,119.8481,-104.1491)"
     id="g17">
    <path
       style="fill:#000000;fill-opacity:1;fill-rule:evenodd;stroke:none"
       d="m 118.2553,104.1705 0.396,0.0669 0.2027,0.0501 0.1924,0.0589 0.1914,0.0732 0.1375,0.0701 0.1095,0.0836 0.045,0.053 0.0367,0.062 0.037,0.1046 0.0119,0.0477 0.0277,0.1153 0.0143,0.1019 -0.005,0.0428 -0.0151,0.0348 -0.0526,0.0436 -0.0733,0.0135 -0.1465,-0.0184 -0.2322,-0.0637 -0.136,-0.0398 -0.1244,-0.0282 -0.062,-0.0145 -0.0317,-0.0154 -0.0213,-0.0218 -0.004,-0.0175 0.0188,-0.0261 0.0646,-0.0157 0.1128,-10e-4 0.0117,4e-4 h 0.1041 v -0.008 l -0.302,-0.0935 -0.3507,-0.0664 -0.1752,-0.0203 0.9202,1.1487 0.1292,0.1671 0.1191,0.1819 0.049,0.0961 0.0384,0.0994 0.025,0.1025 0.009,0.1055 -0.007,0.0785 -0.0278,0.0746 -0.0537,0.0509 -0.0887,0.0278 -0.1627,0.0138 -0.0797,7e-4 -0.2956,-0.0204 -0.3689,-0.0676 -0.4057,-0.1167 -0.1937,-0.0719 -0.1794,-0.0786 -0.1467,-0.0759 -0.1456,-0.0893 -0.1425,-0.1014 -0.1232,-0.1016 -0.1154,-0.1106 -0.0941,-0.106 -0.0841,-0.1126 -0.0653,-0.1064 -0.0546,-0.1114 -0.0392,-0.1055 -0.0283,-0.1094 -0.0152,-0.1509 h 0.2759 l 0.005,0.0826 0.017,0.0847 0.0282,0.0835 0.0403,0.0844 0.0522,0.0832 0.0653,0.0831 0.0787,0.082 0.093,0.0807 0.1084,0.0795 0.1242,0.0772 0.142,0.0752 0.1593,0.0718 0.1755,0.0673 0.1784,0.0556 0.1905,0.0479 0.1857,0.0354 0.1804,0.0218 0.1505,0.005 0.0848,-0.007 0.0601,-0.0138 0.0412,-0.0184 0.0241,-0.0189 0.009,-0.0115 0.0132,-0.0361 0.002,-0.0444 -0.0187,-0.0599 -0.0482,-0.0824 -0.0287,-0.0399 -0.8509,-1.1117 -0.0532,-0.0782 -0.0348,-0.0731 -0.0391,-0.1327 -0.0601,0.003 -0.324,0.0237 -0.1788,0.0265 -0.1737,0.0427 -0.1563,0.0638 -0.0678,0.0413 -0.059,0.0484 -0.0485,0.0562 -0.0365,0.0645 -0.023,0.0734 -0.008,0.083 h -0.2759 l -0.005,-0.0502 0.005,-0.1176 0.0166,-0.1176 0.0267,-0.1111 0.0376,-0.1076 0.0451,-0.0953 0.0551,-0.0893 0.0598,-0.0757 0.0687,-0.0684 0.0892,-0.0672 0.1679,-0.084 0.2239,-0.0665 0.2799,-0.0425 0.2485,-0.0112 z"
       id="path1" />
    <path
       style="fill:#000000;fill-opacity:1;fill-rule:evenodd;stroke:none"
       d="m 115.9351,105.4053 0.1888,0.0628 0.1912,0.1079 0.1782,0.1492 0.0782,0.0862 0.0689,0.0924 0.0565,0.0938 0.0455,0.0975 0.0315,0.0938 0.0201,0.0952 0.007,0.123 -0.008,0.0915 -0.0192,0.0885 -0.0281,0.0775 -0.038,0.0705 -0.0427,0.0555 -0.0509,0.0468 -0.0533,0.0335 -0.0604,0.0243 -0.1188,0.0168 -0.1628,-0.0203 -0.1836,-0.0644 -0.2057,-0.1154 -0.2227,-0.1702 -0.2206,-0.2159 -0.0442,-0.0502 0.0348,-0.1471 0.0567,0.0455 0.1672,0.1318 0.1879,0.1296 0.0978,0.055 0.0985,0.0437 0.0975,0.0288 0.0952,0.0104 0.0691,-0.006 0.0642,-0.0183 0.0433,-0.0244 0.0339,-0.0342 0.0189,-0.0358 0.009,-0.0436 v -0.0353 l -0.008,-0.085 -0.1899,-0.068 -0.1637,-0.0696 -0.1374,-0.0693 -0.1153,-0.0696 -0.0936,-0.0683 -0.0751,-0.0674 -0.0579,-0.0653 -0.0427,-0.0632 -0.0293,-0.0612 -0.0108,-0.0372 h 0.3266 l 0.0179,0.0499 0.093,0.1149 0.0821,0.0745 0.1012,0.0749 0.1032,0.0617 0.1149,0.0537 0.0538,0.0199 -0.0883,-0.1638 -0.1245,-0.1464 -0.1499,-0.1143 -0.0774,-0.0398 -0.0764,-0.0269 -0.003,-9e-4 -0.0189,-4e-4 -0.0147,0.009 -0.0126,0.0339 h -0.3266 l -0.006,-0.0205 -0.006,-0.0597 0.005,-0.0459 0.0145,-0.0379 0.0524,-0.0554 0.0869,-0.0348 0.1183,-0.0118 z"
       id="path2" />
    <path
       style="fill:#000000;fill-opacity:1;fill-rule:evenodd;stroke:none"
       d="m 114.644,105.2934 0.0416,0.0146 0.0682,0.0556 0.0469,0.0901 0.0153,0.0847 0.8356,0.7662 0.0111,0.011 0.0528,0.057 0.0203,0.033 0.008,0.0337 -0.0194,0.051 -0.0203,0.0161 -0.0258,0.006 -0.0478,-0.0173 -0.0368,-0.0327 -0.0538,0.1331 -0.0899,0.1144 -0.1255,0.0935 -0.1577,0.0667 -0.1776,0.0307 -0.008,3e-4 -0.1341,-0.0134 -0.1655,-0.0586 -0.2026,-0.1147 -0.2375,-0.1787 -0.2228,-0.2043 0.0386,-0.1463 0.2309,0.1772 0.005,0.004 0.1348,0.0981 0.1334,0.076 0.07,0.0258 0.0742,0.0159 0.08,0.004 0.0873,-0.009 -0.1194,-0.0798 -0.1138,-0.093 -0.0802,-0.0811 -0.0697,-0.0889 -0.0478,-0.0798 -0.0366,-0.0851 -0.002,-0.008 h 0.3581 l 0.0114,0.1043 0.0245,0.0827 0.0276,0.05 0.0376,0.0457 0.1215,0.0964 0.0817,0.0521 0.004,-0.005 0.0571,-0.0754 0.0658,-0.07 0.0785,-0.0528 0.0952,-0.024 -0.5544,-0.5197 -0.0501,0.3157 h -0.3581 l -0.0194,-0.0709 -0.0104,-0.0832 -8e-4,-0.0306 0.0171,-0.1671 0.0228,-0.1044 0.0331,-0.1752 0.0161,-0.0791 0.0362,-0.0451 0.0721,-0.0175 0.0259,-7e-4 z"
       id="path3" />
    <path
       style="fill:#000000;fill-opacity:1;fill-rule:evenodd;stroke:none"
       d="m 112.9654,106.1968 0.1031,0.0801 0.1056,0.0826 0.1124,0.0759 0.1172,0.0555 0.12,0.0216 0.0697,-0.005 0.0552,-0.0159 0.0357,-0.0215 0.026,-0.0286 0.0243,-0.0749 -0.007,-0.0964 -0.2112,-0.1732 -0.1208,-0.1198 -0.1071,-0.1267 -0.057,-0.086 -0.0363,-0.0804 -0.0105,-0.0608 0.005,-0.0302 0.0139,-0.0244 0.0527,-0.0359 0.0978,-0.0171 0.097,0.0206 0.135,0.074 0.1607,0.1383 0.0788,0.0894 0.0724,0.0994 0.0592,0.1004 0.0487,0.1061 0.0326,0.0981 0.0207,0.1006 0.007,0.1009 -0.005,0.0799 -0.0164,0.0823 -0.0267,0.0778 -0.0375,0.0717 -0.0408,0.0535 -0.049,0.0435 -0.0481,0.0274 -0.0542,0.0169 -0.053,0.005 -0.1285,-0.02 -0.1501,-0.0652 -0.1753,-0.1198 -0.1962,-0.1797 -0.1546,-0.1734 z"
       id="path4" />
    <path
       style="fill:#000000;fill-opacity:1;fill-rule:evenodd;stroke:none"
       d="m 113.1464,105.4383 -0.0933,-0.0198 -0.0913,-0.0607 -0.0778,-0.1002 -0.0269,-0.0598 -0.0155,-0.0612 -0.003,-0.041 0.0194,-0.0646 0.0543,-0.044 0.0532,-0.0106 0.1052,0.0201 0.1118,0.0634 0.0473,0.0447 0.0372,0.0514 0.0226,0.0499 0.0104,0.0529 5e-4,0.014 -0.005,0.0453 -0.0151,0.0403 -0.0237,0.0336 -0.0315,0.0255 -0.0365,0.0154 z"
       id="path5" />
    <path
       style="fill:#000000;fill-opacity:1;fill-rule:evenodd;stroke:none"
       d="m 112.1888,106.8195 0.1578,0.1223 0.2001,0.1731 0.1501,0.1464 0.1338,0.1519 0.0727,0.1012 0.0526,0.0966 0.0221,0.0635 0.008,0.0589 -0.005,0.0324 -0.0148,0.0276 -0.0229,0.02 -0.03,0.0108 -0.0157,10e-4 -0.0928,-0.0222 -0.1429,-0.0846 -0.0919,-0.0748 -0.1009,-0.0965 -0.1121,-0.123 -0.1196,-0.1483 -0.233,-0.3375 -0.8124,-0.6082 0.0193,-0.162 0.5852,0.4203 0.008,-0.008 -0.2889,-0.5398 -0.0119,-0.0218 -0.045,-0.0879 -0.0238,-0.0871 0.0194,-0.077 0.0285,-0.0513 0.0375,-0.0424 0.0295,-0.0189 0.0313,-0.007 0.0564,0.0183 0.0727,0.0701 0.0172,0.0195 0.4121,0.4553 0.1259,0.1077 0.1614,0.0879 0.0831,0.0288 0.0729,0.0143 0.0455,4e-4 0.0415,-0.007 0.0197,-0.0289 4e-4,-0.002 0.002,-0.0626 -0.008,-0.0569 -0.0446,-0.0999 -0.0852,-0.0917 -0.1414,-0.0949 -0.1295,-0.0694 -0.0864,-0.0455 -0.4389,-0.2391 -0.0823,-0.0661 -0.032,-0.043 -0.0128,-0.0491 0.0189,-0.0462 0.0559,-0.0329 0.0962,-0.0175 0.033,1e-4 0.1617,0.0358 0.2538,0.1027 0.1378,0.0735 0.1362,0.0865 0.1132,0.0854 0.1032,0.0935 0.076,0.0843 0.0634,0.089 0.0422,0.0787 0.0298,0.0814 0.0185,0.1305 -0.006,0.0863 -0.0179,0.0936 -0.0273,0.0813 -0.0391,0.0738 -0.0387,0.0478 -0.0468,0.037 -0.0447,0.0205 -0.0508,0.01 -0.0178,6e-4 -0.1014,-0.0199 -0.1506,-0.0724 -0.207,-0.1434 -0.2316,-0.2025 -0.0639,-0.0664 -0.008,0.008 z"
       id="path6" />
    <path
       style="fill:#000000;fill-opacity:1;fill-rule:evenodd;stroke:none"
       d="m 109.6731,106.2794 0.1569,0.1187 0.0932,0.053 0.081,0.0221 0.0454,-0.0182 0.0168,-0.0225 0.007,-0.0265 10e-5,-0.003 -0.0198,-0.0996 -0.0651,-0.1195 -0.1265,-0.1537 -0.0753,-0.0799 -0.1308,-0.1449 -0.0409,-0.062 -0.0151,-0.0534 0.0399,-0.1616 0.0178,-0.0476 0.0249,-0.0462 0.0226,-0.0229 0.0141,-0.005 0.0662,0.0205 0.1946,0.1095 0.1675,0.1129 0.1824,0.1361 0.1778,0.1466 0.1665,0.1542 0.1731,0.1922 0.0342,0.0344 0.0427,0.0199 0.0346,-0.0181 0.008,-0.0246 -0.0198,-0.0461 -0.0985,-0.1183 -0.0806,-0.0855 -0.1933,-0.2139 -0.067,-0.0956 -0.0259,-0.0761 -2e-4,-0.005 0.002,-0.0221 0.0223,-0.0247 0.0631,-0.0213 0.1242,-0.012 0.0809,0.007 0.0692,0.0392 0.1507,0.1552 0.0793,0.1045 0.0722,0.1127 0.0606,0.1147 0.0476,0.1154 0.0286,0.0983 0.0143,0.0936 0.001,0.0543 -0.009,0.1009 -0.027,0.1106 -0.0288,0.064 -0.0397,0.0523 -0.0356,0.0268 -0.0423,0.0156 -0.0327,0.003 -0.0643,-0.0192 -0.0895,-0.0689 -0.1403,-0.1608 -0.0101,-0.0128 -0.1268,-0.155 -0.1348,-0.1464 -0.1317,-0.1266 -0.1391,-0.1177 -0.0606,-0.0466 -0.008,0.008 0.0536,0.0761 0.0947,0.1359 0.0896,0.1477 0.0668,0.1532 0.0193,0.0767 0.007,0.0757 -0.005,0.0622 -0.0163,0.058 -0.0246,0.0468 -0.034,0.0389 -0.0378,0.0259 -0.0452,0.0165 -0.0523,0.006 -0.1083,-0.0201 -0.138,-0.0682 -0.1793,-0.1333 -0.2349,-0.2185 -0.0642,-0.0639 -0.1568,-0.1519 0.0307,-0.1704 z"
       id="path7" />
    <path
       style="fill:#000000;fill-opacity:1;fill-rule:evenodd;stroke:none"
       d="m 106.6346,104.2457 0.1645,0.0898 0.2775,0.201 0.172,0.144 0.167,0.1541 0.2179,0.2321 0.1229,0.1547 0.1114,0.161 0.0823,0.1395 0.0711,0.1444 0.0526,0.1325 0.0416,0.1365 0.0276,0.1295 0.0168,0.1332 0.005,0.1248 -0.007,0.1485 -0.031,0.1673 -0.0293,0.0804 -0.0406,0.0695 -0.0378,0.0407 -0.0454,0.03 -0.0436,0.0152 -0.0496,0.005 -0.134,-0.0199 -0.1528,-0.0637 -0.1738,-0.115 -0.1892,-0.1682 -0.0393,-0.0402 -0.125,-0.008 -0.1167,-0.0202 -0.0903,-0.0275 -0.0856,-0.0383 -0.0756,-0.0463 -0.0725,-0.0574 -0.0504,-0.0486 0.0387,-0.1268 0.0934,0.0639 0.0975,0.052 0.1041,0.0295 0.113,-0.003 -0.055,-0.1095 -0.0881,-0.1839 -0.0302,-0.0941 -0.0116,-0.0928 0.006,-0.0636 0.023,-0.0589 0.0243,-0.0268 0.0337,-0.0163 0.0281,-0.003 0.0976,0.0199 0.118,0.0669 0.1312,0.1219 0.1169,0.1642 0.0393,0.0819 0.0246,0.0786 0.008,0.0652 -0.005,0.0468 -0.0138,0.0405 -0.035,0.0625 0.0258,0.031 0.0978,0.1048 0.0611,0.0405 0.0732,0.0234 0.0391,-2e-4 0.0358,-0.0105 0.0611,-0.0504 0.0433,-0.0924 0.0131,-0.1334 -0.023,-0.1356 -0.6006,-0.5871 -0.3018,-0.3087 -0.1707,-0.1969 -0.1559,-0.2074 -0.0797,-0.1276 -0.061,-0.1234 -0.001,-0.004 h 0.2701 l 0.008,0.017 0.0669,0.1291 0.1414,0.2052 0.2739,0.323 0.4646,0.482 0.008,-0.008 -0.1768,-0.3014 -0.2246,-0.301 -0.2747,-0.2991 -0.2787,-0.2547 -0.008,0.008 h -0.2701 l -0.0292,-0.0842 -0.0151,-0.0827 -10e-4,-0.0291 0.005,-0.0485 0.0168,-0.0426 0.0229,-0.0278 0.0315,-0.0179 0.035,-0.005 z"
       id="path8" />
    <path
       style="fill:#000000;fill-opacity:1;fill-rule:evenodd;stroke:none"
       d="m 104.8352,106.2098 0.0309,-0.1424 0.8545,0.7581 0.008,-0.008 -0.5698,-0.8465 -0.0991,-0.162 -0.0416,-0.0927 -0.0171,-0.0836 0.0206,-0.1028 0.0254,-0.0539 0.0344,-0.0328 0.0235,-0.003 0.0557,0.0296 0.1601,0.139 0.154,0.1466 0.3464,0.3269 0.1255,0.1129 0.1338,0.1039 0.1418,0.0801 0.0737,0.0265 0.0756,0.015 -0.009,-0.0726 -0.0203,-0.069 -0.0437,-0.0814 -0.25,-0.2257 -0.1438,-0.1505 -0.1146,-0.1446 -0.0393,-0.0692 -0.0145,-0.0556 v -4e-4 l 0.0188,-0.0522 0.0732,-0.0867 0.0389,-0.0275 0.0346,-0.0106 0.0633,0.0229 0.1668,0.111 0.1119,0.0944 0.1139,0.113 0.0908,0.1067 0.0804,0.1148 0.0534,0.0967 0.0402,0.0994 0.0214,0.0835 0.009,0.0839 -1e-4,0.0275 -0.0259,0.1563 -0.0603,0.1327 -0.0868,0.1015 -0.0489,0.035 -0.047,0.0214 -0.0352,0.007 -0.0452,-0.0168 -0.1757,-0.1173 -0.422,-0.3354 -0.008,0.008 0.5159,0.87 0.0635,0.1112 0.0285,0.0648 0.0119,0.0551 -0.0226,0.1364 -0.0256,0.0638 -0.0361,0.0437 -0.0312,0.0101 -0.0457,-0.0188 -0.0788,-0.0748 -0.053,-0.0628 -0.0304,-0.0362 z"
       id="path9" />
    <path
       style="fill:#000000;fill-opacity:1;fill-rule:evenodd;stroke:none"
       d="m 118.5113,107.8233 0.1704,0.0439 0.1563,0.0721 0.1446,0.1014 0.1247,0.1263 0.0851,0.1329 0.0502,0.1417 0.017,0.154 -0.02,0.1629 -0.0577,0.1392 -0.0966,0.121 -0.1246,0.0927 -0.1417,0.0556 -0.1639,0.0192 -0.1597,-0.0154 -0.1486,-0.0454 -0.1409,-0.075 -0.1467,-0.1119 -0.0924,-0.1042 -0.0224,-0.0464 -0.007,-0.0414 0.0147,-0.0459 0.0397,-0.0167 0.0841,-0.009 0.0378,-0.0135 0.0207,-0.0266 0.009,-0.0549 -0.0192,-0.0749 -0.0605,-0.0629 -0.0868,-0.04 -0.1105,-0.0142 h -0.0335 l -0.0337,0.004 -0.1426,0.0231 -0.2309,0.0604 0.1113,0.1924 0.0649,0.1295 0.0168,0.0398 0.0169,0.0395 0.0293,0.09 0.0377,0.1148 0.0777,0.2305 0.0692,0.1674 0.0442,0.0923 0.0482,0.0795 0.0814,0.0984 0.1012,0.0775 0.1141,0.0528 0.1147,0.0225 h 0.0146 0.0147 l 0.0873,-0.0159 0.0807,-0.049 0.0577,-0.0707 0.0177,-0.0738 -0.002,-0.0271 -0.006,-0.0273 -0.0209,-0.0522 -0.0377,-0.0566 -0.0357,-0.0462 -0.0147,-0.0335 -0.004,-0.0167 v -0.0168 l 0.0143,-0.0502 0.0445,-0.0356 0.0655,-0.0195 0.1023,-0.008 0.1511,0.0127 0.1678,0.0375 0.1387,0.0462 0.1301,0.0544 0.152,0.093 0.1279,0.1147 0.1062,0.138 0.0797,0.1543 0.0472,0.1603 0.0158,0.169 -0.0172,0.1815 -0.0498,0.159 -0.0816,0.1412 -0.1157,0.1262 -0.1383,0.1007 -0.1576,0.073 -0.1805,0.0454 -0.208,0.016 -0.2344,-0.0168 -0.2237,-0.0496 -0.2155,-0.0827 -0.2013,-0.1127 -0.1763,-0.136 -0.1534,-0.1604 -0.0333,-0.0419 -0.0337,-0.042 -0.0777,-0.128 -0.0693,-0.1574 -0.0901,-0.3209 -0.1198,-0.51 -0.0544,-0.237 -0.0462,-0.1702 -0.0357,-0.1068 -0.0399,-0.0945 -0.0335,-0.0651 -0.0378,-0.0692 -0.0588,0.0104 -0.0293,0.006 -0.1092,0.0252 -0.1133,0.0251 -0.109,0.0253 -0.1554,0.0251 -0.1722,0.008 -0.1864,-0.0157 -0.1523,-0.0438 -0.1249,-0.0691 -0.1009,-0.0964 -0.0579,-0.109 -0.0195,-0.1259 h 0.7134 l 0.0103,0.0424 0.0316,0.033 0.0468,0.0201 0.0666,0.008 0.1154,-0.0119 0.17,-0.0396 -0.0985,-0.0694 -0.0861,-0.0418 -0.061,-0.0157 -0.0693,-0.004 -0.0546,0.006 -0.0375,0.0157 -0.0256,0.0258 -0.008,0.0318 h -0.7134 l -1e-4,-8e-4 0.0206,-0.1172 0.0629,-0.1056 0.1138,-0.0986 0.137,-0.0712 0.1579,-0.0442 0.1835,-0.0154 0.2378,0.0223 0.2218,0.066 0.2071,0.1076 0.198,0.1525 0.0608,-0.0293 0.0524,-0.0253 0.008,-0.006 0.008,-0.002 0.0988,-0.046 0.1362,-0.0588 0.3673,-0.1411 0.1395,-0.0376 0.1271,-0.0217 0.0754,-0.007 0.0757,-0.002 z"
       id="path10" />
    <path
       style="fill:#000000;fill-opacity:1;fill-rule:evenodd;stroke:none"
       d="m 116.3087,110.195 -0.1468,-0.687 -0.0126,-0.0736 -0.004,-0.0612 0.006,-0.0441 0.0172,-0.0381 0.0279,-0.0325 0.0413,-0.0287 -0.1494,-0.1095 -0.138,-0.0737 -0.1408,-0.0465 -0.1301,-0.0147 -0.1008,0.0142 -0.0712,0.0384 -0.0478,0.0612 -0.0195,0.0835 v 0.0443 l 0.008,0.0444 0.1427,0.6721 0.002,0.0168 0.006,0.0169 0.006,0.0423 0.002,0.0339 -0.009,0.0625 -0.0246,0.0452 -0.0393,0.0298 -0.0532,0.0103 h -0.0147 -0.0104 l -0.0273,-0.008 -0.0231,-0.009 -0.065,-0.0251 -0.0442,-0.008 -0.0397,0.0189 -0.0189,0.0524 0.0253,0.0841 0.067,0.0921 0.0504,0.0441 0.0586,0.044 0.0946,0.0546 0.0943,0.0462 0.1553,0.0461 0.1427,0.0169 0.1114,-0.0113 0.0932,-0.0318 0.0788,-0.0516 0.0618,-0.0697 0.0367,-0.081 0.0127,-0.0961 -0.002,-0.0357 -0.002,-0.0401 -0.006,-0.0189 z"
       id="path11" />
    <path
       style="fill:#000000;fill-opacity:1;fill-rule:evenodd;stroke:none"
       d="m 115.6078,108.206 -0.1357,0.0203 -0.0993,0.0562 -0.0488,0.056 -0.0292,0.0658 -0.0101,0.0786 0.0147,0.0874 0.0454,0.0831 0.0826,0.082 0.0999,0.0618 0.1096,0.0371 0.122,0.0126 0.1203,-0.0194 0.0917,-0.0549 0.0612,-0.0844 0.0207,-0.106 -0.0143,-0.096 -0.0428,-0.0871 -0.0752,-0.0814 -0.0933,-0.0619 -0.1032,-0.0371 z"
       id="path12" />
    <path
       style="fill:#000000;fill-opacity:1;fill-rule:evenodd;stroke:none"
       d="m 115.018,110.7115 -0.2644,-1.1969 -0.0146,-0.0945 -0.006,-0.065 0.005,-0.0437 0.0155,-0.0342 0.0266,-0.0284 0.0447,-0.0282 -0.1596,-0.1091 -0.1361,-0.0693 -0.137,-0.043 -0.1297,-0.0138 -0.1109,0.0157 -0.0715,0.0411 -0.046,0.0684 -0.0233,0.1098 -0.1431,-0.1078 -0.1402,-0.0726 -0.1464,-0.0443 -0.1453,-0.0145 -0.1083,0.0113 -0.0896,0.0318 -0.0748,0.0516 -0.0581,0.0689 -0.0348,0.0808 -0.0121,0.0963 0.002,0.0421 0.006,0.0462 0.002,0.0169 0.006,0.0168 0.1216,0.5259 0.0146,0.0695 0.006,0.0483 -0.006,0.0428 -0.0274,0.0373 -0.0421,0.0248 -0.0545,0.009 -0.0399,-0.004 -0.0357,-0.008 -0.0671,-0.0209 -0.0419,-0.008 -0.0266,0.005 -0.0196,0.0157 -0.0168,0.0542 0.0123,0.0538 0.0444,0.0693 0.0643,0.0664 0.0931,0.0734 0.0958,0.0566 0.1035,0.0441 0.108,0.0306 0.1082,0.0156 0.0357,0.004 h 0.0355 l 0.1169,-0.0113 0.0927,-0.0315 0.0738,-0.0497 0.0564,-0.0676 0.0343,-0.0814 0.0121,-0.0992 -0.002,-0.0273 -0.002,-0.0317 -0.006,-0.0124 -0.002,-0.0169 -0.0921,-0.446 -0.002,-0.0105 -0.002,-0.0106 -0.006,-0.0398 -0.002,-0.0316 0.008,-0.046 0.0233,-0.0339 0.0359,-0.0217 0.0501,-0.008 0.0735,0.0163 0.0651,0.0511 0.0494,0.0767 0.0387,0.1125 0.1132,0.5049 0.0439,0.1191 0.0675,0.0871 0.0888,0.0569 0.1021,0.0188 h 0.1762 l 0.1198,0.0104 0.0944,0.04 0.0293,0.0188 0.0293,0.0231 z"
       id="path13" />
    <path
       style="fill:#000000;fill-opacity:1;fill-rule:evenodd;stroke:none"
       d="m 112.0011,109.0172 0.1583,0.061 0.1565,0.1063 0.1573,0.1603 0.1277,0.1821 0.0889,0.1879 0.053,0.1961 0.0178,0.2073 -0.0146,0.1588 -0.0413,0.1309 -0.0657,0.1085 -0.09,0.0868 -0.1007,0.0501 -0.1158,0.017 -0.0754,-0.008 -0.0799,-0.0209 -0.1132,-0.0546 -0.1008,-0.0798 -0.0209,-0.0167 -0.0168,-0.0211 -0.0104,-0.008 -0.0107,-0.008 -0.0712,-0.0819 -0.1134,-0.1407 0.004,0.0526 v 0.0439 l -0.0112,0.0939 -0.0321,0.0794 -0.0532,0.0682 -0.0694,0.0518 -0.0814,0.0315 -0.0969,0.011 -0.1028,-0.008 -0.1027,-0.0209 -0.0952,-0.0313 -0.0957,-0.0444 -0.0909,-0.0556 -0.0835,-0.066 -0.0229,-0.0189 -0.0233,-0.0232 -0.0628,-0.0783 -0.0211,-0.0738 0.0211,-0.0527 0.0462,-0.0233 0.0419,0.006 0.0588,0.0191 0.0147,0.006 0.0146,0.002 0.0273,0.006 0.0315,0.002 0.0471,-0.009 0.041,-0.027 0.0277,-0.0385 0.006,-0.0395 -0.006,-0.057 -0.0188,-0.0908 -0.0832,-0.375 h 0.6497 v 0.006 0.006 l 0.0202,0.1003 0.0533,0.095 0.076,0.0694 0.0771,0.0207 0.0607,-0.011 0.0423,-0.0309 0.026,-0.0474 0.01,-0.066 -0.0182,-0.1026 -0.0552,-0.0905 -0.0797,-0.0631 -0.0819,-0.0166 -0.0573,0.0123 -0.039,0.0255 -0.0249,0.0385 -0.009,0.0538 h -0.6497 l -0.0722,-0.3255 -0.0104,-0.0464 -0.002,-0.0339 0.0128,-0.0649 0.0376,-0.0503 0.0568,-0.0325 0.0774,-0.0116 0.0422,0.002 0.0375,0.006 0.1238,0.0483 0.1785,0.1153 0.0864,-0.081 0.0962,-0.0553 0.1063,-0.0329 0.1181,-0.0113 z"
       id="path14" />
    <path
       style="fill:#000000;fill-opacity:1;fill-rule:evenodd;stroke:none"
       d="m 109.9116,107.9949 0.1405,0.0462 0.1511,0.0819 0.1385,0.107 -0.0516,0.0288 -0.0261,0.0278 -0.0133,0.0365 -0.005,0.0622 0.002,0.0482 0.002,0.0357 0.002,0.0126 0.002,0.0125 0.277,1.3244 0.0208,0.1356 0.008,0.1187 -0.0217,0.1665 -0.0624,0.1398 -0.1048,0.1196 -0.1342,0.0887 -0.16,0.0549 -0.1927,0.0194 -0.217,-0.0211 -0.2009,-0.0622 -0.189,-0.1045 -0.1799,-0.1509 -0.1501,-0.1802 -0.1043,-0.1905 -0.0624,-0.2038 -0.0151,-0.1579 h 0.699 l 0.0182,0.1033 0.0553,0.0925 0.081,0.0657 0.089,0.0206 0.0502,-0.0104 0.0421,-0.0317 0.0281,-0.0466 0.01,-0.0585 -0.0179,-0.1111 -0.0533,-0.0952 -0.0789,-0.0676 -0.0849,-0.0209 -0.0606,0.0111 -0.0421,0.031 -0.0261,0.0481 -0.01,0.0697 h -0.699 l -0.006,-0.0635 0.0168,-0.1552 0.0479,-0.1285 0.078,-0.1078 0.1036,-0.0825 0.1239,-0.0502 0.1502,-0.0177 0.0903,0.004 0.0861,0.0169 0.1216,0.0504 0.1427,0.0838 -0.1804,-0.8772 -0.002,-0.0147 -0.002,-0.0146 -0.002,-0.0315 -0.002,-0.0273 0.0174,-0.0763 0.054,-0.0642 0.0781,-0.0421 0.0981,-0.0147 z"
       id="path15" />
    <path
       style="fill:#000000;fill-opacity:1;fill-rule:evenodd;stroke:none"
       d="m 107.7538,109.0044 0.1998,0.0558 0.1863,0.0927 0.1756,0.1322 0.1501,0.1615 0.1025,0.1686 0.0606,0.1783 0.0204,0.1921 -0.0135,0.1509 -0.0387,0.1309 -0.063,0.1149 -0.0883,0.1014 -0.107,0.0818 -0.1208,0.0589 -0.1374,0.0365 -0.1574,0.0127 -0.1912,-0.0181 -0.1928,-0.0553 -0.1864,-0.089 -0.1893,-0.1272 -0.1004,-0.09 -0.0674,-0.078 -0.0456,-0.0802 -0.0132,-0.0665 0.007,-0.0421 0.0201,-0.0293 0.0304,-0.0187 0.0388,-0.006 h 0.0169 l 0.0167,0.004 0.0337,0.0106 0.0335,0.0147 0.1405,0.0861 0.0357,0.0188 0.008,0.006 0.0127,0.006 0.0504,0.0233 0.0503,0.0188 0.1343,0.044 0.1174,0.0146 0.0862,-0.0126 0.0672,-0.0359 0.0454,-0.0564 0.0154,-0.0727 v -0.0211 l -0.2613,-0.0326 -0.2149,-0.0639 -0.1765,-0.0916 -0.117,-0.094 -0.0774,-0.0981 -0.0446,-0.1036 -0.0107,-0.0806 h 0.5246 l 0.019,0.0629 0.0629,0.0547 0.0942,0.038 0.1597,0.0333 -0.0441,-0.1239 -0.0566,-0.0859 -0.0727,-0.0579 -0.0742,-0.0177 -0.0347,0.007 -0.0282,0.0205 -0.0187,0.0304 -0.007,0.0388 h -0.5246 l -0.004,-0.0319 0.0172,-0.1224 0.0503,-0.1041 0.0858,-0.0906 0.1081,-0.0665 0.129,-0.0415 0.1551,-0.0147 z"
       id="path16" />
    <path
       style="fill:#000000;fill-opacity:1;fill-rule:evenodd;stroke:none"
       d="m 106.7806,110.197 -0.3733,-1.7042 -0.006,-0.0166 -0.002,-0.0169 -0.006,-0.046 -0.002,-0.0421 0.005,-0.0542 0.0134,-0.0319 0.0251,-0.0239 0.0484,-0.0243 -0.1532,-0.1196 -0.1657,-0.0861 -0.1176,-0.0335 -0.1132,-0.0126 -0.1087,0.0157 -0.0782,0.0431 -0.0516,0.0676 -0.0176,0.0877 v 0.0189 l 0.004,0.0188 0.002,0.0231 0.002,0.0189 0.3819,1.7208 0.002,0.0146 0.002,0.0147 0.002,0.0273 0.002,0.0315 -0.009,0.046 -0.0267,0.0359 -0.0396,0.0233 -0.0507,0.008 h -0.0188 l -0.0231,-0.004 -0.0189,-0.004 -0.0189,-0.009 -0.0586,-0.0208 -0.0379,-0.008 -0.0272,0.003 -0.0232,0.0163 -0.021,0.0524 v 0.004 l 0.0106,0.0422 0.0273,0.0523 0.0965,0.107 0.0356,0.0313 0.0399,0.0315 0.1595,0.0861 0.172,0.0524 0.0799,0.0127 0.0755,0.004 0.1111,-0.0114 0.0931,-0.0325 0.079,-0.0527 0.0617,-0.0707 0.0367,-0.0826 0.0128,-0.0984 v -0.0273 l -0.004,-0.0272 -0.002,-0.0251 z"
       id="path17" />
  </g>
  <g
     style="fill:none;stroke:#000000;stroke-width:0.1;stroke-linecap:round;stroke-linejoin:round;stroke-opacity:1"
     id="g1645"
     transform="matrix(-1,0,0,1,119.8481,-104.1491)">
    <path
       style="fill:#000000;fill-opacity:1;fill-rule:evenodd;stroke:none"
       d="m 113.3493,113.7608 v 0 3e-4 l -1e-4,0.001 -0.003,0.0116 6e-4,-0.004 6e-4,-0.003 5e-4,-0.003 5e-4,-0.002 3e-4,-0.001 1e-4,-4e-4 1e-4,-2e-4 z"
       id="path1639" />
    <path
       style="fill:#000000;fill-opacity:1;fill-rule:evenodd;stroke:none"
       d="m 113.3509,113.7646 0.002,0.002 0.002,0.001 0.001,0.001 10e-4,7e-4 0.001,4e-4 0.001,2e-4 10e-4,-1e-4 0.001,-2e-4 9e-4,-4e-4 10e-4,-6e-4 8e-4,-6e-4 10e-4,-0.001 0.001,-10e-4 0.001,-0.002 h 2e-4 v 2e-4 l -1e-4,10e-4 -0.004,0.0205 -0.005,0.0145 -0.005,0.0111 -0.004,0.008 -0.002,0.003 -0.001,0.002 -10e-4,0.002 -0.001,10e-4 -9e-4,6e-4 -9e-4,1e-4 -6e-4,-5e-4 -6e-4,-9e-4 -4e-4,-0.001 -3e-4,-0.002 -2e-4,-0.004 1e-4,-0.005 4e-4,-0.006 6e-4,-0.007 0.002,-0.0141 0.002,-0.0129 0.001,-0.006 7e-4,-0.003 4e-4,-0.001 3e-4,-0.001 z"
       id="path1640" />
    <path
       style="fill:#000000;fill-opacity:1;fill-rule:evenodd;stroke:none"
       d="m 113.2294,113.5341 -0.001,0.0481 -0.003,0.0475 -0.0123,0.0929 -0.0195,0.0896 -0.0265,0.0859 -0.033,0.0816 -0.0392,0.0768 -0.0451,0.0715 -0.0247,0.0337 -0.0259,0.0321 -0.0273,0.0305 -0.0284,0.0289 -0.0297,0.0272 -0.0309,0.0254 -0.0319,0.0236 -0.033,0.0217 -0.034,0.0198 -0.035,0.0177 -0.036,0.0156 -0.0368,0.0135 -0.0377,0.0113 -0.0384,0.009 -0.0392,0.007 -0.04,0.004 -0.0401,0.002 -0.0397,-7e-4 -0.0394,-0.003 -0.0389,-0.005 -0.0384,-0.008 -0.0379,-0.0101 -0.0373,-0.0123 -0.0366,-0.0144 -0.0358,-0.0165 -0.0352,-0.0186 -0.0342,-0.0205 -0.0335,-0.0224 -0.0325,-0.0243 -0.0315,-0.0261 -0.0304,-0.0279 -0.0294,-0.0296 -0.0283,-0.0312 -0.027,-0.0327 -0.0258,-0.0343 -0.0245,-0.0358 -0.0231,-0.0372 -0.0218,-0.0386 -0.0202,-0.0398 -0.0188,-0.0411 -0.0172,-0.0423 -0.0155,-0.0434 -0.0139,-0.0445 -0.0122,-0.0455 -0.0103,-0.0465 -0.009,-0.0474 -0.007,-0.0482 -0.005,-0.049 -0.002,-0.0397 h 0.2428 l 2e-4,0.0678 0.005,0.066 0.0102,0.0638 0.015,0.0614 0.0195,0.0585 0.0237,0.0552 0.0278,0.0516 0.0317,0.0477 0.0352,0.0433 0.0189,0.0199 0.0198,0.0187 0.0205,0.0174 0.0213,0.0161 0.022,0.0147 0.0228,0.0134 0.0234,0.0118 0.0241,0.0104 0.0247,0.009 0.0253,0.007 0.0259,0.006 0.0264,0.004 0.0266,0.002 0.0265,4e-4 0.0263,-10e-4 0.0261,-0.003 0.0258,-0.005 0.0255,-0.006 0.0251,-0.008 0.0248,-0.009 0.0244,-0.0108 0.0239,-0.0124 0.0234,-0.0137 0.023,-0.0152 0.0223,-0.0164 0.0218,-0.0178 0.0211,-0.019 0.0205,-0.0203 0.0197,-0.0214 0.019,-0.0226 0.0182,-0.0237 0.0174,-0.0248 0.0165,-0.0258 0.0157,-0.0268 0.0147,-0.0277 0.0137,-0.0287 0.0127,-0.0295 0.0117,-0.0304 0.0106,-0.0312 0.01,-0.0319 0.008,-0.0327 0.007,-0.0333 0.006,-0.034 0.005,-0.0346 0.005,-0.0691 -2e-4,-0.0678 -0.005,-0.066 -0.0103,-0.0639 -0.0149,-0.0613 -0.0195,-0.0585 -0.0238,-0.0553 -0.0278,-0.0516 -0.0316,-0.0477 -0.0353,-0.0433 -0.0189,-0.0199 -0.0197,-0.0187 -0.0206,-0.0174 -0.0213,-0.0161 -0.022,-0.0147 -0.0227,-0.0133 -0.0235,-0.0119 -0.024,-0.0104 -0.0248,-0.009 -0.0253,-0.007 -0.0258,-0.005 -0.0265,-0.004 -0.0266,-0.002 -0.0265,-4e-4 -0.0263,0.001 -0.026,0.003 -0.0258,0.005 -0.0255,0.006 -0.0252,0.008 -0.0248,0.009 -0.0243,0.0109 -0.024,0.0123 -0.0234,0.0138 -0.0229,0.0151 -0.0224,0.0165 -0.0217,0.0177 -0.0212,0.0191 -0.0204,0.0202 -0.0197,0.0215 -0.019,0.0226 -0.0182,0.0237 -0.0174,0.0247 -0.0166,0.0258 -0.0156,0.0268 -0.0147,0.0278 -0.0137,0.0286 -0.0128,0.0296 -0.0116,0.0303 -0.0106,0.0312 -0.01,0.0319 -0.008,0.0327 -0.007,0.0333 -0.006,0.034 -0.005,0.0346 -0.005,0.0692 h -0.2428 l -5e-4,-0.01 -7e-4,-0.0487 0.001,-0.0481 0.003,-0.0475 0.0123,-0.0929 0.0195,-0.0896 0.0265,-0.0859 0.033,-0.0816 0.0392,-0.0768 0.0451,-0.0716 0.0246,-0.0336 0.026,-0.0321 0.0272,-0.0305 0.0285,-0.0289 0.0297,-0.0272 0.0308,-0.0254 0.032,-0.0236 0.033,-0.0217 0.034,-0.0198 0.035,-0.0177 0.0359,-0.0156 0.0368,-0.0135 0.0377,-0.0113 0.0384,-0.009 0.0393,-0.007 0.0399,-0.004 0.0401,-0.002 0.0398,7e-4 0.0393,0.003 0.039,0.005 0.0384,0.008 0.0378,0.0101 0.0373,0.0123 0.0366,0.0144 0.0359,0.0165 0.0351,0.0186 0.0343,0.0205 0.0334,0.0224 0.0325,0.0243 0.0315,0.0262 0.0305,0.0278 0.0294,0.0296 0.0282,0.0312 0.0271,0.0327 0.0258,0.0344 0.0245,0.0357 0.0231,0.0372 0.0217,0.0386 0.0203,0.0398 0.0187,0.0411 0.0172,0.0423 0.0156,0.0434 0.0139,0.0445 0.0121,0.0455 0.0104,0.0465 0.009,0.0473 0.007,0.0483 0.005,0.049 0.003,0.0492 10e-5,0.008 z"
       id="path1641" />
    <path
       style="fill:#000000;fill-opacity:1;fill-rule:evenodd;stroke:none"
       d="m 109.976,111.7507 0.005,6e-4 0.005,9e-4 0.002,6e-4 0.002,7e-4 0.002,8e-4 0.002,0.001 0.002,10e-4 0.002,0.001 0.002,0.001 0.002,10e-4 0.002,0.001 0.002,0.002 0.002,0.002 0.001,0.002 0.001,0.002 10e-4,0.002 0.001,0.002 0.001,0.002 9e-4,0.002 8e-4,0.003 6e-4,0.003 6e-4,0.003 4e-4,0.003 3e-4,0.003 2e-4,0.003 v 0.004 0.004 l -2e-4,0.004 -0.003,2.5516 -2e-4,0.008 -5e-4,0.007 -9e-4,0.007 -6e-4,0.003 -7e-4,0.003 -8e-4,0.003 -9e-4,0.003 -0.001,0.003 -10e-4,0.003 -0.001,0.002 -0.001,0.002 -0.002,0.002 -0.002,0.002 -0.002,0.002 -0.002,0.002 -0.002,0.002 -0.002,0.002 -0.002,0.002 -0.002,0.001 -0.003,0.001 -0.003,10e-4 -0.003,0.001 -0.003,0.001 -0.003,9e-4 -0.003,9e-4 -0.008,0.002 -0.008,0.001 h -1.1164 l -0.0102,6e-4 -0.01,-0.001 -0.009,-0.003 -0.009,-0.004 -0.008,-0.006 -0.008,-0.007 -0.007,-0.009 -0.007,-0.009 -0.006,-0.0106 -0.006,-0.0114 -0.005,-0.0122 -0.005,-0.0128 -0.004,-0.0134 -0.003,-0.0137 -0.002,-0.0141 -0.002,-0.0142 -10e-4,-0.0142 -2e-4,-0.0142 6e-4,-0.0141 10e-4,-0.0137 0.002,-0.0133 0.003,-0.0128 0.004,-0.0121 0.005,-0.0114 0.006,-0.0106 0.007,-0.01 0.008,-0.008 0.009,-0.007 0.0101,-0.006 0.0111,-0.004 0.0122,-0.003 0.0134,-0.001 0.8601,0.002 0.006,-1e-4 0.005,-4e-4 0.003,-4e-4 0.002,-4e-4 0.002,-6e-4 0.002,-6e-4 0.002,-8e-4 0.002,-8e-4 0.002,-10e-4 0.001,-0.001 0.001,-0.001 10e-4,-10e-4 0.001,-0.001 0.001,-0.002 9e-4,-0.002 8e-4,-0.002 7e-4,-0.002 6e-4,-0.002 10e-4,-0.004 7e-4,-0.005 5e-4,-0.005 3e-4,-0.006 1e-4,-0.007 10e-5,-0.007 v -0.8217 l -3e-4,-0.004 -4e-4,-0.004 -5e-4,-0.004 -6e-4,-0.003 -7e-4,-0.003 -8e-4,-0.003 -8e-4,-0.003 -0.001,-0.003 -10e-4,-0.002 -0.001,-0.002 -0.001,-0.002 -10e-4,-0.002 -0.001,-0.002 -0.002,-0.002 -0.002,-10e-4 -0.002,-0.001 -0.002,-0.001 -0.002,-10e-4 -0.002,-0.001 -0.002,-9e-4 -0.002,-7e-4 -0.002,-7e-4 -0.005,-0.001 -0.005,-8e-4 -0.006,-4e-4 -0.006,-3e-4 -0.006,-10e-5 h -0.792 l -0.0113,-8e-4 -0.0105,-0.002 -0.01,-0.004 -0.009,-0.005 -0.008,-0.007 -0.007,-0.008 -0.007,-0.009 -0.006,-0.01 -0.005,-0.011 -0.004,-0.0118 -0.004,-0.0123 -0.003,-0.013 -0.002,-0.0134 -10e-4,-0.0137 -6e-4,-0.0139 1e-4,-0.0141 9e-4,-0.014 0.002,-0.014 0.002,-0.0137 0.003,-0.0134 0.004,-0.0129 0.005,-0.0124 0.005,-0.0117 0.006,-0.011 0.007,-0.0101 0.008,-0.009 0.008,-0.008 0.009,-0.007 0.01,-0.005 0.0108,-0.004 0.0115,-0.002 0.0123,-8e-4 0.8172,8e-4 0.003,-4e-4 0.002,-5e-4 0.001,-4e-4 10e-4,-4e-4 0.001,-5e-4 0.001,-5e-4 10e-4,-6e-4 0.001,-7e-4 0.001,-7e-4 9e-4,-8e-4 9e-4,-9e-4 8e-4,-9e-4 8e-4,-0.001 8e-4,-10e-4 7e-4,-0.001 7e-4,-0.001 10e-4,-0.003 0.001,-0.003 8e-4,-0.003 8e-4,-0.003 5e-4,-0.004 4e-4,-0.004 2e-4,-0.004 -0.003,-0.7973 -0.001,-0.006 -0.001,-0.005 -0.002,-0.005 -0.001,-0.002 -10e-4,-0.002 -0.001,-0.002 -0.001,-0.002 -0.002,-0.002 -0.002,-0.002 -0.002,-0.002 -0.002,-0.002 -0.002,-0.001 -0.002,-0.001 -0.005,-0.002 -0.005,-0.002 -0.006,-0.002 -0.007,-0.002 -0.007,-0.001 -0.008,-10e-4 -0.009,-8e-4 -0.009,-7e-4 h -0.819 l -0.008,-0.001 -0.008,-10e-4 -0.007,-0.002 -0.007,-0.002 -0.007,-0.002 -0.003,-0.002 -0.003,-10e-4 -0.003,-0.002 -0.003,-0.002 -0.003,-0.002 -0.003,-0.002 -0.002,-0.002 -0.002,-0.003 -0.002,-0.003 -0.002,-0.003 -0.002,-0.003 -0.002,-0.003 -0.002,-0.004 -0.002,-0.004 -10e-4,-0.004 -0.001,-0.004 -0.001,-0.005 -10e-4,-0.005 -0.001,-0.005 -8e-4,-0.005 -8e-4,-0.006 -5e-4,-0.006 1e-4,-0.0115 -4e-4,-0.013 -0.001,-0.0295 -4e-4,-0.0158 2e-4,-0.0161 9e-4,-0.0161 9e-4,-0.008 0.001,-0.008 0.002,-0.008 0.002,-0.007 0.002,-0.007 0.003,-0.007 0.003,-0.007 0.004,-0.006 0.004,-0.006 0.005,-0.005 0.005,-0.005 0.006,-0.004 0.007,-0.004 0.007,-0.003 0.008,-0.003 0.009,-0.002 0.01,-0.001 0.0104,-6e-4 h 1.1245 z"
       id="path1642" />
    <path
       style="fill:#000000;fill-opacity:1;fill-rule:evenodd;stroke:none"
       d="m 110.9602,111.7026 0.0148,9e-4 0.0148,10e-4 0.0147,0.002 0.0147,0.002 0.0146,0.003 0.0146,0.003 0.0144,0.004 0.0143,0.004 0.0142,0.004 0.028,0.009 0.0117,0.004 0.0117,0.005 0.0117,0.005 0.0117,0.005 0.0117,0.006 0.0115,0.006 0.0115,0.006 0.0113,0.007 0.0112,0.007 0.0109,0.007 0.0107,0.007 0.0105,0.008 0.0101,0.008 0.01,0.008 0.009,0.008 0.009,0.008 0.0159,0.0159 0.0151,0.0168 0.0141,0.0175 0.0134,0.0183 0.0125,0.0189 0.0118,0.0195 0.011,0.02 0.0104,0.0205 0.01,0.0208 0.009,0.0211 0.008,0.0214 0.008,0.0215 0.007,0.0216 0.007,0.0216 0.012,0.0431 0.006,0.023 0.005,0.0232 0.004,0.0233 0.004,0.0233 0.003,0.0235 0.003,0.0235 0.002,0.0236 0.002,0.0237 7e-4,0.0151 4e-4,0.0153 v 0.0309 l -0.001,0.0625 -5e-4,0.0312 3e-4,0.031 6e-4,0.0154 10e-4,0.0152 0.001,0.0151 0.002,0.0149 0.1446,0.001 0.0118,0.001 0.011,0.003 0.0104,0.004 0.01,0.005 0.009,0.006 0.008,0.007 0.007,0.008 0.007,0.009 0.006,0.01 0.005,0.0103 0.004,0.0109 0.004,0.0114 0.003,0.0117 0.002,0.0119 0.001,0.0121 6e-4,0.0122 -10e-5,0.0121 -9e-4,0.012 -0.002,0.0118 -0.002,0.0115 -0.003,0.011 -0.004,0.0106 -0.005,0.01 -0.005,0.009 -0.006,0.008 -0.007,0.008 -0.008,0.007 -0.009,0.005 -0.009,0.004 -0.0102,0.003 -0.0109,0.002 -0.0118,3e-4 -0.0476,4e-4 -0.0494,9e-4 -0.0544,10e-4 -0.003,1.4893 -10e-5,0.009 -7e-4,0.008 -10e-4,0.008 -0.002,0.007 -0.002,0.007 -0.003,0.006 -0.003,0.005 -0.004,0.005 -0.004,0.005 -0.005,0.004 -0.005,0.004 -0.005,0.003 -0.005,0.003 -0.005,0.002 -0.006,0.002 -0.006,0.002 -0.0121,0.003 -0.0122,0.002 -0.0122,8e-4 -0.0117,3e-4 -0.0376,-0.001 -0.033,0.001 h -0.011 l -0.0115,-5e-4 -0.0118,-10e-4 -0.006,-0.001 -0.006,-0.001 -0.006,-10e-4 -0.006,-0.002 -0.006,-0.002 -0.005,-0.002 -0.005,-0.003 -0.005,-0.003 -0.005,-0.004 -0.004,-0.004 -0.004,-0.005 -0.003,-0.005 -0.003,-0.005 -0.003,-0.006 -0.002,-0.007 -0.001,-0.007 -9e-4,-0.008 -3e-4,-0.009 0.005,-1.4947 -0.3784,-0.005 -0.003,1.2082 -5e-4,0.0149 -0.002,0.0165 -0.002,0.0179 -0.003,0.0188 -0.004,0.0197 -0.005,0.0202 -0.006,0.0205 -0.006,0.0206 -0.007,0.0203 -0.008,0.0199 -0.008,0.0191 -0.009,0.0182 -0.009,0.0169 -0.01,0.0154 -0.0101,0.0137 -0.0104,0.0117 -0.006,0.006 -0.007,0.006 -0.007,0.006 -0.007,0.006 -0.007,0.006 -0.007,0.006 -0.007,0.005 -0.008,0.005 -0.008,0.005 -0.008,0.005 -0.008,0.005 -0.008,0.004 -0.008,0.004 -0.008,0.004 -0.008,0.004 -0.008,0.004 -0.0147,0.006 -0.0149,0.005 -0.0151,0.004 -0.0152,0.003 -0.0153,0.002 -0.0154,0.002 -0.0155,0.001 -0.0156,3e-4 -0.0156,-3e-4 -0.0156,-7e-4 -0.0156,-10e-4 -0.0156,-0.001 -0.0311,-0.004 -0.0307,-0.005 -0.0133,-0.002 -0.0138,-0.003 -0.014,-0.003 -0.0142,-0.004 -0.0143,-0.004 -0.0142,-0.005 -0.0141,-0.005 -0.0137,-0.006 -0.0134,-0.007 -0.0128,-0.007 -0.006,-0.004 -0.006,-0.004 -0.006,-0.004 -0.006,-0.005 -0.005,-0.005 -0.005,-0.005 -0.005,-0.005 -0.005,-0.005 -0.004,-0.006 -0.004,-0.006 -0.004,-0.006 -0.003,-0.006 -0.003,-0.0126 -0.002,-0.0129 -0.002,-0.0133 -0.001,-0.0135 -8e-4,-0.0136 -5e-4,-0.0139 -1e-4,-0.0139 3e-4,-0.0139 10e-4,-0.0279 0.002,-0.0274 0.003,-0.0267 0.003,-0.0254 10e-4,-0.004 0.001,-0.004 0.001,-0.004 0.002,-0.004 9e-4,-0.002 10e-4,-0.002 0.001,-0.001 0.001,-10e-4 10e-4,-0.001 0.001,-0.001 0.001,-10e-4 10e-4,-9e-4 0.001,-8e-4 0.002,-6e-4 0.002,-4e-4 0.002,-3e-4 0.002,-1e-4 0.002,1e-4 0.002,3e-4 0.002,4e-4 0.002,7e-4 0.002,9e-4 0.002,0.001 0.003,0.001 0.003,0.002 0.003,0.002 0.003,0.002 0.003,0.002 0.0111,0.008 0.0117,0.007 0.0121,0.007 0.0125,0.007 0.0129,0.006 0.0132,0.006 0.0134,0.005 0.0135,0.005 0.0137,0.004 0.0138,0.004 0.0138,0.003 0.0137,0.003 0.0136,0.002 0.0135,0.001 0.0132,7e-4 h 0.0129 l 0.0126,-8e-4 0.0123,-0.002 0.0117,-0.002 0.0113,-0.003 0.0106,-0.004 0.0101,-0.005 0.009,-0.006 0.009,-0.007 0.008,-0.008 0.007,-0.008 0.006,-0.01 0.005,-0.0105 0.004,-0.0117 0.003,-0.0127 0.002,-0.0139 6e-4,-0.015 -0.005,-1.1975 h -0.2757 l -0.009,-8e-4 -0.008,-0.001 -0.008,-0.002 -0.007,-0.002 -0.006,-0.003 -0.006,-0.003 -0.005,-0.004 -0.005,-0.004 -0.004,-0.005 -0.004,-0.005 -0.003,-0.005 -0.003,-0.005 -0.003,-0.005 -0.002,-0.006 -0.002,-0.006 -0.002,-0.006 -0.003,-0.0116 -10e-4,-0.0115 -8e-4,-0.011 -2e-4,-0.0103 0.001,-0.0273 2e-4,-0.0123 6e-4,-0.0118 10e-4,-0.0115 0.001,-0.011 0.001,-0.005 10e-4,-0.005 0.001,-0.005 0.001,-0.005 0.002,-0.005 0.002,-0.005 0.002,-0.004 0.002,-0.004 0.002,-0.004 0.002,-0.004 0.003,-0.004 0.003,-0.003 0.003,-0.003 0.003,-0.003 0.003,-0.003 0.004,-0.002 0.004,-0.002 0.004,-0.002 0.004,-0.002 0.005,-0.002 0.005,-10e-4 0.005,-0.001 0.005,-7e-4 0.005,-4e-4 h 0.2837 l 0.003,-0.1947 0.006,-0.1688 0.004,-0.0805 0.006,-0.0695 0.002,-0.005 0.002,-0.004 0.002,-0.004 0.002,-0.004 0.003,-0.003 0.003,-0.003 0.003,-0.003 0.003,-0.003 0.004,-0.002 0.004,-0.002 0.004,-0.002 0.004,-0.002 0.004,-0.001 0.004,-0.001 0.004,-8e-4 0.004,-5e-4 0.004,-3e-4 h 0.004 l 0.004,2e-4 0.004,5e-4 0.004,6e-4 0.004,9e-4 0.004,10e-4 0.004,0.001 0.004,0.002 0.004,0.002 0.004,0.002 0.004,0.002 0.004,0.002 0.004,0.003 0.003,0.003 0.003,0.003 0.0244,0.028 0.0233,0.0274 0.0111,0.0136 0.0107,0.0138 0.0102,0.0139 0.01,0.0142 0.009,0.0145 0.008,0.0149 0.008,0.0153 0.007,0.0159 0.006,0.0165 0.006,0.0172 0.005,0.018 0.004,0.0188 0.003,0.0175 0.002,0.0175 0.002,0.0176 10e-4,0.0177 0.002,0.0353 4e-4,0.0354 -5e-4,0.0355 -0.001,0.0354 -0.003,0.0707 h 0.3838 l -3e-4,-0.0807 -10e-4,-0.0452 -0.002,-0.0474 -0.003,-0.0485 -0.005,-0.0487 -0.007,-0.0482 -0.009,-0.0466 -0.005,-0.0224 -0.006,-0.0218 -0.007,-0.0209 -0.007,-0.02 -0.008,-0.0189 -0.009,-0.0177 -0.01,-0.0165 -0.0106,-0.0151 -0.0114,-0.0136 -0.0124,-0.012 -0.0133,-0.0102 -0.0143,-0.008 -0.0153,-0.007 -0.0164,-0.004 -0.0174,-0.002 -0.0186,1e-4 -0.0175,0.001 -0.0167,9e-4 -0.0158,7e-4 -0.015,6e-4 -0.0142,3e-4 -0.0135,2e-4 -0.0127,10e-5 -0.012,-2e-4 -0.0112,-3e-4 -0.0106,-5e-4 -0.01,-6e-4 -0.009,-8e-4 -0.009,-0.001 -0.008,-10e-4 -0.008,-0.001 -0.007,-0.002 -0.006,-0.002 -0.006,-0.002 -0.005,-0.002 -0.005,-0.002 -0.004,-0.002 -0.004,-0.002 -0.004,-0.003 -0.003,-0.003 -0.003,-0.003 -0.002,-0.003 -0.002,-0.003 -0.002,-0.003 -0.001,-0.004 -0.001,-0.004 -10e-4,-0.004 -7e-4,-0.004 -0.005,-0.0381 -0.002,-0.0175 -0.001,-0.0164 -9e-4,-0.0154 -5e-4,-0.0145 -1e-4,-0.0135 4e-4,-0.0127 8e-4,-0.0118 10e-4,-0.0109 0.002,-0.0102 0.002,-0.01 0.002,-0.009 0.003,-0.008 0.003,-0.007 0.004,-0.007 0.004,-0.006 0.005,-0.006 0.005,-0.005 0.005,-0.005 0.006,-0.004 0.006,-0.004 0.007,-0.004 0.007,-0.003 0.007,-0.003 0.008,-0.003 0.0164,-0.005 0.018,-0.004 0.0194,-0.004 0.0147,-0.002 0.0147,-0.002 0.0147,-9e-4 0.0148,-3e-4 z"
       id="path1643" />
    <path
       style="fill:#000000;fill-opacity:1;fill-rule:evenodd;stroke:none"
       d="m 113.9982,111.1996 0.0347,0.002 0.0348,0.004 0.0346,0.005 0.0345,0.006 0.0343,0.008 0.0342,0.008 0.0339,0.009 0.0669,0.0205 0.0656,0.0223 0.0633,0.0236 0.0625,0.0258 0.0616,0.0279 0.0606,0.0302 0.0594,0.0323 0.0581,0.0345 0.0568,0.0367 0.0278,0.0192 0.0275,0.0198 0.0415,0.0314 0.0409,0.0326 0.0401,0.0338 0.0394,0.0348 0.0386,0.0358 0.0376,0.0365 0.0368,0.0372 0.0357,0.0378 0.0338,0.037 0.0333,0.0375 0.0327,0.0381 0.032,0.0386 0.0315,0.0391 0.0308,0.0397 0.0301,0.0401 0.0293,0.0406 0.0271,0.0388 0.0265,0.0391 0.0259,0.0395 0.0254,0.0399 0.0248,0.0403 0.0242,0.0405 0.0236,0.041 0.0231,0.0413 0.0204,0.0375 0.0199,0.0378 0.0195,0.038 0.0189,0.0383 0.0185,0.0386 0.0179,0.0388 0.0174,0.039 0.0167,0.0392 0.017,0.0416 0.0164,0.0419 0.0157,0.0422 0.0152,0.0426 0.0145,0.0427 0.0139,0.0429 0.0133,0.043 0.0127,0.043 0.0133,0.0484 0.0124,0.0488 0.0113,0.0493 0.0104,0.0495 0.009,0.0498 0.008,0.0499 0.007,0.0498 0.006,0.0497 0.009,0.0862 0.005,0.0865 0.002,0.0865 -0.001,0.0866 -0.005,0.0864 -0.008,0.0861 -0.0111,0.0857 -0.0145,0.0852 -0.0178,0.0845 -0.0211,0.0837 -0.0245,0.0828 -0.0278,0.0818 -0.0311,0.0805 -0.0345,0.0793 -0.0378,0.0778 -0.0412,0.0763 -0.0284,0.0477 -0.0303,0.0463 -0.0322,0.0449 -0.0341,0.0434 -0.0358,0.0418 -0.0376,0.0401 -0.0393,0.0384 -0.0409,0.0365 -0.0426,0.0346 -0.0441,0.0326 -0.0456,0.0305 -0.0471,0.0282 -0.0486,0.026 -0.0499,0.0237 -0.0512,0.0212 -0.0526,0.0186 -0.0519,0.0154 -0.0534,0.0129 -0.0547,0.0104 -0.0556,0.008 -0.0564,0.006 -0.0571,0.003 -0.0574,9e-4 -0.0575,-0.001 -0.0576,-0.004 -0.0572,-0.005 -0.0568,-0.008 -0.0562,-0.01 -0.0552,-0.0117 -0.0541,-0.0136 -0.0528,-0.0154 -0.0513,-0.0173 -0.0205,-0.008 -0.0204,-0.008 -0.0204,-0.009 -0.0204,-0.009 -0.0405,-0.0196 -0.0401,-0.021 -0.0394,-0.0222 -0.0387,-0.0231 -0.0377,-0.0238 -0.0366,-0.0241 -0.0608,-0.043 -0.0593,-0.0459 -0.0573,-0.0487 -0.0553,-0.0514 -0.0531,-0.054 -0.0505,-0.0564 -0.048,-0.0587 -0.045,-0.0608 -0.0421,-0.0629 -0.0387,-0.0648 -0.0354,-0.0666 -0.0316,-0.0683 -0.0278,-0.0698 -0.0238,-0.0712 -0.0195,-0.0724 -0.0151,-0.0737 0.0198,-0.0411 0.0212,-0.0463 0.0257,-0.0589 0.0279,-0.0682 0.014,-0.0364 0.0137,-0.0375 0.0131,-0.0381 0.0122,-0.0383 0.011,-0.038 0.009,-0.0374 -0.002,0.0129 -0.002,0.0141 -6e-4,0.007 -4e-4,0.006 -1e-4,0.005 2e-4,0.004 3e-4,0.002 4e-4,0.001 6e-4,8e-4 6e-4,5e-4 9e-4,-1e-4 9e-4,-5e-4 0.001,-10e-4 0.001,-0.002 0.003,-0.005 0.004,-0.008 0.005,-0.0111 0.006,-0.0144 -0.004,0.0236 -0.005,0.0354 -0.003,0.0228 -0.003,0.0266 -0.004,0.0307 -0.004,0.035 -0.002,0.0218 -0.001,0.0227 -8e-4,0.0232 -3e-4,0.0236 2e-4,0.0236 6e-4,0.0234 0.001,0.023 0.002,0.0223 0.002,0.0195 0.002,0.0198 0.006,0.0398 0.007,0.0402 0.009,0.0402 0.0103,0.0399 0.0112,0.0393 0.0121,0.0385 0.0127,0.0374 0.006,0.0159 0.006,0.0158 0.007,0.0157 0.007,0.0156 0.008,0.0154 0.008,0.0153 0.008,0.0151 0.008,0.0149 0.0176,0.0295 0.0186,0.0288 0.0194,0.0281 0.02,0.0274 0.035,0.0444 0.0368,0.0421 0.0386,0.0399 0.0403,0.0375 0.0418,0.0353 0.0435,0.0329 0.0449,0.0307 0.0463,0.0283 0.0478,0.0261 0.049,0.0237 0.0503,0.0215 0.0515,0.0191 0.0526,0.0168 0.0536,0.0144 0.0547,0.0122 0.0556,0.01 0.0327,0.004 0.0328,0.003 0.0328,0.002 0.0329,0.001 0.0328,10e-5 0.0328,-9e-4 0.0328,-0.002 0.0326,-0.003 0.0326,-0.004 0.0325,-0.005 0.0324,-0.006 0.0321,-0.007 0.032,-0.008 0.0319,-0.008 0.0315,-0.009 0.0314,-0.01 0.0501,-0.0183 0.0498,-0.021 0.0492,-0.0236 0.0482,-0.0262 0.047,-0.0287 0.0455,-0.0312 0.0438,-0.0336 0.0417,-0.036 0.0394,-0.0382 0.0369,-0.0405 0.034,-0.0427 0.0308,-0.0447 0.0275,-0.0469 0.0124,-0.0241 0.0114,-0.0247 0.0104,-0.0251 0.009,-0.0256 0.008,-0.0261 0.007,-0.0266 -0.093,-0.1054 -0.0861,-0.0969 -0.0855,-0.0953 -0.0213,0.0275 -0.0206,0.028 -0.0402,0.0567 -0.0202,0.0283 -0.0206,0.028 -0.0214,0.0275 -0.011,0.0135 -0.0113,0.0133 -0.0114,0.0126 -0.012,0.0126 -0.0126,0.0124 -0.0132,0.0122 -0.0135,0.012 -0.014,0.0118 -0.0144,0.0115 -0.0146,0.0112 -0.0149,0.0109 -0.0151,0.0105 -0.0152,0.0102 -0.0153,0.01 -0.0153,0.009 -0.0153,0.009 -0.0153,0.008 -0.0151,0.008 -0.0169,0.008 -0.0177,0.007 -0.0184,0.007 -0.0191,0.006 -0.0195,0.005 -0.02,0.005 -0.0202,0.004 -0.0205,0.004 -0.0205,0.003 -0.0206,0.003 -0.0205,0.002 -0.0203,0.002 -0.02,0.001 -0.0196,7e-4 -0.0191,2e-4 -0.0185,-3e-4 -0.0356,-0.002 -0.0355,-0.004 -0.0353,-0.006 -0.035,-0.008 -0.0346,-0.0102 -0.034,-0.012 -0.0334,-0.0139 -0.0325,-0.0158 -0.0316,-0.0175 -0.0305,-0.0192 -0.0293,-0.0209 -0.028,-0.0226 -0.0266,-0.0241 -0.0249,-0.0257 -0.0233,-0.0272 -0.0214,-0.0286 -0.0111,-0.0171 -0.0103,-0.0185 -0.01,-0.0195 -0.009,-0.0206 -0.008,-0.0214 -0.007,-0.0221 -0.007,-0.0225 -0.006,-0.023 -0.005,-0.0231 -0.004,-0.0232 -0.003,-0.023 -0.002,-0.0228 -0.002,-0.0224 -8e-4,-0.0218 10e-5,-0.021 9e-4,-0.0201 0.002,-0.0196 0.002,-0.0196 0.003,-0.0195 0.004,-0.0193 0.004,-0.0193 0.005,-0.019 0.006,-0.0189 0.006,-0.0187 0.007,-0.0184 0.008,-0.0182 0.008,-0.0178 0.009,-0.0176 0.01,-0.0172 0.0101,-0.0168 0.0109,-0.0165 0.0114,-0.016 0.0126,-0.0163 0.013,-0.016 0.0135,-0.0156 0.0138,-0.0152 0.0142,-0.0148 0.0145,-0.0145 0.0149,-0.0141 0.0153,-0.0137 0.0155,-0.0134 0.0158,-0.0131 0.0162,-0.0127 0.0163,-0.0124 0.0167,-0.0121 0.0168,-0.0118 0.0171,-0.0115 0.0173,-0.0112 0.0417,-0.0255 0.0425,-0.0245 0.0432,-0.0237 0.0437,-0.0229 0.1757,-0.0883 0.0761,-0.0385 0.076,-0.0394 0.0749,-0.0415 0.0367,-0.0219 0.036,-0.0228 0.0352,-0.0239 0.0342,-0.0251 0.0331,-0.0264 0.0318,-0.028 0.0304,-0.0295 0.0289,-0.0314 0.0273,-0.0332 0.0254,-0.0352 0.0264,-0.0428 0.0229,-0.0443 0.0195,-0.0458 0.0163,-0.047 0.0131,-0.0481 0.0102,-0.049 0.007,-0.0496 0.005,-0.0502 0.002,-0.0506 -2e-4,-0.0507 -0.002,-0.0507 -0.004,-0.0505 -0.006,-0.0502 -0.008,-0.0495 -0.01,-0.0489 -0.0113,-0.0479 -0.008,-0.0291 -0.009,-0.0291 -0.01,-0.029 -0.0106,-0.0287 -0.0114,-0.0285 -0.0121,-0.0281 -0.0128,-0.0276 -0.0134,-0.027 -0.008,-0.0148 -0.008,-0.0148 -0.008,-0.0147 -0.009,-0.0146 -0.0184,-0.0288 -0.0196,-0.0283 -0.0205,-0.0276 -0.0214,-0.0267 -0.0222,-0.0257 -0.0113,-0.0124 -0.0115,-0.0121 -0.0113,-0.0114 -0.0116,-0.0113 -0.0118,-0.0111 -0.0122,-0.011 -0.0123,-0.0108 -0.0126,-0.0105 -0.0128,-0.0104 -0.013,-0.0102 -0.0132,-0.01 -0.0133,-0.01 -0.0135,-0.01 -0.0136,-0.009 -0.0136,-0.009 -0.0138,-0.009 -0.0138,-0.008 -0.0138,-0.008 -0.0162,-0.009 -0.0163,-0.009 -0.0164,-0.008 -0.0167,-0.008 -0.0167,-0.008 -0.017,-0.007 -0.017,-0.007 -0.0173,-0.007 -0.0173,-0.006 -0.0175,-0.006 -0.0176,-0.005 -0.0177,-0.005 -0.0178,-0.005 -0.018,-0.004 -0.018,-0.004 -0.0181,-0.004 -0.0335,-0.006 -0.0336,-0.005 -0.0336,-0.004 -0.0335,-0.002 -0.0335,-0.001 -0.0334,1e-4 -0.0334,0.001 -0.0332,0.003 -0.033,0.004 -0.0328,0.005 -0.0326,0.007 -0.0324,0.008 -0.032,0.01 -0.0317,0.0114 -0.0314,0.0129 -0.031,0.0146 -0.0117,0.006 -0.0115,0.006 -0.0114,0.007 -0.0113,0.007 -0.0222,0.014 -0.0217,0.0147 -0.0211,0.0155 -0.0208,0.0161 -0.0202,0.0167 -0.0199,0.0172 -0.0211,0.019 -0.0165,0.0157 -0.009,0.009 -0.009,0.009 -0.008,0.009 -0.008,0.009 -0.007,0.009 -0.006,0.008 -0.002,0.004 -0.002,0.004 -0.002,0.004 -0.001,0.003 -7e-4,0.003 -2e-4,0.003 4e-4,0.002 10e-4,0.002 0.0312,0.0466 0.0378,0.0542 0.0819,0.1142 0.0972,0.1323 0.008,-0.0106 0.009,-0.0105 0.009,-0.0104 0.01,-0.0103 0.0102,-0.0101 0.0106,-0.01 0.0109,-0.01 0.0112,-0.01 0.0114,-0.009 0.0116,-0.009 0.0118,-0.008 0.0119,-0.008 0.012,-0.008 0.0121,-0.007 0.012,-0.007 0.012,-0.006 0.0209,-0.009 0.0213,-0.008 0.0217,-0.007 0.022,-0.006 0.0222,-0.005 0.0223,-0.004 0.0225,-0.002 0.0226,-0.001 h 0.0226 l 0.0225,0.001 0.0224,0.002 0.0222,0.003 0.022,0.004 0.0218,0.005 0.0214,0.007 0.021,0.008 0.0205,0.009 0.0201,0.01 0.0194,0.0106 0.0189,0.0116 0.0181,0.0126 0.0175,0.0136 0.0166,0.0146 0.0157,0.0155 0.0149,0.0164 0.0139,0.0173 0.0128,0.0183 0.0118,0.0191 0.0106,0.02 0.009,0.0209 0.008,0.0218 0.007,0.0226 0.0111,0.0463 0.008,0.0462 0.005,0.0459 0.002,0.0452 -0.001,0.0446 -0.004,0.0435 -0.008,0.0424 -0.0114,0.0411 -0.007,0.02 -0.008,0.0195 -0.009,0.0192 -0.01,0.0186 -0.0109,0.0182 -0.0118,0.0177 -0.0129,0.0171 -0.0139,0.0166 -0.015,0.016 -0.016,0.0154 -0.0171,0.0148 -0.0182,0.0141 -0.0193,0.0134 -0.0204,0.0127 -0.0215,0.012 -0.0227,0.0112 -0.2678,0.1392 -0.047,0.0249 -0.0466,0.0255 -0.0463,0.0259 -0.046,0.0267 -0.0455,0.0273 -0.045,0.0281 -0.0446,0.0289 -0.044,0.0299 -0.0375,0.0265 -0.0361,0.0268 -0.0349,0.0273 -0.0335,0.0278 -0.0322,0.0286 -0.0308,0.0293 -0.0294,0.0302 -0.0279,0.0313 -0.0264,0.0324 -0.0249,0.0337 -0.0234,0.0351 -0.0217,0.0367 -0.0202,0.0383 -0.0185,0.04 -0.0168,0.042 -0.0151,0.0439 -0.007,0.0229 -0.007,0.0198 -0.006,0.017 -0.005,0.0146 0.004,-0.0206 10e-5,-10e-4 v -2e-4 h -2e-4 l -0.001,0.002 -0.001,0.001 -10e-4,0.001 -9e-4,6e-4 -9e-4,5e-4 -0.001,4e-4 -10e-4,3e-4 h -0.001 l -0.001,-1e-4 -10e-4,-4e-4 -0.001,-7e-4 -0.002,-10e-4 -0.001,-0.001 -0.002,-0.002 -0.002,-0.002 0.005,-0.0781 0.003,-0.0792 9e-4,-0.0799 -0.002,-0.0802 -0.005,-0.0802 -0.009,-0.0797 -0.0126,-0.0789 -0.0168,-0.0778 -0.0215,-0.0761 -0.0266,-0.0743 -0.0319,-0.072 -0.0377,-0.0693 -0.0438,-0.0662 -0.0243,-0.0319 -0.026,-0.031 -0.0278,-0.03 -0.0294,-0.0291 -0.0313,-0.0279 -0.0332,-0.027 -1e-4,-0.007 -4e-4,-0.008 -7e-4,-0.0182 -2e-4,-0.009 v -0.009 l 2e-4,-0.004 3e-4,-0.004 4e-4,-0.004 5e-4,-0.003 0.0142,-0.0684 0.0152,-0.0683 0.0164,-0.0679 0.009,-0.0338 0.009,-0.0338 0.0191,-0.0673 0.0207,-0.0669 0.0223,-0.0663 0.0241,-0.0656 0.026,-0.0648 0.0282,-0.0639 0.0305,-0.0629 0.033,-0.0618 0.0179,-0.0308 0.0191,-0.0305 0.0202,-0.0302 0.0209,-0.0298 0.0216,-0.0294 0.022,-0.0289 0.0222,-0.0284 0.0222,-0.0279 0.0203,-0.0247 0.021,-0.0243 0.0217,-0.0237 0.0223,-0.0231 0.023,-0.0223 0.0238,-0.0215 0.0244,-0.0205 0.0252,-0.0196 0.0259,-0.0184 0.0267,-0.0172 0.0275,-0.0158 0.0283,-0.0145 0.0291,-0.013 0.0299,-0.0113 0.0308,-0.01 0.0316,-0.008 0.0345,-0.006 0.0346,-0.004 0.0346,-0.003 0.0348,-7e-4 z"
       id="path1644" />
    <path
       style="fill:#000000;fill-opacity:1;fill-rule:evenodd;stroke:none"
       d="m 107.3373,113.1802 6e-4,0.0214 -1e-4,0.0212 -7e-4,0.021 -0.001,0.021 -0.002,0.0209 -0.002,0.021 -0.006,0.0423 -0.008,0.0433 -0.01,0.0446 -0.007,0.0272 -0.008,0.0258 -0.009,0.0246 -0.0101,0.0234 -0.0111,0.0223 -0.0121,0.0215 -0.0131,0.0206 -0.014,0.02 -0.0149,0.0194 -0.0158,0.0189 -0.0166,0.0185 -0.0175,0.0183 -0.0182,0.0182 -0.019,0.0181 -0.04,0.0367 0.009,0.009 0.008,0.008 0.008,0.008 0.007,0.008 0.007,0.008 0.006,0.008 0.006,0.008 0.005,0.008 0.005,0.008 0.005,0.008 0.01,0.0163 0.021,0.0356 0.009,0.0155 0.008,0.0156 0.007,0.0156 0.006,0.0156 0.006,0.0156 0.005,0.0156 0.004,0.0157 0.003,0.0156 0.003,0.0157 0.002,0.0158 0.002,0.0157 0.001,0.0157 9e-4,0.0158 4e-4,0.0158 10e-5,0.0158 -3e-4,0.0158 -5e-4,0.009 -8e-4,0.009 -0.003,0.0182 -0.004,0.0179 -0.005,0.0174 -0.006,0.0167 -0.007,0.0159 -0.007,0.015 -0.007,0.014 -0.007,0.0128 -0.007,0.0116 -0.012,0.0187 -0.0116,0.0161 0.0137,0.005 0.0132,0.006 0.0128,0.006 0.0122,0.007 0.0118,0.007 0.0114,0.007 0.0108,0.008 0.0104,0.008 0.0195,0.0166 0.0176,0.017 0.0158,0.0172 0.0141,0.0169 0.0123,0.0163 0.0106,0.0153 0.009,0.014 0.007,0.0122 0.01,0.0179 0.003,0.007 0.0117,-0.0249 0.0136,-0.0265 0.009,-0.0155 0.01,-0.0165 0.0106,-0.017 0.0114,-0.0172 0.0123,-0.0171 0.013,-0.0165 0.0137,-0.0155 0.007,-0.007 0.007,-0.007 0.007,-0.007 0.007,-0.006 0.008,-0.005 0.008,-0.005 0.0254,-0.0143 0.0263,-0.0131 0.027,-0.0118 0.0276,-0.0108 0.0281,-0.01 0.0286,-0.009 0.0289,-0.008 0.0293,-0.007 0.059,-0.0126 0.0592,-0.0106 0.116,-0.0185 0.0286,-0.004 0.0288,-0.004 0.0289,-0.004 0.0286,-0.005 0.0141,-0.003 0.014,-0.003 0.0139,-0.004 0.0136,-0.004 0.0134,-0.005 0.0132,-0.006 0.0129,-0.007 0.0126,-0.008 0.009,-0.006 0.008,-0.007 0.007,-0.007 0.007,-0.008 0.006,-0.008 0.005,-0.008 0.004,-0.008 0.004,-0.009 0.003,-0.009 0.002,-0.009 0.002,-0.009 10e-4,-0.009 4e-4,-0.009 -3e-4,-0.009 -9e-4,-0.009 -0.002,-0.009 -0.002,-0.009 -0.003,-0.009 -0.004,-0.009 -0.004,-0.009 -0.005,-0.008 -0.005,-0.008 -0.006,-0.008 -0.007,-0.008 -0.007,-0.007 -0.008,-0.007 -0.008,-0.007 -0.009,-0.006 -0.009,-0.005 -0.01,-0.005 -0.0103,-0.004 -0.0109,-0.004 -0.0909,-0.0307 -0.046,-0.0167 -0.0457,-0.0178 -0.0454,-0.0191 -0.0446,-0.0206 -0.0436,-0.0223 -0.0423,-0.024 -0.0406,-0.0261 -0.0387,-0.0282 -0.0364,-0.0305 -0.0338,-0.0331 -0.031,-0.0358 -0.0143,-0.0189 -0.0135,-0.0197 -0.0127,-0.0204 -0.0117,-0.0212 -0.0108,-0.022 -0.01,-0.0229 -0.0116,-0.0317 -0.01,-0.0311 -0.016,-0.0606 -0.011,-0.0581 -0.006,-0.0555 -0.002,-0.0427 h 0.2516 l 2e-4,0.0187 0.001,0.0187 0.002,0.0187 0.003,0.0188 0.004,0.0188 0.005,0.0187 0.006,0.0186 0.004,0.0125 0.004,0.0125 0.005,0.0125 0.005,0.0125 0.0123,0.0247 0.0145,0.0242 0.008,0.0118 0.008,0.0115 0.009,0.0112 0.009,0.0109 0.01,0.0106 0.0104,0.0101 0.0108,0.01 0.0113,0.009 0.0117,0.009 0.0121,0.008 0.0124,0.007 0.0129,0.007 0.0131,0.006 0.0135,0.005 0.0138,0.005 0.0141,0.004 0.0144,0.003 0.0147,0.002 0.0149,10e-4 0.0152,2e-4 0.0153,-8e-4 0.0156,-0.002 0.0158,-0.003 0.016,-0.004 0.0215,-0.007 0.0211,-0.008 0.0206,-0.01 0.02,-0.0112 0.0195,-0.0124 0.0188,-0.0136 0.0182,-0.0148 0.0174,-0.0158 0.0167,-0.0167 0.0158,-0.0177 0.015,-0.0184 0.014,-0.0193 0.0131,-0.0199 0.012,-0.0205 0.011,-0.021 0.01,-0.0215 0.006,-0.0186 0.005,-0.0186 0.004,-0.0186 0.003,-0.0186 0.002,-0.0186 0.002,-0.0186 6e-4,-0.0186 -3e-4,-0.0186 -0.001,-0.0186 -0.002,-0.0186 -0.003,-0.0186 -0.004,-0.0186 -0.005,-0.0186 -0.006,-0.0186 -0.008,-0.0186 -0.009,-0.0186 -0.0162,-0.0273 -0.0177,-0.026 -0.009,-0.0124 -0.01,-0.0121 -0.01,-0.0116 -0.0103,-0.0112 -0.0106,-0.0107 -0.0109,-0.0102 -0.0112,-0.01 -0.0114,-0.009 -0.0116,-0.009 -0.0119,-0.008 -0.0121,-0.008 -0.0123,-0.007 -0.0125,-0.006 -0.0127,-0.006 -0.0128,-0.005 -0.013,-0.004 -0.0132,-0.004 -0.0133,-0.003 -0.0134,-0.002 -0.0135,-0.001 -0.0136,-4e-4 -0.0137,3e-4 -0.0138,0.001 -0.0138,0.002 -0.0139,0.003 -0.0139,0.004 -0.0139,0.005 -0.014,0.006 -0.0168,0.008 -0.0163,0.009 -0.0158,0.01 -0.0153,0.0103 -0.0147,0.0109 -0.0141,0.0116 -0.0136,0.0122 -0.013,0.0128 -0.0124,0.0134 -0.0118,0.0139 -0.0111,0.0144 -0.0105,0.0148 -0.01,0.0153 -0.009,0.0158 -0.008,0.0161 -0.008,0.0165 -0.007,0.0168 -0.006,0.0172 -0.005,0.0174 -0.005,0.0177 -0.004,0.0179 -0.003,0.0181 -0.002,0.0183 -0.002,0.0184 -6e-4,0.0186 h -0.2516 l -5e-4,-0.0102 8e-4,-0.0502 0.003,-0.0473 0.006,-0.0444 0.007,-0.0414 0.008,-0.0382 0.0176,-0.0667 0.0149,-0.053 0.005,-0.0212 0.003,-0.0174 -0.1213,0.003 -0.008,-0.001 -0.007,-0.002 -0.006,-0.003 -0.006,-0.004 -0.005,-0.004 -0.005,-0.005 -0.004,-0.005 -0.003,-0.006 -0.003,-0.006 -0.003,-0.007 -0.002,-0.007 -0.002,-0.008 -0.002,-0.008 -0.001,-0.008 -10e-4,-0.0173 -6e-4,-0.018 2e-4,-0.0183 7e-4,-0.0184 0.001,-0.018 0.002,-0.0337 8e-4,-0.015 3e-4,-0.0133 -2e-4,-0.0143 1e-4,-0.004 1e-4,-0.004 3e-4,-0.004 4e-4,-0.004 6e-4,-0.004 8e-4,-0.003 5e-4,-0.001 6e-4,-0.001 7e-4,-10e-4 7e-4,-0.001 8e-4,-0.001 9e-4,-10e-4 10e-4,-8e-4 0.001,-7e-4 0.001,-6e-4 10e-4,-4e-4 0.001,-3e-4 0.001,-10e-5 0.6753,-0.003 0.0338,10e-4 0.0327,0.003 0.0315,0.005 0.0305,0.007 0.0294,0.009 0.0283,0.0105 0.0271,0.0122 0.0262,0.0135 0.025,0.0149 0.0241,0.0161 0.0229,0.0172 0.022,0.0183 0.0209,0.0191 0.0199,0.0198 0.0189,0.0206 0.0178,0.021 0.0328,0.0434 0.0289,0.0442 0.025,0.0442 0.0213,0.0432 0.0176,0.0413 0.0139,0.0387 0.0104,0.035 0.007,0.0304 0.009,0.0582 0.005,0.0566 1e-4,0.003 10e-4,0.0518 -0.002,0.0533 -0.006,0.0515 -0.009,0.0497 -0.0125,0.0478 -0.0159,0.0458 -0.0193,0.0438 -0.0224,0.0417 -0.0256,0.0396 -0.0287,0.0372 -0.0317,0.035 -0.0348,0.0326 -0.0376,0.0302 -0.0404,0.0276 0.0173,0.0136 0.0168,0.0141 0.0161,0.0145 0.0155,0.0152 0.0148,0.016 0.0138,0.0168 0.007,0.009 0.006,0.009 0.006,0.009 0.006,0.01 0.006,0.01 0.005,0.0102 0.005,0.0104 0.005,0.0108 0.004,0.0111 0.004,0.0115 0.004,0.0119 0.004,0.0122 0.003,0.0126 0.003,0.0131 0.002,0.0135 0.002,0.0139 0.002,0.0143 0.001,0.0148 9e-4,0.0153 5e-4,0.0158 v 0.0135 l -5e-4,0.0132 -0.002,0.0255 -0.004,0.0241 -0.005,0.0228 -0.006,0.0212 -0.007,0.0197 -0.008,0.0182 -0.008,0.0164 -0.008,0.0148 -0.008,0.013 -0.0136,0.0204 -0.0133,0.0169 0.031,0.0219 0.0151,0.0112 0.015,0.0115 0.0147,0.0117 0.0144,0.0121 0.014,0.0124 0.0138,0.0127 0.0133,0.0131 0.013,0.0134 0.0125,0.0139 0.012,0.0144 0.0116,0.0148 0.011,0.0153 0.0105,0.0159 0.01,0.0164 0.0105,0.0197 0.009,0.0202 0.008,0.0205 0.007,0.0209 0.006,0.0213 0.004,0.0215 0.003,0.0218 0.002,0.022 10e-4,0.0165 4e-4,0.006 6e-4,0.0224 -1e-4,0.0225 -9e-4,0.0227 -0.002,0.0227 -0.002,0.0228 -0.003,0.0228 -0.003,0.0228 -0.003,0.0154 -0.004,0.0151 -0.005,0.0147 -0.005,0.0144 -0.006,0.014 -0.007,0.0138 -0.008,0.0134 -0.008,0.0132 -0.009,0.0129 -0.009,0.0127 -0.01,0.0125 -0.0102,0.0122 -0.0107,0.012 -0.011,0.0119 -0.0227,0.0233 -0.0149,0.0138 -0.0156,0.0129 -0.0165,0.0121 -0.0171,0.0112 -0.0178,0.0105 -0.0183,0.01 -0.0187,0.009 -0.0192,0.009 -0.0194,0.008 -0.0196,0.007 -0.0198,0.007 -0.0198,0.007 -0.0394,0.012 -0.0387,0.0109 -0.0435,0.0107 -0.0443,0.009 -0.045,0.006 -0.0455,0.004 -0.0459,0.002 -0.0461,-2e-4 -0.0459,-0.003 -0.0458,-0.005 -0.0454,-0.007 -0.0448,-0.01 -0.044,-0.0123 -0.043,-0.0149 -0.0419,-0.0175 -0.0406,-0.0201 -0.039,-0.0228 -0.0374,-0.0255 -0.006,-0.005 -0.008,-0.007 -0.009,-0.009 -0.0102,-0.0103 -0.0229,-0.0243 -0.0123,-0.0137 -0.0125,-0.0143 -0.0126,-0.0149 -0.0124,-0.0151 -0.0121,-0.0152 -0.0114,-0.015 -0.0107,-0.0148 -0.01,-0.0141 -0.008,-0.0134 -0.007,-0.0125 -0.0167,0.0243 -0.0172,0.0231 -0.0176,0.022 -0.0182,0.0209 -0.0186,0.0198 -0.0192,0.0187 -0.0196,0.0178 -0.02,0.0166 -0.0205,0.0157 -0.0209,0.0147 -0.0214,0.0138 -0.0218,0.0128 -0.0222,0.0119 -0.0226,0.011 -0.023,0.0102 -0.0234,0.009 -0.0238,0.008 -0.0242,0.008 -0.0493,0.0129 -0.0508,0.01 -0.052,0.007 -0.0533,0.004 -0.0545,0.002 -0.0556,-5e-4 -0.0566,-0.003 -0.0362,-0.003 -0.037,-0.005 -0.0373,-0.006 -0.0373,-0.008 -0.037,-0.009 -0.0364,-0.0105 -0.0353,-0.0117 -0.0172,-0.006 -0.0169,-0.007 -0.0244,-0.0109 -0.0237,-0.0124 -0.0229,-0.0138 -0.0222,-0.0152 -0.0214,-0.0165 -0.0205,-0.0177 -0.0196,-0.0189 -0.0186,-0.0199 -0.0177,-0.021 -0.0167,-0.0218 -0.0157,-0.0228 -0.0146,-0.0235 -0.0135,-0.0241 -0.0123,-0.0249 -0.0112,-0.0253 -0.01,-0.0259 -0.009,-0.0262 -0.007,-0.0266 -0.006,-0.0269 -0.005,-0.027 -0.003,-0.0271 -5e-4,-0.008 h 0.252 l 6e-4,0.0139 0.002,0.0136 0.003,0.0135 0.004,0.0132 0.005,0.013 0.006,0.0127 0.007,0.0125 0.008,0.0122 0.009,0.0119 0.01,0.0116 0.0104,0.0113 0.0112,0.0109 0.012,0.0105 0.0127,0.0102 0.0135,0.01 0.0143,0.009 0.0149,0.009 0.0156,0.008 0.0162,0.008 0.0169,0.007 0.0174,0.007 0.018,0.006 0.0186,0.006 0.019,0.005 0.0196,0.005 0.0199,0.004 0.0204,0.004 0.0208,0.003 0.0212,0.002 0.0215,0.002 0.0219,0.001 0.0221,4e-4 0.044,-0.001 0.0426,-0.004 0.0412,-0.007 0.0396,-0.009 0.0375,-0.0113 0.0355,-0.0135 0.0331,-0.0155 0.0305,-0.0173 0.0278,-0.0191 0.0247,-0.0207 0.0216,-0.0221 0.009,-0.0116 0.009,-0.0119 0.008,-0.0122 0.007,-0.0125 0.006,-0.0128 0.005,-0.013 0.004,-0.0132 0.003,-0.0135 0.002,-0.0136 5e-4,-0.0139 h 0.43 l 5e-4,0.0139 0.002,0.0136 0.003,0.0135 0.004,0.0132 0.005,0.013 0.006,0.0127 0.007,0.0125 0.008,0.0122 0.009,0.0119 0.01,0.0116 0.0103,0.0113 0.0112,0.0109 0.012,0.0105 0.0128,0.0102 0.0135,0.01 0.0142,0.009 0.0149,0.009 0.0156,0.008 0.0163,0.008 0.0168,0.007 0.0175,0.007 0.018,0.006 0.0185,0.006 0.0191,0.005 0.0195,0.005 0.02,0.004 0.0204,0.004 0.0208,0.003 0.0212,0.002 0.0215,0.002 0.0218,0.001 0.0221,4e-4 0.044,-0.001 0.0427,-0.004 0.0412,-0.007 0.0395,-0.009 0.0376,-0.0113 0.0354,-0.0135 0.0331,-0.0155 0.0306,-0.0173 0.0277,-0.0191 0.0248,-0.0207 0.0215,-0.0221 0.01,-0.0116 0.009,-0.0119 0.008,-0.0122 0.007,-0.0125 0.006,-0.0128 0.005,-0.013 0.004,-0.0132 0.003,-0.0135 0.002,-0.0136 6e-4,-0.0139 -6e-4,-0.0138 -0.002,-0.0136 -0.003,-0.0135 -0.004,-0.0132 -0.005,-0.013 -0.006,-0.0128 -0.007,-0.0125 -0.008,-0.0122 -0.009,-0.0119 -0.01,-0.0115 -0.0104,-0.0113 -0.0111,-0.0109 -0.012,-0.0105 -0.0128,-0.0102 -0.0135,-0.01 -0.0142,-0.009 -0.015,-0.009 -0.0156,-0.008 -0.0162,-0.008 -0.0169,-0.008 -0.0174,-0.007 -0.018,-0.007 -0.0186,-0.006 -0.019,-0.005 -0.0195,-0.005 -0.02,-0.004 -0.0204,-0.004 -0.0208,-0.003 -0.0212,-0.002 -0.0215,-0.002 -0.0218,-0.001 -0.0222,-3e-4 -0.0439,10e-4 -0.0427,0.004 -0.0412,0.007 -0.0395,0.009 -0.0376,0.0113 -0.0355,0.0135 -0.0331,0.0154 -0.0305,0.0174 -0.0277,0.0191 -0.0248,0.0207 -0.0215,0.0221 -0.01,0.0116 -0.009,0.0119 -0.008,0.0122 -0.007,0.0125 -0.006,0.0128 -0.005,0.013 -0.004,0.0132 -0.003,0.0134 -0.002,0.0137 -5e-4,0.0138 h -0.43 l -5e-4,-0.0138 -0.002,-0.0136 -0.003,-0.0135 -0.004,-0.0132 -0.005,-0.013 -0.006,-0.0128 -0.007,-0.0125 -0.008,-0.0122 -0.009,-0.0119 -0.009,-0.0115 -0.0104,-0.0113 -0.0112,-0.0109 -0.012,-0.0105 -0.0127,-0.0102 -0.0135,-0.01 -0.0143,-0.009 -0.0149,-0.009 -0.0156,-0.008 -0.0163,-0.008 -0.0168,-0.008 -0.0175,-0.007 -0.018,-0.007 -0.0185,-0.006 -0.019,-0.005 -0.0196,-0.005 -0.02,-0.004 -0.0204,-0.004 -0.0208,-0.003 -0.0211,-0.002 -0.0215,-0.002 -0.0219,-0.001 -0.0221,-3e-4 -0.044,0.001 -0.0427,0.004 -0.0412,0.007 -0.0395,0.009 -0.0376,0.0113 -0.0354,0.0135 -0.0331,0.0154 -0.0305,0.0174 -0.0278,0.0191 -0.0247,0.0207 -0.0216,0.0221 -0.01,0.0116 -0.009,0.0119 -0.008,0.0122 -0.007,0.0125 -0.006,0.0128 -0.005,0.013 -0.004,0.0132 -0.003,0.0134 -0.002,0.0137 -6e-4,0.0138 h -0.252 l -0.001,-0.0188 -4e-4,-0.0271 0.001,-0.027 0.003,-0.0268 0.004,-0.0265 0.006,-0.0262 0.008,-0.0258 0.009,-0.0253 0.0109,-0.0248 0.0128,-0.0241 0.0145,-0.0234 0.0152,-0.0211 0.016,-0.0194 0.017,-0.0179 0.0177,-0.0164 0.0185,-0.0149 0.0191,-0.0137 0.0199,-0.0124 0.0205,-0.0112 0.021,-0.0102 0.0216,-0.009 0.0445,-0.0157 0.0462,-0.0128 0.0473,-0.0105 0.0482,-0.009 0.0486,-0.008 0.0972,-0.0158 0.0479,-0.009 0.0469,-0.0109 0.0455,-0.0134 0.0222,-0.008 0.0217,-0.009 0.008,-0.004 0.008,-0.005 0.009,-0.006 0.009,-0.006 0.009,-0.007 0.009,-0.008 0.009,-0.008 0.008,-0.008 0.008,-0.009 0.008,-0.009 0.007,-0.009 0.007,-0.009 0.006,-0.009 0.006,-0.009 0.005,-0.008 0.004,-0.008 0.006,-0.0137 0.004,-0.0132 0.002,-0.0126 5e-4,-0.0121 -9e-4,-0.0116 -0.002,-0.0112 -0.004,-0.0106 -0.005,-0.0102 -0.006,-0.01 -0.007,-0.009 -0.008,-0.009 -0.009,-0.008 -0.0102,-0.008 -0.0109,-0.008 -0.0116,-0.007 -0.0121,-0.007 -0.0257,-0.0129 -0.0268,-0.0117 -0.0274,-0.0105 -0.0272,-0.009 -0.0921,-0.0295 -0.0313,-0.0112 -0.0312,-0.0121 -0.0312,-0.0131 -0.0309,-0.0141 -0.0305,-0.0151 -0.0299,-0.0163 -0.0291,-0.0174 -0.0282,-0.0187 -0.0271,-0.02 -0.0259,-0.0214 -0.0244,-0.0228 -0.0228,-0.0244 -0.0211,-0.0258 -0.0191,-0.0276 -0.009,-0.0144 -0.008,-0.0148 -0.008,-0.0152 -0.007,-0.0157 -0.0142,-0.0405 -0.0116,-0.0409 -0.009,-0.0412 -0.007,-0.0415 -0.005,-0.0418 -0.003,-0.0421 -9e-4,-0.0423 7e-4,-0.0425 10e-5,-9e-4 h 0.2233 l 1e-4,0.0212 10e-4,0.0213 0.003,0.0216 0.004,0.0216 0.004,0.0247 0.005,0.0242 0.006,0.0239 0.007,0.0232 0.008,0.0227 0.01,0.0218 0.0111,0.0211 0.0124,0.0201 0.0138,0.0191 0.0152,0.0179 0.0166,0.0168 0.0181,0.0154 0.01,0.007 0.01,0.007 0.0104,0.006 0.0108,0.006 0.0111,0.006 0.0116,0.005 0.012,0.005 0.0123,0.005 0.0186,0.005 0.0184,0.004 0.0183,0.003 0.0181,0.002 0.018,5e-4 0.0177,-7e-4 0.0176,-0.002 0.0172,-0.003 0.0171,-0.004 0.0167,-0.005 0.0164,-0.006 0.0161,-0.007 0.0157,-0.008 0.0154,-0.009 0.015,-0.01 0.0145,-0.0105 0.0141,-0.0112 0.0137,-0.012 0.0132,-0.0126 0.0127,-0.0134 0.0121,-0.0139 0.0116,-0.0146 0.0111,-0.0151 0.0105,-0.0157 0.01,-0.0161 0.009,-0.0166 0.009,-0.017 0.008,-0.0173 0.007,-0.0177 0.007,-0.018 0.006,-0.0183 0.005,-0.0185 0.004,-0.0202 0.003,-0.0202 0.002,-0.0203 0.001,-0.0202 1e-4,-0.0201 -9e-4,-0.02 -0.002,-0.0199 -0.003,-0.0196 -0.004,-0.0193 -0.005,-0.019 -0.006,-0.0187 -0.006,-0.0182 -0.007,-0.0179 -0.008,-0.0173 -0.009,-0.0168 -0.01,-0.0162 -0.0105,-0.0155 -0.0112,-0.0149 -0.012,-0.0142 -0.0126,-0.0134 -0.0134,-0.0126 -0.0141,-0.0117 -0.0147,-0.0109 -0.0154,-0.01 -0.016,-0.009 -0.0166,-0.008 -0.0172,-0.007 -0.0178,-0.006 -0.0184,-0.004 -0.0189,-0.003 -0.0194,-0.002 -0.0199,-7e-4 -0.02,6e-4 -0.0198,0.002 -0.0196,0.003 -0.0193,0.004 -0.0189,0.005 -0.0185,0.006 -0.0181,0.007 -0.0177,0.008 -0.0172,0.009 -0.0167,0.0103 -0.0161,0.0113 -0.0155,0.012 -0.0149,0.0129 -0.0142,0.0137 -0.0135,0.0145 -0.0128,0.0151 -0.012,0.0159 -0.0112,0.0165 -0.0104,0.017 -0.009,0.0177 -0.009,0.0182 -0.008,0.0187 -0.007,0.0191 -0.005,0.0196 -0.004,0.0199 -0.003,0.0203 -0.002,0.0206 -10e-4,0.0209 h -0.2233 l 0.002,-0.0418 0.004,-0.0429 0.005,-0.0431 0.006,-0.0431 0.0149,-0.0866 0.0177,-0.0868 -10e-4,0.002 -3e-4,7e-4 -3e-4,4e-4 -3e-4,2e-4 h -2e-4 l -2e-4,-1e-4 -1e-4,-4e-4 -1e-4,-10e-4 v -0.002 l 1e-4,-0.002 3e-4,-0.002 6e-4,-0.005 7e-4,-0.005 8e-4,-0.005 h -0.1352 l -0.007,-8e-4 -0.007,-0.002 -0.006,-0.004 -0.005,-0.005 -0.005,-0.007 -0.004,-0.008 -0.004,-0.009 -0.003,-0.01 -0.003,-0.0104 -0.002,-0.0112 -0.003,-0.0241 -0.001,-0.0257 7e-4,-0.0265 0.002,-0.0264 0.004,-0.0256 0.005,-0.0237 0.007,-0.0212 0.004,-0.009 0.004,-0.008 0.005,-0.007 0.005,-0.006 0.005,-0.005 0.005,-0.003 0.006,-0.002 0.006,-3e-4 0.004,3e-4 0.004,2e-4 0.0102,10e-5 0.0317,-3e-4 0.0237,-3e-4 0.0305,-2e-4 h 0.0385 l 0.0475,2e-4 0.2479,0.002 0.0554,0.001 0.0558,0.003 0.028,0.002 0.0279,0.003 0.0278,0.004 0.0277,0.004 0.0275,0.005 0.0273,0.006 0.027,0.007 0.0268,0.008 0.0263,0.009 0.026,0.01 0.0256,0.0111 0.0251,0.0122 0.0226,0.0124 0.0221,0.0138 0.0216,0.015 0.021,0.0162 0.0204,0.0173 0.0196,0.0182 0.019,0.0192 0.0181,0.02 0.0173,0.0208 0.0164,0.0214 0.0155,0.0221 0.0145,0.0226 0.0134,0.023 0.0124,0.0234 0.0112,0.0236 0.01,0.0239 0.007,0.0183 0.006,0.0184 0.006,0.0187 0.005,0.0188 0.005,0.019 0.004,0.019 0.004,0.0192 0.003,0.0192 0.004,0.0228 0.003,0.0223 0.002,0.022 7e-4,0.0121 z"
       id="path1645" />
  </g>
  <text
     xml:space="preserve"
     style="font-size:3.88056px;text-align:start;writing-mode:lr-tb;direction:ltr;text-anchor:start;fill:#000000;stroke-width:0.264583"
     x="0.64252192"
     y="9.6961298"
     id="text1645"><tspan
       sodipodi:role="line"
       id="tspan1645"
       style="font-style:normal;font-variant:normal;font-weight:normal;font-stretch:normal;font-size:3.88056px;font-family:'Brush Script Std';-inkscape-font-specification:'Brush Script Std';stroke-width:0.264583"
       x="0.64252192"
       y="9.6961298">@</tspan></text>
  <metadata
     id="metadata1645">
    <rdf:RDF>
      <cc:Work
         rdf:about="">
        <dc:title>SVG Image created as X-DaysSynth-Bottom Overlay.svg date 2025/09/18 20:57:07 </dc:title>
      </cc:Work>
    </rdf:RDF>
  </metadata>
</svg>
