%TF.GenerationSoftware,KiCad,Pcbnew,9.0.4*%
%TF.CreationDate,2025-09-18T23:21:34+02:00*%
%TF.ProjectId,X-DaysSynth,582d4461-7973-4537-996e-74682e6b6963,0.4*%
%TF.SameCoordinates,Original*%
%TF.FileFunction,Legend,Top*%
%TF.FilePolarity,Positive*%
%FSLAX46Y46*%
G04 Gerber Fmt 4.6, Leading zero omitted, Abs format (unit mm)*
G04 Created by KiCad (PCBNEW 9.0.4) date 2025-09-18 23:21:34*
%MOMM*%
%LPD*%
G01*
G04 APERTURE LIST*
%ADD10C,0.100000*%
%ADD11C,0.150000*%
%ADD12C,0.300000*%
%ADD13C,0.200000*%
%ADD14C,0.120000*%
%ADD15C,0.101600*%
G04 APERTURE END LIST*
D10*
X155763496Y-71768038D02*
X155668258Y-71720419D01*
X155668258Y-71720419D02*
X155525401Y-71720419D01*
X155525401Y-71720419D02*
X155382544Y-71768038D01*
X155382544Y-71768038D02*
X155287306Y-71863276D01*
X155287306Y-71863276D02*
X155239687Y-71958514D01*
X155239687Y-71958514D02*
X155192068Y-72148990D01*
X155192068Y-72148990D02*
X155192068Y-72291847D01*
X155192068Y-72291847D02*
X155239687Y-72482323D01*
X155239687Y-72482323D02*
X155287306Y-72577561D01*
X155287306Y-72577561D02*
X155382544Y-72672800D01*
X155382544Y-72672800D02*
X155525401Y-72720419D01*
X155525401Y-72720419D02*
X155620639Y-72720419D01*
X155620639Y-72720419D02*
X155763496Y-72672800D01*
X155763496Y-72672800D02*
X155811115Y-72625180D01*
X155811115Y-72625180D02*
X155811115Y-72291847D01*
X155811115Y-72291847D02*
X155620639Y-72291847D01*
X156239687Y-72720419D02*
X156239687Y-71720419D01*
X156239687Y-71720419D02*
X156811115Y-72720419D01*
X156811115Y-72720419D02*
X156811115Y-71720419D01*
X157287306Y-72720419D02*
X157287306Y-71720419D01*
X157287306Y-71720419D02*
X157525401Y-71720419D01*
X157525401Y-71720419D02*
X157668258Y-71768038D01*
X157668258Y-71768038D02*
X157763496Y-71863276D01*
X157763496Y-71863276D02*
X157811115Y-71958514D01*
X157811115Y-71958514D02*
X157858734Y-72148990D01*
X157858734Y-72148990D02*
X157858734Y-72291847D01*
X157858734Y-72291847D02*
X157811115Y-72482323D01*
X157811115Y-72482323D02*
X157763496Y-72577561D01*
X157763496Y-72577561D02*
X157668258Y-72672800D01*
X157668258Y-72672800D02*
X157525401Y-72720419D01*
X157525401Y-72720419D02*
X157287306Y-72720419D01*
D11*
X147355160Y-74752200D02*
X147498017Y-74799819D01*
X147498017Y-74799819D02*
X147736112Y-74799819D01*
X147736112Y-74799819D02*
X147831350Y-74752200D01*
X147831350Y-74752200D02*
X147878969Y-74704580D01*
X147878969Y-74704580D02*
X147926588Y-74609342D01*
X147926588Y-74609342D02*
X147926588Y-74514104D01*
X147926588Y-74514104D02*
X147878969Y-74418866D01*
X147878969Y-74418866D02*
X147831350Y-74371247D01*
X147831350Y-74371247D02*
X147736112Y-74323628D01*
X147736112Y-74323628D02*
X147545636Y-74276009D01*
X147545636Y-74276009D02*
X147450398Y-74228390D01*
X147450398Y-74228390D02*
X147402779Y-74180771D01*
X147402779Y-74180771D02*
X147355160Y-74085533D01*
X147355160Y-74085533D02*
X147355160Y-73990295D01*
X147355160Y-73990295D02*
X147402779Y-73895057D01*
X147402779Y-73895057D02*
X147450398Y-73847438D01*
X147450398Y-73847438D02*
X147545636Y-73799819D01*
X147545636Y-73799819D02*
X147783731Y-73799819D01*
X147783731Y-73799819D02*
X147926588Y-73847438D01*
X148355160Y-74133152D02*
X148355160Y-75133152D01*
X148355160Y-74180771D02*
X148450398Y-74133152D01*
X148450398Y-74133152D02*
X148640874Y-74133152D01*
X148640874Y-74133152D02*
X148736112Y-74180771D01*
X148736112Y-74180771D02*
X148783731Y-74228390D01*
X148783731Y-74228390D02*
X148831350Y-74323628D01*
X148831350Y-74323628D02*
X148831350Y-74609342D01*
X148831350Y-74609342D02*
X148783731Y-74704580D01*
X148783731Y-74704580D02*
X148736112Y-74752200D01*
X148736112Y-74752200D02*
X148640874Y-74799819D01*
X148640874Y-74799819D02*
X148450398Y-74799819D01*
X148450398Y-74799819D02*
X148355160Y-74752200D01*
X149640874Y-74752200D02*
X149545636Y-74799819D01*
X149545636Y-74799819D02*
X149355160Y-74799819D01*
X149355160Y-74799819D02*
X149259922Y-74752200D01*
X149259922Y-74752200D02*
X149212303Y-74656961D01*
X149212303Y-74656961D02*
X149212303Y-74276009D01*
X149212303Y-74276009D02*
X149259922Y-74180771D01*
X149259922Y-74180771D02*
X149355160Y-74133152D01*
X149355160Y-74133152D02*
X149545636Y-74133152D01*
X149545636Y-74133152D02*
X149640874Y-74180771D01*
X149640874Y-74180771D02*
X149688493Y-74276009D01*
X149688493Y-74276009D02*
X149688493Y-74371247D01*
X149688493Y-74371247D02*
X149212303Y-74466485D01*
X150545636Y-74799819D02*
X150545636Y-74276009D01*
X150545636Y-74276009D02*
X150498017Y-74180771D01*
X150498017Y-74180771D02*
X150402779Y-74133152D01*
X150402779Y-74133152D02*
X150212303Y-74133152D01*
X150212303Y-74133152D02*
X150117065Y-74180771D01*
X150545636Y-74752200D02*
X150450398Y-74799819D01*
X150450398Y-74799819D02*
X150212303Y-74799819D01*
X150212303Y-74799819D02*
X150117065Y-74752200D01*
X150117065Y-74752200D02*
X150069446Y-74656961D01*
X150069446Y-74656961D02*
X150069446Y-74561723D01*
X150069446Y-74561723D02*
X150117065Y-74466485D01*
X150117065Y-74466485D02*
X150212303Y-74418866D01*
X150212303Y-74418866D02*
X150450398Y-74418866D01*
X150450398Y-74418866D02*
X150545636Y-74371247D01*
X151021827Y-74799819D02*
X151021827Y-73799819D01*
X151117065Y-74418866D02*
X151402779Y-74799819D01*
X151402779Y-74133152D02*
X151021827Y-74514104D01*
X152212303Y-74752200D02*
X152117065Y-74799819D01*
X152117065Y-74799819D02*
X151926589Y-74799819D01*
X151926589Y-74799819D02*
X151831351Y-74752200D01*
X151831351Y-74752200D02*
X151783732Y-74656961D01*
X151783732Y-74656961D02*
X151783732Y-74276009D01*
X151783732Y-74276009D02*
X151831351Y-74180771D01*
X151831351Y-74180771D02*
X151926589Y-74133152D01*
X151926589Y-74133152D02*
X152117065Y-74133152D01*
X152117065Y-74133152D02*
X152212303Y-74180771D01*
X152212303Y-74180771D02*
X152259922Y-74276009D01*
X152259922Y-74276009D02*
X152259922Y-74371247D01*
X152259922Y-74371247D02*
X151783732Y-74466485D01*
X152688494Y-74799819D02*
X152688494Y-74133152D01*
X152688494Y-74323628D02*
X152736113Y-74228390D01*
X152736113Y-74228390D02*
X152783732Y-74180771D01*
X152783732Y-74180771D02*
X152878970Y-74133152D01*
X152878970Y-74133152D02*
X152974208Y-74133152D01*
X126781160Y-75260200D02*
X126924017Y-75307819D01*
X126924017Y-75307819D02*
X127162112Y-75307819D01*
X127162112Y-75307819D02*
X127257350Y-75260200D01*
X127257350Y-75260200D02*
X127304969Y-75212580D01*
X127304969Y-75212580D02*
X127352588Y-75117342D01*
X127352588Y-75117342D02*
X127352588Y-75022104D01*
X127352588Y-75022104D02*
X127304969Y-74926866D01*
X127304969Y-74926866D02*
X127257350Y-74879247D01*
X127257350Y-74879247D02*
X127162112Y-74831628D01*
X127162112Y-74831628D02*
X126971636Y-74784009D01*
X126971636Y-74784009D02*
X126876398Y-74736390D01*
X126876398Y-74736390D02*
X126828779Y-74688771D01*
X126828779Y-74688771D02*
X126781160Y-74593533D01*
X126781160Y-74593533D02*
X126781160Y-74498295D01*
X126781160Y-74498295D02*
X126828779Y-74403057D01*
X126828779Y-74403057D02*
X126876398Y-74355438D01*
X126876398Y-74355438D02*
X126971636Y-74307819D01*
X126971636Y-74307819D02*
X127209731Y-74307819D01*
X127209731Y-74307819D02*
X127352588Y-74355438D01*
X127781160Y-74641152D02*
X127781160Y-75641152D01*
X127781160Y-74688771D02*
X127876398Y-74641152D01*
X127876398Y-74641152D02*
X128066874Y-74641152D01*
X128066874Y-74641152D02*
X128162112Y-74688771D01*
X128162112Y-74688771D02*
X128209731Y-74736390D01*
X128209731Y-74736390D02*
X128257350Y-74831628D01*
X128257350Y-74831628D02*
X128257350Y-75117342D01*
X128257350Y-75117342D02*
X128209731Y-75212580D01*
X128209731Y-75212580D02*
X128162112Y-75260200D01*
X128162112Y-75260200D02*
X128066874Y-75307819D01*
X128066874Y-75307819D02*
X127876398Y-75307819D01*
X127876398Y-75307819D02*
X127781160Y-75260200D01*
X129066874Y-75260200D02*
X128971636Y-75307819D01*
X128971636Y-75307819D02*
X128781160Y-75307819D01*
X128781160Y-75307819D02*
X128685922Y-75260200D01*
X128685922Y-75260200D02*
X128638303Y-75164961D01*
X128638303Y-75164961D02*
X128638303Y-74784009D01*
X128638303Y-74784009D02*
X128685922Y-74688771D01*
X128685922Y-74688771D02*
X128781160Y-74641152D01*
X128781160Y-74641152D02*
X128971636Y-74641152D01*
X128971636Y-74641152D02*
X129066874Y-74688771D01*
X129066874Y-74688771D02*
X129114493Y-74784009D01*
X129114493Y-74784009D02*
X129114493Y-74879247D01*
X129114493Y-74879247D02*
X128638303Y-74974485D01*
X129971636Y-75307819D02*
X129971636Y-74784009D01*
X129971636Y-74784009D02*
X129924017Y-74688771D01*
X129924017Y-74688771D02*
X129828779Y-74641152D01*
X129828779Y-74641152D02*
X129638303Y-74641152D01*
X129638303Y-74641152D02*
X129543065Y-74688771D01*
X129971636Y-75260200D02*
X129876398Y-75307819D01*
X129876398Y-75307819D02*
X129638303Y-75307819D01*
X129638303Y-75307819D02*
X129543065Y-75260200D01*
X129543065Y-75260200D02*
X129495446Y-75164961D01*
X129495446Y-75164961D02*
X129495446Y-75069723D01*
X129495446Y-75069723D02*
X129543065Y-74974485D01*
X129543065Y-74974485D02*
X129638303Y-74926866D01*
X129638303Y-74926866D02*
X129876398Y-74926866D01*
X129876398Y-74926866D02*
X129971636Y-74879247D01*
X130447827Y-75307819D02*
X130447827Y-74307819D01*
X130543065Y-74926866D02*
X130828779Y-75307819D01*
X130828779Y-74641152D02*
X130447827Y-75022104D01*
X131638303Y-75260200D02*
X131543065Y-75307819D01*
X131543065Y-75307819D02*
X131352589Y-75307819D01*
X131352589Y-75307819D02*
X131257351Y-75260200D01*
X131257351Y-75260200D02*
X131209732Y-75164961D01*
X131209732Y-75164961D02*
X131209732Y-74784009D01*
X131209732Y-74784009D02*
X131257351Y-74688771D01*
X131257351Y-74688771D02*
X131352589Y-74641152D01*
X131352589Y-74641152D02*
X131543065Y-74641152D01*
X131543065Y-74641152D02*
X131638303Y-74688771D01*
X131638303Y-74688771D02*
X131685922Y-74784009D01*
X131685922Y-74784009D02*
X131685922Y-74879247D01*
X131685922Y-74879247D02*
X131209732Y-74974485D01*
X132114494Y-75307819D02*
X132114494Y-74641152D01*
X132114494Y-74831628D02*
X132162113Y-74736390D01*
X132162113Y-74736390D02*
X132209732Y-74688771D01*
X132209732Y-74688771D02*
X132304970Y-74641152D01*
X132304970Y-74641152D02*
X132400208Y-74641152D01*
D10*
X104190580Y-63174809D02*
X105190580Y-63174809D01*
X105190580Y-63174809D02*
X105190580Y-63555761D01*
X105190580Y-63555761D02*
X105142961Y-63650999D01*
X105142961Y-63650999D02*
X105095342Y-63698618D01*
X105095342Y-63698618D02*
X105000104Y-63746237D01*
X105000104Y-63746237D02*
X104857247Y-63746237D01*
X104857247Y-63746237D02*
X104762009Y-63698618D01*
X104762009Y-63698618D02*
X104714390Y-63650999D01*
X104714390Y-63650999D02*
X104666771Y-63555761D01*
X104666771Y-63555761D02*
X104666771Y-63174809D01*
X104190580Y-64317666D02*
X104238200Y-64222428D01*
X104238200Y-64222428D02*
X104285819Y-64174809D01*
X104285819Y-64174809D02*
X104381057Y-64127190D01*
X104381057Y-64127190D02*
X104666771Y-64127190D01*
X104666771Y-64127190D02*
X104762009Y-64174809D01*
X104762009Y-64174809D02*
X104809628Y-64222428D01*
X104809628Y-64222428D02*
X104857247Y-64317666D01*
X104857247Y-64317666D02*
X104857247Y-64460523D01*
X104857247Y-64460523D02*
X104809628Y-64555761D01*
X104809628Y-64555761D02*
X104762009Y-64603380D01*
X104762009Y-64603380D02*
X104666771Y-64650999D01*
X104666771Y-64650999D02*
X104381057Y-64650999D01*
X104381057Y-64650999D02*
X104285819Y-64603380D01*
X104285819Y-64603380D02*
X104238200Y-64555761D01*
X104238200Y-64555761D02*
X104190580Y-64460523D01*
X104190580Y-64460523D02*
X104190580Y-64317666D01*
X104857247Y-64984333D02*
X104190580Y-65174809D01*
X104190580Y-65174809D02*
X104666771Y-65365285D01*
X104666771Y-65365285D02*
X104190580Y-65555761D01*
X104190580Y-65555761D02*
X104857247Y-65746237D01*
X104238200Y-66508142D02*
X104190580Y-66412904D01*
X104190580Y-66412904D02*
X104190580Y-66222428D01*
X104190580Y-66222428D02*
X104238200Y-66127190D01*
X104238200Y-66127190D02*
X104333438Y-66079571D01*
X104333438Y-66079571D02*
X104714390Y-66079571D01*
X104714390Y-66079571D02*
X104809628Y-66127190D01*
X104809628Y-66127190D02*
X104857247Y-66222428D01*
X104857247Y-66222428D02*
X104857247Y-66412904D01*
X104857247Y-66412904D02*
X104809628Y-66508142D01*
X104809628Y-66508142D02*
X104714390Y-66555761D01*
X104714390Y-66555761D02*
X104619152Y-66555761D01*
X104619152Y-66555761D02*
X104523914Y-66079571D01*
X104190580Y-66984333D02*
X104857247Y-66984333D01*
X104666771Y-66984333D02*
X104762009Y-67031952D01*
X104762009Y-67031952D02*
X104809628Y-67079571D01*
X104809628Y-67079571D02*
X104857247Y-67174809D01*
X104857247Y-67174809D02*
X104857247Y-67270047D01*
D12*
G36*
X118060765Y-112058135D02*
G01*
X118354778Y-112125933D01*
X118638227Y-112238085D01*
X118906106Y-112393259D01*
X119151875Y-112588655D01*
X119367904Y-112819259D01*
X119462342Y-112945542D01*
X119546465Y-113077564D01*
X119619377Y-113213770D01*
X119681054Y-113354087D01*
X119754698Y-113583644D01*
X119783249Y-113722287D01*
X119798696Y-113855660D01*
X119801326Y-113979286D01*
X119791988Y-114097065D01*
X119771725Y-114204956D01*
X119740556Y-114306562D01*
X119699967Y-114398861D01*
X119649344Y-114484477D01*
X119589990Y-114561693D01*
X119521203Y-114631757D01*
X119356477Y-114748661D01*
X119153425Y-114833710D01*
X118909166Y-114883273D01*
X118713124Y-114893946D01*
X118539925Y-114887790D01*
X118375137Y-114868150D01*
X118236140Y-114838963D01*
X118097322Y-114797255D01*
X117910969Y-114721755D01*
X117931852Y-114532161D01*
X118158519Y-114620859D01*
X118424913Y-114676058D01*
X118620617Y-114688232D01*
X118749119Y-114682410D01*
X118870443Y-114665101D01*
X118980226Y-114637679D01*
X119082030Y-114599962D01*
X119171789Y-114554201D01*
X119253041Y-114499315D01*
X119322803Y-114437935D01*
X119383643Y-114368419D01*
X119433914Y-114292937D01*
X119474759Y-114210035D01*
X119505504Y-114120639D01*
X119526070Y-114024252D01*
X119534758Y-113809363D01*
X119495356Y-113563084D01*
X119494213Y-113558548D01*
X119409826Y-113310799D01*
X119281140Y-113073083D01*
X119108662Y-112849418D01*
X118895167Y-112646574D01*
X118647891Y-112473986D01*
X118515060Y-112402189D01*
X118380248Y-112342399D01*
X118245201Y-112295146D01*
X118111248Y-112260797D01*
X117984268Y-112240300D01*
X117861126Y-112232713D01*
X117852168Y-112232676D01*
X117712167Y-112238446D01*
X117583725Y-112255392D01*
X117470454Y-112281906D01*
X117367987Y-112317871D01*
X117278786Y-112361387D01*
X117199769Y-112412899D01*
X117132023Y-112470877D01*
X117074104Y-112535707D01*
X116987637Y-112684402D01*
X116939910Y-112859391D01*
X116933808Y-113061825D01*
X116965933Y-113257763D01*
X117044054Y-113477708D01*
X117153872Y-113660476D01*
X117289665Y-113805302D01*
X117442196Y-113908089D01*
X117520616Y-113941882D01*
X117592627Y-113961510D01*
X117654698Y-113967777D01*
X117698151Y-113960470D01*
X117731694Y-113941157D01*
X117763874Y-113879713D01*
X117760810Y-113770487D01*
X117701717Y-113580584D01*
X117679977Y-113529239D01*
X117429310Y-112969617D01*
X117726139Y-112969617D01*
X117919396Y-113391486D01*
X118026121Y-113566911D01*
X118103132Y-113660459D01*
X118188864Y-113745740D01*
X118274099Y-113813811D01*
X118361273Y-113866363D01*
X118432952Y-113895282D01*
X118502497Y-113908552D01*
X118519867Y-113909159D01*
X118581470Y-113903495D01*
X118631573Y-113887294D01*
X118668966Y-113863338D01*
X118697175Y-113832018D01*
X118728856Y-113747162D01*
X118724909Y-113626791D01*
X118717337Y-113591887D01*
X118648893Y-113415627D01*
X118534905Y-113246665D01*
X118381612Y-113100442D01*
X118295280Y-113041878D01*
X118204845Y-112994966D01*
X118115933Y-112962129D01*
X118026076Y-112942166D01*
X117944492Y-112936095D01*
X117791963Y-112952836D01*
X117726139Y-112969617D01*
X117429310Y-112969617D01*
X117352264Y-112797609D01*
X117516779Y-112738553D01*
X117633717Y-112715671D01*
X117762820Y-112702948D01*
X117835315Y-112701072D01*
X118064543Y-112723727D01*
X118291369Y-112791859D01*
X118507922Y-112904678D01*
X118703729Y-113058615D01*
X118790164Y-113148745D01*
X118867376Y-113246303D01*
X118933624Y-113348972D01*
X118989224Y-113457298D01*
X119057506Y-113654535D01*
X119075513Y-113749644D01*
X119080298Y-113836808D01*
X119073102Y-113912861D01*
X119054999Y-113980730D01*
X119027786Y-114038146D01*
X118991629Y-114087194D01*
X118896365Y-114158055D01*
X118770726Y-114192438D01*
X118721550Y-114194923D01*
X118551087Y-114172573D01*
X118374913Y-114103780D01*
X118196558Y-113985393D01*
X118032786Y-113825811D01*
X118020146Y-113825811D01*
X118031114Y-113906787D01*
X118029038Y-113977939D01*
X118016016Y-114035852D01*
X117993067Y-114084906D01*
X117923238Y-114154505D01*
X117821310Y-114190526D01*
X117763874Y-114194740D01*
X117576198Y-114171439D01*
X117376134Y-114098594D01*
X117276562Y-114043329D01*
X117179776Y-113975819D01*
X117088751Y-113897683D01*
X117003100Y-113807967D01*
X116926719Y-113710428D01*
X116857791Y-113602305D01*
X116799721Y-113488599D01*
X116750695Y-113365326D01*
X116713874Y-113241093D01*
X116688782Y-113116019D01*
X116676371Y-112993756D01*
X116676519Y-112879221D01*
X116688671Y-112768814D01*
X116711697Y-112667471D01*
X116745943Y-112571264D01*
X116789551Y-112484176D01*
X116843694Y-112403029D01*
X116906532Y-112330359D01*
X116979477Y-112264395D01*
X117061528Y-112206342D01*
X117153577Y-112155873D01*
X117256004Y-112113396D01*
X117368623Y-112079589D01*
X117628642Y-112039797D01*
X117759661Y-112035389D01*
X118060765Y-112058135D01*
G37*
D11*
X149859200Y-76379173D02*
X149859200Y-75236316D01*
X150430628Y-75807744D02*
X149287771Y-75807744D01*
D10*
X153763496Y-75387419D02*
X153287306Y-75387419D01*
X153287306Y-75387419D02*
X153287306Y-74387419D01*
X154096830Y-74863609D02*
X154430163Y-74863609D01*
X154573020Y-75387419D02*
X154096830Y-75387419D01*
X154096830Y-75387419D02*
X154096830Y-74387419D01*
X154096830Y-74387419D02*
X154573020Y-74387419D01*
X155001592Y-75387419D02*
X155001592Y-74387419D01*
X155001592Y-74387419D02*
X155239687Y-74387419D01*
X155239687Y-74387419D02*
X155382544Y-74435038D01*
X155382544Y-74435038D02*
X155477782Y-74530276D01*
X155477782Y-74530276D02*
X155525401Y-74625514D01*
X155525401Y-74625514D02*
X155573020Y-74815990D01*
X155573020Y-74815990D02*
X155573020Y-74958847D01*
X155573020Y-74958847D02*
X155525401Y-75149323D01*
X155525401Y-75149323D02*
X155477782Y-75244561D01*
X155477782Y-75244561D02*
X155382544Y-75339800D01*
X155382544Y-75339800D02*
X155239687Y-75387419D01*
X155239687Y-75387419D02*
X155001592Y-75387419D01*
X156763497Y-75387419D02*
X156763497Y-74387419D01*
X157239687Y-75387419D02*
X157239687Y-74387419D01*
X157239687Y-74387419D02*
X157811115Y-75387419D01*
X157811115Y-75387419D02*
X157811115Y-74387419D01*
D11*
X108405826Y-66421800D02*
X109548684Y-66421800D01*
D10*
X153811116Y-77546466D02*
X154573021Y-77546466D01*
X154192068Y-77927419D02*
X154192068Y-77165514D01*
X154953973Y-76927419D02*
X155573020Y-76927419D01*
X155573020Y-76927419D02*
X155239687Y-77308371D01*
X155239687Y-77308371D02*
X155382544Y-77308371D01*
X155382544Y-77308371D02*
X155477782Y-77355990D01*
X155477782Y-77355990D02*
X155525401Y-77403609D01*
X155525401Y-77403609D02*
X155573020Y-77498847D01*
X155573020Y-77498847D02*
X155573020Y-77736942D01*
X155573020Y-77736942D02*
X155525401Y-77832180D01*
X155525401Y-77832180D02*
X155477782Y-77879800D01*
X155477782Y-77879800D02*
X155382544Y-77927419D01*
X155382544Y-77927419D02*
X155096830Y-77927419D01*
X155096830Y-77927419D02*
X155001592Y-77879800D01*
X155001592Y-77879800D02*
X154953973Y-77832180D01*
X156001592Y-77832180D02*
X156049211Y-77879800D01*
X156049211Y-77879800D02*
X156001592Y-77927419D01*
X156001592Y-77927419D02*
X155953973Y-77879800D01*
X155953973Y-77879800D02*
X156001592Y-77832180D01*
X156001592Y-77832180D02*
X156001592Y-77927419D01*
X156382544Y-76927419D02*
X157001591Y-76927419D01*
X157001591Y-76927419D02*
X156668258Y-77308371D01*
X156668258Y-77308371D02*
X156811115Y-77308371D01*
X156811115Y-77308371D02*
X156906353Y-77355990D01*
X156906353Y-77355990D02*
X156953972Y-77403609D01*
X156953972Y-77403609D02*
X157001591Y-77498847D01*
X157001591Y-77498847D02*
X157001591Y-77736942D01*
X157001591Y-77736942D02*
X156953972Y-77832180D01*
X156953972Y-77832180D02*
X156906353Y-77879800D01*
X156906353Y-77879800D02*
X156811115Y-77927419D01*
X156811115Y-77927419D02*
X156525401Y-77927419D01*
X156525401Y-77927419D02*
X156430163Y-77879800D01*
X156430163Y-77879800D02*
X156382544Y-77832180D01*
X157287306Y-76927419D02*
X157620639Y-77927419D01*
X157620639Y-77927419D02*
X157953972Y-76927419D01*
D11*
X129592173Y-76962800D02*
X128449316Y-76962800D01*
X108711200Y-64187173D02*
X108711200Y-63044316D01*
X109282628Y-63615744D02*
X108139771Y-63615744D01*
X142189866Y-45510219D02*
X142189866Y-46224504D01*
X142189866Y-46224504D02*
X142142247Y-46367361D01*
X142142247Y-46367361D02*
X142047009Y-46462600D01*
X142047009Y-46462600D02*
X141904152Y-46510219D01*
X141904152Y-46510219D02*
X141808914Y-46510219D01*
X142570819Y-45510219D02*
X143189866Y-45510219D01*
X143189866Y-45510219D02*
X142856533Y-45891171D01*
X142856533Y-45891171D02*
X142999390Y-45891171D01*
X142999390Y-45891171D02*
X143094628Y-45938790D01*
X143094628Y-45938790D02*
X143142247Y-45986409D01*
X143142247Y-45986409D02*
X143189866Y-46081647D01*
X143189866Y-46081647D02*
X143189866Y-46319742D01*
X143189866Y-46319742D02*
X143142247Y-46414980D01*
X143142247Y-46414980D02*
X143094628Y-46462600D01*
X143094628Y-46462600D02*
X142999390Y-46510219D01*
X142999390Y-46510219D02*
X142713676Y-46510219D01*
X142713676Y-46510219D02*
X142618438Y-46462600D01*
X142618438Y-46462600D02*
X142570819Y-46414980D01*
X111198819Y-73826666D02*
X110722628Y-74159999D01*
X111198819Y-74398094D02*
X110198819Y-74398094D01*
X110198819Y-74398094D02*
X110198819Y-74017142D01*
X110198819Y-74017142D02*
X110246438Y-73921904D01*
X110246438Y-73921904D02*
X110294057Y-73874285D01*
X110294057Y-73874285D02*
X110389295Y-73826666D01*
X110389295Y-73826666D02*
X110532152Y-73826666D01*
X110532152Y-73826666D02*
X110627390Y-73874285D01*
X110627390Y-73874285D02*
X110675009Y-73921904D01*
X110675009Y-73921904D02*
X110722628Y-74017142D01*
X110722628Y-74017142D02*
X110722628Y-74398094D01*
X110198819Y-73493332D02*
X110198819Y-72874285D01*
X110198819Y-72874285D02*
X110579771Y-73207618D01*
X110579771Y-73207618D02*
X110579771Y-73064761D01*
X110579771Y-73064761D02*
X110627390Y-72969523D01*
X110627390Y-72969523D02*
X110675009Y-72921904D01*
X110675009Y-72921904D02*
X110770247Y-72874285D01*
X110770247Y-72874285D02*
X111008342Y-72874285D01*
X111008342Y-72874285D02*
X111103580Y-72921904D01*
X111103580Y-72921904D02*
X111151200Y-72969523D01*
X111151200Y-72969523D02*
X111198819Y-73064761D01*
X111198819Y-73064761D02*
X111198819Y-73350475D01*
X111198819Y-73350475D02*
X111151200Y-73445713D01*
X111151200Y-73445713D02*
X111103580Y-73493332D01*
X166048066Y-84461148D02*
X166762351Y-84461148D01*
X166762351Y-84461148D02*
X166905208Y-84508767D01*
X166905208Y-84508767D02*
X167000447Y-84604005D01*
X167000447Y-84604005D02*
X167048066Y-84746862D01*
X167048066Y-84746862D02*
X167048066Y-84842100D01*
X166476637Y-83842100D02*
X166429018Y-83937338D01*
X166429018Y-83937338D02*
X166381399Y-83984957D01*
X166381399Y-83984957D02*
X166286161Y-84032576D01*
X166286161Y-84032576D02*
X166238542Y-84032576D01*
X166238542Y-84032576D02*
X166143304Y-83984957D01*
X166143304Y-83984957D02*
X166095685Y-83937338D01*
X166095685Y-83937338D02*
X166048066Y-83842100D01*
X166048066Y-83842100D02*
X166048066Y-83651624D01*
X166048066Y-83651624D02*
X166095685Y-83556386D01*
X166095685Y-83556386D02*
X166143304Y-83508767D01*
X166143304Y-83508767D02*
X166238542Y-83461148D01*
X166238542Y-83461148D02*
X166286161Y-83461148D01*
X166286161Y-83461148D02*
X166381399Y-83508767D01*
X166381399Y-83508767D02*
X166429018Y-83556386D01*
X166429018Y-83556386D02*
X166476637Y-83651624D01*
X166476637Y-83651624D02*
X166476637Y-83842100D01*
X166476637Y-83842100D02*
X166524256Y-83937338D01*
X166524256Y-83937338D02*
X166571875Y-83984957D01*
X166571875Y-83984957D02*
X166667113Y-84032576D01*
X166667113Y-84032576D02*
X166857589Y-84032576D01*
X166857589Y-84032576D02*
X166952827Y-83984957D01*
X166952827Y-83984957D02*
X167000447Y-83937338D01*
X167000447Y-83937338D02*
X167048066Y-83842100D01*
X167048066Y-83842100D02*
X167048066Y-83651624D01*
X167048066Y-83651624D02*
X167000447Y-83556386D01*
X167000447Y-83556386D02*
X166952827Y-83508767D01*
X166952827Y-83508767D02*
X166857589Y-83461148D01*
X166857589Y-83461148D02*
X166667113Y-83461148D01*
X166667113Y-83461148D02*
X166571875Y-83508767D01*
X166571875Y-83508767D02*
X166524256Y-83556386D01*
X166524256Y-83556386D02*
X166476637Y-83651624D01*
X166048066Y-106305148D02*
X166762351Y-106305148D01*
X166762351Y-106305148D02*
X166905208Y-106352767D01*
X166905208Y-106352767D02*
X167000447Y-106448005D01*
X167000447Y-106448005D02*
X167048066Y-106590862D01*
X167048066Y-106590862D02*
X167048066Y-106686100D01*
X166048066Y-105400386D02*
X166048066Y-105590862D01*
X166048066Y-105590862D02*
X166095685Y-105686100D01*
X166095685Y-105686100D02*
X166143304Y-105733719D01*
X166143304Y-105733719D02*
X166286161Y-105828957D01*
X166286161Y-105828957D02*
X166476637Y-105876576D01*
X166476637Y-105876576D02*
X166857589Y-105876576D01*
X166857589Y-105876576D02*
X166952827Y-105828957D01*
X166952827Y-105828957D02*
X167000447Y-105781338D01*
X167000447Y-105781338D02*
X167048066Y-105686100D01*
X167048066Y-105686100D02*
X167048066Y-105495624D01*
X167048066Y-105495624D02*
X167000447Y-105400386D01*
X167000447Y-105400386D02*
X166952827Y-105352767D01*
X166952827Y-105352767D02*
X166857589Y-105305148D01*
X166857589Y-105305148D02*
X166619494Y-105305148D01*
X166619494Y-105305148D02*
X166524256Y-105352767D01*
X166524256Y-105352767D02*
X166476637Y-105400386D01*
X166476637Y-105400386D02*
X166429018Y-105495624D01*
X166429018Y-105495624D02*
X166429018Y-105686100D01*
X166429018Y-105686100D02*
X166476637Y-105781338D01*
X166476637Y-105781338D02*
X166524256Y-105828957D01*
X166524256Y-105828957D02*
X166619494Y-105876576D01*
X114113333Y-75779580D02*
X114065714Y-75827200D01*
X114065714Y-75827200D02*
X113922857Y-75874819D01*
X113922857Y-75874819D02*
X113827619Y-75874819D01*
X113827619Y-75874819D02*
X113684762Y-75827200D01*
X113684762Y-75827200D02*
X113589524Y-75731961D01*
X113589524Y-75731961D02*
X113541905Y-75636723D01*
X113541905Y-75636723D02*
X113494286Y-75446247D01*
X113494286Y-75446247D02*
X113494286Y-75303390D01*
X113494286Y-75303390D02*
X113541905Y-75112914D01*
X113541905Y-75112914D02*
X113589524Y-75017676D01*
X113589524Y-75017676D02*
X113684762Y-74922438D01*
X113684762Y-74922438D02*
X113827619Y-74874819D01*
X113827619Y-74874819D02*
X113922857Y-74874819D01*
X113922857Y-74874819D02*
X114065714Y-74922438D01*
X114065714Y-74922438D02*
X114113333Y-74970057D01*
X115065714Y-75874819D02*
X114494286Y-75874819D01*
X114780000Y-75874819D02*
X114780000Y-74874819D01*
X114780000Y-74874819D02*
X114684762Y-75017676D01*
X114684762Y-75017676D02*
X114589524Y-75112914D01*
X114589524Y-75112914D02*
X114494286Y-75160533D01*
X166048066Y-113671148D02*
X166762351Y-113671148D01*
X166762351Y-113671148D02*
X166905208Y-113718767D01*
X166905208Y-113718767D02*
X167000447Y-113814005D01*
X167000447Y-113814005D02*
X167048066Y-113956862D01*
X167048066Y-113956862D02*
X167048066Y-114052100D01*
X166048066Y-112718767D02*
X166048066Y-113194957D01*
X166048066Y-113194957D02*
X166524256Y-113242576D01*
X166524256Y-113242576D02*
X166476637Y-113194957D01*
X166476637Y-113194957D02*
X166429018Y-113099719D01*
X166429018Y-113099719D02*
X166429018Y-112861624D01*
X166429018Y-112861624D02*
X166476637Y-112766386D01*
X166476637Y-112766386D02*
X166524256Y-112718767D01*
X166524256Y-112718767D02*
X166619494Y-112671148D01*
X166619494Y-112671148D02*
X166857589Y-112671148D01*
X166857589Y-112671148D02*
X166952827Y-112718767D01*
X166952827Y-112718767D02*
X167000447Y-112766386D01*
X167000447Y-112766386D02*
X167048066Y-112861624D01*
X167048066Y-112861624D02*
X167048066Y-113099719D01*
X167048066Y-113099719D02*
X167000447Y-113194957D01*
X167000447Y-113194957D02*
X166952827Y-113242576D01*
X163436665Y-69574819D02*
X163436665Y-70289104D01*
X163436665Y-70289104D02*
X163389046Y-70431961D01*
X163389046Y-70431961D02*
X163293808Y-70527200D01*
X163293808Y-70527200D02*
X163150951Y-70574819D01*
X163150951Y-70574819D02*
X163055713Y-70574819D01*
X164341427Y-69908152D02*
X164341427Y-70574819D01*
X164103332Y-69527200D02*
X163865237Y-70241485D01*
X163865237Y-70241485D02*
X164484284Y-70241485D01*
X104805819Y-76239666D02*
X104329628Y-76572999D01*
X104805819Y-76811094D02*
X103805819Y-76811094D01*
X103805819Y-76811094D02*
X103805819Y-76430142D01*
X103805819Y-76430142D02*
X103853438Y-76334904D01*
X103853438Y-76334904D02*
X103901057Y-76287285D01*
X103901057Y-76287285D02*
X103996295Y-76239666D01*
X103996295Y-76239666D02*
X104139152Y-76239666D01*
X104139152Y-76239666D02*
X104234390Y-76287285D01*
X104234390Y-76287285D02*
X104282009Y-76334904D01*
X104282009Y-76334904D02*
X104329628Y-76430142D01*
X104329628Y-76430142D02*
X104329628Y-76811094D01*
X103901057Y-75858713D02*
X103853438Y-75811094D01*
X103853438Y-75811094D02*
X103805819Y-75715856D01*
X103805819Y-75715856D02*
X103805819Y-75477761D01*
X103805819Y-75477761D02*
X103853438Y-75382523D01*
X103853438Y-75382523D02*
X103901057Y-75334904D01*
X103901057Y-75334904D02*
X103996295Y-75287285D01*
X103996295Y-75287285D02*
X104091533Y-75287285D01*
X104091533Y-75287285D02*
X104234390Y-75334904D01*
X104234390Y-75334904D02*
X104805819Y-75906332D01*
X104805819Y-75906332D02*
X104805819Y-75287285D01*
X121372333Y-72336819D02*
X121039000Y-71860628D01*
X120800905Y-72336819D02*
X120800905Y-71336819D01*
X120800905Y-71336819D02*
X121181857Y-71336819D01*
X121181857Y-71336819D02*
X121277095Y-71384438D01*
X121277095Y-71384438D02*
X121324714Y-71432057D01*
X121324714Y-71432057D02*
X121372333Y-71527295D01*
X121372333Y-71527295D02*
X121372333Y-71670152D01*
X121372333Y-71670152D02*
X121324714Y-71765390D01*
X121324714Y-71765390D02*
X121277095Y-71813009D01*
X121277095Y-71813009D02*
X121181857Y-71860628D01*
X121181857Y-71860628D02*
X120800905Y-71860628D01*
X121943762Y-71765390D02*
X121848524Y-71717771D01*
X121848524Y-71717771D02*
X121800905Y-71670152D01*
X121800905Y-71670152D02*
X121753286Y-71574914D01*
X121753286Y-71574914D02*
X121753286Y-71527295D01*
X121753286Y-71527295D02*
X121800905Y-71432057D01*
X121800905Y-71432057D02*
X121848524Y-71384438D01*
X121848524Y-71384438D02*
X121943762Y-71336819D01*
X121943762Y-71336819D02*
X122134238Y-71336819D01*
X122134238Y-71336819D02*
X122229476Y-71384438D01*
X122229476Y-71384438D02*
X122277095Y-71432057D01*
X122277095Y-71432057D02*
X122324714Y-71527295D01*
X122324714Y-71527295D02*
X122324714Y-71574914D01*
X122324714Y-71574914D02*
X122277095Y-71670152D01*
X122277095Y-71670152D02*
X122229476Y-71717771D01*
X122229476Y-71717771D02*
X122134238Y-71765390D01*
X122134238Y-71765390D02*
X121943762Y-71765390D01*
X121943762Y-71765390D02*
X121848524Y-71813009D01*
X121848524Y-71813009D02*
X121800905Y-71860628D01*
X121800905Y-71860628D02*
X121753286Y-71955866D01*
X121753286Y-71955866D02*
X121753286Y-72146342D01*
X121753286Y-72146342D02*
X121800905Y-72241580D01*
X121800905Y-72241580D02*
X121848524Y-72289200D01*
X121848524Y-72289200D02*
X121943762Y-72336819D01*
X121943762Y-72336819D02*
X122134238Y-72336819D01*
X122134238Y-72336819D02*
X122229476Y-72289200D01*
X122229476Y-72289200D02*
X122277095Y-72241580D01*
X122277095Y-72241580D02*
X122324714Y-72146342D01*
X122324714Y-72146342D02*
X122324714Y-71955866D01*
X122324714Y-71955866D02*
X122277095Y-71860628D01*
X122277095Y-71860628D02*
X122229476Y-71813009D01*
X122229476Y-71813009D02*
X122134238Y-71765390D01*
X168348819Y-78970094D02*
X167348819Y-78970094D01*
X167348819Y-78970094D02*
X167348819Y-78731999D01*
X167348819Y-78731999D02*
X167396438Y-78589142D01*
X167396438Y-78589142D02*
X167491676Y-78493904D01*
X167491676Y-78493904D02*
X167586914Y-78446285D01*
X167586914Y-78446285D02*
X167777390Y-78398666D01*
X167777390Y-78398666D02*
X167920247Y-78398666D01*
X167920247Y-78398666D02*
X168110723Y-78446285D01*
X168110723Y-78446285D02*
X168205961Y-78493904D01*
X168205961Y-78493904D02*
X168301200Y-78589142D01*
X168301200Y-78589142D02*
X168348819Y-78731999D01*
X168348819Y-78731999D02*
X168348819Y-78970094D01*
X167444057Y-78017713D02*
X167396438Y-77970094D01*
X167396438Y-77970094D02*
X167348819Y-77874856D01*
X167348819Y-77874856D02*
X167348819Y-77636761D01*
X167348819Y-77636761D02*
X167396438Y-77541523D01*
X167396438Y-77541523D02*
X167444057Y-77493904D01*
X167444057Y-77493904D02*
X167539295Y-77446285D01*
X167539295Y-77446285D02*
X167634533Y-77446285D01*
X167634533Y-77446285D02*
X167777390Y-77493904D01*
X167777390Y-77493904D02*
X168348819Y-78065332D01*
X168348819Y-78065332D02*
X168348819Y-77446285D01*
X139340231Y-119907254D02*
X139006898Y-119431063D01*
X138768803Y-119907254D02*
X138768803Y-118907254D01*
X138768803Y-118907254D02*
X139149755Y-118907254D01*
X139149755Y-118907254D02*
X139244993Y-118954873D01*
X139244993Y-118954873D02*
X139292612Y-119002492D01*
X139292612Y-119002492D02*
X139340231Y-119097730D01*
X139340231Y-119097730D02*
X139340231Y-119240587D01*
X139340231Y-119240587D02*
X139292612Y-119335825D01*
X139292612Y-119335825D02*
X139244993Y-119383444D01*
X139244993Y-119383444D02*
X139149755Y-119431063D01*
X139149755Y-119431063D02*
X138768803Y-119431063D01*
X140292612Y-118954873D02*
X140197374Y-118907254D01*
X140197374Y-118907254D02*
X140054517Y-118907254D01*
X140054517Y-118907254D02*
X139911660Y-118954873D01*
X139911660Y-118954873D02*
X139816422Y-119050111D01*
X139816422Y-119050111D02*
X139768803Y-119145349D01*
X139768803Y-119145349D02*
X139721184Y-119335825D01*
X139721184Y-119335825D02*
X139721184Y-119478682D01*
X139721184Y-119478682D02*
X139768803Y-119669158D01*
X139768803Y-119669158D02*
X139816422Y-119764396D01*
X139816422Y-119764396D02*
X139911660Y-119859635D01*
X139911660Y-119859635D02*
X140054517Y-119907254D01*
X140054517Y-119907254D02*
X140149755Y-119907254D01*
X140149755Y-119907254D02*
X140292612Y-119859635D01*
X140292612Y-119859635D02*
X140340231Y-119812015D01*
X140340231Y-119812015D02*
X140340231Y-119478682D01*
X140340231Y-119478682D02*
X140149755Y-119478682D01*
X141102136Y-119383444D02*
X141244993Y-119431063D01*
X141244993Y-119431063D02*
X141292612Y-119478682D01*
X141292612Y-119478682D02*
X141340231Y-119573920D01*
X141340231Y-119573920D02*
X141340231Y-119716777D01*
X141340231Y-119716777D02*
X141292612Y-119812015D01*
X141292612Y-119812015D02*
X141244993Y-119859635D01*
X141244993Y-119859635D02*
X141149755Y-119907254D01*
X141149755Y-119907254D02*
X140768803Y-119907254D01*
X140768803Y-119907254D02*
X140768803Y-118907254D01*
X140768803Y-118907254D02*
X141102136Y-118907254D01*
X141102136Y-118907254D02*
X141197374Y-118954873D01*
X141197374Y-118954873D02*
X141244993Y-119002492D01*
X141244993Y-119002492D02*
X141292612Y-119097730D01*
X141292612Y-119097730D02*
X141292612Y-119192968D01*
X141292612Y-119192968D02*
X141244993Y-119288206D01*
X141244993Y-119288206D02*
X141197374Y-119335825D01*
X141197374Y-119335825D02*
X141102136Y-119383444D01*
X141102136Y-119383444D02*
X140768803Y-119383444D01*
X142292612Y-119907254D02*
X141721184Y-119907254D01*
X142006898Y-119907254D02*
X142006898Y-118907254D01*
X142006898Y-118907254D02*
X141911660Y-119050111D01*
X141911660Y-119050111D02*
X141816422Y-119145349D01*
X141816422Y-119145349D02*
X141721184Y-119192968D01*
X132673564Y-69488254D02*
X132197374Y-69488254D01*
X132197374Y-69488254D02*
X132197374Y-68488254D01*
X133006898Y-68964444D02*
X133340231Y-68964444D01*
X133483088Y-69488254D02*
X133006898Y-69488254D01*
X133006898Y-69488254D02*
X133006898Y-68488254D01*
X133006898Y-68488254D02*
X133483088Y-68488254D01*
X133911660Y-69488254D02*
X133911660Y-68488254D01*
X133911660Y-68488254D02*
X134149755Y-68488254D01*
X134149755Y-68488254D02*
X134292612Y-68535873D01*
X134292612Y-68535873D02*
X134387850Y-68631111D01*
X134387850Y-68631111D02*
X134435469Y-68726349D01*
X134435469Y-68726349D02*
X134483088Y-68916825D01*
X134483088Y-68916825D02*
X134483088Y-69059682D01*
X134483088Y-69059682D02*
X134435469Y-69250158D01*
X134435469Y-69250158D02*
X134387850Y-69345396D01*
X134387850Y-69345396D02*
X134292612Y-69440635D01*
X134292612Y-69440635D02*
X134149755Y-69488254D01*
X134149755Y-69488254D02*
X133911660Y-69488254D01*
X134673565Y-69583492D02*
X135435469Y-69583492D01*
X136244993Y-69488254D02*
X135911660Y-69012063D01*
X135673565Y-69488254D02*
X135673565Y-68488254D01*
X135673565Y-68488254D02*
X136054517Y-68488254D01*
X136054517Y-68488254D02*
X136149755Y-68535873D01*
X136149755Y-68535873D02*
X136197374Y-68583492D01*
X136197374Y-68583492D02*
X136244993Y-68678730D01*
X136244993Y-68678730D02*
X136244993Y-68821587D01*
X136244993Y-68821587D02*
X136197374Y-68916825D01*
X136197374Y-68916825D02*
X136149755Y-68964444D01*
X136149755Y-68964444D02*
X136054517Y-69012063D01*
X136054517Y-69012063D02*
X135673565Y-69012063D01*
X136673565Y-69488254D02*
X136673565Y-68821587D01*
X136673565Y-68488254D02*
X136625946Y-68535873D01*
X136625946Y-68535873D02*
X136673565Y-68583492D01*
X136673565Y-68583492D02*
X136721184Y-68535873D01*
X136721184Y-68535873D02*
X136673565Y-68488254D01*
X136673565Y-68488254D02*
X136673565Y-68583492D01*
X137149755Y-68821587D02*
X137149755Y-69488254D01*
X137149755Y-68916825D02*
X137197374Y-68869206D01*
X137197374Y-68869206D02*
X137292612Y-68821587D01*
X137292612Y-68821587D02*
X137435469Y-68821587D01*
X137435469Y-68821587D02*
X137530707Y-68869206D01*
X137530707Y-68869206D02*
X137578326Y-68964444D01*
X137578326Y-68964444D02*
X137578326Y-69488254D01*
X138483088Y-68821587D02*
X138483088Y-69631111D01*
X138483088Y-69631111D02*
X138435469Y-69726349D01*
X138435469Y-69726349D02*
X138387850Y-69773968D01*
X138387850Y-69773968D02*
X138292612Y-69821587D01*
X138292612Y-69821587D02*
X138149755Y-69821587D01*
X138149755Y-69821587D02*
X138054517Y-69773968D01*
X138483088Y-69440635D02*
X138387850Y-69488254D01*
X138387850Y-69488254D02*
X138197374Y-69488254D01*
X138197374Y-69488254D02*
X138102136Y-69440635D01*
X138102136Y-69440635D02*
X138054517Y-69393015D01*
X138054517Y-69393015D02*
X138006898Y-69297777D01*
X138006898Y-69297777D02*
X138006898Y-69012063D01*
X138006898Y-69012063D02*
X138054517Y-68916825D01*
X138054517Y-68916825D02*
X138102136Y-68869206D01*
X138102136Y-68869206D02*
X138197374Y-68821587D01*
X138197374Y-68821587D02*
X138387850Y-68821587D01*
X138387850Y-68821587D02*
X138483088Y-68869206D01*
X138721184Y-69583492D02*
X139483088Y-69583492D01*
X140244993Y-69488254D02*
X139673565Y-69488254D01*
X139959279Y-69488254D02*
X139959279Y-68488254D01*
X139959279Y-68488254D02*
X139864041Y-68631111D01*
X139864041Y-68631111D02*
X139768803Y-68726349D01*
X139768803Y-68726349D02*
X139673565Y-68773968D01*
X141102136Y-68488254D02*
X140911660Y-68488254D01*
X140911660Y-68488254D02*
X140816422Y-68535873D01*
X140816422Y-68535873D02*
X140768803Y-68583492D01*
X140768803Y-68583492D02*
X140673565Y-68726349D01*
X140673565Y-68726349D02*
X140625946Y-68916825D01*
X140625946Y-68916825D02*
X140625946Y-69297777D01*
X140625946Y-69297777D02*
X140673565Y-69393015D01*
X140673565Y-69393015D02*
X140721184Y-69440635D01*
X140721184Y-69440635D02*
X140816422Y-69488254D01*
X140816422Y-69488254D02*
X141006898Y-69488254D01*
X141006898Y-69488254D02*
X141102136Y-69440635D01*
X141102136Y-69440635D02*
X141149755Y-69393015D01*
X141149755Y-69393015D02*
X141197374Y-69297777D01*
X141197374Y-69297777D02*
X141197374Y-69059682D01*
X141197374Y-69059682D02*
X141149755Y-68964444D01*
X141149755Y-68964444D02*
X141102136Y-68916825D01*
X141102136Y-68916825D02*
X141006898Y-68869206D01*
X141006898Y-68869206D02*
X140816422Y-68869206D01*
X140816422Y-68869206D02*
X140721184Y-68916825D01*
X140721184Y-68916825D02*
X140673565Y-68964444D01*
X140673565Y-68964444D02*
X140625946Y-69059682D01*
X141387851Y-69583492D02*
X142149755Y-69583492D01*
X142292613Y-68488254D02*
X142530708Y-69488254D01*
X142530708Y-69488254D02*
X142721184Y-68773968D01*
X142721184Y-68773968D02*
X142911660Y-69488254D01*
X142911660Y-69488254D02*
X143149756Y-68488254D01*
X143483089Y-69440635D02*
X143625946Y-69488254D01*
X143625946Y-69488254D02*
X143864041Y-69488254D01*
X143864041Y-69488254D02*
X143959279Y-69440635D01*
X143959279Y-69440635D02*
X144006898Y-69393015D01*
X144006898Y-69393015D02*
X144054517Y-69297777D01*
X144054517Y-69297777D02*
X144054517Y-69202539D01*
X144054517Y-69202539D02*
X144006898Y-69107301D01*
X144006898Y-69107301D02*
X143959279Y-69059682D01*
X143959279Y-69059682D02*
X143864041Y-69012063D01*
X143864041Y-69012063D02*
X143673565Y-68964444D01*
X143673565Y-68964444D02*
X143578327Y-68916825D01*
X143578327Y-68916825D02*
X143530708Y-68869206D01*
X143530708Y-68869206D02*
X143483089Y-68773968D01*
X143483089Y-68773968D02*
X143483089Y-68678730D01*
X143483089Y-68678730D02*
X143530708Y-68583492D01*
X143530708Y-68583492D02*
X143578327Y-68535873D01*
X143578327Y-68535873D02*
X143673565Y-68488254D01*
X143673565Y-68488254D02*
X143911660Y-68488254D01*
X143911660Y-68488254D02*
X144054517Y-68535873D01*
X144435470Y-68583492D02*
X144483089Y-68535873D01*
X144483089Y-68535873D02*
X144578327Y-68488254D01*
X144578327Y-68488254D02*
X144816422Y-68488254D01*
X144816422Y-68488254D02*
X144911660Y-68535873D01*
X144911660Y-68535873D02*
X144959279Y-68583492D01*
X144959279Y-68583492D02*
X145006898Y-68678730D01*
X145006898Y-68678730D02*
X145006898Y-68773968D01*
X145006898Y-68773968D02*
X144959279Y-68916825D01*
X144959279Y-68916825D02*
X144387851Y-69488254D01*
X144387851Y-69488254D02*
X145006898Y-69488254D01*
X145578327Y-68916825D02*
X145483089Y-68869206D01*
X145483089Y-68869206D02*
X145435470Y-68821587D01*
X145435470Y-68821587D02*
X145387851Y-68726349D01*
X145387851Y-68726349D02*
X145387851Y-68678730D01*
X145387851Y-68678730D02*
X145435470Y-68583492D01*
X145435470Y-68583492D02*
X145483089Y-68535873D01*
X145483089Y-68535873D02*
X145578327Y-68488254D01*
X145578327Y-68488254D02*
X145768803Y-68488254D01*
X145768803Y-68488254D02*
X145864041Y-68535873D01*
X145864041Y-68535873D02*
X145911660Y-68583492D01*
X145911660Y-68583492D02*
X145959279Y-68678730D01*
X145959279Y-68678730D02*
X145959279Y-68726349D01*
X145959279Y-68726349D02*
X145911660Y-68821587D01*
X145911660Y-68821587D02*
X145864041Y-68869206D01*
X145864041Y-68869206D02*
X145768803Y-68916825D01*
X145768803Y-68916825D02*
X145578327Y-68916825D01*
X145578327Y-68916825D02*
X145483089Y-68964444D01*
X145483089Y-68964444D02*
X145435470Y-69012063D01*
X145435470Y-69012063D02*
X145387851Y-69107301D01*
X145387851Y-69107301D02*
X145387851Y-69297777D01*
X145387851Y-69297777D02*
X145435470Y-69393015D01*
X145435470Y-69393015D02*
X145483089Y-69440635D01*
X145483089Y-69440635D02*
X145578327Y-69488254D01*
X145578327Y-69488254D02*
X145768803Y-69488254D01*
X145768803Y-69488254D02*
X145864041Y-69440635D01*
X145864041Y-69440635D02*
X145911660Y-69393015D01*
X145911660Y-69393015D02*
X145959279Y-69297777D01*
X145959279Y-69297777D02*
X145959279Y-69107301D01*
X145959279Y-69107301D02*
X145911660Y-69012063D01*
X145911660Y-69012063D02*
X145864041Y-68964444D01*
X145864041Y-68964444D02*
X145768803Y-68916825D01*
X146911660Y-69488254D02*
X146340232Y-69488254D01*
X146625946Y-69488254D02*
X146625946Y-68488254D01*
X146625946Y-68488254D02*
X146530708Y-68631111D01*
X146530708Y-68631111D02*
X146435470Y-68726349D01*
X146435470Y-68726349D02*
X146340232Y-68773968D01*
X147292613Y-68583492D02*
X147340232Y-68535873D01*
X147340232Y-68535873D02*
X147435470Y-68488254D01*
X147435470Y-68488254D02*
X147673565Y-68488254D01*
X147673565Y-68488254D02*
X147768803Y-68535873D01*
X147768803Y-68535873D02*
X147816422Y-68583492D01*
X147816422Y-68583492D02*
X147864041Y-68678730D01*
X147864041Y-68678730D02*
X147864041Y-68773968D01*
X147864041Y-68773968D02*
X147816422Y-68916825D01*
X147816422Y-68916825D02*
X147244994Y-69488254D01*
X147244994Y-69488254D02*
X147864041Y-69488254D01*
X148625946Y-68964444D02*
X148768803Y-69012063D01*
X148768803Y-69012063D02*
X148816422Y-69059682D01*
X148816422Y-69059682D02*
X148864041Y-69154920D01*
X148864041Y-69154920D02*
X148864041Y-69297777D01*
X148864041Y-69297777D02*
X148816422Y-69393015D01*
X148816422Y-69393015D02*
X148768803Y-69440635D01*
X148768803Y-69440635D02*
X148673565Y-69488254D01*
X148673565Y-69488254D02*
X148292613Y-69488254D01*
X148292613Y-69488254D02*
X148292613Y-68488254D01*
X148292613Y-68488254D02*
X148625946Y-68488254D01*
X148625946Y-68488254D02*
X148721184Y-68535873D01*
X148721184Y-68535873D02*
X148768803Y-68583492D01*
X148768803Y-68583492D02*
X148816422Y-68678730D01*
X148816422Y-68678730D02*
X148816422Y-68773968D01*
X148816422Y-68773968D02*
X148768803Y-68869206D01*
X148768803Y-68869206D02*
X148721184Y-68916825D01*
X148721184Y-68916825D02*
X148625946Y-68964444D01*
X148625946Y-68964444D02*
X148292613Y-68964444D01*
D13*
X138911428Y-77054600D02*
X140054286Y-77054600D01*
X139482857Y-77626028D02*
X139482857Y-76483171D01*
X141482857Y-76126028D02*
X140768571Y-76126028D01*
X140768571Y-76126028D02*
X140697143Y-76840314D01*
X140697143Y-76840314D02*
X140768571Y-76768885D01*
X140768571Y-76768885D02*
X140911429Y-76697457D01*
X140911429Y-76697457D02*
X141268571Y-76697457D01*
X141268571Y-76697457D02*
X141411429Y-76768885D01*
X141411429Y-76768885D02*
X141482857Y-76840314D01*
X141482857Y-76840314D02*
X141554286Y-76983171D01*
X141554286Y-76983171D02*
X141554286Y-77340314D01*
X141554286Y-77340314D02*
X141482857Y-77483171D01*
X141482857Y-77483171D02*
X141411429Y-77554600D01*
X141411429Y-77554600D02*
X141268571Y-77626028D01*
X141268571Y-77626028D02*
X140911429Y-77626028D01*
X140911429Y-77626028D02*
X140768571Y-77554600D01*
X140768571Y-77554600D02*
X140697143Y-77483171D01*
X141982857Y-76126028D02*
X142482857Y-77626028D01*
X142482857Y-77626028D02*
X142982857Y-76126028D01*
X139491041Y-70839892D02*
X139348184Y-70768463D01*
X139348184Y-70768463D02*
X139133898Y-70768463D01*
X139133898Y-70768463D02*
X138919612Y-70839892D01*
X138919612Y-70839892D02*
X138776755Y-70982749D01*
X138776755Y-70982749D02*
X138705326Y-71125606D01*
X138705326Y-71125606D02*
X138633898Y-71411320D01*
X138633898Y-71411320D02*
X138633898Y-71625606D01*
X138633898Y-71625606D02*
X138705326Y-71911320D01*
X138705326Y-71911320D02*
X138776755Y-72054177D01*
X138776755Y-72054177D02*
X138919612Y-72197035D01*
X138919612Y-72197035D02*
X139133898Y-72268463D01*
X139133898Y-72268463D02*
X139276755Y-72268463D01*
X139276755Y-72268463D02*
X139491041Y-72197035D01*
X139491041Y-72197035D02*
X139562469Y-72125606D01*
X139562469Y-72125606D02*
X139562469Y-71625606D01*
X139562469Y-71625606D02*
X139276755Y-71625606D01*
X140205326Y-72268463D02*
X140205326Y-70768463D01*
X140205326Y-70768463D02*
X141062469Y-72268463D01*
X141062469Y-72268463D02*
X141062469Y-70768463D01*
X141776755Y-72268463D02*
X141776755Y-70768463D01*
X141776755Y-70768463D02*
X142133898Y-70768463D01*
X142133898Y-70768463D02*
X142348184Y-70839892D01*
X142348184Y-70839892D02*
X142491041Y-70982749D01*
X142491041Y-70982749D02*
X142562470Y-71125606D01*
X142562470Y-71125606D02*
X142633898Y-71411320D01*
X142633898Y-71411320D02*
X142633898Y-71625606D01*
X142633898Y-71625606D02*
X142562470Y-71911320D01*
X142562470Y-71911320D02*
X142491041Y-72054177D01*
X142491041Y-72054177D02*
X142348184Y-72197035D01*
X142348184Y-72197035D02*
X142133898Y-72268463D01*
X142133898Y-72268463D02*
X141776755Y-72268463D01*
X141820176Y-75443463D02*
X141820176Y-73943463D01*
X141820176Y-73943463D02*
X142177319Y-73943463D01*
X142177319Y-73943463D02*
X142391605Y-74014892D01*
X142391605Y-74014892D02*
X142534462Y-74157749D01*
X142534462Y-74157749D02*
X142605891Y-74300606D01*
X142605891Y-74300606D02*
X142677319Y-74586320D01*
X142677319Y-74586320D02*
X142677319Y-74800606D01*
X142677319Y-74800606D02*
X142605891Y-75086320D01*
X142605891Y-75086320D02*
X142534462Y-75229177D01*
X142534462Y-75229177D02*
X142391605Y-75372035D01*
X142391605Y-75372035D02*
X142177319Y-75443463D01*
X142177319Y-75443463D02*
X141820176Y-75443463D01*
X143320176Y-75443463D02*
X143320176Y-73943463D01*
D11*
X166048066Y-97669148D02*
X166762351Y-97669148D01*
X166762351Y-97669148D02*
X166905208Y-97716767D01*
X166905208Y-97716767D02*
X167000447Y-97812005D01*
X167000447Y-97812005D02*
X167048066Y-97954862D01*
X167048066Y-97954862D02*
X167048066Y-98050100D01*
X166048066Y-97288195D02*
X166048066Y-96621529D01*
X166048066Y-96621529D02*
X167048066Y-97050100D01*
X109674819Y-81446666D02*
X109198628Y-81779999D01*
X109674819Y-82018094D02*
X108674819Y-82018094D01*
X108674819Y-82018094D02*
X108674819Y-81637142D01*
X108674819Y-81637142D02*
X108722438Y-81541904D01*
X108722438Y-81541904D02*
X108770057Y-81494285D01*
X108770057Y-81494285D02*
X108865295Y-81446666D01*
X108865295Y-81446666D02*
X109008152Y-81446666D01*
X109008152Y-81446666D02*
X109103390Y-81494285D01*
X109103390Y-81494285D02*
X109151009Y-81541904D01*
X109151009Y-81541904D02*
X109198628Y-81637142D01*
X109198628Y-81637142D02*
X109198628Y-82018094D01*
X109674819Y-80494285D02*
X109674819Y-81065713D01*
X109674819Y-80779999D02*
X108674819Y-80779999D01*
X108674819Y-80779999D02*
X108817676Y-80875237D01*
X108817676Y-80875237D02*
X108912914Y-80970475D01*
X108912914Y-80970475D02*
X108960533Y-81065713D01*
X176366819Y-75202094D02*
X175366819Y-75202094D01*
X175366819Y-75202094D02*
X175366819Y-74963999D01*
X175366819Y-74963999D02*
X175414438Y-74821142D01*
X175414438Y-74821142D02*
X175509676Y-74725904D01*
X175509676Y-74725904D02*
X175604914Y-74678285D01*
X175604914Y-74678285D02*
X175795390Y-74630666D01*
X175795390Y-74630666D02*
X175938247Y-74630666D01*
X175938247Y-74630666D02*
X176128723Y-74678285D01*
X176128723Y-74678285D02*
X176223961Y-74725904D01*
X176223961Y-74725904D02*
X176319200Y-74821142D01*
X176319200Y-74821142D02*
X176366819Y-74963999D01*
X176366819Y-74963999D02*
X176366819Y-75202094D01*
X176366819Y-73678285D02*
X176366819Y-74249713D01*
X176366819Y-73963999D02*
X175366819Y-73963999D01*
X175366819Y-73963999D02*
X175509676Y-74059237D01*
X175509676Y-74059237D02*
X175604914Y-74154475D01*
X175604914Y-74154475D02*
X175652533Y-74249713D01*
X172174819Y-61293333D02*
X172889104Y-61293333D01*
X172889104Y-61293333D02*
X173031961Y-61340952D01*
X173031961Y-61340952D02*
X173127200Y-61436190D01*
X173127200Y-61436190D02*
X173174819Y-61579047D01*
X173174819Y-61579047D02*
X173174819Y-61674285D01*
X173174819Y-60293333D02*
X173174819Y-60864761D01*
X173174819Y-60579047D02*
X172174819Y-60579047D01*
X172174819Y-60579047D02*
X172317676Y-60674285D01*
X172317676Y-60674285D02*
X172412914Y-60769523D01*
X172412914Y-60769523D02*
X172460533Y-60864761D01*
X118106580Y-73953666D02*
X118154200Y-74001285D01*
X118154200Y-74001285D02*
X118201819Y-74144142D01*
X118201819Y-74144142D02*
X118201819Y-74239380D01*
X118201819Y-74239380D02*
X118154200Y-74382237D01*
X118154200Y-74382237D02*
X118058961Y-74477475D01*
X118058961Y-74477475D02*
X117963723Y-74525094D01*
X117963723Y-74525094D02*
X117773247Y-74572713D01*
X117773247Y-74572713D02*
X117630390Y-74572713D01*
X117630390Y-74572713D02*
X117439914Y-74525094D01*
X117439914Y-74525094D02*
X117344676Y-74477475D01*
X117344676Y-74477475D02*
X117249438Y-74382237D01*
X117249438Y-74382237D02*
X117201819Y-74239380D01*
X117201819Y-74239380D02*
X117201819Y-74144142D01*
X117201819Y-74144142D02*
X117249438Y-74001285D01*
X117249438Y-74001285D02*
X117297057Y-73953666D01*
X117297057Y-73572713D02*
X117249438Y-73525094D01*
X117249438Y-73525094D02*
X117201819Y-73429856D01*
X117201819Y-73429856D02*
X117201819Y-73191761D01*
X117201819Y-73191761D02*
X117249438Y-73096523D01*
X117249438Y-73096523D02*
X117297057Y-73048904D01*
X117297057Y-73048904D02*
X117392295Y-73001285D01*
X117392295Y-73001285D02*
X117487533Y-73001285D01*
X117487533Y-73001285D02*
X117630390Y-73048904D01*
X117630390Y-73048904D02*
X118201819Y-73620332D01*
X118201819Y-73620332D02*
X118201819Y-73001285D01*
D14*
%TO.C,J9*%
X105223000Y-62551000D02*
X106553000Y-62551000D01*
X105223000Y-63881000D02*
X105223000Y-62551000D01*
X105223000Y-65151001D02*
X105223000Y-67751000D01*
X105223000Y-65151001D02*
X107883000Y-65151001D01*
X105223000Y-67751000D02*
X107883000Y-67751000D01*
X107883000Y-65151001D02*
X107883000Y-67751000D01*
%TO.C,J3*%
X143936200Y-46255400D02*
X145436200Y-46255400D01*
X143936200Y-62255400D02*
X143936200Y-46255400D01*
X145436200Y-45055400D02*
X146936200Y-45055400D01*
X145436200Y-46255400D02*
X145436200Y-45055400D01*
X146936200Y-43255400D02*
X152936200Y-43255400D01*
X146936200Y-45055400D02*
X146936200Y-43255400D01*
X147936200Y-43255400D02*
X147936200Y-46255400D01*
X147936200Y-46255400D02*
X151936200Y-46255400D01*
X151936200Y-46255400D02*
X151936200Y-43255400D01*
X152936200Y-43255400D02*
X152936200Y-45055400D01*
X152936200Y-45055400D02*
X154436200Y-45055400D01*
X154436200Y-45055400D02*
X154436200Y-46255400D01*
X154436200Y-46255400D02*
X155936200Y-46255400D01*
X155936199Y-62255400D02*
X143936200Y-62255400D01*
X155936200Y-46255400D02*
X155936199Y-62255400D01*
%TO.C,R3*%
X111660000Y-67850000D02*
X111660000Y-74390000D01*
X111660000Y-74390000D02*
X111990000Y-74390000D01*
X111990001Y-67850000D02*
X111660000Y-67850000D01*
X114069999Y-67850000D02*
X114400000Y-67850000D01*
X114400000Y-67850000D02*
X114400000Y-74390000D01*
X114400000Y-74390000D02*
X114070000Y-74390000D01*
%TO.C,C1*%
X113515000Y-76550000D02*
X115045000Y-76550000D01*
X115045000Y-78390000D02*
X113515000Y-78390000D01*
%TO.C,J4*%
X158115000Y-71120000D02*
X159385000Y-71120000D01*
X158115000Y-72390000D02*
X158115000Y-71120000D01*
X160462357Y-74500000D02*
X160775000Y-74500001D01*
X160462358Y-75359999D02*
X160775000Y-75359999D01*
X160462358Y-77040000D02*
X160775000Y-77040000D01*
X160462358Y-77900000D02*
X160775000Y-77900000D01*
X160545000Y-71960000D02*
X160775000Y-71960000D01*
X160545000Y-72820000D02*
X160775000Y-72820000D01*
X160775000Y-71010000D02*
X160775000Y-78850000D01*
X160775000Y-73660000D02*
X163534999Y-73660000D01*
X160775000Y-76200000D02*
X163535000Y-76200000D01*
X160775000Y-78850000D02*
X163535000Y-78850000D01*
X163534999Y-74500000D02*
X169535000Y-74500000D01*
X163535000Y-71010000D02*
X160775000Y-71010000D01*
X163535000Y-77040000D02*
X169535000Y-77040000D01*
X163535000Y-78850000D02*
X163535000Y-71010000D01*
X169535000Y-74500000D02*
X169535000Y-75360000D01*
X169535000Y-75360000D02*
X163535000Y-75359999D01*
X169535000Y-77040000D02*
X169535000Y-77900000D01*
X169535000Y-77900000D02*
X163535000Y-77900000D01*
X169535000Y-72820000D02*
X163535000Y-72820000D01*
X163535000Y-71960000D01*
X169535000Y-71960000D01*
X169535000Y-72820000D01*
G36*
X169535000Y-72820000D02*
G01*
X163535000Y-72820000D01*
X163535000Y-71960000D01*
X169535000Y-71960000D01*
X169535000Y-72820000D01*
G37*
%TO.C,R2*%
X105183000Y-70390000D02*
X105183000Y-76930000D01*
X105183000Y-76930000D02*
X105513000Y-76930000D01*
X105513001Y-70390000D02*
X105183000Y-70390000D01*
X107592999Y-70390000D02*
X107923000Y-70390000D01*
X107923000Y-70390000D02*
X107923000Y-76930000D01*
X107923000Y-76930000D02*
X107593000Y-76930000D01*
%TO.C,R8*%
X116110000Y-68353000D02*
X116110000Y-68683000D01*
X116110000Y-71093000D02*
X116110000Y-70763000D01*
X122650000Y-68353000D02*
X116110000Y-68353000D01*
X122650000Y-68683000D02*
X122650000Y-68353000D01*
X122650000Y-70763000D02*
X122650000Y-71093000D01*
X122650000Y-71093000D02*
X116110000Y-71093000D01*
%TO.C,D2*%
X168866000Y-72616000D02*
X168866000Y-76736000D01*
X168866000Y-76076000D02*
X170986000Y-76076000D01*
X170986000Y-76736000D02*
X170986000Y-72616000D01*
%TO.C,RGB1*%
D10*
X118535898Y-96933435D02*
X123535898Y-96933435D01*
X123535898Y-91933435D01*
X118535898Y-91933435D01*
X118535898Y-96933435D01*
X138006898Y-72462435D02*
X143006898Y-72462435D01*
X143006898Y-77462435D01*
X138006898Y-77462435D01*
X138006898Y-72462435D01*
X143006898Y-116404435D02*
X138006898Y-116404435D01*
X138006898Y-111404435D01*
X143006898Y-111404435D01*
X143006898Y-116404435D01*
X162477898Y-91933435D02*
X157477898Y-91933435D01*
X157477898Y-96933435D01*
X162477898Y-96933435D01*
X162477898Y-91933435D01*
X123157218Y-94433435D02*
G75*
G02*
X118914578Y-94433435I-2121320J0D01*
G01*
X118914578Y-94433435D02*
G75*
G02*
X123157218Y-94433435I2121320J0D01*
G01*
X124639360Y-86982206D02*
G75*
G02*
X120396720Y-86982206I-2121320J0D01*
G01*
X120396720Y-86982206D02*
G75*
G02*
X124639360Y-86982206I2121320J0D01*
G01*
X124639360Y-101884664D02*
G75*
G02*
X120396720Y-101884664I-2121320J0D01*
G01*
X120396720Y-101884664D02*
G75*
G02*
X124639360Y-101884664I2121320J0D01*
G01*
X128860142Y-80665359D02*
G75*
G02*
X124617502Y-80665359I-2121320J0D01*
G01*
X124617502Y-80665359D02*
G75*
G02*
X128860142Y-80665359I2121320J0D01*
G01*
X128860142Y-108201511D02*
G75*
G02*
X124617502Y-108201511I-2121320J0D01*
G01*
X124617502Y-108201511D02*
G75*
G02*
X128860142Y-108201511I2121320J0D01*
G01*
X135176989Y-112422293D02*
G75*
G02*
X130934349Y-112422293I-2121320J0D01*
G01*
X130934349Y-112422293D02*
G75*
G02*
X135176989Y-112422293I2121320J0D01*
G01*
X142628218Y-74962435D02*
G75*
G02*
X138385578Y-74962435I-2121320J0D01*
G01*
X138385578Y-74962435D02*
G75*
G02*
X142628218Y-74962435I2121320J0D01*
G01*
D15*
X156006898Y-94433435D02*
G75*
G02*
X125006898Y-94433435I-15500000J0D01*
G01*
X125006898Y-94433435D02*
G75*
G02*
X156006898Y-94433435I15500000J0D01*
G01*
X164471898Y-94433435D02*
G75*
G02*
X116541898Y-94433435I-23965000J0D01*
G01*
X116541898Y-94433435D02*
G75*
G02*
X164471898Y-94433435I23965000J0D01*
G01*
D10*
X142628218Y-113904435D02*
G75*
G02*
X138385578Y-113904435I-2121320J0D01*
G01*
X138385578Y-113904435D02*
G75*
G02*
X142628218Y-113904435I2121320J0D01*
G01*
X150079447Y-112422293D02*
G75*
G02*
X145836807Y-112422293I-2121320J0D01*
G01*
X145836807Y-112422293D02*
G75*
G02*
X150079447Y-112422293I2121320J0D01*
G01*
X156396294Y-80665359D02*
G75*
G02*
X152153654Y-80665359I-2121320J0D01*
G01*
X152153654Y-80665359D02*
G75*
G02*
X156396294Y-80665359I2121320J0D01*
G01*
X156396294Y-108201511D02*
G75*
G02*
X152153654Y-108201511I-2121320J0D01*
G01*
X152153654Y-108201511D02*
G75*
G02*
X156396294Y-108201511I2121320J0D01*
G01*
X160617076Y-86982206D02*
G75*
G02*
X156374436Y-86982206I-2121320J0D01*
G01*
X156374436Y-86982206D02*
G75*
G02*
X160617076Y-86982206I2121320J0D01*
G01*
X160617076Y-101884664D02*
G75*
G02*
X156374436Y-101884664I-2121320J0D01*
G01*
X156374436Y-101884664D02*
G75*
G02*
X160617076Y-101884664I2121320J0D01*
G01*
X162099218Y-94433435D02*
G75*
G02*
X157856578Y-94433435I-2121320J0D01*
G01*
X157856578Y-94433435D02*
G75*
G02*
X162099218Y-94433435I2121320J0D01*
G01*
X125784447Y-85629216D02*
X123871030Y-90248613D01*
X119251633Y-88335196D01*
X121165050Y-83715799D01*
X125784447Y-85629216D01*
X125784447Y-103237654D02*
X121165050Y-105151071D01*
X119251633Y-100531674D01*
X123871030Y-98618257D01*
X125784447Y-103237654D01*
X130274356Y-80665359D02*
X126738822Y-84200893D01*
X123203288Y-80665359D01*
X126738822Y-77129825D01*
X130274356Y-80665359D01*
X130274356Y-108201511D02*
X126738822Y-111737045D01*
X123203288Y-108201511D01*
X126738822Y-104665977D01*
X130274356Y-108201511D01*
X136322076Y-111069303D02*
X134408659Y-115688700D01*
X129789262Y-113775283D01*
X131702679Y-109155886D01*
X136322076Y-111069303D01*
X151224534Y-75091587D02*
X149311117Y-79710984D01*
X146856898Y-78685435D01*
X148253306Y-73860864D01*
X151224534Y-75091587D01*
X151224534Y-113775283D02*
X146605137Y-115688700D01*
X144691720Y-111069303D01*
X149311117Y-109155886D01*
X151224534Y-113775283D01*
X157810508Y-80665359D02*
X154274974Y-84200893D01*
X150739440Y-80665359D01*
X154274974Y-77129825D01*
X157810508Y-80665359D01*
X157810508Y-108201511D02*
X154274974Y-111737045D01*
X150739440Y-108201511D01*
X154274974Y-104665977D01*
X157810508Y-108201511D01*
X161762163Y-88335196D02*
X157142766Y-90248613D01*
X155229349Y-85629216D01*
X159848746Y-83715799D01*
X161762163Y-88335196D01*
X161762163Y-100531674D02*
X159848746Y-105151071D01*
X155229349Y-103237654D01*
X157142766Y-98618257D01*
X161762163Y-100531674D01*
X133648898Y-76145435D02*
X134283898Y-78558435D01*
X131702679Y-79710984D01*
X129789262Y-75091587D01*
X133022194Y-73752463D01*
X133648898Y-76145435D01*
X146954306Y-78313929D02*
X146954306Y-78313929D01*
G75*
G02*
X148088748Y-74326778I1004194J1869229D01*
G01*
X146954306Y-78313929D01*
X133186290Y-74326778D02*
X134172665Y-78248588D01*
X134059490Y-78313929D01*
X133942507Y-78372180D01*
X133822160Y-78423118D01*
X133698905Y-78466552D01*
X133573211Y-78502315D01*
X133445553Y-78530272D01*
X133316416Y-78550318D01*
X133186290Y-78562376D01*
X133055669Y-78566400D01*
X132925048Y-78562376D01*
X132794922Y-78550318D01*
X132665785Y-78530272D01*
X132538127Y-78502315D01*
X132412433Y-78466552D01*
X132289178Y-78423118D01*
X132168831Y-78372180D01*
X132051848Y-78313929D01*
X131938673Y-78248588D01*
X131829735Y-78176403D01*
X131725447Y-78097648D01*
X131626206Y-78012623D01*
X131532387Y-77921650D01*
X131444346Y-77825074D01*
X131362417Y-77723261D01*
X131286912Y-77616598D01*
X131218116Y-77505489D01*
X131156290Y-77390355D01*
X131101670Y-77271634D01*
X131054462Y-77149775D01*
X131014845Y-77025242D01*
X130982969Y-76898505D01*
X130958956Y-76770047D01*
X130942897Y-76640354D01*
X130934852Y-76509919D01*
X130934349Y-76444577D01*
X130934852Y-76379235D01*
X130942897Y-76248800D01*
X130958956Y-76119107D01*
X130982969Y-75990649D01*
X131014845Y-75863912D01*
X131054462Y-75739379D01*
X131101670Y-75617520D01*
X131156290Y-75498799D01*
X131218116Y-75383665D01*
X131286912Y-75272556D01*
X131362417Y-75165893D01*
X131444346Y-75064080D01*
X131532387Y-74967504D01*
X131626206Y-74876531D01*
X131725447Y-74791506D01*
X131829735Y-74712751D01*
X131938673Y-74640566D01*
X132051848Y-74575225D01*
X132168831Y-74516974D01*
X132289178Y-74466036D01*
X132412433Y-74422602D01*
X132538127Y-74386839D01*
X132665785Y-74358882D01*
X132794922Y-74338836D01*
X132925048Y-74326778D01*
X133055669Y-74322753D01*
X133186290Y-74326778D01*
D14*
%TO.C,R1*%
X107850000Y-78010000D02*
X107850000Y-84550000D01*
X107850000Y-84550000D02*
X108180000Y-84550000D01*
X108180000Y-78010000D02*
X107850000Y-78010000D01*
X110260000Y-78010000D02*
X110590000Y-78010000D01*
X110590000Y-78010000D02*
X110590000Y-84550000D01*
X110590000Y-84550000D02*
X110260000Y-84550000D01*
%TO.C,D1*%
X172422000Y-72631000D02*
X172422000Y-76751000D01*
X172422000Y-76091000D02*
X174542000Y-76091000D01*
X174542000Y-76751000D02*
X174542000Y-72631000D01*
%TO.C,C2*%
X114777000Y-74552000D02*
X114777000Y-73022000D01*
X116617000Y-73022000D02*
X116617000Y-74552000D01*
%TD*%
M02*
