%TF.GenerationSoftware,KiCad,Pcbnew,9.0.4*%
%TF.CreationDate,2025-09-18T23:21:34+02:00*%
%TF.ProjectId,X-DaysSynth,582d4461-7973-4537-996e-74682e6b6963,0.4*%
%TF.SameCoordinates,Original*%
%TF.FileFunction,AssemblyDrawing,Top*%
%FSLAX46Y46*%
G04 Gerber Fmt 4.6, Leading zero omitted, Abs format (unit mm)*
G04 Created by KiCad (PCBNEW 9.0.4) date 2025-09-18 23:21:34*
%MOMM*%
%LPD*%
G01*
G04 APERTURE LIST*
%ADD10C,0.150000*%
%ADD11C,0.090000*%
%ADD12C,0.100000*%
G04 APERTURE END LIST*
D10*
X109013666Y-64605819D02*
X109013666Y-65320104D01*
X109013666Y-65320104D02*
X108966047Y-65462961D01*
X108966047Y-65462961D02*
X108870809Y-65558200D01*
X108870809Y-65558200D02*
X108727952Y-65605819D01*
X108727952Y-65605819D02*
X108632714Y-65605819D01*
X109537476Y-65605819D02*
X109727952Y-65605819D01*
X109727952Y-65605819D02*
X109823190Y-65558200D01*
X109823190Y-65558200D02*
X109870809Y-65510580D01*
X109870809Y-65510580D02*
X109966047Y-65367723D01*
X109966047Y-65367723D02*
X110013666Y-65177247D01*
X110013666Y-65177247D02*
X110013666Y-64796295D01*
X110013666Y-64796295D02*
X109966047Y-64701057D01*
X109966047Y-64701057D02*
X109918428Y-64653438D01*
X109918428Y-64653438D02*
X109823190Y-64605819D01*
X109823190Y-64605819D02*
X109632714Y-64605819D01*
X109632714Y-64605819D02*
X109537476Y-64653438D01*
X109537476Y-64653438D02*
X109489857Y-64701057D01*
X109489857Y-64701057D02*
X109442238Y-64796295D01*
X109442238Y-64796295D02*
X109442238Y-65034390D01*
X109442238Y-65034390D02*
X109489857Y-65129628D01*
X109489857Y-65129628D02*
X109537476Y-65177247D01*
X109537476Y-65177247D02*
X109632714Y-65224866D01*
X109632714Y-65224866D02*
X109823190Y-65224866D01*
X109823190Y-65224866D02*
X109918428Y-65177247D01*
X109918428Y-65177247D02*
X109966047Y-65129628D01*
X109966047Y-65129628D02*
X110013666Y-65034390D01*
X140174293Y-40764504D02*
X140650483Y-40764504D01*
X140079055Y-41050219D02*
X140412388Y-40050219D01*
X140412388Y-40050219D02*
X140745721Y-41050219D01*
X141507626Y-40383552D02*
X141507626Y-41050219D01*
X141079055Y-40383552D02*
X141079055Y-40907361D01*
X141079055Y-40907361D02*
X141126674Y-41002600D01*
X141126674Y-41002600D02*
X141221912Y-41050219D01*
X141221912Y-41050219D02*
X141364769Y-41050219D01*
X141364769Y-41050219D02*
X141460007Y-41002600D01*
X141460007Y-41002600D02*
X141507626Y-40954980D01*
X142412388Y-41050219D02*
X142412388Y-40050219D01*
X142412388Y-41002600D02*
X142317150Y-41050219D01*
X142317150Y-41050219D02*
X142126674Y-41050219D01*
X142126674Y-41050219D02*
X142031436Y-41002600D01*
X142031436Y-41002600D02*
X141983817Y-40954980D01*
X141983817Y-40954980D02*
X141936198Y-40859742D01*
X141936198Y-40859742D02*
X141936198Y-40574028D01*
X141936198Y-40574028D02*
X141983817Y-40478790D01*
X141983817Y-40478790D02*
X142031436Y-40431171D01*
X142031436Y-40431171D02*
X142126674Y-40383552D01*
X142126674Y-40383552D02*
X142317150Y-40383552D01*
X142317150Y-40383552D02*
X142412388Y-40431171D01*
X142888579Y-41050219D02*
X142888579Y-40383552D01*
X142888579Y-40050219D02*
X142840960Y-40097838D01*
X142840960Y-40097838D02*
X142888579Y-40145457D01*
X142888579Y-40145457D02*
X142936198Y-40097838D01*
X142936198Y-40097838D02*
X142888579Y-40050219D01*
X142888579Y-40050219D02*
X142888579Y-40145457D01*
X143507626Y-41050219D02*
X143412388Y-41002600D01*
X143412388Y-41002600D02*
X143364769Y-40954980D01*
X143364769Y-40954980D02*
X143317150Y-40859742D01*
X143317150Y-40859742D02*
X143317150Y-40574028D01*
X143317150Y-40574028D02*
X143364769Y-40478790D01*
X143364769Y-40478790D02*
X143412388Y-40431171D01*
X143412388Y-40431171D02*
X143507626Y-40383552D01*
X143507626Y-40383552D02*
X143650483Y-40383552D01*
X143650483Y-40383552D02*
X143745721Y-40431171D01*
X143745721Y-40431171D02*
X143793340Y-40478790D01*
X143793340Y-40478790D02*
X143840959Y-40574028D01*
X143840959Y-40574028D02*
X143840959Y-40859742D01*
X143840959Y-40859742D02*
X143793340Y-40954980D01*
X143793340Y-40954980D02*
X143745721Y-41002600D01*
X143745721Y-41002600D02*
X143650483Y-41050219D01*
X143650483Y-41050219D02*
X143507626Y-41050219D01*
X144555245Y-40050219D02*
X144555245Y-40764504D01*
X144555245Y-40764504D02*
X144507626Y-40907361D01*
X144507626Y-40907361D02*
X144412388Y-41002600D01*
X144412388Y-41002600D02*
X144269531Y-41050219D01*
X144269531Y-41050219D02*
X144174293Y-41050219D01*
X145460007Y-41050219D02*
X145460007Y-40526409D01*
X145460007Y-40526409D02*
X145412388Y-40431171D01*
X145412388Y-40431171D02*
X145317150Y-40383552D01*
X145317150Y-40383552D02*
X145126674Y-40383552D01*
X145126674Y-40383552D02*
X145031436Y-40431171D01*
X145460007Y-41002600D02*
X145364769Y-41050219D01*
X145364769Y-41050219D02*
X145126674Y-41050219D01*
X145126674Y-41050219D02*
X145031436Y-41002600D01*
X145031436Y-41002600D02*
X144983817Y-40907361D01*
X144983817Y-40907361D02*
X144983817Y-40812123D01*
X144983817Y-40812123D02*
X145031436Y-40716885D01*
X145031436Y-40716885D02*
X145126674Y-40669266D01*
X145126674Y-40669266D02*
X145364769Y-40669266D01*
X145364769Y-40669266D02*
X145460007Y-40621647D01*
X146364769Y-41002600D02*
X146269531Y-41050219D01*
X146269531Y-41050219D02*
X146079055Y-41050219D01*
X146079055Y-41050219D02*
X145983817Y-41002600D01*
X145983817Y-41002600D02*
X145936198Y-40954980D01*
X145936198Y-40954980D02*
X145888579Y-40859742D01*
X145888579Y-40859742D02*
X145888579Y-40574028D01*
X145888579Y-40574028D02*
X145936198Y-40478790D01*
X145936198Y-40478790D02*
X145983817Y-40431171D01*
X145983817Y-40431171D02*
X146079055Y-40383552D01*
X146079055Y-40383552D02*
X146269531Y-40383552D01*
X146269531Y-40383552D02*
X146364769Y-40431171D01*
X146793341Y-41050219D02*
X146793341Y-40050219D01*
X146888579Y-40669266D02*
X147174293Y-41050219D01*
X147174293Y-40383552D02*
X146793341Y-40764504D01*
X147507627Y-40050219D02*
X148174293Y-41050219D01*
X148174293Y-40050219D02*
X147507627Y-41050219D01*
X148317151Y-41145457D02*
X149079055Y-41145457D01*
X149840960Y-40097838D02*
X149745722Y-40050219D01*
X149745722Y-40050219D02*
X149602865Y-40050219D01*
X149602865Y-40050219D02*
X149460008Y-40097838D01*
X149460008Y-40097838D02*
X149364770Y-40193076D01*
X149364770Y-40193076D02*
X149317151Y-40288314D01*
X149317151Y-40288314D02*
X149269532Y-40478790D01*
X149269532Y-40478790D02*
X149269532Y-40621647D01*
X149269532Y-40621647D02*
X149317151Y-40812123D01*
X149317151Y-40812123D02*
X149364770Y-40907361D01*
X149364770Y-40907361D02*
X149460008Y-41002600D01*
X149460008Y-41002600D02*
X149602865Y-41050219D01*
X149602865Y-41050219D02*
X149698103Y-41050219D01*
X149698103Y-41050219D02*
X149840960Y-41002600D01*
X149840960Y-41002600D02*
X149888579Y-40954980D01*
X149888579Y-40954980D02*
X149888579Y-40621647D01*
X149888579Y-40621647D02*
X149698103Y-40621647D01*
X150317151Y-41050219D02*
X150317151Y-40383552D01*
X150317151Y-40574028D02*
X150364770Y-40478790D01*
X150364770Y-40478790D02*
X150412389Y-40431171D01*
X150412389Y-40431171D02*
X150507627Y-40383552D01*
X150507627Y-40383552D02*
X150602865Y-40383552D01*
X151079056Y-41050219D02*
X150983818Y-41002600D01*
X150983818Y-41002600D02*
X150936199Y-40954980D01*
X150936199Y-40954980D02*
X150888580Y-40859742D01*
X150888580Y-40859742D02*
X150888580Y-40574028D01*
X150888580Y-40574028D02*
X150936199Y-40478790D01*
X150936199Y-40478790D02*
X150983818Y-40431171D01*
X150983818Y-40431171D02*
X151079056Y-40383552D01*
X151079056Y-40383552D02*
X151221913Y-40383552D01*
X151221913Y-40383552D02*
X151317151Y-40431171D01*
X151317151Y-40431171D02*
X151364770Y-40478790D01*
X151364770Y-40478790D02*
X151412389Y-40574028D01*
X151412389Y-40574028D02*
X151412389Y-40859742D01*
X151412389Y-40859742D02*
X151364770Y-40954980D01*
X151364770Y-40954980D02*
X151317151Y-41002600D01*
X151317151Y-41002600D02*
X151221913Y-41050219D01*
X151221913Y-41050219D02*
X151079056Y-41050219D01*
X152269532Y-40383552D02*
X152269532Y-41050219D01*
X151840961Y-40383552D02*
X151840961Y-40907361D01*
X151840961Y-40907361D02*
X151888580Y-41002600D01*
X151888580Y-41002600D02*
X151983818Y-41050219D01*
X151983818Y-41050219D02*
X152126675Y-41050219D01*
X152126675Y-41050219D02*
X152221913Y-41002600D01*
X152221913Y-41002600D02*
X152269532Y-40954980D01*
X152745723Y-40383552D02*
X152745723Y-41050219D01*
X152745723Y-40478790D02*
X152793342Y-40431171D01*
X152793342Y-40431171D02*
X152888580Y-40383552D01*
X152888580Y-40383552D02*
X153031437Y-40383552D01*
X153031437Y-40383552D02*
X153126675Y-40431171D01*
X153126675Y-40431171D02*
X153174294Y-40526409D01*
X153174294Y-40526409D02*
X153174294Y-41050219D01*
X154079056Y-41050219D02*
X154079056Y-40050219D01*
X154079056Y-41002600D02*
X153983818Y-41050219D01*
X153983818Y-41050219D02*
X153793342Y-41050219D01*
X153793342Y-41050219D02*
X153698104Y-41002600D01*
X153698104Y-41002600D02*
X153650485Y-40954980D01*
X153650485Y-40954980D02*
X153602866Y-40859742D01*
X153602866Y-40859742D02*
X153602866Y-40574028D01*
X153602866Y-40574028D02*
X153650485Y-40478790D01*
X153650485Y-40478790D02*
X153698104Y-40431171D01*
X153698104Y-40431171D02*
X153793342Y-40383552D01*
X153793342Y-40383552D02*
X153983818Y-40383552D01*
X153983818Y-40383552D02*
X154079056Y-40431171D01*
X154317152Y-41145457D02*
X155079056Y-41145457D01*
X155269533Y-41002600D02*
X155412390Y-41050219D01*
X155412390Y-41050219D02*
X155650485Y-41050219D01*
X155650485Y-41050219D02*
X155745723Y-41002600D01*
X155745723Y-41002600D02*
X155793342Y-40954980D01*
X155793342Y-40954980D02*
X155840961Y-40859742D01*
X155840961Y-40859742D02*
X155840961Y-40764504D01*
X155840961Y-40764504D02*
X155793342Y-40669266D01*
X155793342Y-40669266D02*
X155745723Y-40621647D01*
X155745723Y-40621647D02*
X155650485Y-40574028D01*
X155650485Y-40574028D02*
X155460009Y-40526409D01*
X155460009Y-40526409D02*
X155364771Y-40478790D01*
X155364771Y-40478790D02*
X155317152Y-40431171D01*
X155317152Y-40431171D02*
X155269533Y-40335933D01*
X155269533Y-40335933D02*
X155269533Y-40240695D01*
X155269533Y-40240695D02*
X155317152Y-40145457D01*
X155317152Y-40145457D02*
X155364771Y-40097838D01*
X155364771Y-40097838D02*
X155460009Y-40050219D01*
X155460009Y-40050219D02*
X155698104Y-40050219D01*
X155698104Y-40050219D02*
X155840961Y-40097838D01*
X156174295Y-40383552D02*
X156364771Y-41050219D01*
X156364771Y-41050219D02*
X156555247Y-40574028D01*
X156555247Y-40574028D02*
X156745723Y-41050219D01*
X156745723Y-41050219D02*
X156936199Y-40383552D01*
X157317152Y-41050219D02*
X157317152Y-40383552D01*
X157317152Y-40050219D02*
X157269533Y-40097838D01*
X157269533Y-40097838D02*
X157317152Y-40145457D01*
X157317152Y-40145457D02*
X157364771Y-40097838D01*
X157364771Y-40097838D02*
X157317152Y-40050219D01*
X157317152Y-40050219D02*
X157317152Y-40145457D01*
X157650485Y-40383552D02*
X158031437Y-40383552D01*
X157793342Y-40050219D02*
X157793342Y-40907361D01*
X157793342Y-40907361D02*
X157840961Y-41002600D01*
X157840961Y-41002600D02*
X157936199Y-41050219D01*
X157936199Y-41050219D02*
X158031437Y-41050219D01*
X158793342Y-41002600D02*
X158698104Y-41050219D01*
X158698104Y-41050219D02*
X158507628Y-41050219D01*
X158507628Y-41050219D02*
X158412390Y-41002600D01*
X158412390Y-41002600D02*
X158364771Y-40954980D01*
X158364771Y-40954980D02*
X158317152Y-40859742D01*
X158317152Y-40859742D02*
X158317152Y-40574028D01*
X158317152Y-40574028D02*
X158364771Y-40478790D01*
X158364771Y-40478790D02*
X158412390Y-40431171D01*
X158412390Y-40431171D02*
X158507628Y-40383552D01*
X158507628Y-40383552D02*
X158698104Y-40383552D01*
X158698104Y-40383552D02*
X158793342Y-40431171D01*
X159221914Y-41050219D02*
X159221914Y-40050219D01*
X159650485Y-41050219D02*
X159650485Y-40526409D01*
X159650485Y-40526409D02*
X159602866Y-40431171D01*
X159602866Y-40431171D02*
X159507628Y-40383552D01*
X159507628Y-40383552D02*
X159364771Y-40383552D01*
X159364771Y-40383552D02*
X159269533Y-40431171D01*
X159269533Y-40431171D02*
X159221914Y-40478790D01*
X149602866Y-50510219D02*
X149602866Y-51224504D01*
X149602866Y-51224504D02*
X149555247Y-51367361D01*
X149555247Y-51367361D02*
X149460009Y-51462600D01*
X149460009Y-51462600D02*
X149317152Y-51510219D01*
X149317152Y-51510219D02*
X149221914Y-51510219D01*
X149983819Y-50510219D02*
X150602866Y-50510219D01*
X150602866Y-50510219D02*
X150269533Y-50891171D01*
X150269533Y-50891171D02*
X150412390Y-50891171D01*
X150412390Y-50891171D02*
X150507628Y-50938790D01*
X150507628Y-50938790D02*
X150555247Y-50986409D01*
X150555247Y-50986409D02*
X150602866Y-51081647D01*
X150602866Y-51081647D02*
X150602866Y-51319742D01*
X150602866Y-51319742D02*
X150555247Y-51414980D01*
X150555247Y-51414980D02*
X150507628Y-51462600D01*
X150507628Y-51462600D02*
X150412390Y-51510219D01*
X150412390Y-51510219D02*
X150126676Y-51510219D01*
X150126676Y-51510219D02*
X150031438Y-51462600D01*
X150031438Y-51462600D02*
X149983819Y-51414980D01*
X110325819Y-71381713D02*
X110325819Y-70762666D01*
X110325819Y-70762666D02*
X110706771Y-71095999D01*
X110706771Y-71095999D02*
X110706771Y-70953142D01*
X110706771Y-70953142D02*
X110754390Y-70857904D01*
X110754390Y-70857904D02*
X110802009Y-70810285D01*
X110802009Y-70810285D02*
X110897247Y-70762666D01*
X110897247Y-70762666D02*
X111135342Y-70762666D01*
X111135342Y-70762666D02*
X111230580Y-70810285D01*
X111230580Y-70810285D02*
X111278200Y-70857904D01*
X111278200Y-70857904D02*
X111325819Y-70953142D01*
X111325819Y-70953142D02*
X111325819Y-71238856D01*
X111325819Y-71238856D02*
X111278200Y-71334094D01*
X111278200Y-71334094D02*
X111230580Y-71381713D01*
X110325819Y-70429332D02*
X110325819Y-69810285D01*
X110325819Y-69810285D02*
X110706771Y-70143618D01*
X110706771Y-70143618D02*
X110706771Y-70000761D01*
X110706771Y-70000761D02*
X110754390Y-69905523D01*
X110754390Y-69905523D02*
X110802009Y-69857904D01*
X110802009Y-69857904D02*
X110897247Y-69810285D01*
X110897247Y-69810285D02*
X111135342Y-69810285D01*
X111135342Y-69810285D02*
X111230580Y-69857904D01*
X111230580Y-69857904D02*
X111278200Y-69905523D01*
X111278200Y-69905523D02*
X111325819Y-70000761D01*
X111325819Y-70000761D02*
X111325819Y-70286475D01*
X111325819Y-70286475D02*
X111278200Y-70381713D01*
X111278200Y-70381713D02*
X111230580Y-70429332D01*
X111325819Y-69381713D02*
X110325819Y-69381713D01*
X110944866Y-69286475D02*
X111325819Y-69000761D01*
X110659152Y-69000761D02*
X111040104Y-69381713D01*
X111325819Y-68619808D02*
X111325819Y-68381713D01*
X111325819Y-68381713D02*
X111135342Y-68381713D01*
X111135342Y-68381713D02*
X111087723Y-68476951D01*
X111087723Y-68476951D02*
X110992485Y-68572189D01*
X110992485Y-68572189D02*
X110849628Y-68619808D01*
X110849628Y-68619808D02*
X110611533Y-68619808D01*
X110611533Y-68619808D02*
X110468676Y-68572189D01*
X110468676Y-68572189D02*
X110373438Y-68476951D01*
X110373438Y-68476951D02*
X110325819Y-68334094D01*
X110325819Y-68334094D02*
X110325819Y-68143618D01*
X110325819Y-68143618D02*
X110373438Y-68000761D01*
X110373438Y-68000761D02*
X110468676Y-67905523D01*
X110468676Y-67905523D02*
X110611533Y-67857904D01*
X110611533Y-67857904D02*
X110849628Y-67857904D01*
X110849628Y-67857904D02*
X110992485Y-67905523D01*
X110992485Y-67905523D02*
X111087723Y-68000761D01*
X111087723Y-68000761D02*
X111135342Y-68095999D01*
X111135342Y-68095999D02*
X111325819Y-68095999D01*
X111325819Y-68095999D02*
X111325819Y-67857904D01*
X111198819Y-73826666D02*
X110722628Y-74159999D01*
X111198819Y-74398094D02*
X110198819Y-74398094D01*
X110198819Y-74398094D02*
X110198819Y-74017142D01*
X110198819Y-74017142D02*
X110246438Y-73921904D01*
X110246438Y-73921904D02*
X110294057Y-73874285D01*
X110294057Y-73874285D02*
X110389295Y-73826666D01*
X110389295Y-73826666D02*
X110532152Y-73826666D01*
X110532152Y-73826666D02*
X110627390Y-73874285D01*
X110627390Y-73874285D02*
X110675009Y-73921904D01*
X110675009Y-73921904D02*
X110722628Y-74017142D01*
X110722628Y-74017142D02*
X110722628Y-74398094D01*
X110198819Y-73493332D02*
X110198819Y-72874285D01*
X110198819Y-72874285D02*
X110579771Y-73207618D01*
X110579771Y-73207618D02*
X110579771Y-73064761D01*
X110579771Y-73064761D02*
X110627390Y-72969523D01*
X110627390Y-72969523D02*
X110675009Y-72921904D01*
X110675009Y-72921904D02*
X110770247Y-72874285D01*
X110770247Y-72874285D02*
X111008342Y-72874285D01*
X111008342Y-72874285D02*
X111103580Y-72921904D01*
X111103580Y-72921904D02*
X111151200Y-72969523D01*
X111151200Y-72969523D02*
X111198819Y-73064761D01*
X111198819Y-73064761D02*
X111198819Y-73350475D01*
X111198819Y-73350475D02*
X111151200Y-73445713D01*
X111151200Y-73445713D02*
X111103580Y-73493332D01*
X112160952Y-79070057D02*
X112208571Y-79022438D01*
X112208571Y-79022438D02*
X112303809Y-78974819D01*
X112303809Y-78974819D02*
X112541904Y-78974819D01*
X112541904Y-78974819D02*
X112637142Y-79022438D01*
X112637142Y-79022438D02*
X112684761Y-79070057D01*
X112684761Y-79070057D02*
X112732380Y-79165295D01*
X112732380Y-79165295D02*
X112732380Y-79260533D01*
X112732380Y-79260533D02*
X112684761Y-79403390D01*
X112684761Y-79403390D02*
X112113333Y-79974819D01*
X112113333Y-79974819D02*
X112732380Y-79974819D01*
X113113333Y-79070057D02*
X113160952Y-79022438D01*
X113160952Y-79022438D02*
X113256190Y-78974819D01*
X113256190Y-78974819D02*
X113494285Y-78974819D01*
X113494285Y-78974819D02*
X113589523Y-79022438D01*
X113589523Y-79022438D02*
X113637142Y-79070057D01*
X113637142Y-79070057D02*
X113684761Y-79165295D01*
X113684761Y-79165295D02*
X113684761Y-79260533D01*
X113684761Y-79260533D02*
X113637142Y-79403390D01*
X113637142Y-79403390D02*
X113065714Y-79974819D01*
X113065714Y-79974819D02*
X113684761Y-79974819D01*
X114303809Y-78974819D02*
X114399047Y-78974819D01*
X114399047Y-78974819D02*
X114494285Y-79022438D01*
X114494285Y-79022438D02*
X114541904Y-79070057D01*
X114541904Y-79070057D02*
X114589523Y-79165295D01*
X114589523Y-79165295D02*
X114637142Y-79355771D01*
X114637142Y-79355771D02*
X114637142Y-79593866D01*
X114637142Y-79593866D02*
X114589523Y-79784342D01*
X114589523Y-79784342D02*
X114541904Y-79879580D01*
X114541904Y-79879580D02*
X114494285Y-79927200D01*
X114494285Y-79927200D02*
X114399047Y-79974819D01*
X114399047Y-79974819D02*
X114303809Y-79974819D01*
X114303809Y-79974819D02*
X114208571Y-79927200D01*
X114208571Y-79927200D02*
X114160952Y-79879580D01*
X114160952Y-79879580D02*
X114113333Y-79784342D01*
X114113333Y-79784342D02*
X114065714Y-79593866D01*
X114065714Y-79593866D02*
X114065714Y-79355771D01*
X114065714Y-79355771D02*
X114113333Y-79165295D01*
X114113333Y-79165295D02*
X114160952Y-79070057D01*
X114160952Y-79070057D02*
X114208571Y-79022438D01*
X114208571Y-79022438D02*
X114303809Y-78974819D01*
X115065714Y-79308152D02*
X115065714Y-79974819D01*
X115065714Y-79403390D02*
X115113333Y-79355771D01*
X115113333Y-79355771D02*
X115208571Y-79308152D01*
X115208571Y-79308152D02*
X115351428Y-79308152D01*
X115351428Y-79308152D02*
X115446666Y-79355771D01*
X115446666Y-79355771D02*
X115494285Y-79451009D01*
X115494285Y-79451009D02*
X115494285Y-79974819D01*
X116303809Y-79451009D02*
X115970476Y-79451009D01*
X115970476Y-79974819D02*
X115970476Y-78974819D01*
X115970476Y-78974819D02*
X116446666Y-78974819D01*
D11*
X114180000Y-77685748D02*
X114151428Y-77714320D01*
X114151428Y-77714320D02*
X114065714Y-77742891D01*
X114065714Y-77742891D02*
X114008571Y-77742891D01*
X114008571Y-77742891D02*
X113922857Y-77714320D01*
X113922857Y-77714320D02*
X113865714Y-77657177D01*
X113865714Y-77657177D02*
X113837143Y-77600034D01*
X113837143Y-77600034D02*
X113808571Y-77485748D01*
X113808571Y-77485748D02*
X113808571Y-77400034D01*
X113808571Y-77400034D02*
X113837143Y-77285748D01*
X113837143Y-77285748D02*
X113865714Y-77228605D01*
X113865714Y-77228605D02*
X113922857Y-77171462D01*
X113922857Y-77171462D02*
X114008571Y-77142891D01*
X114008571Y-77142891D02*
X114065714Y-77142891D01*
X114065714Y-77142891D02*
X114151428Y-77171462D01*
X114151428Y-77171462D02*
X114180000Y-77200034D01*
X114751428Y-77742891D02*
X114408571Y-77742891D01*
X114580000Y-77742891D02*
X114580000Y-77142891D01*
X114580000Y-77142891D02*
X114522857Y-77228605D01*
X114522857Y-77228605D02*
X114465714Y-77285748D01*
X114465714Y-77285748D02*
X114408571Y-77314320D01*
D10*
X161103333Y-80194819D02*
X160627143Y-80194819D01*
X160627143Y-80194819D02*
X160627143Y-79194819D01*
X161436667Y-79671009D02*
X161770000Y-79671009D01*
X161912857Y-80194819D02*
X161436667Y-80194819D01*
X161436667Y-80194819D02*
X161436667Y-79194819D01*
X161436667Y-79194819D02*
X161912857Y-79194819D01*
X162341429Y-80194819D02*
X162341429Y-79194819D01*
X162341429Y-79194819D02*
X162579524Y-79194819D01*
X162579524Y-79194819D02*
X162722381Y-79242438D01*
X162722381Y-79242438D02*
X162817619Y-79337676D01*
X162817619Y-79337676D02*
X162865238Y-79432914D01*
X162865238Y-79432914D02*
X162912857Y-79623390D01*
X162912857Y-79623390D02*
X162912857Y-79766247D01*
X162912857Y-79766247D02*
X162865238Y-79956723D01*
X162865238Y-79956723D02*
X162817619Y-80051961D01*
X162817619Y-80051961D02*
X162722381Y-80147200D01*
X162722381Y-80147200D02*
X162579524Y-80194819D01*
X162579524Y-80194819D02*
X162341429Y-80194819D01*
X164674762Y-80194819D02*
X164341429Y-79718628D01*
X164103334Y-80194819D02*
X164103334Y-79194819D01*
X164103334Y-79194819D02*
X164484286Y-79194819D01*
X164484286Y-79194819D02*
X164579524Y-79242438D01*
X164579524Y-79242438D02*
X164627143Y-79290057D01*
X164627143Y-79290057D02*
X164674762Y-79385295D01*
X164674762Y-79385295D02*
X164674762Y-79528152D01*
X164674762Y-79528152D02*
X164627143Y-79623390D01*
X164627143Y-79623390D02*
X164579524Y-79671009D01*
X164579524Y-79671009D02*
X164484286Y-79718628D01*
X164484286Y-79718628D02*
X164103334Y-79718628D01*
X165103334Y-80194819D02*
X165103334Y-79528152D01*
X165103334Y-79194819D02*
X165055715Y-79242438D01*
X165055715Y-79242438D02*
X165103334Y-79290057D01*
X165103334Y-79290057D02*
X165150953Y-79242438D01*
X165150953Y-79242438D02*
X165103334Y-79194819D01*
X165103334Y-79194819D02*
X165103334Y-79290057D01*
X165579524Y-79528152D02*
X165579524Y-80194819D01*
X165579524Y-79623390D02*
X165627143Y-79575771D01*
X165627143Y-79575771D02*
X165722381Y-79528152D01*
X165722381Y-79528152D02*
X165865238Y-79528152D01*
X165865238Y-79528152D02*
X165960476Y-79575771D01*
X165960476Y-79575771D02*
X166008095Y-79671009D01*
X166008095Y-79671009D02*
X166008095Y-80194819D01*
X166912857Y-79528152D02*
X166912857Y-80337676D01*
X166912857Y-80337676D02*
X166865238Y-80432914D01*
X166865238Y-80432914D02*
X166817619Y-80480533D01*
X166817619Y-80480533D02*
X166722381Y-80528152D01*
X166722381Y-80528152D02*
X166579524Y-80528152D01*
X166579524Y-80528152D02*
X166484286Y-80480533D01*
X166912857Y-80147200D02*
X166817619Y-80194819D01*
X166817619Y-80194819D02*
X166627143Y-80194819D01*
X166627143Y-80194819D02*
X166531905Y-80147200D01*
X166531905Y-80147200D02*
X166484286Y-80099580D01*
X166484286Y-80099580D02*
X166436667Y-80004342D01*
X166436667Y-80004342D02*
X166436667Y-79718628D01*
X166436667Y-79718628D02*
X166484286Y-79623390D01*
X166484286Y-79623390D02*
X166531905Y-79575771D01*
X166531905Y-79575771D02*
X166627143Y-79528152D01*
X166627143Y-79528152D02*
X166817619Y-79528152D01*
X166817619Y-79528152D02*
X166912857Y-79575771D01*
X161609818Y-75263333D02*
X162324103Y-75263333D01*
X162324103Y-75263333D02*
X162466960Y-75310952D01*
X162466960Y-75310952D02*
X162562199Y-75406190D01*
X162562199Y-75406190D02*
X162609818Y-75549047D01*
X162609818Y-75549047D02*
X162609818Y-75644285D01*
X161943151Y-74358571D02*
X162609818Y-74358571D01*
X161562199Y-74596666D02*
X162276484Y-74834761D01*
X162276484Y-74834761D02*
X162276484Y-74215714D01*
X103848819Y-74413808D02*
X103848819Y-73794761D01*
X103848819Y-73794761D02*
X104229771Y-74128094D01*
X104229771Y-74128094D02*
X104229771Y-73985237D01*
X104229771Y-73985237D02*
X104277390Y-73889999D01*
X104277390Y-73889999D02*
X104325009Y-73842380D01*
X104325009Y-73842380D02*
X104420247Y-73794761D01*
X104420247Y-73794761D02*
X104658342Y-73794761D01*
X104658342Y-73794761D02*
X104753580Y-73842380D01*
X104753580Y-73842380D02*
X104801200Y-73889999D01*
X104801200Y-73889999D02*
X104848819Y-73985237D01*
X104848819Y-73985237D02*
X104848819Y-74270951D01*
X104848819Y-74270951D02*
X104801200Y-74366189D01*
X104801200Y-74366189D02*
X104753580Y-74413808D01*
X104753580Y-73366189D02*
X104801200Y-73318570D01*
X104801200Y-73318570D02*
X104848819Y-73366189D01*
X104848819Y-73366189D02*
X104801200Y-73413808D01*
X104801200Y-73413808D02*
X104753580Y-73366189D01*
X104753580Y-73366189D02*
X104848819Y-73366189D01*
X103848819Y-72985237D02*
X103848819Y-72366190D01*
X103848819Y-72366190D02*
X104229771Y-72699523D01*
X104229771Y-72699523D02*
X104229771Y-72556666D01*
X104229771Y-72556666D02*
X104277390Y-72461428D01*
X104277390Y-72461428D02*
X104325009Y-72413809D01*
X104325009Y-72413809D02*
X104420247Y-72366190D01*
X104420247Y-72366190D02*
X104658342Y-72366190D01*
X104658342Y-72366190D02*
X104753580Y-72413809D01*
X104753580Y-72413809D02*
X104801200Y-72461428D01*
X104801200Y-72461428D02*
X104848819Y-72556666D01*
X104848819Y-72556666D02*
X104848819Y-72842380D01*
X104848819Y-72842380D02*
X104801200Y-72937618D01*
X104801200Y-72937618D02*
X104753580Y-72985237D01*
X104848819Y-71937618D02*
X103848819Y-71937618D01*
X104467866Y-71842380D02*
X104848819Y-71556666D01*
X104182152Y-71556666D02*
X104563104Y-71937618D01*
X104848819Y-71175713D02*
X104848819Y-70937618D01*
X104848819Y-70937618D02*
X104658342Y-70937618D01*
X104658342Y-70937618D02*
X104610723Y-71032856D01*
X104610723Y-71032856D02*
X104515485Y-71128094D01*
X104515485Y-71128094D02*
X104372628Y-71175713D01*
X104372628Y-71175713D02*
X104134533Y-71175713D01*
X104134533Y-71175713D02*
X103991676Y-71128094D01*
X103991676Y-71128094D02*
X103896438Y-71032856D01*
X103896438Y-71032856D02*
X103848819Y-70889999D01*
X103848819Y-70889999D02*
X103848819Y-70699523D01*
X103848819Y-70699523D02*
X103896438Y-70556666D01*
X103896438Y-70556666D02*
X103991676Y-70461428D01*
X103991676Y-70461428D02*
X104134533Y-70413809D01*
X104134533Y-70413809D02*
X104372628Y-70413809D01*
X104372628Y-70413809D02*
X104515485Y-70461428D01*
X104515485Y-70461428D02*
X104610723Y-70556666D01*
X104610723Y-70556666D02*
X104658342Y-70651904D01*
X104658342Y-70651904D02*
X104848819Y-70651904D01*
X104848819Y-70651904D02*
X104848819Y-70413809D01*
X104805819Y-76239666D02*
X104329628Y-76572999D01*
X104805819Y-76811094D02*
X103805819Y-76811094D01*
X103805819Y-76811094D02*
X103805819Y-76430142D01*
X103805819Y-76430142D02*
X103853438Y-76334904D01*
X103853438Y-76334904D02*
X103901057Y-76287285D01*
X103901057Y-76287285D02*
X103996295Y-76239666D01*
X103996295Y-76239666D02*
X104139152Y-76239666D01*
X104139152Y-76239666D02*
X104234390Y-76287285D01*
X104234390Y-76287285D02*
X104282009Y-76334904D01*
X104282009Y-76334904D02*
X104329628Y-76430142D01*
X104329628Y-76430142D02*
X104329628Y-76811094D01*
X103901057Y-75858713D02*
X103853438Y-75811094D01*
X103853438Y-75811094D02*
X103805819Y-75715856D01*
X103805819Y-75715856D02*
X103805819Y-75477761D01*
X103805819Y-75477761D02*
X103853438Y-75382523D01*
X103853438Y-75382523D02*
X103901057Y-75334904D01*
X103901057Y-75334904D02*
X103996295Y-75287285D01*
X103996295Y-75287285D02*
X104091533Y-75287285D01*
X104091533Y-75287285D02*
X104234390Y-75334904D01*
X104234390Y-75334904D02*
X104805819Y-75906332D01*
X104805819Y-75906332D02*
X104805819Y-75287285D01*
X123452143Y-71432057D02*
X123499762Y-71384438D01*
X123499762Y-71384438D02*
X123595000Y-71336819D01*
X123595000Y-71336819D02*
X123833095Y-71336819D01*
X123833095Y-71336819D02*
X123928333Y-71384438D01*
X123928333Y-71384438D02*
X123975952Y-71432057D01*
X123975952Y-71432057D02*
X124023571Y-71527295D01*
X124023571Y-71527295D02*
X124023571Y-71622533D01*
X124023571Y-71622533D02*
X123975952Y-71765390D01*
X123975952Y-71765390D02*
X123404524Y-72336819D01*
X123404524Y-72336819D02*
X124023571Y-72336819D01*
X124642619Y-71336819D02*
X124737857Y-71336819D01*
X124737857Y-71336819D02*
X124833095Y-71384438D01*
X124833095Y-71384438D02*
X124880714Y-71432057D01*
X124880714Y-71432057D02*
X124928333Y-71527295D01*
X124928333Y-71527295D02*
X124975952Y-71717771D01*
X124975952Y-71717771D02*
X124975952Y-71955866D01*
X124975952Y-71955866D02*
X124928333Y-72146342D01*
X124928333Y-72146342D02*
X124880714Y-72241580D01*
X124880714Y-72241580D02*
X124833095Y-72289200D01*
X124833095Y-72289200D02*
X124737857Y-72336819D01*
X124737857Y-72336819D02*
X124642619Y-72336819D01*
X124642619Y-72336819D02*
X124547381Y-72289200D01*
X124547381Y-72289200D02*
X124499762Y-72241580D01*
X124499762Y-72241580D02*
X124452143Y-72146342D01*
X124452143Y-72146342D02*
X124404524Y-71955866D01*
X124404524Y-71955866D02*
X124404524Y-71717771D01*
X124404524Y-71717771D02*
X124452143Y-71527295D01*
X124452143Y-71527295D02*
X124499762Y-71432057D01*
X124499762Y-71432057D02*
X124547381Y-71384438D01*
X124547381Y-71384438D02*
X124642619Y-71336819D01*
X125595000Y-71336819D02*
X125690238Y-71336819D01*
X125690238Y-71336819D02*
X125785476Y-71384438D01*
X125785476Y-71384438D02*
X125833095Y-71432057D01*
X125833095Y-71432057D02*
X125880714Y-71527295D01*
X125880714Y-71527295D02*
X125928333Y-71717771D01*
X125928333Y-71717771D02*
X125928333Y-71955866D01*
X125928333Y-71955866D02*
X125880714Y-72146342D01*
X125880714Y-72146342D02*
X125833095Y-72241580D01*
X125833095Y-72241580D02*
X125785476Y-72289200D01*
X125785476Y-72289200D02*
X125690238Y-72336819D01*
X125690238Y-72336819D02*
X125595000Y-72336819D01*
X125595000Y-72336819D02*
X125499762Y-72289200D01*
X125499762Y-72289200D02*
X125452143Y-72241580D01*
X125452143Y-72241580D02*
X125404524Y-72146342D01*
X125404524Y-72146342D02*
X125356905Y-71955866D01*
X125356905Y-71955866D02*
X125356905Y-71717771D01*
X125356905Y-71717771D02*
X125404524Y-71527295D01*
X125404524Y-71527295D02*
X125452143Y-71432057D01*
X125452143Y-71432057D02*
X125499762Y-71384438D01*
X125499762Y-71384438D02*
X125595000Y-71336819D01*
X126356905Y-72336819D02*
X126356905Y-71336819D01*
X126452143Y-71955866D02*
X126737857Y-72336819D01*
X126737857Y-71670152D02*
X126356905Y-72051104D01*
X121372333Y-72336819D02*
X121039000Y-71860628D01*
X120800905Y-72336819D02*
X120800905Y-71336819D01*
X120800905Y-71336819D02*
X121181857Y-71336819D01*
X121181857Y-71336819D02*
X121277095Y-71384438D01*
X121277095Y-71384438D02*
X121324714Y-71432057D01*
X121324714Y-71432057D02*
X121372333Y-71527295D01*
X121372333Y-71527295D02*
X121372333Y-71670152D01*
X121372333Y-71670152D02*
X121324714Y-71765390D01*
X121324714Y-71765390D02*
X121277095Y-71813009D01*
X121277095Y-71813009D02*
X121181857Y-71860628D01*
X121181857Y-71860628D02*
X120800905Y-71860628D01*
X121943762Y-71765390D02*
X121848524Y-71717771D01*
X121848524Y-71717771D02*
X121800905Y-71670152D01*
X121800905Y-71670152D02*
X121753286Y-71574914D01*
X121753286Y-71574914D02*
X121753286Y-71527295D01*
X121753286Y-71527295D02*
X121800905Y-71432057D01*
X121800905Y-71432057D02*
X121848524Y-71384438D01*
X121848524Y-71384438D02*
X121943762Y-71336819D01*
X121943762Y-71336819D02*
X122134238Y-71336819D01*
X122134238Y-71336819D02*
X122229476Y-71384438D01*
X122229476Y-71384438D02*
X122277095Y-71432057D01*
X122277095Y-71432057D02*
X122324714Y-71527295D01*
X122324714Y-71527295D02*
X122324714Y-71574914D01*
X122324714Y-71574914D02*
X122277095Y-71670152D01*
X122277095Y-71670152D02*
X122229476Y-71717771D01*
X122229476Y-71717771D02*
X122134238Y-71765390D01*
X122134238Y-71765390D02*
X121943762Y-71765390D01*
X121943762Y-71765390D02*
X121848524Y-71813009D01*
X121848524Y-71813009D02*
X121800905Y-71860628D01*
X121800905Y-71860628D02*
X121753286Y-71955866D01*
X121753286Y-71955866D02*
X121753286Y-72146342D01*
X121753286Y-72146342D02*
X121800905Y-72241580D01*
X121800905Y-72241580D02*
X121848524Y-72289200D01*
X121848524Y-72289200D02*
X121943762Y-72336819D01*
X121943762Y-72336819D02*
X122134238Y-72336819D01*
X122134238Y-72336819D02*
X122229476Y-72289200D01*
X122229476Y-72289200D02*
X122277095Y-72241580D01*
X122277095Y-72241580D02*
X122324714Y-72146342D01*
X122324714Y-72146342D02*
X122324714Y-71955866D01*
X122324714Y-71955866D02*
X122277095Y-71860628D01*
X122277095Y-71860628D02*
X122229476Y-71813009D01*
X122229476Y-71813009D02*
X122134238Y-71765390D01*
X168475819Y-75421857D02*
X168475819Y-75993285D01*
X168475819Y-75707571D02*
X167475819Y-75707571D01*
X167475819Y-75707571D02*
X167618676Y-75802809D01*
X167618676Y-75802809D02*
X167713914Y-75898047D01*
X167713914Y-75898047D02*
X167761533Y-75993285D01*
X168475819Y-74993285D02*
X167475819Y-74993285D01*
X167475819Y-74993285D02*
X168475819Y-74421857D01*
X168475819Y-74421857D02*
X167475819Y-74421857D01*
X167809152Y-73517095D02*
X168475819Y-73517095D01*
X167428200Y-73755190D02*
X168142485Y-73993285D01*
X168142485Y-73993285D02*
X168142485Y-73374238D01*
X168475819Y-72469476D02*
X168475819Y-73040904D01*
X168475819Y-72755190D02*
X167475819Y-72755190D01*
X167475819Y-72755190D02*
X167618676Y-72850428D01*
X167618676Y-72850428D02*
X167713914Y-72945666D01*
X167713914Y-72945666D02*
X167761533Y-73040904D01*
X167809152Y-71612333D02*
X168475819Y-71612333D01*
X167428200Y-71850428D02*
X168142485Y-72088523D01*
X168142485Y-72088523D02*
X168142485Y-71469476D01*
X167904390Y-70945666D02*
X167856771Y-71040904D01*
X167856771Y-71040904D02*
X167809152Y-71088523D01*
X167809152Y-71088523D02*
X167713914Y-71136142D01*
X167713914Y-71136142D02*
X167666295Y-71136142D01*
X167666295Y-71136142D02*
X167571057Y-71088523D01*
X167571057Y-71088523D02*
X167523438Y-71040904D01*
X167523438Y-71040904D02*
X167475819Y-70945666D01*
X167475819Y-70945666D02*
X167475819Y-70755190D01*
X167475819Y-70755190D02*
X167523438Y-70659952D01*
X167523438Y-70659952D02*
X167571057Y-70612333D01*
X167571057Y-70612333D02*
X167666295Y-70564714D01*
X167666295Y-70564714D02*
X167713914Y-70564714D01*
X167713914Y-70564714D02*
X167809152Y-70612333D01*
X167809152Y-70612333D02*
X167856771Y-70659952D01*
X167856771Y-70659952D02*
X167904390Y-70755190D01*
X167904390Y-70755190D02*
X167904390Y-70945666D01*
X167904390Y-70945666D02*
X167952009Y-71040904D01*
X167952009Y-71040904D02*
X167999628Y-71088523D01*
X167999628Y-71088523D02*
X168094866Y-71136142D01*
X168094866Y-71136142D02*
X168285342Y-71136142D01*
X168285342Y-71136142D02*
X168380580Y-71088523D01*
X168380580Y-71088523D02*
X168428200Y-71040904D01*
X168428200Y-71040904D02*
X168475819Y-70945666D01*
X168475819Y-70945666D02*
X168475819Y-70755190D01*
X168475819Y-70755190D02*
X168428200Y-70659952D01*
X168428200Y-70659952D02*
X168380580Y-70612333D01*
X168380580Y-70612333D02*
X168285342Y-70564714D01*
X168285342Y-70564714D02*
X168094866Y-70564714D01*
X168094866Y-70564714D02*
X167999628Y-70612333D01*
X167999628Y-70612333D02*
X167952009Y-70659952D01*
X167952009Y-70659952D02*
X167904390Y-70755190D01*
X168475819Y-79097094D02*
X167475819Y-79097094D01*
X167475819Y-79097094D02*
X167475819Y-78858999D01*
X167475819Y-78858999D02*
X167523438Y-78716142D01*
X167523438Y-78716142D02*
X167618676Y-78620904D01*
X167618676Y-78620904D02*
X167713914Y-78573285D01*
X167713914Y-78573285D02*
X167904390Y-78525666D01*
X167904390Y-78525666D02*
X168047247Y-78525666D01*
X168047247Y-78525666D02*
X168237723Y-78573285D01*
X168237723Y-78573285D02*
X168332961Y-78620904D01*
X168332961Y-78620904D02*
X168428200Y-78716142D01*
X168428200Y-78716142D02*
X168475819Y-78858999D01*
X168475819Y-78858999D02*
X168475819Y-79097094D01*
X167571057Y-78144713D02*
X167523438Y-78097094D01*
X167523438Y-78097094D02*
X167475819Y-78001856D01*
X167475819Y-78001856D02*
X167475819Y-77763761D01*
X167475819Y-77763761D02*
X167523438Y-77668523D01*
X167523438Y-77668523D02*
X167571057Y-77620904D01*
X167571057Y-77620904D02*
X167666295Y-77573285D01*
X167666295Y-77573285D02*
X167761533Y-77573285D01*
X167761533Y-77573285D02*
X167904390Y-77620904D01*
X167904390Y-77620904D02*
X168475819Y-78192332D01*
X168475819Y-78192332D02*
X168475819Y-77573285D01*
X106388819Y-81740142D02*
X106388819Y-81121095D01*
X106388819Y-81121095D02*
X106769771Y-81454428D01*
X106769771Y-81454428D02*
X106769771Y-81311571D01*
X106769771Y-81311571D02*
X106817390Y-81216333D01*
X106817390Y-81216333D02*
X106865009Y-81168714D01*
X106865009Y-81168714D02*
X106960247Y-81121095D01*
X106960247Y-81121095D02*
X107198342Y-81121095D01*
X107198342Y-81121095D02*
X107293580Y-81168714D01*
X107293580Y-81168714D02*
X107341200Y-81216333D01*
X107341200Y-81216333D02*
X107388819Y-81311571D01*
X107388819Y-81311571D02*
X107388819Y-81597285D01*
X107388819Y-81597285D02*
X107341200Y-81692523D01*
X107341200Y-81692523D02*
X107293580Y-81740142D01*
X106388819Y-80787761D02*
X106388819Y-80168714D01*
X106388819Y-80168714D02*
X106769771Y-80502047D01*
X106769771Y-80502047D02*
X106769771Y-80359190D01*
X106769771Y-80359190D02*
X106817390Y-80263952D01*
X106817390Y-80263952D02*
X106865009Y-80216333D01*
X106865009Y-80216333D02*
X106960247Y-80168714D01*
X106960247Y-80168714D02*
X107198342Y-80168714D01*
X107198342Y-80168714D02*
X107293580Y-80216333D01*
X107293580Y-80216333D02*
X107341200Y-80263952D01*
X107341200Y-80263952D02*
X107388819Y-80359190D01*
X107388819Y-80359190D02*
X107388819Y-80644904D01*
X107388819Y-80644904D02*
X107341200Y-80740142D01*
X107341200Y-80740142D02*
X107293580Y-80787761D01*
X106388819Y-79549666D02*
X106388819Y-79454428D01*
X106388819Y-79454428D02*
X106436438Y-79359190D01*
X106436438Y-79359190D02*
X106484057Y-79311571D01*
X106484057Y-79311571D02*
X106579295Y-79263952D01*
X106579295Y-79263952D02*
X106769771Y-79216333D01*
X106769771Y-79216333D02*
X107007866Y-79216333D01*
X107007866Y-79216333D02*
X107198342Y-79263952D01*
X107198342Y-79263952D02*
X107293580Y-79311571D01*
X107293580Y-79311571D02*
X107341200Y-79359190D01*
X107341200Y-79359190D02*
X107388819Y-79454428D01*
X107388819Y-79454428D02*
X107388819Y-79549666D01*
X107388819Y-79549666D02*
X107341200Y-79644904D01*
X107341200Y-79644904D02*
X107293580Y-79692523D01*
X107293580Y-79692523D02*
X107198342Y-79740142D01*
X107198342Y-79740142D02*
X107007866Y-79787761D01*
X107007866Y-79787761D02*
X106769771Y-79787761D01*
X106769771Y-79787761D02*
X106579295Y-79740142D01*
X106579295Y-79740142D02*
X106484057Y-79692523D01*
X106484057Y-79692523D02*
X106436438Y-79644904D01*
X106436438Y-79644904D02*
X106388819Y-79549666D01*
X107388819Y-78835380D02*
X107388819Y-78597285D01*
X107388819Y-78597285D02*
X107198342Y-78597285D01*
X107198342Y-78597285D02*
X107150723Y-78692523D01*
X107150723Y-78692523D02*
X107055485Y-78787761D01*
X107055485Y-78787761D02*
X106912628Y-78835380D01*
X106912628Y-78835380D02*
X106674533Y-78835380D01*
X106674533Y-78835380D02*
X106531676Y-78787761D01*
X106531676Y-78787761D02*
X106436438Y-78692523D01*
X106436438Y-78692523D02*
X106388819Y-78549666D01*
X106388819Y-78549666D02*
X106388819Y-78359190D01*
X106388819Y-78359190D02*
X106436438Y-78216333D01*
X106436438Y-78216333D02*
X106531676Y-78121095D01*
X106531676Y-78121095D02*
X106674533Y-78073476D01*
X106674533Y-78073476D02*
X106912628Y-78073476D01*
X106912628Y-78073476D02*
X107055485Y-78121095D01*
X107055485Y-78121095D02*
X107150723Y-78216333D01*
X107150723Y-78216333D02*
X107198342Y-78311571D01*
X107198342Y-78311571D02*
X107388819Y-78311571D01*
X107388819Y-78311571D02*
X107388819Y-78073476D01*
X107388819Y-83732666D02*
X106912628Y-84065999D01*
X107388819Y-84304094D02*
X106388819Y-84304094D01*
X106388819Y-84304094D02*
X106388819Y-83923142D01*
X106388819Y-83923142D02*
X106436438Y-83827904D01*
X106436438Y-83827904D02*
X106484057Y-83780285D01*
X106484057Y-83780285D02*
X106579295Y-83732666D01*
X106579295Y-83732666D02*
X106722152Y-83732666D01*
X106722152Y-83732666D02*
X106817390Y-83780285D01*
X106817390Y-83780285D02*
X106865009Y-83827904D01*
X106865009Y-83827904D02*
X106912628Y-83923142D01*
X106912628Y-83923142D02*
X106912628Y-84304094D01*
X107388819Y-82780285D02*
X107388819Y-83351713D01*
X107388819Y-83065999D02*
X106388819Y-83065999D01*
X106388819Y-83065999D02*
X106531676Y-83161237D01*
X106531676Y-83161237D02*
X106626914Y-83256475D01*
X106626914Y-83256475D02*
X106674533Y-83351713D01*
X172031819Y-75436857D02*
X172031819Y-76008285D01*
X172031819Y-75722571D02*
X171031819Y-75722571D01*
X171031819Y-75722571D02*
X171174676Y-75817809D01*
X171174676Y-75817809D02*
X171269914Y-75913047D01*
X171269914Y-75913047D02*
X171317533Y-76008285D01*
X172031819Y-75008285D02*
X171031819Y-75008285D01*
X171031819Y-75008285D02*
X172031819Y-74436857D01*
X172031819Y-74436857D02*
X171031819Y-74436857D01*
X171365152Y-73532095D02*
X172031819Y-73532095D01*
X170984200Y-73770190D02*
X171698485Y-74008285D01*
X171698485Y-74008285D02*
X171698485Y-73389238D01*
X172031819Y-72484476D02*
X172031819Y-73055904D01*
X172031819Y-72770190D02*
X171031819Y-72770190D01*
X171031819Y-72770190D02*
X171174676Y-72865428D01*
X171174676Y-72865428D02*
X171269914Y-72960666D01*
X171269914Y-72960666D02*
X171317533Y-73055904D01*
X171365152Y-71627333D02*
X172031819Y-71627333D01*
X170984200Y-71865428D02*
X171698485Y-72103523D01*
X171698485Y-72103523D02*
X171698485Y-71484476D01*
X171460390Y-70960666D02*
X171412771Y-71055904D01*
X171412771Y-71055904D02*
X171365152Y-71103523D01*
X171365152Y-71103523D02*
X171269914Y-71151142D01*
X171269914Y-71151142D02*
X171222295Y-71151142D01*
X171222295Y-71151142D02*
X171127057Y-71103523D01*
X171127057Y-71103523D02*
X171079438Y-71055904D01*
X171079438Y-71055904D02*
X171031819Y-70960666D01*
X171031819Y-70960666D02*
X171031819Y-70770190D01*
X171031819Y-70770190D02*
X171079438Y-70674952D01*
X171079438Y-70674952D02*
X171127057Y-70627333D01*
X171127057Y-70627333D02*
X171222295Y-70579714D01*
X171222295Y-70579714D02*
X171269914Y-70579714D01*
X171269914Y-70579714D02*
X171365152Y-70627333D01*
X171365152Y-70627333D02*
X171412771Y-70674952D01*
X171412771Y-70674952D02*
X171460390Y-70770190D01*
X171460390Y-70770190D02*
X171460390Y-70960666D01*
X171460390Y-70960666D02*
X171508009Y-71055904D01*
X171508009Y-71055904D02*
X171555628Y-71103523D01*
X171555628Y-71103523D02*
X171650866Y-71151142D01*
X171650866Y-71151142D02*
X171841342Y-71151142D01*
X171841342Y-71151142D02*
X171936580Y-71103523D01*
X171936580Y-71103523D02*
X171984200Y-71055904D01*
X171984200Y-71055904D02*
X172031819Y-70960666D01*
X172031819Y-70960666D02*
X172031819Y-70770190D01*
X172031819Y-70770190D02*
X171984200Y-70674952D01*
X171984200Y-70674952D02*
X171936580Y-70627333D01*
X171936580Y-70627333D02*
X171841342Y-70579714D01*
X171841342Y-70579714D02*
X171650866Y-70579714D01*
X171650866Y-70579714D02*
X171555628Y-70627333D01*
X171555628Y-70627333D02*
X171508009Y-70674952D01*
X171508009Y-70674952D02*
X171460390Y-70770190D01*
X172031819Y-79112094D02*
X171031819Y-79112094D01*
X171031819Y-79112094D02*
X171031819Y-78873999D01*
X171031819Y-78873999D02*
X171079438Y-78731142D01*
X171079438Y-78731142D02*
X171174676Y-78635904D01*
X171174676Y-78635904D02*
X171269914Y-78588285D01*
X171269914Y-78588285D02*
X171460390Y-78540666D01*
X171460390Y-78540666D02*
X171603247Y-78540666D01*
X171603247Y-78540666D02*
X171793723Y-78588285D01*
X171793723Y-78588285D02*
X171888961Y-78635904D01*
X171888961Y-78635904D02*
X171984200Y-78731142D01*
X171984200Y-78731142D02*
X172031819Y-78873999D01*
X172031819Y-78873999D02*
X172031819Y-79112094D01*
X172031819Y-77588285D02*
X172031819Y-78159713D01*
X172031819Y-77873999D02*
X171031819Y-77873999D01*
X171031819Y-77873999D02*
X171174676Y-77969237D01*
X171174676Y-77969237D02*
X171269914Y-78064475D01*
X171269914Y-78064475D02*
X171317533Y-78159713D01*
X113435152Y-75191761D02*
X114101819Y-75191761D01*
X113054200Y-75429856D02*
X113768485Y-75667951D01*
X113768485Y-75667951D02*
X113768485Y-75048904D01*
X114006580Y-74667951D02*
X114054200Y-74620332D01*
X114054200Y-74620332D02*
X114101819Y-74667951D01*
X114101819Y-74667951D02*
X114054200Y-74715570D01*
X114054200Y-74715570D02*
X114006580Y-74667951D01*
X114006580Y-74667951D02*
X114101819Y-74667951D01*
X113101819Y-74286999D02*
X113101819Y-73620333D01*
X113101819Y-73620333D02*
X114101819Y-74048904D01*
X113435152Y-73239380D02*
X114101819Y-73239380D01*
X113530390Y-73239380D02*
X113482771Y-73191761D01*
X113482771Y-73191761D02*
X113435152Y-73096523D01*
X113435152Y-73096523D02*
X113435152Y-72953666D01*
X113435152Y-72953666D02*
X113482771Y-72858428D01*
X113482771Y-72858428D02*
X113578009Y-72810809D01*
X113578009Y-72810809D02*
X114101819Y-72810809D01*
X113578009Y-72001285D02*
X113578009Y-72334618D01*
X114101819Y-72334618D02*
X113101819Y-72334618D01*
X113101819Y-72334618D02*
X113101819Y-71858428D01*
D11*
X115912748Y-73886999D02*
X115941320Y-73915571D01*
X115941320Y-73915571D02*
X115969891Y-74001285D01*
X115969891Y-74001285D02*
X115969891Y-74058428D01*
X115969891Y-74058428D02*
X115941320Y-74144142D01*
X115941320Y-74144142D02*
X115884177Y-74201285D01*
X115884177Y-74201285D02*
X115827034Y-74229856D01*
X115827034Y-74229856D02*
X115712748Y-74258428D01*
X115712748Y-74258428D02*
X115627034Y-74258428D01*
X115627034Y-74258428D02*
X115512748Y-74229856D01*
X115512748Y-74229856D02*
X115455605Y-74201285D01*
X115455605Y-74201285D02*
X115398462Y-74144142D01*
X115398462Y-74144142D02*
X115369891Y-74058428D01*
X115369891Y-74058428D02*
X115369891Y-74001285D01*
X115369891Y-74001285D02*
X115398462Y-73915571D01*
X115398462Y-73915571D02*
X115427034Y-73886999D01*
X115427034Y-73658428D02*
X115398462Y-73629856D01*
X115398462Y-73629856D02*
X115369891Y-73572714D01*
X115369891Y-73572714D02*
X115369891Y-73429856D01*
X115369891Y-73429856D02*
X115398462Y-73372714D01*
X115398462Y-73372714D02*
X115427034Y-73344142D01*
X115427034Y-73344142D02*
X115484177Y-73315571D01*
X115484177Y-73315571D02*
X115541320Y-73315571D01*
X115541320Y-73315571D02*
X115627034Y-73344142D01*
X115627034Y-73344142D02*
X115969891Y-73686999D01*
X115969891Y-73686999D02*
X115969891Y-73315571D01*
D12*
%TO.C,J9*%
X105283000Y-63246000D02*
X105918000Y-62611000D01*
X105283000Y-67691000D02*
X105283000Y-63246000D01*
X105918000Y-62611000D02*
X107823000Y-62611000D01*
X107823000Y-62611000D02*
X107823000Y-67691000D01*
X107823000Y-67691000D02*
X105283000Y-67691000D01*
%TO.C,J3*%
X143936200Y-46255400D02*
X143936200Y-57255401D01*
X145436200Y-45055400D02*
X145436200Y-46255400D01*
X145436200Y-45055400D02*
X146936200Y-45055400D01*
X145436200Y-46255400D02*
X143936200Y-46255400D01*
X146936200Y-45055400D02*
X146936200Y-43255400D01*
X152936200Y-43255400D02*
X146936200Y-43255400D01*
X152936200Y-45055400D02*
X152936200Y-43255400D01*
X154436200Y-45055400D02*
X152936200Y-45055400D01*
X154436200Y-45055400D02*
X154436200Y-46255400D01*
X154436200Y-46255400D02*
X155936200Y-46255400D01*
X155936199Y-62255400D02*
X143936200Y-62255400D01*
X155936200Y-46255400D02*
X155936199Y-57255400D01*
%TO.C,R3*%
X113030000Y-67310000D02*
X113030000Y-67970000D01*
X113030000Y-74930000D02*
X113030000Y-74270000D01*
X114280000Y-74270000D02*
X111780000Y-74270000D01*
X111780000Y-67970000D01*
X114280000Y-67970000D01*
X114280000Y-74270000D01*
%TO.C,C1*%
X112780000Y-76670000D02*
X115780000Y-76670000D01*
X115780000Y-78270000D01*
X112780000Y-78270000D01*
X112780000Y-76670000D01*
%TO.C,J4*%
X159065000Y-72070000D02*
X159065000Y-72710000D01*
X159065000Y-72070000D02*
X160885000Y-72070000D01*
X159065000Y-72710000D02*
X160885000Y-72710000D01*
X159065000Y-74610000D02*
X159065000Y-75250000D01*
X159065000Y-74610000D02*
X160885000Y-74610000D01*
X159065000Y-75250000D02*
X160885000Y-75250000D01*
X159065000Y-77150000D02*
X159065000Y-77790000D01*
X159065000Y-77150000D02*
X160885000Y-77150000D01*
X159065000Y-77790000D02*
X160885000Y-77790000D01*
X160885000Y-71755000D02*
X161520000Y-71120000D01*
X160885000Y-78740000D02*
X160885000Y-71755000D01*
X161520000Y-71120000D02*
X163425000Y-71120000D01*
X163425000Y-71120000D02*
X163425000Y-78740000D01*
X163425000Y-72070000D02*
X169425000Y-72070000D01*
X163425000Y-72710000D02*
X169425000Y-72710000D01*
X163425000Y-75250000D02*
X169425000Y-75250000D01*
X163425000Y-77150000D02*
X169425000Y-77150000D01*
X163425000Y-77790000D02*
X169425000Y-77790000D01*
X163425000Y-78740000D02*
X160885000Y-78740000D01*
X163425001Y-74610000D02*
X169425000Y-74610000D01*
X169425000Y-72070000D02*
X169425000Y-72710000D01*
X169425000Y-74610000D02*
X169425000Y-75250000D01*
X169425000Y-77150000D02*
X169425000Y-77790000D01*
%TO.C,R2*%
X106553000Y-69850000D02*
X106553000Y-70510000D01*
X106553000Y-77470000D02*
X106553000Y-76810000D01*
X107803000Y-76810000D02*
X105303000Y-76810000D01*
X105303000Y-70510000D01*
X107803000Y-70510000D01*
X107803000Y-76810000D01*
%TO.C,R8*%
X115570000Y-69723000D02*
X116230000Y-69723000D01*
X123190000Y-69723000D02*
X122530000Y-69723000D01*
X122530000Y-70973000D02*
X116230000Y-70973000D01*
X116230000Y-68473000D01*
X122530000Y-68473000D01*
X122530000Y-70973000D01*
%TO.C,D2*%
X168926000Y-72676000D02*
X168926000Y-76676000D01*
X168926000Y-76076000D02*
X170926000Y-76076000D01*
X168926000Y-76676000D02*
X170926000Y-76676000D01*
X169926000Y-70866000D02*
X169926000Y-72676000D01*
X169926000Y-78486000D02*
X169926000Y-76676000D01*
X170926000Y-72676000D02*
X168926000Y-72676000D01*
X170926000Y-76676000D02*
X170926000Y-72676000D01*
%TO.C,R1*%
X109220000Y-77470000D02*
X109220000Y-78130000D01*
X109220000Y-85090000D02*
X109220000Y-84430000D01*
X110470000Y-78130000D02*
X107970000Y-78130000D01*
X107970000Y-84430000D01*
X110470000Y-84430000D01*
X110470000Y-78130000D01*
%TO.C,D1*%
X172482000Y-72691000D02*
X172482000Y-76691000D01*
X172482000Y-76091000D02*
X174482000Y-76091000D01*
X172482000Y-76691000D02*
X174482000Y-76691000D01*
X173482000Y-70881000D02*
X173482000Y-72691000D01*
X173482000Y-78501000D02*
X173482000Y-76691000D01*
X174482000Y-72691000D02*
X172482000Y-72691000D01*
X174482000Y-76691000D02*
X174482000Y-72691000D01*
%TO.C,C2*%
X116497000Y-75287000D02*
X114897000Y-75287000D01*
X114897000Y-72287000D01*
X116497000Y-72287000D01*
X116497000Y-75287000D01*
%TD*%
M02*
