%TF.GenerationSoftware,KiCad,Pcbnew,9.0.4*%
%TF.CreationDate,2025-09-18T23:21:34+02:00*%
%TF.ProjectId,X-DaysSynth,582d4461-7973-4537-996e-74682e6b6963,0.4*%
%TF.SameCoordinates,Original*%
%TF.FileFunction,Copper,L2,Bot*%
%TF.FilePolarity,Positive*%
%FSLAX46Y46*%
G04 Gerber Fmt 4.6, Leading zero omitted, Abs format (unit mm)*
G04 Created by KiCad (PCBNEW 9.0.4) date 2025-09-18 23:21:34*
%MOMM*%
%LPD*%
G01*
G04 APERTURE LIST*
G04 Aperture macros list*
%AMRoundRect*
0 Rectangle with rounded corners*
0 $1 Rounding radius*
0 $2 $3 $4 $5 $6 $7 $8 $9 X,Y pos of 4 corners*
0 Add a 4 corners polygon primitive as box body*
4,1,4,$2,$3,$4,$5,$6,$7,$8,$9,$2,$3,0*
0 Add four circle primitives for the rounded corners*
1,1,$1+$1,$2,$3*
1,1,$1+$1,$4,$5*
1,1,$1+$1,$6,$7*
1,1,$1+$1,$8,$9*
0 Add four rect primitives between the rounded corners*
20,1,$1+$1,$2,$3,$4,$5,0*
20,1,$1+$1,$4,$5,$6,$7,0*
20,1,$1+$1,$6,$7,$8,$9,0*
20,1,$1+$1,$8,$9,$2,$3,0*%
%AMHorizOval*
0 Thick line with rounded ends*
0 $1 width*
0 $2 $3 position (X,Y) of the first rounded end (center of the circle)*
0 $4 $5 position (X,Y) of the second rounded end (center of the circle)*
0 Add line between two ends*
20,1,$1,$2,$3,$4,$5,0*
0 Add two circle primitives to create the rounded ends*
1,1,$1,$2,$3*
1,1,$1,$4,$5*%
G04 Aperture macros list end*
%TA.AperFunction,EtchedComponent*%
%ADD10C,0.000000*%
%TD*%
%TA.AperFunction,ComponentPad*%
%ADD11R,1.700000X1.700000*%
%TD*%
%TA.AperFunction,ComponentPad*%
%ADD12O,1.700000X1.700000*%
%TD*%
%TA.AperFunction,ComponentPad*%
%ADD13C,1.800000*%
%TD*%
%TA.AperFunction,ComponentPad*%
%ADD14O,2.200000X1.200000*%
%TD*%
%TA.AperFunction,ComponentPad*%
%ADD15O,1.200000X2.200000*%
%TD*%
%TA.AperFunction,ComponentPad*%
%ADD16O,1.600000X2.300000*%
%TD*%
%TA.AperFunction,ComponentPad*%
%ADD17O,1.600000X2.500000*%
%TD*%
%TA.AperFunction,ComponentPad*%
%ADD18C,1.600000*%
%TD*%
%TA.AperFunction,ComponentPad*%
%ADD19C,1.700000*%
%TD*%
%TA.AperFunction,ComponentPad*%
%ADD20R,1.600000X1.600000*%
%TD*%
%TA.AperFunction,ComponentPad*%
%ADD21O,1.600000X1.600000*%
%TD*%
%TA.AperFunction,ComponentPad*%
%ADD22C,10.000000*%
%TD*%
%TA.AperFunction,SMDPad,CuDef*%
%ADD23R,1.524000X4.572000*%
%TD*%
%TA.AperFunction,SMDPad,CuDef*%
%ADD24RoundRect,0.381000X0.381000X1.905000X-0.381000X1.905000X-0.381000X-1.905000X0.381000X-1.905000X0*%
%TD*%
%TA.AperFunction,SMDPad,CuDef*%
%ADD25C,0.500000*%
%TD*%
%TA.AperFunction,ComponentPad*%
%ADD26C,1.524000*%
%TD*%
%TA.AperFunction,ComponentPad*%
%ADD27RoundRect,0.450000X0.450000X-0.450000X0.450000X0.450000X-0.450000X0.450000X-0.450000X-0.450000X0*%
%TD*%
%TA.AperFunction,ComponentPad*%
%ADD28O,3.000000X1.800000*%
%TD*%
%TA.AperFunction,ComponentPad*%
%ADD29R,2.500000X1.500000*%
%TD*%
%TA.AperFunction,ComponentPad*%
%ADD30O,2.500000X1.500000*%
%TD*%
%TA.AperFunction,ComponentPad*%
%ADD31HorizOval,2.032000X0.354204X0.204500X-0.354204X-0.204500X0*%
%TD*%
%TA.AperFunction,ComponentPad*%
%ADD32HorizOval,2.032000X0.354204X-0.204500X-0.354204X0.204500X0*%
%TD*%
%TA.AperFunction,ViaPad*%
%ADD33C,1.016000*%
%TD*%
%TA.AperFunction,ViaPad*%
%ADD34C,0.750000*%
%TD*%
%TA.AperFunction,Conductor*%
%ADD35C,0.508000*%
%TD*%
%TA.AperFunction,Conductor*%
%ADD36C,1.270000*%
%TD*%
%TA.AperFunction,Conductor*%
%ADD37C,1.016000*%
%TD*%
%TA.AperFunction,Conductor*%
%ADD38C,0.762000*%
%TD*%
%TA.AperFunction,Conductor*%
%ADD39C,1.524000*%
%TD*%
G04 APERTURE END LIST*
D10*
%TA.AperFunction,EtchedComponent*%
%TO.C,NT1*%
G36*
X106930000Y-88629999D02*
G01*
X106430001Y-88630000D01*
X106430000Y-86630001D01*
X106929999Y-86630000D01*
X106930000Y-88629999D01*
G37*
%TD.AperFunction*%
%TD*%
D11*
%TO.P,J9,1,Pin_1*%
%TO.N,Net-(AMP1-SWITCH2)*%
X106553000Y-63881000D03*
D12*
%TO.P,J9,2,Pin_2*%
%TO.N,/GND-IN*%
X106553000Y-66421000D03*
%TD*%
D13*
%TO.P,J3,C,COM*%
%TO.N,Net-(AMP1-L)*%
X149936200Y-59715400D03*
D14*
%TO.P,J3,G*%
%TO.N,Net-(AMP1-LOUT-)*%
X149936200Y-49555400D03*
D13*
%TO.P,J3,I,IN*%
%TO.N,/AUDIO_LOW*%
X147396200Y-59715400D03*
%TO.P,J3,O,OUT*%
%TO.N,Net-(J3-OUT)*%
X152476200Y-59715400D03*
D15*
%TO.P,J3,R*%
%TO.N,Net-(AMP1-ROUT)*%
X154936200Y-54555400D03*
D16*
%TO.P,J3,RN*%
%TO.N,Net-(J3-PadRN)*%
X152436200Y-54555400D03*
D15*
%TO.P,J3,T*%
%TO.N,Net-(AMP1-LOUT+)*%
X144936200Y-54555400D03*
D17*
%TO.P,J3,TN*%
%TO.N,unconnected-(J3-PadTN)*%
X147436200Y-54555400D03*
%TD*%
D18*
%TO.P,R3,1*%
%TO.N,/AUDIO_LOW*%
X113030000Y-67310000D03*
%TO.P,R3,2*%
%TO.N,Net-(C2-Pad1)*%
X113030000Y-74930000D03*
%TD*%
%TO.P,C1,1*%
%TO.N,Net-(C1-Pad1)*%
X113030000Y-77470000D03*
%TO.P,C1,2*%
%TO.N,GNDA*%
X115530000Y-77470000D03*
%TD*%
D11*
%TO.P,J4,1,Pin_1*%
%TO.N,/DGND*%
X159385000Y-72390000D03*
D19*
%TO.P,J4,2,Pin_2*%
%TO.N,/LED_DIN*%
X159385000Y-74930000D03*
%TO.P,J4,3,Pin_3*%
%TO.N,+3.3V*%
X159385000Y-77470000D03*
%TD*%
D18*
%TO.P,R2,1*%
%TO.N,Net-(C2-Pad1)*%
X106553000Y-69850000D03*
%TO.P,R2,2*%
%TO.N,Net-(C1-Pad1)*%
X106553000Y-77470000D03*
%TD*%
%TO.P,R8,1*%
%TO.N,Net-(J3-OUT)*%
X123190000Y-69723000D03*
%TO.P,R8,2*%
%TO.N,GNDA*%
X115570000Y-69723000D03*
%TD*%
D20*
%TO.P,D2,1,K*%
%TO.N,Net-(D1-K)*%
X169926000Y-78486000D03*
D21*
%TO.P,D2,2,A*%
%TO.N,/PARAM*%
X169926000Y-70866000D03*
%TD*%
D18*
%TO.P,R1,1*%
%TO.N,Net-(C1-Pad1)*%
X109220000Y-77470000D03*
%TO.P,R1,2*%
%TO.N,/PWM_OUT*%
X109220000Y-85090000D03*
%TD*%
D20*
%TO.P,D1,1,K*%
%TO.N,Net-(D1-K)*%
X173482000Y-78501000D03*
D21*
%TO.P,D1,2,A*%
%TO.N,/WRITE*%
X173482000Y-70881000D03*
%TD*%
D22*
%TO.P,J1,1,Pin_1*%
%TO.N,/DGND*%
X168910000Y-60960000D03*
%TD*%
D18*
%TO.P,C2,1*%
%TO.N,Net-(C2-Pad1)*%
X115697000Y-72537000D03*
%TO.P,C2,2*%
%TO.N,GNDA*%
X115697000Y-75037000D03*
%TD*%
D23*
%TO.P,U1,1,B12/NSS2*%
%TO.N,/C0*%
X165100000Y-150114000D03*
D24*
%TO.P,U1,2,B13/SCK2*%
%TO.N,/C#0*%
X162559999Y-150114000D03*
%TO.P,U1,3,B14/MISO2*%
%TO.N,/D0*%
X160020000Y-150114000D03*
%TO.P,U1,4,B15/MOSI2*%
%TO.N,/D#0*%
X157479999Y-150114000D03*
%TO.P,U1,5,A8/MCO*%
%TO.N,/E0*%
X154940000Y-150114000D03*
%TO.P,U1,6,A9/U1TXa*%
%TO.N,/F0*%
X152399999Y-150114000D03*
%TO.P,U1,7,A10/U1RXa*%
%TO.N,/F#0*%
X149860000Y-150114000D03*
%TO.P,U1,8,A11/CANRX/USBDM*%
%TO.N,unconnected-(U1-A11{slash}CANRX{slash}USBDM-Pad8)*%
X147320000Y-150114001D03*
%TO.P,U1,9,A12/CANTX/USBDP*%
%TO.N,unconnected-(U1-A12{slash}CANTX{slash}USBDP-Pad9)*%
X144780000Y-150114000D03*
%TO.P,U1,10,A15/JTDI*%
%TO.N,/A0*%
X142240000Y-150114000D03*
%TO.P,U1,11,B3/JTDO*%
%TO.N,/A#0*%
X139700000Y-150114000D03*
%TO.P,U1,12,B4/JnTRST*%
%TO.N,/B0*%
X137160000Y-150114000D03*
%TO.P,U1,13,B5*%
%TO.N,/C1*%
X134620000Y-150114001D03*
%TO.P,U1,14,B6/SCL1a/U1TXb*%
%TO.N,/C#1*%
X132080000Y-150114000D03*
%TO.P,U1,15,B7/SDA1a/U1RXb*%
%TO.N,/D1*%
X129540000Y-150114001D03*
%TO.P,U1,16,B8/SCL1b/CANRX*%
%TO.N,/PWM_OUT*%
X127000000Y-150114000D03*
%TO.P,U1,17,B9/SDA1b/CANTX*%
%TO.N,/D#1*%
X124460000Y-150114001D03*
%TO.P,U1,18,5V*%
%TO.N,unconnected-(U1-5V-Pad18)*%
X121920000Y-150114000D03*
%TO.P,U1,19,GND*%
%TO.N,/DGND*%
X119380000Y-150114001D03*
%TO.P,U1,20,3V3*%
%TO.N,unconnected-(U1-3V3-Pad20)*%
X116840000Y-150114000D03*
%TO.P,U1,21,VBAT*%
%TO.N,unconnected-(U1-VBAT-Pad21)*%
X116840000Y-131826000D03*
%TO.P,U1,22,C13*%
%TO.N,/E1*%
X119380001Y-131826000D03*
%TO.P,U1,23,C14/OSC32_IN*%
%TO.N,/F1*%
X121920000Y-131826000D03*
%TO.P,U1,24,C15/OSC32_OUT*%
%TO.N,/F#1*%
X124460001Y-131826000D03*
%TO.P,U1,25,A0/WKUP*%
%TO.N,/G1*%
X127000000Y-131826000D03*
%TO.P,U1,26,A1*%
%TO.N,/G#1*%
X129540001Y-131826000D03*
%TO.P,U1,27,A2/U2TX*%
%TO.N,/A1*%
X132080000Y-131826000D03*
%TO.P,U1,28,A3/U2RX*%
%TO.N,/A#1*%
X134620000Y-131825999D03*
%TO.P,U1,29,A4/NSS1*%
%TO.N,/B1*%
X137160000Y-131826000D03*
%TO.P,U1,30,A5/SCK1*%
%TO.N,/C2*%
X139700000Y-131826000D03*
%TO.P,U1,31,A6/MISO1*%
%TO.N,/G0*%
X142240000Y-131826000D03*
%TO.P,U1,32,A7/MOSI1*%
%TO.N,/LED_DIN*%
X144780000Y-131826000D03*
%TO.P,U1,33,B0*%
%TO.N,/PARAM*%
X147320000Y-131825999D03*
%TO.P,U1,34,B1*%
%TO.N,/WRITE*%
X149860000Y-131826000D03*
%TO.P,U1,35,B10/SCL2/U3TX*%
%TO.N,/PATCH*%
X152400000Y-131825999D03*
%TO.P,U1,36,B11/SDA2/U3RX*%
%TO.N,/G#0*%
X154940000Y-131826000D03*
%TO.P,U1,37,nRESET*%
%TO.N,unconnected-(U1-nRESET-Pad37)*%
X157480000Y-131825999D03*
%TO.P,U1,38,3V3*%
%TO.N,+3.3V*%
X160020000Y-131826000D03*
%TO.P,U1,39,GND*%
%TO.N,/DGND*%
X162560000Y-131825999D03*
%TO.P,U1,40,GND*%
X165100000Y-131826000D03*
%TD*%
D25*
%TO.P,NT1,1,1*%
%TO.N,/DGND*%
X106680000Y-88630000D03*
%TO.P,NT1,2,2*%
%TO.N,/GND-IN*%
X106680000Y-87630000D03*
%TO.P,NT1,3,3*%
%TO.N,GNDA*%
X106680000Y-86630000D03*
%TD*%
D26*
%TO.P,AMP1,1,ROUT*%
%TO.N,Net-(AMP1-ROUT)*%
X138478447Y-64641500D03*
%TO.P,AMP1,2,ROUT-*%
%TO.N,Net-(AMP1-LOUT-)*%
X135938447Y-64641500D03*
%TO.P,AMP1,3,LOUT+*%
%TO.N,Net-(AMP1-LOUT+)*%
X133398447Y-64641500D03*
%TO.P,AMP1,4,LOUT-*%
%TO.N,Net-(AMP1-LOUT-)*%
X130858447Y-64641500D03*
%TO.P,AMP1,5,POWER-*%
%TO.N,GNDA*%
X125778447Y-64641500D03*
%TO.P,AMP1,6,POWER+*%
%TO.N,+3.3V*%
X123238447Y-64641500D03*
%TO.P,AMP1,7,L*%
%TO.N,Net-(AMP1-L)*%
X118158447Y-64641500D03*
%TO.P,AMP1,8,G*%
%TO.N,GNDA*%
X115618447Y-64641500D03*
%TO.P,AMP1,9,R*%
%TO.N,/AUDIO_LOW*%
X113078447Y-64641500D03*
D27*
%TO.P,AMP1,10*%
%TO.N,N/C*%
X113840447Y-50965500D03*
D13*
%TO.P,AMP1,11*%
X116340447Y-50965500D03*
%TO.P,AMP1,12*%
X118840447Y-50965500D03*
%TO.P,AMP1,13*%
X113840447Y-53465500D03*
%TO.P,AMP1,14*%
X116340448Y-53465500D03*
%TO.P,AMP1,15*%
X118840447Y-53465500D03*
%TO.P,AMP1,16,SWITCH1*%
%TO.N,+3.3V*%
X113840447Y-59739300D03*
%TO.P,AMP1,17,SWITCH2*%
%TO.N,Net-(AMP1-SWITCH2)*%
X118840447Y-59739300D03*
%TD*%
D28*
%TO.P,J2,*%
%TO.N,*%
X106299000Y-59885000D03*
X106299000Y-51685000D03*
D29*
%TO.P,J2,1,Pin_1*%
%TO.N,+3.3V*%
X106299000Y-57785000D03*
D30*
%TO.P,J2,2,Pin_2*%
%TO.N,Net-(AMP1-SWITCH2)*%
X106299000Y-55785000D03*
%TO.P,J2,3,Pin_3*%
%TO.N,unconnected-(J2-Pin_3-Pad3)*%
X106299000Y-53785000D03*
%TD*%
D31*
%TO.P,LS1,1,1*%
%TO.N,Net-(AMP1-LOUT-)*%
X130715000Y-77929096D03*
D32*
%TO.P,LS1,2,2*%
%TO.N,Net-(J3-PadRN)*%
X149987000Y-77929096D03*
%TD*%
D33*
%TO.N,GNDA*%
X157480000Y-55245000D03*
X135890000Y-74295000D03*
X122555000Y-83185000D03*
X109220000Y-61595000D03*
X137160000Y-60325000D03*
X154305000Y-62865000D03*
X156845000Y-48895000D03*
X151765000Y-52070000D03*
X140970000Y-48260000D03*
X108585000Y-73660000D03*
X113665000Y-84455000D03*
X127000000Y-73025000D03*
X142875000Y-64770000D03*
%TO.N,+3.3V*%
X109855000Y-57785000D03*
%TO.N,/DGND*%
X160655000Y-112395000D03*
X168021000Y-118618000D03*
X175260000Y-108585000D03*
X128905000Y-112395000D03*
X175260000Y-118110000D03*
X161290000Y-80010000D03*
X161925000Y-99060000D03*
X106680000Y-99695000D03*
X110490000Y-90805000D03*
X160655000Y-47625000D03*
X163830000Y-72390000D03*
X166370000Y-69215000D03*
X114300000Y-99695000D03*
X173990000Y-64135000D03*
X117348000Y-116967000D03*
X121920000Y-90805000D03*
X106680000Y-116840000D03*
D34*
%TO.N,/C0*%
X113157000Y-158496000D03*
%TO.N,/C#0*%
X111379000Y-140843000D03*
%TO.N,/D0*%
X122047000Y-156835000D03*
%TO.N,/D#0*%
X121783000Y-141742000D03*
%TO.N,/E0*%
X130810000Y-154940000D03*
%TO.N,/F0*%
X139700000Y-153924000D03*
%TO.N,/F#0*%
X140970000Y-147329000D03*
%TO.N,/G0*%
X146050000Y-140970000D03*
%TO.N,/G#0*%
X151130000Y-140716000D03*
%TO.N,/A0*%
X151130000Y-153099000D03*
%TO.N,/A#0*%
X157734000Y-145542000D03*
%TO.N,/B0*%
X162814000Y-144399000D03*
%TO.N,/C1*%
X167767000Y-145034000D03*
X107188000Y-138938000D03*
%TO.N,/C#1*%
X111379000Y-128524000D03*
%TO.N,/D1*%
X122047000Y-137531000D03*
%TO.N,/D#1*%
X121903827Y-120573628D03*
%TO.N,/E1*%
X123698000Y-136652000D03*
%TO.N,/F1*%
X133096000Y-138938000D03*
%TO.N,/F#1*%
X137795000Y-120269000D03*
%TO.N,/G1*%
X141986000Y-139001000D03*
%TO.N,/G#1*%
X147955000Y-120269000D03*
%TO.N,/A1*%
X150114000Y-138293000D03*
%TO.N,/A#1*%
X157810953Y-120345953D03*
%TO.N,/B1*%
X159004000Y-137859000D03*
%TO.N,/C2*%
X167767000Y-137287000D03*
D33*
%TO.N,/PARAM*%
X167259000Y-96469200D03*
%TO.N,/WRITE*%
X167640000Y-106578400D03*
%TO.N,/PATCH*%
X167487600Y-116154200D03*
%TO.N,Net-(D1-K)*%
X171475400Y-80645000D03*
%TD*%
D35*
%TO.N,GNDA*%
X121158000Y-63914214D02*
X121158000Y-63992540D01*
X106680000Y-86630000D02*
X106680000Y-85062641D01*
X115530000Y-75204000D02*
X115697000Y-75037000D01*
X115618447Y-64641500D02*
X115618447Y-64406980D01*
X115530000Y-77470000D02*
X115530000Y-75204000D01*
X120346787Y-62688787D02*
X120865107Y-63207107D01*
X110081641Y-81661000D02*
X110096359Y-81661000D01*
X124869761Y-65653713D02*
X125778447Y-64745027D01*
X117333000Y-72314427D02*
X117333000Y-72572573D01*
X117922427Y-62103000D02*
X118932573Y-62103000D01*
X121743787Y-65406754D02*
X121990747Y-65653714D01*
X107558680Y-82941320D02*
X107960321Y-82539679D01*
X115570000Y-64689947D02*
X115570000Y-69723000D01*
D36*
X125778447Y-64745027D02*
X125778447Y-64641500D01*
D35*
X112217680Y-80782320D02*
X115530000Y-77470000D01*
X123404960Y-66239500D02*
X123455547Y-66239500D01*
X116204234Y-62992766D02*
X116508214Y-62688786D01*
X116747213Y-73986787D02*
X115697000Y-75037000D01*
X115570000Y-69723000D02*
X116747214Y-70900214D01*
D36*
X115618447Y-64641500D02*
X115570000Y-64689947D01*
D35*
X116747213Y-73986787D02*
G75*
G03*
X117332981Y-72572573I-1414213J1414187D01*
G01*
X107558680Y-82941320D02*
G75*
G03*
X106680029Y-85062641I2121320J-2121280D01*
G01*
X116204234Y-62992766D02*
G75*
G03*
X115618419Y-64406980I1414166J-1414234D01*
G01*
X123404960Y-66239500D02*
G75*
G02*
X121990767Y-65653694I40J2000000D01*
G01*
X121743787Y-65406754D02*
G75*
G02*
X121157972Y-63992540I1414213J1414254D01*
G01*
X116508214Y-62688786D02*
G75*
G02*
X117922427Y-62103019I1414186J-1414214D01*
G01*
X120865107Y-63207107D02*
G75*
G02*
X121157990Y-63914214I-707107J-707093D01*
G01*
X116747214Y-70900214D02*
G75*
G02*
X117332981Y-72314427I-1414214J-1414186D01*
G01*
X107960321Y-82539679D02*
G75*
G02*
X110081641Y-81661029I2121279J-2121321D01*
G01*
X123455547Y-66239500D02*
G75*
G03*
X124869738Y-65653690I-47J2000000D01*
G01*
X112217680Y-80782320D02*
G75*
G02*
X110096359Y-81660971I-2121280J2121320D01*
G01*
X120346787Y-62688787D02*
G75*
G03*
X118932573Y-62103019I-1414187J-1414213D01*
G01*
D36*
%TO.N,+3.3V*%
X156675000Y-51435000D02*
X156560000Y-51550000D01*
X106299000Y-57785000D02*
X109855000Y-57785000D01*
D37*
X157655000Y-51435000D02*
X156675000Y-51435000D01*
D36*
X123575084Y-63168558D02*
X123640021Y-63077042D01*
X123238447Y-64641500D02*
X123238447Y-64279980D01*
D37*
X160655000Y-59744719D02*
X160655000Y-54435000D01*
D36*
X123784762Y-62905641D02*
X123824234Y-62865766D01*
X123238707Y-64223873D02*
X123245000Y-64111836D01*
X123245000Y-64111836D02*
X123257565Y-64000327D01*
X123301334Y-63780299D02*
X123332401Y-63672471D01*
X123709987Y-62989311D02*
X123784762Y-62905641D01*
D37*
X154370000Y-51550000D02*
X156560000Y-51550000D01*
X156210000Y-74470000D02*
X156210000Y-69160281D01*
D36*
X123238447Y-64279980D02*
X123238707Y-64223873D01*
D37*
X149400000Y-47600000D02*
X150870000Y-47600000D01*
D36*
X123412409Y-63462883D02*
X123461098Y-63361783D01*
X123515380Y-63263571D02*
X123575084Y-63168558D01*
D37*
X159385000Y-77470000D02*
X159210000Y-77470000D01*
X152870000Y-49600000D02*
X152870000Y-50050000D01*
D36*
X123369465Y-63566555D02*
X123412409Y-63462883D01*
D37*
X147400000Y-49640400D02*
X147400000Y-49600000D01*
X123824234Y-62865766D02*
X134185134Y-52504866D01*
D36*
X123461098Y-63361783D02*
X123515380Y-63263571D01*
D37*
X137720668Y-51040400D02*
X146000000Y-51040400D01*
D36*
X123332401Y-63672471D02*
X123369465Y-63566555D01*
D37*
X157967360Y-64917640D02*
X158897641Y-63987359D01*
D36*
X123257565Y-64000327D02*
X123276363Y-63889699D01*
X123276363Y-63889699D02*
X123301334Y-63780299D01*
X123640021Y-63077042D02*
X123709987Y-62989311D01*
D37*
X160655000Y-54435000D02*
G75*
G03*
X157655000Y-51435000I-3000000J0D01*
G01*
X150870000Y-47600000D02*
G75*
G02*
X152870000Y-49600000I0J-2000000D01*
G01*
X152870000Y-50050000D02*
G75*
G03*
X154370000Y-51550000I1500000J0D01*
G01*
X134185134Y-52504866D02*
G75*
G02*
X137720668Y-51040377I3535566J-3535534D01*
G01*
X158897641Y-63987359D02*
G75*
G03*
X160655013Y-59744719I-4242641J4242659D01*
G01*
X156210000Y-69160281D02*
G75*
G02*
X157967369Y-64917649I6000000J-19D01*
G01*
X147400000Y-49600000D02*
G75*
G02*
X149400000Y-47600000I2000000J0D01*
G01*
X146000000Y-51040400D02*
G75*
G03*
X147400000Y-49640400I0J1400000D01*
G01*
X156210000Y-74470000D02*
G75*
G03*
X159210000Y-77470000I3000000J0D01*
G01*
D36*
%TO.N,/DGND*%
X110295534Y-94420534D02*
X108144466Y-92269466D01*
D35*
X114894039Y-119420961D02*
X117348000Y-116967000D01*
X119380000Y-148590001D02*
X119380000Y-148562641D01*
D36*
X116760000Y-116967000D02*
X117348000Y-116967000D01*
D35*
X123444000Y-142013359D02*
X123444000Y-141257214D01*
D36*
X162560000Y-133349999D02*
X162560000Y-127806922D01*
D35*
X123151107Y-140550107D02*
X122797836Y-140196836D01*
X106680000Y-88733932D02*
X106680000Y-88630000D01*
X120258680Y-146441320D02*
X122565321Y-144134679D01*
X122090729Y-139903943D02*
X116795797Y-139903943D01*
X112258000Y-135366146D02*
X112258000Y-125784922D01*
D36*
X165100000Y-133350000D02*
X162560001Y-133350000D01*
X165196039Y-121442961D02*
X168021000Y-118618000D01*
X111760000Y-111967000D02*
X111760000Y-97956068D01*
X162560001Y-133350000D02*
X162560000Y-133349999D01*
X159385000Y-72390000D02*
X163830000Y-72390000D01*
D35*
X113967370Y-138732370D02*
X113429573Y-138194573D01*
D36*
X168021000Y-118872000D02*
X168021000Y-118618000D01*
D35*
X119380000Y-148562641D02*
G75*
G02*
X120258660Y-146441300I3000000J41D01*
G01*
X116795797Y-139903943D02*
G75*
G02*
X113967362Y-138732378I3J4000043D01*
G01*
X108144466Y-92269466D02*
G75*
G02*
X106679977Y-88733932I3535534J3535566D01*
G01*
X114894039Y-119420961D02*
G75*
G03*
X112258016Y-125784922I6363961J-6363939D01*
G01*
X122797836Y-140196836D02*
G75*
G03*
X122090729Y-139903910I-707136J-707064D01*
G01*
D36*
X111760000Y-111967000D02*
G75*
G03*
X116760000Y-116967000I5000000J0D01*
G01*
D35*
X122565321Y-144134679D02*
G75*
G03*
X123443971Y-142013359I-2121321J2121279D01*
G01*
D36*
X162560000Y-127806922D02*
G75*
G02*
X165196028Y-121442950I9000000J22D01*
G01*
D35*
X113429573Y-138194573D02*
G75*
G02*
X112257968Y-135366146I2828427J2828473D01*
G01*
X123444000Y-141257214D02*
G75*
G03*
X123151114Y-140550100I-1000000J14D01*
G01*
D36*
X111760000Y-97956068D02*
G75*
G03*
X110295518Y-94420550I-5000000J-32D01*
G01*
D35*
%TO.N,/C0*%
X162756854Y-155632146D02*
X162236146Y-156152854D01*
X156579292Y-158496000D02*
X113157000Y-158496000D01*
X165100000Y-148590000D02*
X165100000Y-149975292D01*
X165100000Y-149975292D02*
G75*
G02*
X162756858Y-155632150I-8000000J-8D01*
G01*
X162236146Y-156152854D02*
G75*
G02*
X156579292Y-158495994I-5656846J5656854D01*
G01*
%TO.N,/C#0*%
X107950000Y-148484505D02*
X107950000Y-146757281D01*
X162559999Y-148590000D02*
X162559999Y-150389506D01*
X111956854Y-155390854D02*
X110000252Y-153434252D01*
X109707360Y-142514640D02*
X111379000Y-140843000D01*
X155215505Y-157734000D02*
X117613708Y-157734000D01*
X160509746Y-155339254D02*
X160165252Y-155683748D01*
X111956854Y-155390854D02*
G75*
G03*
X117613708Y-157733994I5656846J5656854D01*
G01*
X110000252Y-153434252D02*
G75*
G02*
X107949996Y-148484505I4949748J4949752D01*
G01*
X160165252Y-155683748D02*
G75*
G02*
X155215505Y-157734004I-4949752J4949748D01*
G01*
X107950000Y-146757281D02*
G75*
G02*
X109707369Y-142514649I6000000J-19D01*
G01*
X162559999Y-150389506D02*
G75*
G02*
X160509743Y-155339251I-6999999J6D01*
G01*
%TO.N,/D0*%
X153734719Y-156835000D02*
X122047000Y-156835000D01*
X158262640Y-154792360D02*
X157977359Y-155077641D01*
X160020000Y-148590000D02*
X160020000Y-150549719D01*
X158262640Y-154792360D02*
G75*
G03*
X160020013Y-150549719I-4242640J4242660D01*
G01*
X157977359Y-155077641D02*
G75*
G02*
X153734719Y-156835013I-4242659J4242641D01*
G01*
%TO.N,/D#0*%
X157479999Y-148590000D02*
X157479999Y-152046360D01*
X153570359Y-155956000D02*
X117166281Y-155956000D01*
X110518573Y-143227427D02*
X110842427Y-142903573D01*
X113670854Y-141732000D02*
X121773000Y-141732000D01*
X121773000Y-141732000D02*
X121783000Y-141742000D01*
X112923640Y-154198640D02*
X111104359Y-152379359D01*
X156601319Y-154167681D02*
X155691679Y-155077321D01*
X109347000Y-148136719D02*
X109347000Y-146055854D01*
X111104359Y-152379359D02*
G75*
G02*
X109346987Y-148136719I4242641J4242659D01*
G01*
X156601319Y-154167681D02*
G75*
G03*
X157479971Y-152046360I-2121319J2121281D01*
G01*
X110842427Y-142903573D02*
G75*
G02*
X113670854Y-141731968I2828473J-2828427D01*
G01*
X109347000Y-146055854D02*
G75*
G02*
X110518596Y-143227450I4000000J-46D01*
G01*
X155691679Y-155077321D02*
G75*
G02*
X153570359Y-155955971I-2121279J2121321D01*
G01*
X112923640Y-154198640D02*
G75*
G03*
X117166281Y-155956013I4242660J4242640D01*
G01*
%TO.N,/E0*%
X154061320Y-153786680D02*
X153786679Y-154061321D01*
X154940000Y-148590000D02*
X154940000Y-151665359D01*
X151665359Y-154940000D02*
X130810000Y-154940000D01*
X154061320Y-153786680D02*
G75*
G03*
X154939971Y-151665359I-2121320J2121280D01*
G01*
X153786679Y-154061321D02*
G75*
G02*
X151665359Y-154939971I-2121279J2121321D01*
G01*
%TO.N,/F0*%
X152399999Y-148590000D02*
X152399999Y-152874787D01*
X152107106Y-153581894D02*
X152003893Y-153685107D01*
X151296786Y-153978000D02*
X139754000Y-153978000D01*
X139754000Y-153978000D02*
X139700000Y-153924000D01*
X151296786Y-153978000D02*
G75*
G03*
X152003900Y-153685114I14J1000000D01*
G01*
X152399999Y-152874787D02*
G75*
G02*
X152107112Y-153581900I-999999J-13D01*
G01*
%TO.N,/F#0*%
X149860000Y-148590000D02*
X149860000Y-147861214D01*
X149567107Y-147154107D02*
X149390893Y-146977893D01*
X141321107Y-146977893D02*
X140970000Y-147329000D01*
X148683786Y-146685000D02*
X142028214Y-146685000D01*
X149567107Y-147154107D02*
G75*
G02*
X149859990Y-147861214I-707107J-707093D01*
G01*
X142028214Y-146685000D02*
G75*
G03*
X141321100Y-146977886I-14J-1000000D01*
G01*
X148683786Y-146685000D02*
G75*
G02*
X149390900Y-146977886I14J-1000000D01*
G01*
%TO.N,/G0*%
X149683787Y-140384213D02*
X150417214Y-139650786D01*
X142240000Y-134620000D02*
X142240000Y-133350000D01*
X143510000Y-135890000D02*
X142240000Y-134620000D01*
X151831427Y-139065000D02*
X167410000Y-139065000D01*
X146050000Y-140970000D02*
X148269573Y-140970000D01*
X167910000Y-135890000D02*
X143510000Y-135890000D01*
X168910000Y-137565000D02*
X168910000Y-136890000D01*
X168910000Y-136890000D02*
G75*
G03*
X167910000Y-135890000I-1000000J0D01*
G01*
X167410000Y-139065000D02*
G75*
G03*
X168910000Y-137565000I0J1500000D01*
G01*
X149683787Y-140384213D02*
G75*
G02*
X148269573Y-140969981I-1414187J1414213D01*
G01*
X150417214Y-139650786D02*
G75*
G02*
X151831427Y-139065019I1414186J-1414214D01*
G01*
%TO.N,/G#0*%
X168942000Y-140716000D02*
X151130000Y-140716000D01*
X154940000Y-133350000D02*
X154940000Y-134128000D01*
X155940000Y-135128000D02*
X168942000Y-135128000D01*
X170942000Y-137128000D02*
X170942000Y-138716000D01*
X155940000Y-135128000D02*
G75*
G02*
X154940000Y-134128000I0J1000000D01*
G01*
X168942000Y-135128000D02*
G75*
G02*
X170942000Y-137128000I0J-2000000D01*
G01*
X170942000Y-138716000D02*
G75*
G02*
X168942000Y-140716000I-2000000J0D01*
G01*
%TO.N,/A0*%
X142240000Y-148590000D02*
X142240000Y-151099000D01*
X144240000Y-153099000D02*
X151130000Y-153099000D01*
X144240000Y-153099000D02*
G75*
G02*
X142240000Y-151099000I0J2000000D01*
G01*
%TO.N,/A#0*%
X140285787Y-146226213D02*
X140384214Y-146127786D01*
X139700000Y-148590000D02*
X139700000Y-147640427D01*
X141798427Y-145542000D02*
X157734000Y-145542000D01*
X141798427Y-145542000D02*
G75*
G03*
X140384200Y-146127772I-27J-2000000D01*
G01*
X139700000Y-147640427D02*
G75*
G02*
X140285773Y-146226199I2000000J27D01*
G01*
%TO.N,/B0*%
X138038680Y-145806320D02*
X138567321Y-145277679D01*
X137160000Y-148590000D02*
X137160000Y-147927641D01*
X140688641Y-144399000D02*
X162814000Y-144399000D01*
X137160000Y-147927641D02*
G75*
G02*
X138038660Y-145806300I3000000J41D01*
G01*
X140688641Y-144399000D02*
G75*
G03*
X138567301Y-145277659I-41J-3000000D01*
G01*
%TO.N,/C1*%
X139993068Y-143002000D02*
X163951146Y-143002000D01*
X136084466Y-144839534D02*
X136457534Y-144466466D01*
X134620000Y-148590001D02*
X134620000Y-148375068D01*
X157308078Y-159512000D02*
X112848281Y-159512000D01*
X165765961Y-154782039D02*
X163672039Y-156875961D01*
X166779573Y-144173573D02*
X167230427Y-144624427D01*
X108605640Y-157754640D02*
X108564359Y-157713359D01*
X106807000Y-139319000D02*
X107188000Y-138938000D01*
X106807000Y-153470719D02*
X106807000Y-139319000D01*
X168402000Y-147452854D02*
X168402000Y-148418078D01*
X168402000Y-148418078D02*
G75*
G02*
X165765972Y-154782050I-9000000J-22D01*
G01*
X108605640Y-157754640D02*
G75*
G03*
X112848281Y-159512013I4242660J4242640D01*
G01*
X163672039Y-156875961D02*
G75*
G02*
X157308078Y-159511984I-6363939J6363961D01*
G01*
X136457534Y-144466466D02*
G75*
G02*
X139993068Y-143001977I3535566J-3535534D01*
G01*
X108564359Y-157713359D02*
G75*
G02*
X106806987Y-153470719I4242641J4242659D01*
G01*
X134620000Y-148375068D02*
G75*
G02*
X136084482Y-144839550I5000000J-32D01*
G01*
X163951146Y-143002000D02*
G75*
G02*
X166779550Y-144173596I-46J-4000000D01*
G01*
X167230427Y-144624427D02*
G75*
G02*
X168402032Y-147452854I-2828427J-2828473D01*
G01*
%TO.N,/C#1*%
X122672000Y-142021000D02*
X122672000Y-141502377D01*
X113968213Y-153338213D02*
X113361786Y-152731786D01*
X110363000Y-138176000D02*
X110363000Y-129540000D01*
X132080000Y-148590000D02*
X132080000Y-152159680D01*
X130315680Y-153924000D02*
X115382427Y-153924000D01*
X114533360Y-145308640D02*
X115463641Y-144378359D01*
X110363000Y-129540000D02*
X111379000Y-128524000D01*
X122012623Y-140843000D02*
X113030000Y-140843000D01*
X131640660Y-153220340D02*
X131376340Y-153484660D01*
X113030000Y-140843000D02*
X110363000Y-138176000D01*
X119706281Y-142621000D02*
X122072000Y-142621000D01*
X122496264Y-141078113D02*
X122436887Y-141018736D01*
X112776000Y-151317573D02*
X112776000Y-149551281D01*
X132080000Y-152159680D02*
G75*
G02*
X131640670Y-153220350I-1500000J-20D01*
G01*
X122072000Y-142621000D02*
G75*
G03*
X122672000Y-142021000I0J600000D01*
G01*
X130315680Y-153924000D02*
G75*
G03*
X131376350Y-153484670I20J1500000D01*
G01*
X112776000Y-151317573D02*
G75*
G03*
X113361772Y-152731800I2000000J-27D01*
G01*
X115463641Y-144378359D02*
G75*
G02*
X119706281Y-142620987I4242659J-4242641D01*
G01*
X122436887Y-141018736D02*
G75*
G03*
X122012623Y-140842984I-424287J-424264D01*
G01*
X112776000Y-149551281D02*
G75*
G02*
X114533369Y-145308649I6000000J-19D01*
G01*
X115382427Y-153924000D02*
G75*
G02*
X113968199Y-153338227I-27J2000000D01*
G01*
X122672000Y-141502377D02*
G75*
G03*
X122496253Y-141078124I-600000J-23D01*
G01*
%TO.N,/D1*%
X128075534Y-139886534D02*
X127432410Y-139243410D01*
X123896876Y-137778944D02*
X122294944Y-137778944D01*
X122294944Y-137778944D02*
X122047000Y-137531000D01*
X129540000Y-148590001D02*
X129540000Y-143422068D01*
X128075534Y-139886534D02*
G75*
G02*
X129540023Y-143422068I-3535534J-3535566D01*
G01*
X127432410Y-139243410D02*
G75*
G03*
X123896876Y-137778948I-3535510J-3535490D01*
G01*
%TO.N,/D#1*%
X124128213Y-139876213D02*
X124033729Y-139781729D01*
X124714000Y-148336001D02*
X124714000Y-141290427D01*
X115041360Y-124353640D02*
X116771120Y-122623880D01*
X121720867Y-120573628D02*
X121903827Y-120573628D01*
X124460000Y-148590001D02*
X124714000Y-148336001D01*
X113284000Y-132769719D02*
X113284000Y-128596281D01*
X122619516Y-139195943D02*
X119710224Y-139195943D01*
X115467583Y-137438583D02*
X115041359Y-137012359D01*
X116771120Y-122623880D02*
G75*
G02*
X121720867Y-120573596I4949780J-4949720D01*
G01*
X119710224Y-139195943D02*
G75*
G02*
X115467562Y-137438604I-24J6000043D01*
G01*
X113284000Y-128596281D02*
G75*
G02*
X115041369Y-124353649I6000000J-19D01*
G01*
X124714000Y-141290427D02*
G75*
G03*
X124128227Y-139876199I-2000000J27D01*
G01*
X124033729Y-139781729D02*
G75*
G03*
X122619516Y-139195919I-1414229J-1414171D01*
G01*
X115041359Y-137012359D02*
G75*
G02*
X113283987Y-132769719I4242641J4242659D01*
G01*
%TO.N,/E1*%
X123444000Y-136398000D02*
X123698000Y-136652000D01*
X122380001Y-136398000D02*
X123444000Y-136398000D01*
X119380001Y-133350000D02*
X119380001Y-133398000D01*
X122380001Y-136398000D02*
G75*
G02*
X119380000Y-133398000I-1J3000000D01*
G01*
%TO.N,/F1*%
X121920000Y-133382000D02*
X121920000Y-133350000D01*
X128114427Y-137893427D02*
X126481679Y-136260679D01*
X133096000Y-138938000D02*
X133086000Y-139065000D01*
X133086000Y-139065000D02*
X130942854Y-139065000D01*
X124360359Y-135382000D02*
X123920000Y-135382000D01*
X130942854Y-139065000D02*
G75*
G02*
X128114450Y-137893404I46J4000000D01*
G01*
X123920000Y-135382000D02*
G75*
G02*
X121920000Y-133382000I0J2000000D01*
G01*
X126481679Y-136260679D02*
G75*
G03*
X124360359Y-135382029I-2121279J-2121321D01*
G01*
D36*
%TO.N,/F#1*%
X132312495Y-120269000D02*
X137795000Y-120269000D01*
X124460001Y-133350000D02*
X124460001Y-128121494D01*
X126510254Y-123171746D02*
X127362748Y-122319252D01*
X132312495Y-120269000D02*
G75*
G03*
X127362751Y-122319255I5J-7000000D01*
G01*
X124460001Y-128121494D02*
G75*
G02*
X126510257Y-123171749I6999999J-6D01*
G01*
D35*
%TO.N,/G1*%
X127000000Y-133711466D02*
X127000000Y-133350000D01*
X141986000Y-139001000D02*
X136194377Y-139001000D01*
X131741095Y-137033000D02*
X130528641Y-137033000D01*
X134073056Y-138122320D02*
X133862415Y-137911679D01*
X128407320Y-136154320D02*
X127732233Y-135479233D01*
X134073056Y-138122320D02*
G75*
G03*
X136194377Y-139001016I2121344J2121320D01*
G01*
X130528641Y-137033000D02*
G75*
G02*
X128407300Y-136154340I-41J3000000D01*
G01*
X133862415Y-137911679D02*
G75*
G03*
X131741095Y-137033003I-2121315J-2121321D01*
G01*
X127000000Y-133711466D02*
G75*
G03*
X127732216Y-135479250I2500000J-34D01*
G01*
D37*
%TO.N,/G#1*%
X130418681Y-127772319D02*
X131328321Y-126862679D01*
D35*
X133449641Y-125984000D02*
X133504359Y-125984000D01*
D37*
X129540001Y-133350000D02*
X129540001Y-129893640D01*
X147358893Y-119672893D02*
X147955000Y-120269000D01*
X143422068Y-119380000D02*
X146651786Y-119380000D01*
X135625680Y-125105320D02*
X139886534Y-120844466D01*
X133449641Y-125984000D02*
G75*
G03*
X131328301Y-126862659I-41J-3000000D01*
G01*
X146651786Y-119380000D02*
G75*
G02*
X147358900Y-119672886I14J-1000000D01*
G01*
X143422068Y-119380000D02*
G75*
G03*
X139886550Y-120844482I32J-5000000D01*
G01*
X133504359Y-125984000D02*
G75*
G03*
X135625700Y-125105340I41J3000000D01*
G01*
X130418681Y-127772319D02*
G75*
G03*
X129540029Y-129893640I2121319J-2121281D01*
G01*
D35*
%TO.N,/A1*%
X136520213Y-137536213D02*
X134990679Y-136006679D01*
X132080000Y-134420893D02*
X132080000Y-133350000D01*
X150114000Y-138293000D02*
X149943000Y-138122000D01*
X133576466Y-135420893D02*
X133080000Y-135420893D01*
X149943000Y-138122000D02*
X137934427Y-138122000D01*
X133080000Y-135420893D02*
G75*
G02*
X132080007Y-134420893I0J999993D01*
G01*
X137934427Y-138122000D02*
G75*
G02*
X136520199Y-137536227I-27J2000000D01*
G01*
X133576466Y-135420893D02*
G75*
G02*
X134990698Y-136006660I34J-2000007D01*
G01*
%TO.N,/A#1*%
X134620000Y-133349999D02*
X134620000Y-129733427D01*
X157291799Y-120865107D02*
X157810953Y-120345953D01*
X147514466Y-123503534D02*
X148395534Y-122622466D01*
X140628068Y-124968000D02*
X143978932Y-124968000D01*
X135205787Y-128319213D02*
X137092534Y-126432466D01*
X151931068Y-121158000D02*
X156584692Y-121158000D01*
X151931068Y-121158000D02*
G75*
G03*
X148395550Y-122622482I32J-5000000D01*
G01*
X134620000Y-129733427D02*
G75*
G02*
X135205773Y-128319199I2000000J27D01*
G01*
X157291799Y-120865107D02*
G75*
G02*
X156584692Y-121157995I-707099J707107D01*
G01*
X140628068Y-124968000D02*
G75*
G03*
X137092550Y-126432482I32J-5000000D01*
G01*
X143978932Y-124968000D02*
G75*
G03*
X147514450Y-123503518I-32J5000000D01*
G01*
%TO.N,/B1*%
X158941000Y-137922000D02*
X159004000Y-137859000D01*
X137892233Y-136495233D02*
X138078767Y-136681767D01*
X151845107Y-137922000D02*
X158941000Y-137922000D01*
X137160000Y-133350000D02*
X137160000Y-134727466D01*
X151276447Y-137560447D02*
X151491554Y-137775554D01*
X139846534Y-137414000D02*
X150922893Y-137414000D01*
X151491554Y-137775554D02*
G75*
G03*
X151845107Y-137921995I353546J353554D01*
G01*
X150922893Y-137414000D02*
G75*
G02*
X151276450Y-137560444I7J-500000D01*
G01*
X137892233Y-136495233D02*
G75*
G02*
X137160024Y-134727466I1767767J1767733D01*
G01*
X138078767Y-136681767D02*
G75*
G03*
X139846534Y-137413976I1767733J1767767D01*
G01*
%TO.N,/C2*%
X162847214Y-137287000D02*
X167767000Y-137287000D01*
X143002000Y-136652000D02*
X161383786Y-136652000D01*
X139700000Y-133350000D02*
X143002000Y-136652000D01*
X162090893Y-136944893D02*
X162140107Y-136994107D01*
X162140107Y-136994107D02*
G75*
G03*
X162847214Y-137286990I707093J707107D01*
G01*
X161383786Y-136652000D02*
G75*
G02*
X162090900Y-136944886I14J-1000000D01*
G01*
%TO.N,/LED_DIN*%
X153597618Y-122174000D02*
X156397573Y-122174000D01*
X144780000Y-133350000D02*
X144780000Y-130991618D01*
D38*
X165100000Y-84118922D02*
X165100000Y-74930000D01*
D35*
X157811787Y-121588213D02*
X162756854Y-116643146D01*
D38*
X165100000Y-74930000D02*
X159385000Y-74930000D01*
D35*
X145951573Y-128163191D02*
X150769191Y-123345573D01*
X165100000Y-110986292D02*
X165100000Y-84118922D01*
X157811787Y-121588213D02*
G75*
G02*
X156397573Y-122173981I-1414187J1414213D01*
G01*
X150769191Y-123345573D02*
G75*
G02*
X153597618Y-122174013I2828409J-2828427D01*
G01*
X162756854Y-116643146D02*
G75*
G03*
X165099994Y-110986292I-5656854J5656846D01*
G01*
X144780000Y-130991618D02*
G75*
G02*
X145951564Y-128163182I4000000J18D01*
G01*
%TO.N,/PARAM*%
X167132000Y-96342200D02*
X167259000Y-96469200D01*
X166189000Y-111152555D02*
X166189000Y-98291427D01*
X169926000Y-70866000D02*
X168889359Y-71902641D01*
X167182800Y-96469200D02*
X167259000Y-96469200D01*
X154417068Y-123498000D02*
X155086195Y-123498000D01*
X166774787Y-96877213D02*
X167182800Y-96469200D01*
X148198680Y-127645320D02*
X150881534Y-124962466D01*
X147320000Y-133349999D02*
X147320000Y-129766641D01*
X158621729Y-122033534D02*
X163845854Y-116809409D01*
X167132000Y-76145281D02*
X167132000Y-96342200D01*
X155086195Y-123498000D02*
G75*
G03*
X158621731Y-122033536I5J5000000D01*
G01*
X163845854Y-116809409D02*
G75*
G03*
X166188968Y-111152555I-5656854J5656809D01*
G01*
X147320000Y-129766641D02*
G75*
G02*
X148198660Y-127645300I3000000J41D01*
G01*
X166189000Y-98291427D02*
G75*
G02*
X166774773Y-96877199I2000000J27D01*
G01*
X150881534Y-124962466D02*
G75*
G02*
X154417068Y-123497977I3535566J-3535534D01*
G01*
X168889359Y-71902641D02*
G75*
G03*
X167131987Y-76145281I4242641J-4242659D01*
G01*
%TO.N,/WRITE*%
X175768000Y-75652281D02*
X175768000Y-94984292D01*
X151031573Y-126590427D02*
X151355427Y-126266573D01*
X167640000Y-106426000D02*
X167640000Y-106578400D01*
X149860000Y-133350000D02*
X149860000Y-129418854D01*
X167386000Y-111240292D02*
X167386000Y-106832400D01*
X154183854Y-125095000D02*
X154359719Y-125095000D01*
X173482000Y-70881000D02*
X174010641Y-71409641D01*
X158602360Y-123337640D02*
X165042854Y-116897146D01*
X173424854Y-100641146D02*
X167640000Y-106426000D01*
X167386000Y-106832400D02*
X167640000Y-106578400D01*
X175768000Y-94984292D02*
G75*
G02*
X173424858Y-100641150I-8000000J-8D01*
G01*
X151355427Y-126266573D02*
G75*
G02*
X154183854Y-125094968I2828473J-2828427D01*
G01*
X154359719Y-125095000D02*
G75*
G03*
X158602351Y-123337631I-19J6000000D01*
G01*
X149860000Y-129418854D02*
G75*
G02*
X151031596Y-126590450I4000000J-46D01*
G01*
X174010641Y-71409641D02*
G75*
G02*
X175768013Y-75652281I-4242641J-4242659D01*
G01*
X165042854Y-116897146D02*
G75*
G03*
X167385994Y-111240292I-5656854J5656846D01*
G01*
%TO.N,/PATCH*%
X152400000Y-133349999D02*
X152400000Y-128881000D01*
X167436800Y-116154200D02*
X167487600Y-116154200D01*
X153900000Y-127381000D02*
X154138932Y-127381000D01*
X157674466Y-125916534D02*
X167436800Y-116154200D01*
X154138932Y-127381000D02*
G75*
G03*
X157674450Y-125916518I-32J5000000D01*
G01*
X152400000Y-128881000D02*
G75*
G02*
X153900000Y-127381000I1500000J0D01*
G01*
D36*
%TO.N,Net-(C1-Pad1)*%
X106553000Y-77470000D02*
X109220000Y-77470000D01*
X109220000Y-77470000D02*
X113030000Y-77470000D01*
%TO.N,Net-(C2-Pad1)*%
X115423000Y-72537000D02*
X113030000Y-74930000D01*
X108535787Y-70435787D02*
X113030000Y-74930000D01*
X106553000Y-69850000D02*
X107121573Y-69850000D01*
X115697000Y-72537000D02*
X115423000Y-72537000D01*
X107121573Y-69850000D02*
G75*
G02*
X108535801Y-70435773I27J-2000000D01*
G01*
%TO.N,Net-(D1-K)*%
X173482000Y-78501000D02*
X172197000Y-78501000D01*
X170688000Y-78486000D02*
X171450000Y-79248000D01*
X172197000Y-78501000D02*
X171450000Y-79248000D01*
X169926000Y-78486000D02*
X170688000Y-78486000D01*
X171450000Y-79248000D02*
X171450000Y-80619600D01*
X171450000Y-80619600D02*
X171475400Y-80645000D01*
D39*
%TO.N,/PWM_OUT*%
X116645534Y-92515534D02*
X109220000Y-85090000D01*
D35*
X114300000Y-131052292D02*
X114300000Y-130000000D01*
D39*
X125014953Y-110327875D02*
X125014953Y-119384642D01*
X122378914Y-103963914D02*
X120160252Y-101745252D01*
D35*
X123655302Y-138486943D02*
X119663584Y-138486943D01*
X117300000Y-127000000D02*
X117750505Y-127000000D01*
X126121320Y-139710320D02*
X125776622Y-139365622D01*
D39*
X118110000Y-96795505D02*
X118110000Y-96051068D01*
D35*
X122700253Y-124949747D02*
X122964701Y-124685299D01*
X127000000Y-148590000D02*
X127000000Y-141831641D01*
X117542263Y-137608263D02*
X116643146Y-136709146D01*
X125014953Y-119735552D02*
X125014953Y-119384642D01*
X116643146Y-136709146D02*
G75*
G02*
X114300006Y-131052292I5656854J5656846D01*
G01*
X127000000Y-141831641D02*
G75*
G03*
X126121340Y-139710300I-3000000J41D01*
G01*
D39*
X125014953Y-110327875D02*
G75*
G03*
X122378892Y-103963936I-8999953J-25D01*
G01*
D37*
X122964701Y-124685299D02*
G75*
G03*
X125014933Y-119735552I-4949701J4949699D01*
G01*
D39*
X118110000Y-96051068D02*
G75*
G03*
X116645518Y-92515550I-5000000J-32D01*
G01*
D38*
X117750505Y-127000000D02*
G75*
G03*
X122700250Y-124949744I-5J7000000D01*
G01*
D35*
X119663584Y-138486943D02*
G75*
G02*
X117542262Y-137608264I16J3000043D01*
G01*
X125776622Y-139365622D02*
G75*
G03*
X123655302Y-138486929I-2121322J-2121278D01*
G01*
D39*
X118110000Y-96795505D02*
G75*
G03*
X120160255Y-101745249I7000000J5D01*
G01*
D35*
X117300000Y-127000000D02*
G75*
G03*
X114300000Y-130000000I0J-3000000D01*
G01*
D36*
%TO.N,Net-(AMP1-LOUT+)*%
X134862913Y-57669087D02*
X136435534Y-56096466D01*
X139971068Y-54632000D02*
X144907000Y-54632000D01*
X133398447Y-64641500D02*
X133398447Y-61204621D01*
X133398447Y-61204621D02*
G75*
G02*
X134862912Y-57669086I4999953J21D01*
G01*
X139971068Y-54632000D02*
G75*
G03*
X136435550Y-56096482I32J-5000000D01*
G01*
%TO.N,Net-(AMP1-LOUT-)*%
X131897879Y-58115678D02*
X131785507Y-58287006D01*
X131396373Y-59007624D02*
X131314746Y-59195554D01*
X130858877Y-61389388D02*
X130858447Y-61491834D01*
X131108987Y-59774516D02*
X131053709Y-59971811D01*
X130879852Y-60980200D02*
X130865871Y-61184615D01*
X131005200Y-60170878D02*
X130963514Y-60371485D01*
X132139837Y-57785025D02*
X132016035Y-57948286D01*
D37*
X140253095Y-52511400D02*
X147936200Y-52511400D01*
D36*
X131679050Y-58462071D02*
X131578632Y-58640668D01*
X132016035Y-57948286D02*
X131897879Y-58115678D01*
X131053709Y-59971811D02*
X131005200Y-60170878D01*
X130928703Y-60573398D02*
X130900804Y-60776382D01*
D37*
X132615806Y-57249194D02*
X135303348Y-54561652D01*
D36*
X132403795Y-57471656D02*
X132269140Y-57626087D01*
X131484370Y-58822590D02*
X131396373Y-59007624D01*
X130865871Y-61184615D02*
X130858877Y-61389388D01*
D37*
X149936200Y-50511400D02*
X149936200Y-49555400D01*
D36*
X131239581Y-59386161D02*
X131170969Y-59579224D01*
X131170969Y-59579224D02*
X131108987Y-59774516D01*
X131314746Y-59195554D02*
X131239581Y-59386161D01*
X130900804Y-60776382D02*
X130879852Y-60980200D01*
X130963514Y-60371485D02*
X130928703Y-60573398D01*
X131578632Y-58640668D02*
X131484370Y-58822590D01*
X132543643Y-57321912D02*
X132403795Y-57471656D01*
X131785507Y-58287006D02*
X131679050Y-58462071D01*
X130858447Y-61491834D02*
X130858447Y-64641500D01*
X132615806Y-57249194D02*
X132543643Y-57321912D01*
X132269140Y-57626087D02*
X132139837Y-57785025D01*
D37*
X140253095Y-52511400D02*
G75*
G03*
X135303351Y-54561655I5J-7000000D01*
G01*
X147936200Y-52511400D02*
G75*
G03*
X149936200Y-50511400I0J2000000D01*
G01*
D36*
%TO.N,Net-(AMP1-ROUT)*%
X147157816Y-57277000D02*
X152907000Y-57277000D01*
X138478447Y-64641500D02*
X138478447Y-63471088D01*
X154907000Y-55277000D02*
X154907000Y-54632000D01*
X139357127Y-61349767D02*
X140793855Y-59913039D01*
X138478447Y-63471088D02*
G75*
G02*
X139357122Y-61349762I3000053J-12D01*
G01*
X152907000Y-57277000D02*
G75*
G03*
X154907000Y-55277000I0J2000000D01*
G01*
X140793855Y-59913039D02*
G75*
G02*
X147157816Y-57277011I6363945J-6363961D01*
G01*
%TO.N,Net-(AMP1-L)*%
X149907000Y-59918505D02*
X149907000Y-59792000D01*
X118158447Y-64641500D02*
X120290374Y-66773427D01*
X146830253Y-65894747D02*
X147856748Y-64868252D01*
X123118801Y-67945000D02*
X141880505Y-67945000D01*
X149907000Y-59918505D02*
G75*
G02*
X147856745Y-64868249I-7000000J5D01*
G01*
X120290374Y-66773427D02*
G75*
G03*
X123118801Y-67944999I2828426J2828427D01*
G01*
X146830253Y-65894747D02*
G75*
G02*
X141880505Y-67945004I-4949753J4949747D01*
G01*
D35*
%TO.N,/GND-IN*%
X105029000Y-68359214D02*
X105029000Y-86630000D01*
D37*
X106553000Y-66421000D02*
X105321893Y-67652107D01*
D35*
X106029000Y-87630000D02*
X106553000Y-87630000D01*
X105029000Y-86630000D02*
G75*
G03*
X106029000Y-87630000I1000000J0D01*
G01*
X105029000Y-68359214D02*
G75*
G02*
X105321886Y-67652100I1000000J14D01*
G01*
D36*
%TO.N,Net-(AMP1-SWITCH2)*%
X113030000Y-57404000D02*
X116773573Y-57404000D01*
X118187787Y-57989787D02*
X118254661Y-58056661D01*
X112345787Y-58088213D02*
X113030000Y-57404000D01*
X112582573Y-56956573D02*
X113030000Y-57404000D01*
X106299000Y-55785000D02*
X109754146Y-55785000D01*
X110860680Y-63002320D02*
X110881321Y-62981679D01*
X106553000Y-63881000D02*
X108739359Y-63881000D01*
X111760000Y-60860359D02*
X111760000Y-59502427D01*
X118840447Y-59470874D02*
X118840447Y-59739300D01*
X111760000Y-60860359D02*
G75*
G02*
X110881341Y-62981699I-3000000J-41D01*
G01*
X108739359Y-63881000D02*
G75*
G03*
X110860700Y-63002340I41J3000000D01*
G01*
X116773573Y-57404000D02*
G75*
G02*
X118187801Y-57989773I27J-2000000D01*
G01*
X118840447Y-59470874D02*
G75*
G03*
X118254658Y-58056664I-2000047J-26D01*
G01*
X111760000Y-59502427D02*
G75*
G02*
X112345773Y-58088199I2000000J27D01*
G01*
X109754146Y-55785000D02*
G75*
G02*
X112582550Y-56956596I-46J-4000000D01*
G01*
%TO.N,Net-(J3-OUT)*%
X123190000Y-69723000D02*
X144006292Y-69723000D01*
X149663146Y-67379854D02*
X150103854Y-66939146D01*
X152447000Y-61282292D02*
X152447000Y-59792000D01*
X152447000Y-61282292D02*
G75*
G02*
X150103858Y-66939150I-8000000J-8D01*
G01*
X144006292Y-69723000D02*
G75*
G03*
X149663150Y-67379858I8J8000000D01*
G01*
%TD*%
%TA.AperFunction,Conductor*%
%TO.N,/DGND*%
G36*
X110710103Y-88919685D02*
G01*
X110730745Y-88936319D01*
X115390235Y-93595809D01*
X115390238Y-93595813D01*
X115475598Y-93681172D01*
X115479794Y-93685580D01*
X115694347Y-93922302D01*
X115702066Y-93931708D01*
X115890554Y-94185852D01*
X115897314Y-94195968D01*
X116059999Y-94467388D01*
X116065731Y-94478112D01*
X116201018Y-94764149D01*
X116205674Y-94775390D01*
X116280422Y-94984293D01*
X116312276Y-95073316D01*
X116315808Y-95084959D01*
X116344161Y-95198148D01*
X116392697Y-95391907D01*
X116395071Y-95403842D01*
X116441501Y-95716839D01*
X116442694Y-95728949D01*
X116458351Y-96047598D01*
X116458500Y-96053683D01*
X116458500Y-96744141D01*
X116458497Y-96744151D01*
X116458497Y-97056935D01*
X116490065Y-97578815D01*
X116547130Y-98048774D01*
X116553088Y-98097844D01*
X116611831Y-98418394D01*
X116647334Y-98612126D01*
X116772456Y-99119768D01*
X116928002Y-99618933D01*
X117113402Y-100107792D01*
X117327991Y-100584589D01*
X117561035Y-101028615D01*
X117570965Y-101047535D01*
X117695996Y-101254361D01*
X117841445Y-101494962D01*
X117841461Y-101494987D01*
X118138457Y-101925260D01*
X118460898Y-102336827D01*
X118460899Y-102336828D01*
X118807603Y-102728176D01*
X118807613Y-102728187D01*
X118900556Y-102821130D01*
X118900558Y-102821132D01*
X121123617Y-105044191D01*
X121123620Y-105044195D01*
X121167377Y-105087951D01*
X121209679Y-105130253D01*
X121212484Y-105133150D01*
X121372849Y-105304368D01*
X121537085Y-105479719D01*
X121542435Y-105485820D01*
X121842340Y-105851251D01*
X121847280Y-105857688D01*
X122122658Y-106241973D01*
X122127162Y-106248714D01*
X122376820Y-106650192D01*
X122380865Y-106657198D01*
X122513667Y-106905649D01*
X122603728Y-107074140D01*
X122607317Y-107081418D01*
X122802426Y-107512030D01*
X122805531Y-107519527D01*
X122972058Y-107961973D01*
X122974666Y-107969656D01*
X123111904Y-108422064D01*
X123114005Y-108429902D01*
X123221358Y-108890303D01*
X123222941Y-108898262D01*
X123299953Y-109364706D01*
X123301012Y-109372751D01*
X123347350Y-109843220D01*
X123347881Y-109851316D01*
X123363387Y-110324916D01*
X123363453Y-110328974D01*
X123363453Y-119514623D01*
X123404117Y-119771369D01*
X123484449Y-120018602D01*
X123530124Y-120108243D01*
X123576321Y-120198910D01*
X123589217Y-120267578D01*
X123588977Y-120269778D01*
X123549054Y-120607102D01*
X123547530Y-120616719D01*
X123463610Y-121038624D01*
X123461338Y-121048091D01*
X123344576Y-121462107D01*
X123341567Y-121471367D01*
X123192681Y-121874944D01*
X123188955Y-121883939D01*
X123008867Y-122274583D01*
X123004447Y-122283259D01*
X122794254Y-122658588D01*
X122789166Y-122666889D01*
X122550183Y-123024554D01*
X122544460Y-123032432D01*
X122278146Y-123370250D01*
X122271823Y-123377653D01*
X121978137Y-123695362D01*
X121974763Y-123698871D01*
X121898750Y-123774885D01*
X121898744Y-123774892D01*
X121769454Y-123952846D01*
X121669588Y-124148843D01*
X121669584Y-124148852D01*
X121668060Y-124153543D01*
X121659743Y-124166531D01*
X121656551Y-124178858D01*
X121634307Y-124206260D01*
X121475089Y-124353442D01*
X121467685Y-124359766D01*
X121122046Y-124632246D01*
X121114169Y-124637969D01*
X120748206Y-124882498D01*
X120739904Y-124887585D01*
X120355902Y-125102637D01*
X120347227Y-125107058D01*
X119947514Y-125291328D01*
X119938519Y-125295054D01*
X119525579Y-125447396D01*
X119516319Y-125450404D01*
X119092718Y-125569872D01*
X119083250Y-125572145D01*
X118651573Y-125658012D01*
X118641957Y-125659535D01*
X118204874Y-125711268D01*
X118195167Y-125712032D01*
X117753024Y-125729404D01*
X117748156Y-125729500D01*
X117645227Y-125729500D01*
X117594985Y-125737884D01*
X117437543Y-125764156D01*
X117238408Y-125832520D01*
X117238390Y-125832527D01*
X117221712Y-125841554D01*
X117162694Y-125856500D01*
X117108434Y-125856500D01*
X117039423Y-125862894D01*
X116726946Y-125891849D01*
X116726945Y-125891850D01*
X116726941Y-125891850D01*
X116726938Y-125891851D01*
X116582417Y-125918866D01*
X116350322Y-125962252D01*
X115981841Y-126067095D01*
X115981831Y-126067098D01*
X115981825Y-126067100D01*
X115829387Y-126126155D01*
X115624565Y-126205503D01*
X115281599Y-126376279D01*
X115281592Y-126376284D01*
X115205346Y-126423493D01*
X115201316Y-126424603D01*
X115198327Y-126427529D01*
X115167908Y-126433805D01*
X115137985Y-126442048D01*
X115133994Y-126440803D01*
X115129899Y-126441648D01*
X115100928Y-126430487D01*
X115071286Y-126421240D01*
X115068600Y-126418033D01*
X115064700Y-126416531D01*
X115046363Y-126391482D01*
X115026425Y-126367675D01*
X115025899Y-126363526D01*
X115023430Y-126360153D01*
X115021546Y-126329162D01*
X115017645Y-126298359D01*
X115019373Y-126293395D01*
X115019192Y-126290412D01*
X115031877Y-126257482D01*
X115140788Y-126063009D01*
X115145850Y-126054748D01*
X115352319Y-125745746D01*
X115358020Y-125737899D01*
X115588085Y-125446065D01*
X115594404Y-125438668D01*
X115633206Y-125396693D01*
X115848530Y-125163757D01*
X115851875Y-125160278D01*
X115860925Y-125151229D01*
X117578169Y-123433984D01*
X117581267Y-123430994D01*
X117882447Y-123150582D01*
X117889121Y-123144800D01*
X117933919Y-123108699D01*
X118207776Y-122888007D01*
X118214819Y-122882735D01*
X118550979Y-122649333D01*
X118558411Y-122644556D01*
X118910347Y-122435741D01*
X118918083Y-122431515D01*
X119284062Y-122248317D01*
X119292058Y-122244666D01*
X119670162Y-122088048D01*
X119678418Y-122084968D01*
X120066715Y-121955728D01*
X120075173Y-121953244D01*
X120471716Y-121852031D01*
X120480306Y-121850162D01*
X120883073Y-121777493D01*
X120891802Y-121776239D01*
X121298666Y-121732494D01*
X121307485Y-121731863D01*
X121354075Y-121730198D01*
X121414797Y-121743635D01*
X121418428Y-121745486D01*
X121560399Y-121791615D01*
X121607722Y-121806992D01*
X121804304Y-121838128D01*
X121804309Y-121838128D01*
X122003350Y-121838128D01*
X122199931Y-121806992D01*
X122241159Y-121793596D01*
X122389226Y-121745486D01*
X122566569Y-121655125D01*
X122691836Y-121564114D01*
X122727587Y-121538140D01*
X122727589Y-121538137D01*
X122727593Y-121538135D01*
X122868334Y-121397394D01*
X122868336Y-121397390D01*
X122868339Y-121397388D01*
X122957079Y-121275246D01*
X122985324Y-121236370D01*
X123075685Y-121059027D01*
X123137191Y-120869732D01*
X123146047Y-120813819D01*
X123168327Y-120673151D01*
X123168327Y-120474104D01*
X123137191Y-120277523D01*
X123075683Y-120088224D01*
X123019612Y-119978180D01*
X122985324Y-119910886D01*
X122948756Y-119860554D01*
X122868339Y-119749867D01*
X122727587Y-119609115D01*
X122566572Y-119492133D01*
X122566571Y-119492132D01*
X122566569Y-119492131D01*
X122511188Y-119463913D01*
X122389230Y-119401771D01*
X122199931Y-119340263D01*
X122003350Y-119309128D01*
X122003345Y-119309128D01*
X121804309Y-119309128D01*
X121804304Y-119309128D01*
X121607721Y-119340264D01*
X121607718Y-119340264D01*
X121418433Y-119401767D01*
X121372056Y-119425397D01*
X121323874Y-119438645D01*
X120922238Y-119464971D01*
X120393607Y-119534570D01*
X120393605Y-119534570D01*
X119870675Y-119638590D01*
X119870671Y-119638591D01*
X119548366Y-119724954D01*
X119355659Y-119776592D01*
X119355654Y-119776593D01*
X119355649Y-119776595D01*
X118850785Y-119947976D01*
X118850779Y-119947978D01*
X118850774Y-119947980D01*
X118850772Y-119947981D01*
X118358174Y-120152024D01*
X117896998Y-120379455D01*
X117879983Y-120387846D01*
X117602934Y-120547802D01*
X117418231Y-120654442D01*
X116974909Y-120950663D01*
X116974907Y-120950664D01*
X116551910Y-121275246D01*
X116151048Y-121626797D01*
X116119104Y-121658742D01*
X116026183Y-121751663D01*
X116026179Y-121751667D01*
X114166077Y-123611767D01*
X114165815Y-123612049D01*
X114052390Y-123725474D01*
X114052380Y-123725485D01*
X113718238Y-124111104D01*
X113412448Y-124519589D01*
X113136586Y-124948835D01*
X113136578Y-124948848D01*
X112892035Y-125396693D01*
X112680069Y-125860832D01*
X112680066Y-125860839D01*
X112680066Y-125860840D01*
X112524425Y-126278128D01*
X112501746Y-126338931D01*
X112357988Y-126828516D01*
X112357985Y-126828526D01*
X112249524Y-127327111D01*
X112244114Y-127364736D01*
X112215088Y-127428291D01*
X112156309Y-127466065D01*
X112086439Y-127466064D01*
X112048495Y-127447408D01*
X112041746Y-127442505D01*
X111864403Y-127352143D01*
X111675104Y-127290635D01*
X111478523Y-127259500D01*
X111478518Y-127259500D01*
X111279482Y-127259500D01*
X111279477Y-127259500D01*
X111082895Y-127290635D01*
X110893596Y-127352143D01*
X110716254Y-127442505D01*
X110555239Y-127559487D01*
X110414487Y-127700239D01*
X110297505Y-127861253D01*
X110207141Y-128038603D01*
X110197038Y-128069696D01*
X110166789Y-128119055D01*
X109490789Y-128795056D01*
X109490788Y-128795057D01*
X109399646Y-128920501D01*
X109399647Y-128920502D01*
X109384991Y-128940674D01*
X109303276Y-129101048D01*
X109303275Y-129101051D01*
X109298861Y-129114639D01*
X109247655Y-129272233D01*
X109247655Y-129272234D01*
X109226161Y-129407948D01*
X109226161Y-129407951D01*
X109219500Y-129450002D01*
X109219500Y-138266001D01*
X109247655Y-138443766D01*
X109247656Y-138443770D01*
X109286219Y-138562452D01*
X109303277Y-138614952D01*
X109381221Y-138767925D01*
X109382386Y-138770211D01*
X109384990Y-138775323D01*
X109384994Y-138775330D01*
X109490784Y-138920937D01*
X109490789Y-138920943D01*
X110414104Y-139844258D01*
X110447589Y-139905581D01*
X110442605Y-139975273D01*
X110417066Y-140015026D01*
X110417656Y-140015530D01*
X110414489Y-140019237D01*
X110297505Y-140180253D01*
X110207141Y-140357603D01*
X110197038Y-140388696D01*
X110166789Y-140438055D01*
X108832077Y-141772767D01*
X108831815Y-141773049D01*
X108718390Y-141886474D01*
X108718380Y-141886485D01*
X108384238Y-142272104D01*
X108173767Y-142553259D01*
X108117833Y-142595130D01*
X108048141Y-142600114D01*
X107986818Y-142566629D01*
X107953334Y-142505306D01*
X107950500Y-142478948D01*
X107950500Y-140010200D01*
X107970185Y-139943161D01*
X108001618Y-139909879D01*
X108011766Y-139902507D01*
X108152507Y-139761766D01*
X108152509Y-139761762D01*
X108152512Y-139761760D01*
X108218546Y-139670870D01*
X108269497Y-139600742D01*
X108359858Y-139423399D01*
X108421364Y-139234104D01*
X108428057Y-139191846D01*
X108452500Y-139037523D01*
X108452500Y-138838476D01*
X108421364Y-138641895D01*
X108359856Y-138452596D01*
X108327074Y-138388258D01*
X108269497Y-138275258D01*
X108261980Y-138264912D01*
X108152512Y-138114239D01*
X108011760Y-137973487D01*
X107850745Y-137856505D01*
X107850744Y-137856504D01*
X107850742Y-137856503D01*
X107795361Y-137828285D01*
X107673403Y-137766143D01*
X107484104Y-137704635D01*
X107287523Y-137673500D01*
X107287518Y-137673500D01*
X107088482Y-137673500D01*
X107088477Y-137673500D01*
X106891895Y-137704635D01*
X106702596Y-137766143D01*
X106525254Y-137856505D01*
X106364239Y-137973487D01*
X106223487Y-138114239D01*
X106106505Y-138275254D01*
X106016142Y-138452599D01*
X106006038Y-138483696D01*
X105975790Y-138533055D01*
X105934789Y-138574056D01*
X105934787Y-138574059D01*
X105829317Y-138719226D01*
X105829305Y-138719243D01*
X105829304Y-138719242D01*
X105828994Y-138719669D01*
X105828993Y-138719672D01*
X105747276Y-138880047D01*
X105747274Y-138880053D01*
X105738922Y-138905761D01*
X105738922Y-138905762D01*
X105691655Y-139051233D01*
X105691655Y-139051234D01*
X105670938Y-139182042D01*
X105670938Y-139182043D01*
X105667962Y-139200827D01*
X105663500Y-139229002D01*
X105663500Y-153419348D01*
X105663487Y-153419392D01*
X105663487Y-153725854D01*
X105699891Y-154234815D01*
X105772510Y-154739888D01*
X105880972Y-155238475D01*
X105880975Y-155238485D01*
X105984371Y-155590614D01*
X106024734Y-155728076D01*
X106200544Y-156199435D01*
X106203057Y-156206172D01*
X106415023Y-156670311D01*
X106659567Y-157118157D01*
X106659575Y-157118170D01*
X106935423Y-157547399D01*
X106935431Y-157547409D01*
X106935435Y-157547414D01*
X106935438Y-157547419D01*
X107241227Y-157955904D01*
X107575379Y-158341533D01*
X107575392Y-158341546D01*
X107575393Y-158341547D01*
X107687805Y-158453959D01*
X107687806Y-158453959D01*
X107692144Y-158458297D01*
X107692146Y-158458300D01*
X107860699Y-158626853D01*
X107860767Y-158626903D01*
X107864235Y-158630370D01*
X107864236Y-158630372D01*
X107977460Y-158743596D01*
X107977475Y-158743611D01*
X108363103Y-159077761D01*
X108771588Y-159383551D01*
X109200846Y-159659420D01*
X109648690Y-159903963D01*
X110112840Y-160115934D01*
X110590928Y-160294253D01*
X110592027Y-160294575D01*
X110592166Y-160294665D01*
X110593022Y-160294950D01*
X110592997Y-160295024D01*
X110593002Y-160295026D01*
X110592952Y-160295157D01*
X110592949Y-160295168D01*
X110650803Y-160332351D01*
X110679825Y-160395908D01*
X110669880Y-160465066D01*
X110624123Y-160517869D01*
X110557087Y-160537551D01*
X110203132Y-160537551D01*
X110190601Y-160536916D01*
X109022725Y-160418286D01*
X108998310Y-160413289D01*
X107939755Y-160082883D01*
X107917402Y-160073417D01*
X106957099Y-159550516D01*
X106937427Y-159537215D01*
X106098915Y-158844566D01*
X106082285Y-158827936D01*
X105389631Y-157989418D01*
X105376330Y-157969746D01*
X105305227Y-157839167D01*
X105137694Y-157531493D01*
X104853425Y-157009437D01*
X104843960Y-156987087D01*
X104636114Y-156321244D01*
X104513557Y-155928630D01*
X104508560Y-155904214D01*
X104450603Y-155333644D01*
X104413154Y-154964964D01*
X104389932Y-154736346D01*
X104389297Y-154723815D01*
X104389297Y-96388872D01*
X104679500Y-96388872D01*
X104679500Y-96651127D01*
X104700436Y-96810140D01*
X104713730Y-96911116D01*
X104752800Y-97056927D01*
X104781602Y-97164418D01*
X104781605Y-97164428D01*
X104881953Y-97406690D01*
X104881958Y-97406700D01*
X105013075Y-97633803D01*
X105172718Y-97841851D01*
X105172726Y-97841860D01*
X105358140Y-98027274D01*
X105358148Y-98027281D01*
X105566196Y-98186924D01*
X105793299Y-98318041D01*
X105793309Y-98318046D01*
X106035571Y-98418394D01*
X106035581Y-98418398D01*
X106288884Y-98486270D01*
X106548880Y-98520500D01*
X106548887Y-98520500D01*
X106811113Y-98520500D01*
X106811120Y-98520500D01*
X107071116Y-98486270D01*
X107324419Y-98418398D01*
X107566697Y-98318043D01*
X107793803Y-98186924D01*
X108001851Y-98027282D01*
X108001855Y-98027277D01*
X108001860Y-98027274D01*
X108187274Y-97841860D01*
X108187277Y-97841855D01*
X108187282Y-97841851D01*
X108346924Y-97633803D01*
X108478043Y-97406697D01*
X108578398Y-97164419D01*
X108646270Y-96911116D01*
X108680500Y-96651120D01*
X108680500Y-96388880D01*
X108646270Y-96128884D01*
X108578398Y-95875581D01*
X108578394Y-95875571D01*
X108478046Y-95633309D01*
X108478041Y-95633299D01*
X108346924Y-95406196D01*
X108187281Y-95198148D01*
X108187274Y-95198140D01*
X108001860Y-95012726D01*
X108001851Y-95012718D01*
X107793803Y-94853075D01*
X107566700Y-94721958D01*
X107566690Y-94721953D01*
X107324428Y-94621605D01*
X107324421Y-94621603D01*
X107324419Y-94621602D01*
X107071116Y-94553730D01*
X107013339Y-94546123D01*
X106811127Y-94519500D01*
X106811120Y-94519500D01*
X106548880Y-94519500D01*
X106548872Y-94519500D01*
X106317772Y-94549926D01*
X106288884Y-94553730D01*
X106035581Y-94621602D01*
X106035571Y-94621605D01*
X105793309Y-94721953D01*
X105793299Y-94721958D01*
X105566196Y-94853075D01*
X105358148Y-95012718D01*
X105172718Y-95198148D01*
X105013075Y-95406196D01*
X104881958Y-95633299D01*
X104881953Y-95633309D01*
X104781605Y-95875571D01*
X104781602Y-95875581D01*
X104735511Y-96047598D01*
X104713730Y-96128885D01*
X104679500Y-96388872D01*
X104389297Y-96388872D01*
X104389297Y-89024000D01*
X104408982Y-88956961D01*
X104461786Y-88911206D01*
X104513297Y-88900000D01*
X110643064Y-88900000D01*
X110710103Y-88919685D01*
G37*
%TD.AperFunction*%
%TA.AperFunction,Conductor*%
G36*
X176112816Y-99064532D02*
G01*
X176155603Y-99119768D01*
X176164150Y-99165590D01*
X175893239Y-157035061D01*
X175878142Y-157093780D01*
X175401162Y-157969747D01*
X175387861Y-157989419D01*
X174695212Y-158827931D01*
X174678582Y-158844561D01*
X173840064Y-159537215D01*
X173820392Y-159550516D01*
X172860090Y-160073417D01*
X172837737Y-160082883D01*
X171779183Y-160413288D01*
X171754768Y-160418285D01*
X170586892Y-160536916D01*
X170574361Y-160537551D01*
X160027807Y-160537551D01*
X159960768Y-160517866D01*
X159915013Y-160465062D01*
X159905069Y-160395904D01*
X159934094Y-160332348D01*
X159992872Y-160294574D01*
X159993354Y-160294433D01*
X160389632Y-160180269D01*
X160926888Y-159992276D01*
X161140094Y-159903964D01*
X161452755Y-159774457D01*
X161691630Y-159659421D01*
X161965589Y-159527490D01*
X162463765Y-159252159D01*
X162945720Y-158949329D01*
X163409936Y-158619951D01*
X163854953Y-158265063D01*
X164279372Y-157885780D01*
X164411605Y-157753547D01*
X164411621Y-157753533D01*
X164758268Y-157406886D01*
X166503794Y-155661358D01*
X166503798Y-155661356D01*
X166538213Y-155626941D01*
X166538259Y-155626915D01*
X166574549Y-155590624D01*
X166574550Y-155590625D01*
X166775792Y-155389383D01*
X167155075Y-154964964D01*
X167509964Y-154519945D01*
X167839342Y-154055728D01*
X168142173Y-153573773D01*
X168417504Y-153075597D01*
X168664469Y-152562766D01*
X168882291Y-152036894D01*
X169070285Y-151499636D01*
X169227858Y-150952683D01*
X169354515Y-150397755D01*
X169449858Y-149836598D01*
X169513587Y-149270978D01*
X169545501Y-148702675D01*
X169545500Y-148418075D01*
X169545500Y-148318032D01*
X169545500Y-147552889D01*
X169545501Y-147552884D01*
X169545500Y-147504233D01*
X169545532Y-147504122D01*
X169545530Y-147250757D01*
X169545530Y-147250752D01*
X169513814Y-146847820D01*
X169450583Y-146448619D01*
X169356225Y-146055609D01*
X169231323Y-145671214D01*
X169076647Y-145297803D01*
X169040647Y-145227151D01*
X169027750Y-145158482D01*
X169028653Y-145151491D01*
X169031500Y-145133518D01*
X169031500Y-144934482D01*
X169031500Y-144934476D01*
X169000364Y-144737895D01*
X168964306Y-144626921D01*
X168938858Y-144548601D01*
X168938856Y-144548598D01*
X168938856Y-144548596D01*
X168895752Y-144464001D01*
X168848497Y-144371258D01*
X168840969Y-144360897D01*
X168731512Y-144210239D01*
X168590760Y-144069487D01*
X168429745Y-143952505D01*
X168429744Y-143952504D01*
X168429742Y-143952503D01*
X168252399Y-143862142D01*
X168063104Y-143800636D01*
X168063102Y-143800635D01*
X168063100Y-143800635D01*
X168063098Y-143800634D01*
X168056176Y-143799538D01*
X167993043Y-143769605D01*
X167987900Y-143764747D01*
X167521419Y-143298264D01*
X167520813Y-143297703D01*
X167445243Y-143222133D01*
X167445242Y-143222132D01*
X167445237Y-143222127D01*
X167137902Y-142959633D01*
X167127923Y-142952383D01*
X166810944Y-142722080D01*
X166810939Y-142722076D01*
X166810919Y-142722062D01*
X166557282Y-142566629D01*
X166466307Y-142510878D01*
X166466295Y-142510871D01*
X166106193Y-142327386D01*
X166106178Y-142327380D01*
X166094436Y-142322516D01*
X165732775Y-142172707D01*
X165513414Y-142101430D01*
X165455741Y-142061993D01*
X165428543Y-141997634D01*
X165440458Y-141928787D01*
X165487703Y-141877312D01*
X165551735Y-141859500D01*
X169106739Y-141859500D01*
X169106744Y-141859500D01*
X169434427Y-141825059D01*
X169756714Y-141756555D01*
X170070076Y-141654738D01*
X170371078Y-141520723D01*
X170656422Y-141355979D01*
X170922984Y-141162311D01*
X171167841Y-140941841D01*
X171388311Y-140696984D01*
X171581979Y-140430422D01*
X171746723Y-140145078D01*
X171880738Y-139844076D01*
X171982555Y-139530714D01*
X172051059Y-139208427D01*
X172085500Y-138880744D01*
X172085500Y-138716000D01*
X172085500Y-138615957D01*
X172085500Y-137038005D01*
X172085500Y-136963256D01*
X172051059Y-136635573D01*
X171982555Y-136313286D01*
X171880738Y-135999924D01*
X171746723Y-135698922D01*
X171662624Y-135553259D01*
X171581981Y-135413581D01*
X171581978Y-135413576D01*
X171388316Y-135147022D01*
X171388309Y-135147013D01*
X171279557Y-135026232D01*
X171167841Y-134902159D01*
X170983126Y-134735841D01*
X170922986Y-134681690D01*
X170922977Y-134681683D01*
X170656423Y-134488021D01*
X170656418Y-134488018D01*
X170371084Y-134323280D01*
X170371078Y-134323277D01*
X170070076Y-134189262D01*
X170070071Y-134189260D01*
X170070068Y-134189259D01*
X169756711Y-134087444D01*
X169756709Y-134087443D01*
X169478837Y-134028380D01*
X169434427Y-134018941D01*
X169106744Y-133984500D01*
X169106739Y-133984500D01*
X166482698Y-133984500D01*
X166415659Y-133964815D01*
X166369904Y-133912011D01*
X166358982Y-133852110D01*
X166362000Y-133807605D01*
X166362000Y-132076000D01*
X163759363Y-132076000D01*
X163759360Y-132075999D01*
X162684000Y-132075999D01*
X162616961Y-132056314D01*
X162571206Y-132003510D01*
X162560000Y-131951999D01*
X162560000Y-131825999D01*
X162434000Y-131825999D01*
X162366961Y-131806314D01*
X162321206Y-131753510D01*
X162310000Y-131701999D01*
X162310000Y-131575999D01*
X162810000Y-131575999D01*
X163900637Y-131575999D01*
X163900640Y-131576000D01*
X164850000Y-131576000D01*
X165350000Y-131576000D01*
X166361999Y-131576000D01*
X166361999Y-129844393D01*
X166361998Y-129844390D01*
X166359082Y-129801367D01*
X166359082Y-129801365D01*
X166312834Y-129615397D01*
X166227692Y-129443724D01*
X166107634Y-129294366D01*
X166107633Y-129294365D01*
X165958274Y-129174307D01*
X165958275Y-129174307D01*
X165786602Y-129089165D01*
X165600638Y-129042918D01*
X165600642Y-129042918D01*
X165557605Y-129040000D01*
X165350000Y-129040000D01*
X165350000Y-131576000D01*
X164850000Y-131576000D01*
X164850000Y-129040000D01*
X164642394Y-129040000D01*
X164642390Y-129040001D01*
X164599367Y-129042917D01*
X164599365Y-129042917D01*
X164413397Y-129089165D01*
X164241724Y-129174307D01*
X164092366Y-129294365D01*
X164092365Y-129294366D01*
X163972307Y-129443724D01*
X163941088Y-129506672D01*
X163893666Y-129557985D01*
X163826031Y-129575513D01*
X163759656Y-129553693D01*
X163718912Y-129506672D01*
X163687692Y-129443723D01*
X163567634Y-129294365D01*
X163567633Y-129294364D01*
X163418274Y-129174306D01*
X163418275Y-129174306D01*
X163246602Y-129089164D01*
X163060638Y-129042917D01*
X163060642Y-129042917D01*
X163017605Y-129039999D01*
X162810000Y-129039999D01*
X162810000Y-131575999D01*
X162310000Y-131575999D01*
X162310000Y-129039999D01*
X162102394Y-129039999D01*
X162102390Y-129040000D01*
X162059367Y-129042916D01*
X162059365Y-129042916D01*
X161873397Y-129089164D01*
X161701727Y-129174305D01*
X161630532Y-129231533D01*
X161565947Y-129258191D01*
X161497203Y-129245700D01*
X161450917Y-129205501D01*
X161380240Y-129103485D01*
X161380237Y-129103481D01*
X161380234Y-129103477D01*
X161218523Y-128941766D01*
X161218519Y-128941763D01*
X161218514Y-128941759D01*
X161030543Y-128811531D01*
X161030537Y-128811528D01*
X160920175Y-128761399D01*
X160822316Y-128716949D01*
X160600553Y-128661070D01*
X160466247Y-128650500D01*
X160466245Y-128650500D01*
X159573761Y-128650500D01*
X159573746Y-128650501D01*
X159439447Y-128661070D01*
X159217684Y-128716949D01*
X159009462Y-128811528D01*
X159009456Y-128811532D01*
X158820616Y-128942361D01*
X158754299Y-128964358D01*
X158686618Y-128947010D01*
X158679384Y-128942361D01*
X158490543Y-128811530D01*
X158490537Y-128811527D01*
X158320222Y-128734166D01*
X158282316Y-128716948D01*
X158060553Y-128661069D01*
X157926247Y-128650499D01*
X157926245Y-128650499D01*
X157033761Y-128650499D01*
X157033746Y-128650500D01*
X156899447Y-128661069D01*
X156677684Y-128716948D01*
X156469462Y-128811527D01*
X156469456Y-128811531D01*
X156280615Y-128942361D01*
X156214299Y-128964358D01*
X156146617Y-128947010D01*
X156139383Y-128942361D01*
X155950543Y-128811532D01*
X155950537Y-128811528D01*
X155840175Y-128761399D01*
X155742316Y-128716949D01*
X155520553Y-128661070D01*
X155498168Y-128659308D01*
X155386252Y-128650500D01*
X155373659Y-128650500D01*
X155306620Y-128630815D01*
X155260865Y-128578011D01*
X155250921Y-128508853D01*
X155279946Y-128445297D01*
X155338724Y-128407523D01*
X155347300Y-128405334D01*
X155659233Y-128337475D01*
X155699201Y-128325739D01*
X156080292Y-128213839D01*
X156491454Y-128060480D01*
X156890629Y-127878181D01*
X157275781Y-127667869D01*
X157644949Y-127430617D01*
X157996250Y-127167633D01*
X158327896Y-126880258D01*
X158414027Y-126794124D01*
X158414048Y-126794106D01*
X160688566Y-124519588D01*
X167639044Y-117569108D01*
X167700365Y-117535625D01*
X167707277Y-117534326D01*
X167814849Y-117517289D01*
X168024054Y-117449314D01*
X168220049Y-117349449D01*
X168398010Y-117220153D01*
X168553553Y-117064610D01*
X168682849Y-116886649D01*
X168782714Y-116690654D01*
X168850689Y-116481449D01*
X168885100Y-116264191D01*
X168885100Y-116044208D01*
X168850689Y-115826950D01*
X168782712Y-115617741D01*
X168682848Y-115421750D01*
X168553553Y-115243790D01*
X168398010Y-115088247D01*
X168220049Y-114958951D01*
X168024058Y-114859087D01*
X167941720Y-114832334D01*
X167884045Y-114792896D01*
X167856847Y-114728537D01*
X167864097Y-114670432D01*
X167909127Y-114551697D01*
X168033296Y-114224289D01*
X168117166Y-113955140D01*
X168197685Y-113696749D01*
X168197689Y-113696733D01*
X168237827Y-113533886D01*
X168329928Y-113160215D01*
X168429532Y-112616692D01*
X168496137Y-112068145D01*
X168529500Y-111516578D01*
X168529500Y-111240291D01*
X168529500Y-111140248D01*
X168529500Y-107716625D01*
X168549185Y-107649586D01*
X168565819Y-107628944D01*
X168618497Y-107576266D01*
X168705953Y-107488810D01*
X168835249Y-107310849D01*
X168935114Y-107114854D01*
X169003089Y-106905649D01*
X169037500Y-106688386D01*
X169037500Y-106688374D01*
X169037560Y-106687619D01*
X169037666Y-106687339D01*
X169038263Y-106683574D01*
X169039053Y-106683699D01*
X169062438Y-106622329D01*
X169073491Y-106609662D01*
X174197108Y-101486044D01*
X174197125Y-101486035D01*
X174233434Y-101449725D01*
X174233435Y-101449726D01*
X174428800Y-101254361D01*
X174795225Y-100840753D01*
X175136008Y-100405774D01*
X175449906Y-99951014D01*
X175735773Y-99478130D01*
X175930356Y-99107381D01*
X175978939Y-99057172D01*
X176046958Y-99041197D01*
X176112816Y-99064532D01*
G37*
%TD.AperFunction*%
%TA.AperFunction,Conductor*%
G36*
X123540212Y-143205291D02*
G01*
X123569238Y-143268846D01*
X123570500Y-143286494D01*
X123570500Y-146964682D01*
X123550815Y-147031721D01*
X123498011Y-147077476D01*
X123497783Y-147077580D01*
X123449470Y-147099525D01*
X123260616Y-147230363D01*
X123194299Y-147252359D01*
X123126617Y-147235011D01*
X123119384Y-147230362D01*
X122930543Y-147099531D01*
X122930537Y-147099528D01*
X122823926Y-147051103D01*
X122722316Y-147004949D01*
X122500553Y-146949070D01*
X122366247Y-146938500D01*
X122366245Y-146938500D01*
X121473761Y-146938500D01*
X121473746Y-146938501D01*
X121339447Y-146949070D01*
X121117684Y-147004949D01*
X120909462Y-147099528D01*
X120909456Y-147099531D01*
X120721485Y-147229759D01*
X120721473Y-147229769D01*
X120559769Y-147391473D01*
X120559759Y-147391485D01*
X120489081Y-147493503D01*
X120434722Y-147537400D01*
X120365260Y-147544939D01*
X120309465Y-147519534D01*
X120238272Y-147462307D01*
X120066602Y-147377166D01*
X119880638Y-147330919D01*
X119880642Y-147330919D01*
X119837605Y-147328001D01*
X119630000Y-147328001D01*
X119630000Y-149990001D01*
X119610315Y-150057040D01*
X119557511Y-150102795D01*
X119506000Y-150114001D01*
X119254000Y-150114001D01*
X119186961Y-150094316D01*
X119141206Y-150041512D01*
X119130000Y-149990001D01*
X119130000Y-147328001D01*
X118922394Y-147328001D01*
X118922390Y-147328002D01*
X118879367Y-147330918D01*
X118879365Y-147330918D01*
X118693397Y-147377166D01*
X118521727Y-147462307D01*
X118450533Y-147519534D01*
X118385948Y-147546192D01*
X118317204Y-147533701D01*
X118270918Y-147493502D01*
X118200240Y-147391485D01*
X118200237Y-147391481D01*
X118200234Y-147391477D01*
X118038523Y-147229766D01*
X118038519Y-147229763D01*
X118038514Y-147229759D01*
X117850543Y-147099531D01*
X117850537Y-147099528D01*
X117743926Y-147051103D01*
X117642316Y-147004949D01*
X117420553Y-146949070D01*
X117286247Y-146938500D01*
X117286245Y-146938500D01*
X116393761Y-146938500D01*
X116393746Y-146938501D01*
X116259447Y-146949070D01*
X116037684Y-147004949D01*
X115829462Y-147099528D01*
X115829456Y-147099531D01*
X115641485Y-147229759D01*
X115641473Y-147229769D01*
X115479769Y-147391473D01*
X115479759Y-147391485D01*
X115349531Y-147579456D01*
X115349528Y-147579462D01*
X115254949Y-147787684D01*
X115199070Y-148009447D01*
X115188500Y-148143747D01*
X115188500Y-152084238D01*
X115188501Y-152084253D01*
X115199070Y-152218552D01*
X115254949Y-152440318D01*
X115318828Y-152580951D01*
X115320884Y-152595462D01*
X115327632Y-152608475D01*
X115325687Y-152629360D01*
X115328631Y-152650130D01*
X115322514Y-152663451D01*
X115321156Y-152678044D01*
X115308229Y-152694562D01*
X115299476Y-152713626D01*
X115287128Y-152721525D01*
X115278096Y-152733068D01*
X115258290Y-152739975D01*
X115240621Y-152751280D01*
X115224789Y-152751659D01*
X115212124Y-152756077D01*
X115176983Y-152752806D01*
X115156282Y-152747836D01*
X115127227Y-152740861D01*
X115108723Y-152734849D01*
X115002581Y-152690885D01*
X114985243Y-152682051D01*
X114887286Y-152622024D01*
X114871549Y-152610591D01*
X114780646Y-152532954D01*
X114773510Y-152526357D01*
X114173815Y-151926661D01*
X114167217Y-151919524D01*
X114089423Y-151828436D01*
X114077991Y-151812701D01*
X114017965Y-151714746D01*
X114009131Y-151697408D01*
X113965169Y-151591270D01*
X113959157Y-151572765D01*
X113932340Y-151461057D01*
X113929298Y-151441850D01*
X113919882Y-151322186D01*
X113919500Y-151312459D01*
X113919501Y-151217545D01*
X113919500Y-151217539D01*
X113919500Y-149553702D01*
X113919596Y-149548834D01*
X113923575Y-149447564D01*
X113934281Y-149175095D01*
X113935042Y-149165429D01*
X113978723Y-148796377D01*
X113980239Y-148786811D01*
X114052743Y-148422311D01*
X114055005Y-148412892D01*
X114155879Y-148055220D01*
X114158872Y-148046007D01*
X114287501Y-147697346D01*
X114291224Y-147688360D01*
X114291350Y-147688087D01*
X114446803Y-147350885D01*
X114451210Y-147342238D01*
X114632788Y-147018009D01*
X114637850Y-147009748D01*
X114844319Y-146700746D01*
X114850020Y-146692899D01*
X115080085Y-146401065D01*
X115086404Y-146393668D01*
X115112197Y-146365766D01*
X115340530Y-146118757D01*
X115343847Y-146115306D01*
X115374971Y-146084183D01*
X116270533Y-145188619D01*
X116273990Y-145185295D01*
X116548665Y-144931389D01*
X116556063Y-144925071D01*
X116727039Y-144790284D01*
X116847881Y-144695018D01*
X116855755Y-144689298D01*
X117164742Y-144482838D01*
X117173003Y-144477776D01*
X117497232Y-144296198D01*
X117505879Y-144291791D01*
X117843364Y-144136208D01*
X117852341Y-144132489D01*
X118201003Y-144003860D01*
X118210216Y-144000867D01*
X118567889Y-143899992D01*
X118577313Y-143897729D01*
X118873380Y-143838837D01*
X118941785Y-143825231D01*
X118951401Y-143823708D01*
X119320429Y-143780029D01*
X119330095Y-143779268D01*
X119681813Y-143765448D01*
X119703512Y-143764596D01*
X119708380Y-143764500D01*
X122196695Y-143764500D01*
X122196698Y-143764500D01*
X122443554Y-143729008D01*
X122682847Y-143658745D01*
X122909705Y-143555143D01*
X123119510Y-143420309D01*
X123307990Y-143256990D01*
X123343591Y-143215905D01*
X123352787Y-143205292D01*
X123411564Y-143167517D01*
X123481434Y-143167517D01*
X123540212Y-143205291D01*
G37*
%TD.AperFunction*%
%TA.AperFunction,Conductor*%
G36*
X112031355Y-129635153D02*
G01*
X112034006Y-129634769D01*
X112063541Y-129648216D01*
X112093614Y-129660422D01*
X112095157Y-129662611D01*
X112097595Y-129663721D01*
X112115172Y-129691002D01*
X112133872Y-129717528D01*
X112134429Y-129720890D01*
X112135437Y-129722455D01*
X112135442Y-129727003D01*
X112140500Y-129757527D01*
X112140500Y-132718348D01*
X112140487Y-132718392D01*
X112140487Y-133024854D01*
X112176891Y-133533815D01*
X112249510Y-134038888D01*
X112357972Y-134537475D01*
X112357975Y-134537485D01*
X112449352Y-134848682D01*
X112501734Y-135027076D01*
X112645895Y-135413581D01*
X112680057Y-135505172D01*
X112861355Y-135902158D01*
X112892025Y-135969315D01*
X112959216Y-136092365D01*
X113136567Y-136417157D01*
X113136575Y-136417170D01*
X113412423Y-136846399D01*
X113412431Y-136846409D01*
X113412435Y-136846414D01*
X113412438Y-136846419D01*
X113718227Y-137254904D01*
X114052379Y-137640533D01*
X114052392Y-137640546D01*
X114052393Y-137640547D01*
X114164810Y-137752964D01*
X114164815Y-137752970D01*
X114497851Y-138086004D01*
X114588269Y-138176422D01*
X114588271Y-138176425D01*
X114610501Y-138198654D01*
X114622674Y-138210828D01*
X114622723Y-138210918D01*
X114658992Y-138247186D01*
X114658992Y-138247187D01*
X114839398Y-138427591D01*
X114839417Y-138427608D01*
X114839422Y-138427612D01*
X115225028Y-138761738D01*
X115327549Y-138838482D01*
X115633519Y-139067524D01*
X115892726Y-139234104D01*
X116054375Y-139337989D01*
X116062780Y-139343390D01*
X116288549Y-139466667D01*
X116337955Y-139516072D01*
X116352807Y-139584345D01*
X116328391Y-139649810D01*
X116272457Y-139691681D01*
X116229123Y-139699500D01*
X113555015Y-139699500D01*
X113487976Y-139679815D01*
X113467334Y-139663181D01*
X111542819Y-137738665D01*
X111509334Y-137677342D01*
X111506500Y-137650984D01*
X111506500Y-130065015D01*
X111526185Y-129997976D01*
X111542815Y-129977338D01*
X111783944Y-129736208D01*
X111788565Y-129732995D01*
X111790312Y-129730272D01*
X111801954Y-129723688D01*
X111819981Y-129711157D01*
X111826494Y-129708173D01*
X111864399Y-129695858D01*
X111962506Y-129645869D01*
X111964859Y-129644792D01*
X111996972Y-129640137D01*
X112028874Y-129634146D01*
X112031355Y-129635153D01*
G37*
%TD.AperFunction*%
%TA.AperFunction,Conductor*%
G36*
X154778954Y-70754303D02*
G01*
X154810451Y-70816670D01*
X154812500Y-70839121D01*
X154812500Y-74673306D01*
X154850016Y-75078182D01*
X154850016Y-75078183D01*
X154924735Y-75477892D01*
X155031093Y-75851699D01*
X155036010Y-75868980D01*
X155182897Y-76248140D01*
X155364142Y-76612129D01*
X155578199Y-76957842D01*
X155578200Y-76957843D01*
X155760218Y-77198875D01*
X155823240Y-77282329D01*
X156097177Y-77582823D01*
X156397671Y-77856760D01*
X156722158Y-78101801D01*
X157067871Y-78315858D01*
X157431860Y-78497103D01*
X157811020Y-78643990D01*
X158006628Y-78699645D01*
X158182498Y-78749685D01*
X158231890Y-78778710D01*
X158232554Y-78777954D01*
X158235608Y-78780632D01*
X158364422Y-78879474D01*
X158416512Y-78919444D01*
X158416519Y-78919448D01*
X158613980Y-79033453D01*
X158613985Y-79033455D01*
X158613988Y-79033457D01*
X158824656Y-79120719D01*
X159044912Y-79179736D01*
X159270987Y-79209500D01*
X159270994Y-79209500D01*
X159499006Y-79209500D01*
X159499013Y-79209500D01*
X159725088Y-79179736D01*
X159945344Y-79120719D01*
X160156012Y-79033457D01*
X160353488Y-78919444D01*
X160534393Y-78780631D01*
X160695631Y-78619393D01*
X160834444Y-78438488D01*
X160948457Y-78241012D01*
X161035719Y-78030344D01*
X161094736Y-77810088D01*
X161124500Y-77584013D01*
X161124500Y-77355987D01*
X161094736Y-77129912D01*
X161035719Y-76909656D01*
X160948457Y-76698988D01*
X160948455Y-76698985D01*
X160948453Y-76698980D01*
X160834448Y-76501519D01*
X160834444Y-76501512D01*
X160806820Y-76465511D01*
X160756541Y-76399986D01*
X160731347Y-76334817D01*
X160745386Y-76266372D01*
X160794200Y-76216383D01*
X160854917Y-76200500D01*
X163705500Y-76200500D01*
X163772539Y-76220185D01*
X163818294Y-76272989D01*
X163829500Y-76324500D01*
X163829500Y-84218912D01*
X163860784Y-84416433D01*
X163922577Y-84606616D01*
X163922579Y-84606621D01*
X163922581Y-84606625D01*
X163942985Y-84646671D01*
X163956500Y-84702963D01*
X163956500Y-110984079D01*
X163956421Y-110988505D01*
X163939189Y-111470997D01*
X163938558Y-111479826D01*
X163887185Y-111957674D01*
X163885925Y-111966436D01*
X163800594Y-112439396D01*
X163798712Y-112448045D01*
X163679862Y-112913692D01*
X163677369Y-112922185D01*
X163525594Y-113378200D01*
X163522500Y-113386494D01*
X163338587Y-113830499D01*
X163334910Y-113838550D01*
X163119792Y-114268303D01*
X163115550Y-114276072D01*
X162870317Y-114689391D01*
X162865531Y-114696838D01*
X162591442Y-115091600D01*
X162586138Y-115098686D01*
X162284578Y-115472901D01*
X162278781Y-115479591D01*
X161949887Y-115832847D01*
X161946813Y-115836032D01*
X158567008Y-119215837D01*
X158505685Y-119249322D01*
X158435993Y-119244338D01*
X158423033Y-119238641D01*
X158296359Y-119174097D01*
X158107057Y-119112588D01*
X157910476Y-119081453D01*
X157910471Y-119081453D01*
X157711435Y-119081453D01*
X157711430Y-119081453D01*
X157514848Y-119112588D01*
X157325549Y-119174096D01*
X157148207Y-119264458D01*
X156987192Y-119381440D01*
X156846440Y-119522192D01*
X156729458Y-119683206D01*
X156695493Y-119749867D01*
X156639095Y-119860554D01*
X156639094Y-119860556D01*
X156639093Y-119860559D01*
X156628991Y-119891648D01*
X156622004Y-119903048D01*
X156619894Y-119912752D01*
X156598743Y-119941007D01*
X156561571Y-119978180D01*
X156500249Y-120011666D01*
X156473889Y-120014500D01*
X152036238Y-120014500D01*
X152036214Y-120014499D01*
X151982444Y-120014499D01*
X151982372Y-120014478D01*
X151711644Y-120014478D01*
X151273930Y-120045788D01*
X150839560Y-120108243D01*
X150410766Y-120201524D01*
X149989698Y-120325164D01*
X149578556Y-120478515D01*
X149527607Y-120501783D01*
X149458448Y-120511726D01*
X149394893Y-120482700D01*
X149357119Y-120423922D01*
X149352957Y-120383858D01*
X149352500Y-120383858D01*
X149352500Y-120379455D01*
X149352479Y-120379253D01*
X149352500Y-120378986D01*
X149352500Y-120159009D01*
X149323859Y-119978180D01*
X149318089Y-119941751D01*
X149250114Y-119732547D01*
X149150250Y-119536551D01*
X149020954Y-119358590D01*
X148385377Y-118723013D01*
X148385360Y-118722982D01*
X148251864Y-118589489D01*
X148041333Y-118421599D01*
X148041324Y-118421593D01*
X147813322Y-118278333D01*
X147813321Y-118278332D01*
X147570701Y-118161496D01*
X147570700Y-118161495D01*
X147338130Y-118080120D01*
X147316530Y-118072562D01*
X147316526Y-118072561D01*
X147316520Y-118072559D01*
X147054014Y-118012646D01*
X147054005Y-118012645D01*
X147053999Y-118012644D01*
X147053998Y-118012644D01*
X146786408Y-117982498D01*
X146786403Y-117982498D01*
X146651766Y-117982500D01*
X143473443Y-117982500D01*
X143473368Y-117982478D01*
X143193571Y-117982478D01*
X142737760Y-118015082D01*
X142285432Y-118080120D01*
X141838912Y-118177256D01*
X141400442Y-118306006D01*
X140972267Y-118465710D01*
X140556600Y-118655543D01*
X140155518Y-118874554D01*
X140155516Y-118874555D01*
X139771097Y-119121609D01*
X139405271Y-119395466D01*
X139285831Y-119498962D01*
X139222275Y-119527987D01*
X139153116Y-119518043D01*
X139101991Y-119473742D01*
X139101733Y-119473930D01*
X139100925Y-119472819D01*
X139100313Y-119472288D01*
X139098903Y-119470042D01*
X139098875Y-119469996D01*
X139049306Y-119401771D01*
X138957823Y-119275855D01*
X138788145Y-119106177D01*
X138594012Y-118965131D01*
X138380205Y-118856190D01*
X138321018Y-118836959D01*
X138151988Y-118782037D01*
X137914986Y-118744500D01*
X137914981Y-118744500D01*
X132363859Y-118744500D01*
X132363849Y-118744497D01*
X132312494Y-118744497D01*
X132033431Y-118744497D01*
X131673063Y-118768116D01*
X131476493Y-118781000D01*
X130923145Y-118853851D01*
X130923138Y-118853852D01*
X130375768Y-118962730D01*
X130375750Y-118962734D01*
X129836635Y-119107190D01*
X129836628Y-119107192D01*
X129308132Y-119286594D01*
X129308121Y-119286598D01*
X128792485Y-119500182D01*
X128291919Y-119747033D01*
X127808581Y-120026089D01*
X127808570Y-120026096D01*
X127344502Y-120336176D01*
X126901718Y-120675936D01*
X126538248Y-120994692D01*
X126474866Y-121024095D01*
X126405650Y-121014563D01*
X126352574Y-120969123D01*
X126332491Y-120902202D01*
X126333549Y-120885289D01*
X126376499Y-120559039D01*
X126391348Y-120332438D01*
X126414767Y-120267662D01*
X126427443Y-120250217D01*
X126545458Y-120018598D01*
X126625788Y-119771369D01*
X126646818Y-119638590D01*
X126666453Y-119514623D01*
X126666453Y-113533872D01*
X156749500Y-113533872D01*
X156749500Y-113796127D01*
X156770436Y-113955140D01*
X156783730Y-114056116D01*
X156828792Y-114224289D01*
X156851602Y-114309418D01*
X156851605Y-114309428D01*
X156951953Y-114551690D01*
X156951958Y-114551700D01*
X157083075Y-114778803D01*
X157242718Y-114986851D01*
X157242726Y-114986860D01*
X157428140Y-115172274D01*
X157428148Y-115172281D01*
X157636196Y-115331924D01*
X157863299Y-115463041D01*
X157863309Y-115463046D01*
X158105571Y-115563394D01*
X158105581Y-115563398D01*
X158358884Y-115631270D01*
X158618880Y-115665500D01*
X158618887Y-115665500D01*
X158881113Y-115665500D01*
X158881120Y-115665500D01*
X159141116Y-115631270D01*
X159394419Y-115563398D01*
X159636697Y-115463043D01*
X159863803Y-115331924D01*
X160071851Y-115172282D01*
X160071855Y-115172277D01*
X160071860Y-115172274D01*
X160257274Y-114986860D01*
X160257277Y-114986855D01*
X160257282Y-114986851D01*
X160416924Y-114778803D01*
X160548043Y-114551697D01*
X160648398Y-114309419D01*
X160716270Y-114056116D01*
X160750500Y-113796120D01*
X160750500Y-113533880D01*
X160716270Y-113273884D01*
X160648398Y-113020581D01*
X160550204Y-112783520D01*
X160548046Y-112778309D01*
X160548041Y-112778299D01*
X160416924Y-112551196D01*
X160257281Y-112343148D01*
X160257274Y-112343140D01*
X160071860Y-112157726D01*
X160071851Y-112157718D01*
X159863803Y-111998075D01*
X159636700Y-111866958D01*
X159636690Y-111866953D01*
X159394428Y-111766605D01*
X159394421Y-111766603D01*
X159394419Y-111766602D01*
X159141116Y-111698730D01*
X159083339Y-111691123D01*
X158881127Y-111664500D01*
X158881120Y-111664500D01*
X158618880Y-111664500D01*
X158618872Y-111664500D01*
X158387772Y-111694926D01*
X158358884Y-111698730D01*
X158105581Y-111766602D01*
X158105571Y-111766605D01*
X157863309Y-111866953D01*
X157863299Y-111866958D01*
X157636196Y-111998075D01*
X157428148Y-112157718D01*
X157242718Y-112343148D01*
X157083075Y-112551196D01*
X156951958Y-112778299D01*
X156951953Y-112778309D01*
X156851605Y-113020571D01*
X156851602Y-113020581D01*
X156814188Y-113160215D01*
X156783730Y-113273885D01*
X156749500Y-113533872D01*
X126666453Y-113533872D01*
X126666453Y-110379263D01*
X126666483Y-110379157D01*
X126666483Y-110327870D01*
X126666484Y-110327870D01*
X126666483Y-110029017D01*
X126632968Y-109432252D01*
X126572800Y-108898262D01*
X126566049Y-108838345D01*
X126566046Y-108838326D01*
X126566044Y-108838305D01*
X126465923Y-108249044D01*
X126332919Y-107666325D01*
X126206628Y-107227966D01*
X126206984Y-107158102D01*
X126245058Y-107099517D01*
X126308760Y-107070816D01*
X126377867Y-107081112D01*
X126417419Y-107110104D01*
X126842382Y-107576266D01*
X126842396Y-107576281D01*
X126842411Y-107576297D01*
X127451799Y-108185685D01*
X127451815Y-108185700D01*
X127451829Y-108185713D01*
X128088667Y-108766268D01*
X128088674Y-108766274D01*
X128088680Y-108766279D01*
X128751695Y-109316840D01*
X129439430Y-109836193D01*
X130150417Y-110323230D01*
X130883137Y-110776911D01*
X131636029Y-111196269D01*
X131636039Y-111196274D01*
X131636067Y-111196289D01*
X132407479Y-111580406D01*
X132407482Y-111580407D01*
X133195839Y-111928501D01*
X133195846Y-111928503D01*
X133195858Y-111928509D01*
X133999467Y-112239829D01*
X134816596Y-112513703D01*
X135645501Y-112749547D01*
X136484414Y-112946858D01*
X137331545Y-113105214D01*
X138185085Y-113224277D01*
X139043213Y-113303795D01*
X139904098Y-113343596D01*
X139904101Y-113343596D01*
X140765899Y-113343596D01*
X140765902Y-113343596D01*
X141626787Y-113303795D01*
X142484915Y-113224277D01*
X143338455Y-113105214D01*
X144185586Y-112946858D01*
X145024499Y-112749547D01*
X145853404Y-112513703D01*
X146670533Y-112239829D01*
X147474142Y-111928509D01*
X148262515Y-111580408D01*
X148262517Y-111580406D01*
X148262520Y-111580406D01*
X149033932Y-111196289D01*
X149033946Y-111196281D01*
X149033971Y-111196269D01*
X149786863Y-110776911D01*
X150519583Y-110323230D01*
X151230570Y-109836193D01*
X151918305Y-109316840D01*
X152581320Y-108766279D01*
X153218201Y-108185685D01*
X153827589Y-107576297D01*
X154408183Y-106939416D01*
X154958744Y-106276401D01*
X155478097Y-105588666D01*
X155965134Y-104877679D01*
X156418815Y-104144959D01*
X156838173Y-103392067D01*
X156838185Y-103392042D01*
X156838193Y-103392028D01*
X157222310Y-102620616D01*
X157222311Y-102620613D01*
X157347615Y-102336828D01*
X157570413Y-101832238D01*
X157881733Y-101028629D01*
X158155607Y-100211500D01*
X158391451Y-99382595D01*
X158588762Y-98543682D01*
X158747118Y-97696551D01*
X158866181Y-96843011D01*
X158945699Y-95984883D01*
X158985500Y-95123998D01*
X158985500Y-94262194D01*
X158945699Y-93401309D01*
X158866181Y-92543181D01*
X158747118Y-91689641D01*
X158588762Y-90842510D01*
X158391451Y-90003597D01*
X158155607Y-89174692D01*
X157881733Y-88357563D01*
X157570413Y-87553954D01*
X157487434Y-87366025D01*
X157222311Y-86765578D01*
X157222310Y-86765575D01*
X156838193Y-85994163D01*
X156838164Y-85994109D01*
X156702706Y-85750915D01*
X156418815Y-85241233D01*
X155965134Y-84508513D01*
X155478097Y-83797526D01*
X154958744Y-83109791D01*
X154408183Y-82446776D01*
X154408178Y-82446770D01*
X154408172Y-82446763D01*
X153827617Y-81809925D01*
X153827604Y-81809911D01*
X153827589Y-81809895D01*
X153218201Y-81200507D01*
X153218185Y-81200492D01*
X153218170Y-81200478D01*
X152581332Y-80619923D01*
X152581320Y-80619913D01*
X151918305Y-80069352D01*
X151874284Y-80036109D01*
X151559573Y-79798450D01*
X151517937Y-79742341D01*
X151513246Y-79672629D01*
X151546988Y-79611447D01*
X151558808Y-79601124D01*
X151600282Y-79569301D01*
X151776908Y-79392676D01*
X151928968Y-79194507D01*
X152053861Y-78978186D01*
X152149451Y-78747414D01*
X152214100Y-78506139D01*
X152246704Y-78258489D01*
X152246704Y-78008703D01*
X152214101Y-77761054D01*
X152149452Y-77519780D01*
X152079977Y-77352053D01*
X152053865Y-77289013D01*
X152053860Y-77289003D01*
X151928970Y-77072686D01*
X151776910Y-76874518D01*
X151776904Y-76874511D01*
X151600284Y-76697891D01*
X151600278Y-76697886D01*
X151402119Y-76545834D01*
X151402118Y-76545833D01*
X151402115Y-76545831D01*
X150943375Y-76280977D01*
X150477393Y-76011941D01*
X150477382Y-76011936D01*
X150288337Y-75933631D01*
X150246615Y-75916349D01*
X150246613Y-75916348D01*
X150246612Y-75916348D01*
X150174932Y-75897141D01*
X150005339Y-75851700D01*
X149963951Y-75846251D01*
X149757697Y-75819096D01*
X149757690Y-75819096D01*
X149507904Y-75819096D01*
X149507903Y-75819096D01*
X149260264Y-75851697D01*
X149260257Y-75851698D01*
X149260254Y-75851699D01*
X149018980Y-75916348D01*
X149018970Y-75916351D01*
X148788213Y-76011934D01*
X148788204Y-76011938D01*
X148571892Y-76136826D01*
X148571877Y-76136836D01*
X148373718Y-76288889D01*
X148373711Y-76288895D01*
X148197094Y-76465511D01*
X148197089Y-76465517D01*
X148045038Y-76663675D01*
X148045032Y-76663685D01*
X147920138Y-76880005D01*
X147920136Y-76880009D01*
X147824548Y-77110779D01*
X147759901Y-77352050D01*
X147759899Y-77352058D01*
X147752663Y-77407017D01*
X147724395Y-77470913D01*
X147666069Y-77509383D01*
X147596205Y-77510213D01*
X147579638Y-77504264D01*
X147474149Y-77457686D01*
X147474147Y-77457685D01*
X147474142Y-77457683D01*
X146670533Y-77146363D01*
X146670524Y-77146360D01*
X146670519Y-77146358D01*
X145853413Y-76872492D01*
X145853412Y-76872491D01*
X145853404Y-76872489D01*
X145853395Y-76872486D01*
X145853384Y-76872483D01*
X145024509Y-76636647D01*
X145024502Y-76636645D01*
X144185605Y-76439338D01*
X144185595Y-76439336D01*
X144185586Y-76439334D01*
X143626469Y-76334817D01*
X143338451Y-76280977D01*
X142484926Y-76161916D01*
X142484905Y-76161914D01*
X141626780Y-76082396D01*
X141180205Y-76061750D01*
X141114146Y-76038990D01*
X141070879Y-75984129D01*
X141061935Y-75937008D01*
X141091229Y-71806658D01*
X141094322Y-71370621D01*
X141114482Y-71303722D01*
X141167609Y-71258343D01*
X141218319Y-71247500D01*
X144131077Y-71247500D01*
X144131255Y-71247493D01*
X144294077Y-71247493D01*
X144294090Y-71247493D01*
X144868640Y-71212740D01*
X145440043Y-71143359D01*
X145991440Y-71042312D01*
X146014976Y-71040288D01*
X148012540Y-71059495D01*
X148079381Y-71079821D01*
X148122989Y-71108559D01*
X148122991Y-71108559D01*
X148122993Y-71108561D01*
X148206020Y-71141072D01*
X148297116Y-71176744D01*
X148364482Y-71195280D01*
X148430793Y-71210836D01*
X148617076Y-71227201D01*
X153609264Y-71141864D01*
X153742167Y-71129634D01*
X153742188Y-71129630D01*
X153742192Y-71129630D01*
X153778508Y-71123529D01*
X153778556Y-71123521D01*
X153792694Y-71121029D01*
X153794430Y-71120516D01*
X153795529Y-71120362D01*
X153796102Y-71120228D01*
X153796114Y-71120280D01*
X153830753Y-71115439D01*
X154305000Y-71120000D01*
X154591673Y-70761657D01*
X154648922Y-70721607D01*
X154718738Y-70718864D01*
X154778954Y-70754303D01*
G37*
%TD.AperFunction*%
%TA.AperFunction,Conductor*%
G36*
X122501159Y-88919685D02*
G01*
X122546914Y-88972489D01*
X122556858Y-89041647D01*
X122551692Y-89063406D01*
X122514396Y-89174682D01*
X122514387Y-89174711D01*
X122278551Y-90003586D01*
X122278549Y-90003593D01*
X122081242Y-90842490D01*
X121922881Y-91689644D01*
X121803820Y-92543169D01*
X121803818Y-92543190D01*
X121724300Y-93401314D01*
X121690582Y-94130628D01*
X121688030Y-94185852D01*
X121684500Y-94262197D01*
X121684500Y-95123994D01*
X121724300Y-95984877D01*
X121803818Y-96843001D01*
X121803820Y-96843022D01*
X121918404Y-97664449D01*
X121922882Y-97696551D01*
X122076904Y-98520499D01*
X122081242Y-98543701D01*
X122278549Y-99382598D01*
X122278551Y-99382605D01*
X122514387Y-100211480D01*
X122514396Y-100211509D01*
X122637633Y-100579200D01*
X122788267Y-101028629D01*
X122968935Y-101494987D01*
X123099594Y-101832256D01*
X123240237Y-102150781D01*
X123249309Y-102220059D01*
X123219485Y-102283244D01*
X123160236Y-102320275D01*
X123090372Y-102319395D01*
X123039122Y-102288548D01*
X121329774Y-100579200D01*
X121326399Y-100575690D01*
X121046276Y-100272656D01*
X121039953Y-100265253D01*
X120785988Y-99943099D01*
X120780265Y-99935222D01*
X120552350Y-99594124D01*
X120547275Y-99585840D01*
X120346833Y-99227927D01*
X120342414Y-99219256D01*
X120296550Y-99119770D01*
X120170669Y-98846711D01*
X120166943Y-98837716D01*
X120058474Y-98543701D01*
X120024954Y-98452842D01*
X120021947Y-98443583D01*
X120007245Y-98391455D01*
X119910598Y-98048770D01*
X119908326Y-98039307D01*
X119905934Y-98027281D01*
X119828294Y-97636960D01*
X119826776Y-97627384D01*
X119778555Y-97219965D01*
X119777793Y-97210261D01*
X119775585Y-97154076D01*
X119761596Y-96798023D01*
X119761500Y-96793155D01*
X119761500Y-96174826D01*
X119761501Y-96174820D01*
X119761500Y-96102438D01*
X119761521Y-96102365D01*
X119761521Y-96051057D01*
X119761522Y-96051057D01*
X119761521Y-95813498D01*
X119727623Y-95339591D01*
X119660004Y-94869309D01*
X119656472Y-94853075D01*
X119627948Y-94721957D01*
X119559007Y-94405049D01*
X119425149Y-93949177D01*
X119259109Y-93504016D01*
X119061736Y-93071834D01*
X118834034Y-92654834D01*
X118577163Y-92255141D01*
X118292434Y-91874790D01*
X117981296Y-91515721D01*
X117981281Y-91515706D01*
X117897309Y-91431734D01*
X117897304Y-91431730D01*
X115577255Y-89111681D01*
X115543770Y-89050358D01*
X115548754Y-88980666D01*
X115590626Y-88924733D01*
X115656090Y-88900316D01*
X115664936Y-88900000D01*
X122434120Y-88900000D01*
X122501159Y-88919685D01*
G37*
%TD.AperFunction*%
%TA.AperFunction,Conductor*%
G36*
X170942320Y-45576007D02*
G01*
X170954664Y-45576641D01*
X171754769Y-45657914D01*
X171779180Y-45662910D01*
X171892936Y-45698417D01*
X172837711Y-45993308D01*
X172860073Y-46002778D01*
X173798982Y-46514118D01*
X173820398Y-46525781D01*
X173840055Y-46539072D01*
X174654924Y-47212104D01*
X174678574Y-47231637D01*
X174695214Y-47248277D01*
X175387867Y-48086883D01*
X175401162Y-48106546D01*
X175924065Y-49066763D01*
X175933533Y-49089120D01*
X176264032Y-50147976D01*
X176269016Y-50172263D01*
X176387398Y-51325841D01*
X176388045Y-51339080D01*
X176290358Y-72206220D01*
X176270359Y-72273167D01*
X176217342Y-72318674D01*
X176148138Y-72328294D01*
X176084718Y-72298972D01*
X176057527Y-72265067D01*
X175950241Y-72068589D01*
X175915431Y-72004840D01*
X175900981Y-71982355D01*
X175639576Y-71575600D01*
X175639568Y-71575590D01*
X175639566Y-71575587D01*
X175639562Y-71575581D01*
X175333773Y-71167096D01*
X175201786Y-71014776D01*
X175172762Y-70951221D01*
X175171500Y-70933574D01*
X175171500Y-70770270D01*
X175171499Y-70770256D01*
X175163305Y-70708018D01*
X175142592Y-70550688D01*
X175085271Y-70336763D01*
X175000518Y-70132150D01*
X175000516Y-70132147D01*
X175000514Y-70132142D01*
X174889786Y-69940357D01*
X174889782Y-69940350D01*
X174754959Y-69764645D01*
X174754954Y-69764639D01*
X174598360Y-69608045D01*
X174598353Y-69608039D01*
X174422658Y-69473224D01*
X174422656Y-69473222D01*
X174422650Y-69473218D01*
X174422645Y-69473215D01*
X174422642Y-69473213D01*
X174230857Y-69362485D01*
X174230846Y-69362480D01*
X174026239Y-69277729D01*
X173883620Y-69239515D01*
X173812312Y-69220408D01*
X173784865Y-69216794D01*
X173592743Y-69191500D01*
X173592736Y-69191500D01*
X173371264Y-69191500D01*
X173371256Y-69191500D01*
X173151688Y-69220408D01*
X172937760Y-69277729D01*
X172733153Y-69362480D01*
X172733142Y-69362485D01*
X172541357Y-69473213D01*
X172541341Y-69473224D01*
X172365646Y-69608039D01*
X172365639Y-69608045D01*
X172209045Y-69764639D01*
X172209039Y-69764646D01*
X172074224Y-69940341D01*
X172074213Y-69940357D01*
X171963485Y-70132142D01*
X171963480Y-70132153D01*
X171878730Y-70336758D01*
X171825784Y-70534356D01*
X171789419Y-70594016D01*
X171726572Y-70624545D01*
X171657196Y-70616250D01*
X171603318Y-70571765D01*
X171586235Y-70534359D01*
X171529271Y-70321763D01*
X171444518Y-70117150D01*
X171444516Y-70117147D01*
X171444514Y-70117142D01*
X171333786Y-69925357D01*
X171333782Y-69925350D01*
X171198959Y-69749645D01*
X171198954Y-69749639D01*
X171042360Y-69593045D01*
X171042353Y-69593039D01*
X170866658Y-69458224D01*
X170866656Y-69458222D01*
X170866650Y-69458218D01*
X170866645Y-69458215D01*
X170866642Y-69458213D01*
X170674857Y-69347485D01*
X170674846Y-69347480D01*
X170470239Y-69262729D01*
X170312293Y-69220408D01*
X170256312Y-69205408D01*
X170228865Y-69201794D01*
X170036743Y-69176500D01*
X170036736Y-69176500D01*
X169815264Y-69176500D01*
X169815256Y-69176500D01*
X169595688Y-69205408D01*
X169381760Y-69262729D01*
X169177153Y-69347480D01*
X169177142Y-69347485D01*
X168985357Y-69458213D01*
X168985341Y-69458224D01*
X168809646Y-69593039D01*
X168809639Y-69593045D01*
X168653045Y-69749639D01*
X168653039Y-69749646D01*
X168518224Y-69925341D01*
X168518213Y-69925357D01*
X168407485Y-70117142D01*
X168407480Y-70117153D01*
X168322729Y-70321760D01*
X168265408Y-70535688D01*
X168236500Y-70755256D01*
X168236500Y-70886984D01*
X168216815Y-70954023D01*
X168200181Y-70974665D01*
X168013958Y-71160887D01*
X168013717Y-71161147D01*
X167900389Y-71274475D01*
X167900379Y-71274486D01*
X167566237Y-71660105D01*
X167260454Y-72068581D01*
X166984586Y-72497836D01*
X166984578Y-72497849D01*
X166740035Y-72945694D01*
X166528069Y-73409832D01*
X166528066Y-73409839D01*
X166528066Y-73409840D01*
X166366366Y-73843371D01*
X166349745Y-73887932D01*
X166295185Y-74073744D01*
X166257410Y-74132522D01*
X166193854Y-74161547D01*
X166124696Y-74151603D01*
X166075890Y-74111694D01*
X166069085Y-74102328D01*
X166069080Y-74102322D01*
X165927677Y-73960919D01*
X165927675Y-73960917D01*
X165765887Y-73843371D01*
X165668562Y-73793781D01*
X165587700Y-73752579D01*
X165397511Y-73690784D01*
X165298750Y-73675142D01*
X165199991Y-73659500D01*
X165199990Y-73659500D01*
X160790471Y-73659500D01*
X160723432Y-73639815D01*
X160677677Y-73587011D01*
X160667733Y-73517853D01*
X160676689Y-73490934D01*
X160675254Y-73490399D01*
X160728596Y-73347379D01*
X160728598Y-73347372D01*
X160734999Y-73287844D01*
X160735000Y-73287827D01*
X160735000Y-72640000D01*
X159818012Y-72640000D01*
X159850925Y-72582993D01*
X159885000Y-72455826D01*
X159885000Y-72324174D01*
X159850925Y-72197007D01*
X159818012Y-72140000D01*
X160735000Y-72140000D01*
X160735000Y-71492172D01*
X160734999Y-71492155D01*
X160728598Y-71432627D01*
X160728596Y-71432620D01*
X160678354Y-71297913D01*
X160678350Y-71297906D01*
X160592190Y-71182812D01*
X160592187Y-71182809D01*
X160477093Y-71096649D01*
X160477086Y-71096645D01*
X160342379Y-71046403D01*
X160342372Y-71046401D01*
X160282844Y-71040000D01*
X159635000Y-71040000D01*
X159635000Y-71956988D01*
X159577993Y-71924075D01*
X159450826Y-71890000D01*
X159319174Y-71890000D01*
X159192007Y-71924075D01*
X159135000Y-71956988D01*
X159135000Y-71040000D01*
X158487155Y-71040000D01*
X158427627Y-71046401D01*
X158427620Y-71046403D01*
X158292913Y-71096645D01*
X158292906Y-71096649D01*
X158177812Y-71182809D01*
X158177809Y-71182812D01*
X158091649Y-71297906D01*
X158091645Y-71297913D01*
X158041403Y-71432620D01*
X158041401Y-71432627D01*
X158035000Y-71492155D01*
X158035000Y-72140000D01*
X158951988Y-72140000D01*
X158919075Y-72197007D01*
X158885000Y-72324174D01*
X158885000Y-72455826D01*
X158919075Y-72582993D01*
X158951988Y-72640000D01*
X158035000Y-72640000D01*
X158035000Y-73287844D01*
X158041401Y-73347372D01*
X158041403Y-73347379D01*
X158091645Y-73482086D01*
X158091647Y-73482088D01*
X158147658Y-73556910D01*
X158172075Y-73622374D01*
X158157224Y-73690647D01*
X158136073Y-73718902D01*
X158074366Y-73780609D01*
X157935562Y-73961503D01*
X157935551Y-73961519D01*
X157838887Y-74128946D01*
X157788320Y-74177162D01*
X157719713Y-74190384D01*
X157654848Y-74164416D01*
X157614320Y-74107502D01*
X157607500Y-74066946D01*
X157607500Y-69162983D01*
X157607618Y-69157574D01*
X157624779Y-68764540D01*
X157625719Y-68753802D01*
X157676719Y-68366426D01*
X157678591Y-68355807D01*
X157763162Y-67974338D01*
X157765953Y-67963923D01*
X157883446Y-67591286D01*
X157887135Y-67581150D01*
X158036655Y-67220180D01*
X158041225Y-67210383D01*
X158221638Y-66863815D01*
X158227020Y-66854493D01*
X158436951Y-66524968D01*
X158443138Y-66516130D01*
X158681012Y-66206130D01*
X158687927Y-66197889D01*
X158953968Y-65907557D01*
X158957648Y-65903714D01*
X159963595Y-64897769D01*
X159963597Y-64897765D01*
X159967014Y-64894349D01*
X159967228Y-64894117D01*
X159974378Y-64886967D01*
X160057051Y-64804295D01*
X160376398Y-64440151D01*
X160671245Y-64055901D01*
X160940329Y-63653190D01*
X161182499Y-63233742D01*
X161396717Y-62799353D01*
X161582066Y-62351884D01*
X161737753Y-61893251D01*
X161863110Y-61425417D01*
X161957601Y-60950386D01*
X161984786Y-60743898D01*
X163410000Y-60743898D01*
X163410000Y-61176101D01*
X163443909Y-61606955D01*
X163443909Y-61606956D01*
X163511518Y-62033822D01*
X163612415Y-62454085D01*
X163745963Y-62865107D01*
X163911357Y-63264402D01*
X164107576Y-63649504D01*
X164107579Y-63649509D01*
X164333381Y-64017984D01*
X164333389Y-64017995D01*
X164587418Y-64367636D01*
X164587428Y-64367650D01*
X164846022Y-64670423D01*
X167470295Y-62046150D01*
X167551222Y-62151616D01*
X167718384Y-62318778D01*
X167823849Y-62399703D01*
X165199575Y-65023976D01*
X165502349Y-65282571D01*
X165502363Y-65282581D01*
X165852004Y-65536610D01*
X165852015Y-65536618D01*
X166220490Y-65762420D01*
X166220495Y-65762423D01*
X166605597Y-65958642D01*
X167004892Y-66124036D01*
X167415914Y-66257584D01*
X167836177Y-66358481D01*
X168263044Y-66426090D01*
X168693898Y-66459999D01*
X168693912Y-66460000D01*
X169126088Y-66460000D01*
X169126101Y-66459999D01*
X169556955Y-66426090D01*
X169556956Y-66426090D01*
X169983822Y-66358481D01*
X170404085Y-66257584D01*
X170815107Y-66124036D01*
X171214402Y-65958642D01*
X171599504Y-65762423D01*
X171599509Y-65762420D01*
X171967984Y-65536618D01*
X171967995Y-65536610D01*
X172317636Y-65282581D01*
X172317650Y-65282571D01*
X172620423Y-65023976D01*
X169996150Y-62399704D01*
X170101616Y-62318778D01*
X170268778Y-62151616D01*
X170349703Y-62046150D01*
X172973976Y-64670423D01*
X173232571Y-64367650D01*
X173232581Y-64367636D01*
X173486610Y-64017995D01*
X173486618Y-64017984D01*
X173712420Y-63649509D01*
X173712423Y-63649504D01*
X173908642Y-63264402D01*
X174074036Y-62865107D01*
X174207584Y-62454085D01*
X174308481Y-62033822D01*
X174376090Y-61606956D01*
X174376090Y-61606955D01*
X174409999Y-61176101D01*
X174410000Y-61176088D01*
X174410000Y-60743911D01*
X174409999Y-60743898D01*
X174376090Y-60313044D01*
X174376090Y-60313043D01*
X174308481Y-59886177D01*
X174207584Y-59465914D01*
X174074036Y-59054892D01*
X173908642Y-58655597D01*
X173712423Y-58270495D01*
X173712420Y-58270490D01*
X173486618Y-57902015D01*
X173486610Y-57902004D01*
X173232581Y-57552363D01*
X173232571Y-57552349D01*
X172973976Y-57249575D01*
X170349703Y-59873848D01*
X170268778Y-59768384D01*
X170101616Y-59601222D01*
X169996149Y-59520295D01*
X172620423Y-56896022D01*
X172317650Y-56637428D01*
X172317636Y-56637418D01*
X171967995Y-56383389D01*
X171967984Y-56383381D01*
X171599500Y-56157573D01*
X171598754Y-56157156D01*
X171598657Y-56157057D01*
X171597415Y-56156296D01*
X171597606Y-56155983D01*
X171549877Y-56107228D01*
X171535752Y-56038801D01*
X171560864Y-55973600D01*
X171617240Y-55932326D01*
X171637795Y-55926848D01*
X171804310Y-55897487D01*
X172172265Y-55798893D01*
X172189465Y-55794285D01*
X172189465Y-55794284D01*
X172189476Y-55794282D01*
X172564182Y-55657900D01*
X172925576Y-55489379D01*
X173270907Y-55290002D01*
X173597547Y-55061286D01*
X173903011Y-54804972D01*
X174184972Y-54523011D01*
X174441286Y-54217547D01*
X174670002Y-53890907D01*
X174869379Y-53545576D01*
X175037900Y-53184182D01*
X175174282Y-52809476D01*
X175277487Y-52424310D01*
X175346730Y-52031614D01*
X175381484Y-51634377D01*
X175381484Y-51235623D01*
X175346730Y-50838386D01*
X175277487Y-50445690D01*
X175190883Y-50122478D01*
X175174285Y-50060534D01*
X175174283Y-50060530D01*
X175174282Y-50060524D01*
X175037900Y-49685818D01*
X174998803Y-49601975D01*
X174869383Y-49324433D01*
X174869375Y-49324417D01*
X174733526Y-49089120D01*
X174670002Y-48979093D01*
X174441286Y-48652453D01*
X174441285Y-48652452D01*
X174441281Y-48652446D01*
X174184969Y-48346986D01*
X173903013Y-48065030D01*
X173597553Y-47808718D01*
X173270913Y-47580002D01*
X173270910Y-47580000D01*
X173270907Y-47579998D01*
X173101506Y-47482194D01*
X172925582Y-47380624D01*
X172925566Y-47380616D01*
X172564199Y-47212107D01*
X172564191Y-47212104D01*
X172564189Y-47212103D01*
X172564182Y-47212100D01*
X172189476Y-47075718D01*
X172189475Y-47075717D01*
X172189465Y-47075714D01*
X171804317Y-46972515D01*
X171804320Y-46972515D01*
X171804310Y-46972513D01*
X171748871Y-46962737D01*
X171411616Y-46903270D01*
X171014380Y-46868516D01*
X171014377Y-46868516D01*
X170615623Y-46868516D01*
X170615619Y-46868516D01*
X170218383Y-46903270D01*
X169825695Y-46972512D01*
X169825692Y-46972512D01*
X169825690Y-46972513D01*
X169825685Y-46972514D01*
X169825682Y-46972515D01*
X169440534Y-47075714D01*
X169253171Y-47143909D01*
X169065818Y-47212100D01*
X169065814Y-47212101D01*
X169065808Y-47212104D01*
X169065800Y-47212107D01*
X168704433Y-47380616D01*
X168704417Y-47380624D01*
X168359101Y-47579993D01*
X168359086Y-47580002D01*
X168032446Y-47808718D01*
X167726986Y-48065030D01*
X167445030Y-48346986D01*
X167188718Y-48652446D01*
X166960002Y-48979086D01*
X166959993Y-48979101D01*
X166760624Y-49324417D01*
X166760616Y-49324433D01*
X166592107Y-49685800D01*
X166592104Y-49685808D01*
X166455714Y-50060534D01*
X166352515Y-50445682D01*
X166352512Y-50445695D01*
X166283270Y-50838383D01*
X166248516Y-51235619D01*
X166248516Y-51634380D01*
X166283270Y-52031616D01*
X166352512Y-52424304D01*
X166352515Y-52424317D01*
X166455714Y-52809465D01*
X166455717Y-52809475D01*
X166455718Y-52809476D01*
X166592100Y-53184182D01*
X166592103Y-53184189D01*
X166592104Y-53184191D01*
X166592107Y-53184199D01*
X166760616Y-53545566D01*
X166760624Y-53545582D01*
X166959993Y-53890898D01*
X166960002Y-53890913D01*
X167188718Y-54217553D01*
X167256913Y-54298824D01*
X167445028Y-54523011D01*
X167726989Y-54804972D01*
X167832649Y-54893631D01*
X168032451Y-55061285D01*
X168153043Y-55145724D01*
X168328264Y-55268415D01*
X168371888Y-55322991D01*
X168379082Y-55392489D01*
X168347559Y-55454844D01*
X168287329Y-55490258D01*
X168266888Y-55493605D01*
X168263076Y-55493905D01*
X168263035Y-55493910D01*
X167836177Y-55561518D01*
X167415914Y-55662415D01*
X167004892Y-55795963D01*
X166605597Y-55961357D01*
X166220495Y-56157576D01*
X166220490Y-56157579D01*
X165852015Y-56383381D01*
X165852004Y-56383389D01*
X165502363Y-56637418D01*
X165502349Y-56637429D01*
X165199575Y-56896022D01*
X167823849Y-59520296D01*
X167718384Y-59601222D01*
X167551222Y-59768384D01*
X167470296Y-59873849D01*
X164846022Y-57249575D01*
X164587429Y-57552349D01*
X164587418Y-57552363D01*
X164333389Y-57902004D01*
X164333381Y-57902015D01*
X164107579Y-58270490D01*
X164107576Y-58270495D01*
X163911357Y-58655597D01*
X163745963Y-59054892D01*
X163612415Y-59465914D01*
X163511518Y-59886177D01*
X163443909Y-60313043D01*
X163443909Y-60313044D01*
X163410000Y-60743898D01*
X161984786Y-60743898D01*
X162020821Y-60470193D01*
X162052499Y-59986892D01*
X162052500Y-59744723D01*
X162052500Y-59634738D01*
X162052500Y-54325014D01*
X162052500Y-54231691D01*
X162014982Y-53826809D01*
X161940266Y-53427115D01*
X161828990Y-53036020D01*
X161682103Y-52656860D01*
X161500858Y-52292871D01*
X161286801Y-51947158D01*
X161041760Y-51622671D01*
X160767823Y-51322177D01*
X160467329Y-51048240D01*
X160467326Y-51048238D01*
X160467323Y-51048235D01*
X160142843Y-50803200D01*
X160142842Y-50803199D01*
X159797129Y-50589142D01*
X159509023Y-50445682D01*
X159453728Y-50418148D01*
X159402491Y-50370645D01*
X159385000Y-50307148D01*
X159385000Y-45684159D01*
X159404685Y-45617120D01*
X159457489Y-45571365D01*
X159509169Y-45560159D01*
X170942320Y-45576007D01*
G37*
%TD.AperFunction*%
%TD*%
%TA.AperFunction,Conductor*%
%TO.N,GNDA*%
G36*
X111365797Y-64653825D02*
G01*
X111413610Y-64704773D01*
X111426947Y-64760717D01*
X111426947Y-64771481D01*
X111467611Y-65028227D01*
X111547943Y-65275460D01*
X111614202Y-65405500D01*
X111665957Y-65507075D01*
X111818753Y-65717380D01*
X111818755Y-65717382D01*
X111940844Y-65839471D01*
X111974329Y-65900794D01*
X111969345Y-65970486D01*
X111928652Y-66025525D01*
X111916478Y-66034867D01*
X111913637Y-66037047D01*
X111913636Y-66037049D01*
X111757045Y-66193639D01*
X111757039Y-66193646D01*
X111622224Y-66369341D01*
X111622213Y-66369357D01*
X111511485Y-66561142D01*
X111511480Y-66561153D01*
X111426729Y-66765760D01*
X111369408Y-66979688D01*
X111340500Y-67199256D01*
X111340500Y-67420743D01*
X111369408Y-67640311D01*
X111426729Y-67854239D01*
X111511480Y-68058846D01*
X111511485Y-68058857D01*
X111622213Y-68250642D01*
X111622224Y-68250658D01*
X111757039Y-68426353D01*
X111757045Y-68426360D01*
X111913639Y-68582954D01*
X111913646Y-68582960D01*
X111950375Y-68611143D01*
X112089350Y-68717782D01*
X112089357Y-68717786D01*
X112281142Y-68828514D01*
X112281147Y-68828516D01*
X112281150Y-68828518D01*
X112319476Y-68844393D01*
X112485760Y-68913270D01*
X112485761Y-68913270D01*
X112485763Y-68913271D01*
X112699688Y-68970592D01*
X112919264Y-68999500D01*
X112919271Y-68999500D01*
X113140729Y-68999500D01*
X113140736Y-68999500D01*
X113360312Y-68970592D01*
X113574237Y-68913271D01*
X113778850Y-68828518D01*
X113970650Y-68717782D01*
X114109625Y-68611143D01*
X114134043Y-68592407D01*
X114134043Y-68592406D01*
X114146355Y-68582959D01*
X114302959Y-68426355D01*
X114437782Y-68250650D01*
X114548518Y-68058850D01*
X114633271Y-67854237D01*
X114690592Y-67640312D01*
X114719500Y-67420736D01*
X114719500Y-67199264D01*
X114690592Y-66979688D01*
X114633271Y-66765763D01*
X114631335Y-66761090D01*
X114548519Y-66561153D01*
X114548514Y-66561142D01*
X114437786Y-66369357D01*
X114437782Y-66369350D01*
X114315773Y-66210344D01*
X114302960Y-66193646D01*
X114302954Y-66193639D01*
X114170099Y-66060784D01*
X114136614Y-65999461D01*
X114141598Y-65929769D01*
X114170099Y-65885422D01*
X114244479Y-65811042D01*
X114338141Y-65717380D01*
X114490937Y-65507075D01*
X114577200Y-65337772D01*
X114599999Y-65306393D01*
X115237447Y-64668945D01*
X115237447Y-64691660D01*
X115263411Y-64788561D01*
X115313571Y-64875440D01*
X115384507Y-64946376D01*
X115471386Y-64996536D01*
X115568287Y-65022500D01*
X115591000Y-65022500D01*
X114919730Y-65693768D01*
X114919730Y-65693769D01*
X114957014Y-65720858D01*
X115134009Y-65811042D01*
X115322924Y-65872424D01*
X115519126Y-65903500D01*
X115717768Y-65903500D01*
X115913967Y-65872424D01*
X115913970Y-65872424D01*
X116102884Y-65811042D01*
X116279872Y-65720862D01*
X116317163Y-65693768D01*
X115645895Y-65022500D01*
X115668607Y-65022500D01*
X115765508Y-64996536D01*
X115852387Y-64946376D01*
X115923323Y-64875440D01*
X115973483Y-64788561D01*
X115999447Y-64691660D01*
X115999447Y-64668947D01*
X116636892Y-65306392D01*
X116659696Y-65337778D01*
X116694202Y-65405500D01*
X116745957Y-65507075D01*
X116898753Y-65717380D01*
X117082567Y-65901194D01*
X117225979Y-66005389D01*
X117292873Y-66053991D01*
X117524305Y-66171910D01*
X117555692Y-66194714D01*
X119194946Y-67833968D01*
X119194948Y-67833971D01*
X119212389Y-67851411D01*
X119212389Y-67851412D01*
X119365873Y-68004895D01*
X119695978Y-68286831D01*
X120047185Y-68541998D01*
X120129445Y-68592407D01*
X120417310Y-68768812D01*
X120417316Y-68768814D01*
X120417330Y-68768823D01*
X120804131Y-68965908D01*
X121205202Y-69132037D01*
X121455778Y-69213453D01*
X121513453Y-69252890D01*
X121540652Y-69317248D01*
X121537235Y-69363475D01*
X121529411Y-69392676D01*
X121529408Y-69392688D01*
X121529407Y-69392696D01*
X121500500Y-69612256D01*
X121500500Y-69833743D01*
X121518256Y-69968606D01*
X121529408Y-70053312D01*
X121540777Y-70095741D01*
X121586729Y-70267239D01*
X121671480Y-70471846D01*
X121671485Y-70471857D01*
X121782213Y-70663642D01*
X121782224Y-70663658D01*
X121917039Y-70839353D01*
X121917045Y-70839360D01*
X122073639Y-70995954D01*
X122073646Y-70995960D01*
X122145682Y-71051235D01*
X122249350Y-71130782D01*
X122249357Y-71130786D01*
X122441142Y-71241514D01*
X122441147Y-71241516D01*
X122441150Y-71241518D01*
X122503116Y-71267185D01*
X122645760Y-71326270D01*
X122645761Y-71326270D01*
X122645763Y-71326271D01*
X122859688Y-71383592D01*
X123079264Y-71412500D01*
X123079271Y-71412500D01*
X123300729Y-71412500D01*
X123300736Y-71412500D01*
X123520312Y-71383592D01*
X123734237Y-71326271D01*
X123901620Y-71256938D01*
X123949073Y-71247500D01*
X139576000Y-71247500D01*
X139643039Y-71267185D01*
X139688794Y-71319989D01*
X139700000Y-71371500D01*
X139700000Y-75933631D01*
X139680315Y-76000670D01*
X139627511Y-76046425D01*
X139581727Y-76057499D01*
X139043219Y-76082396D01*
X138185094Y-76161914D01*
X138185073Y-76161916D01*
X137331548Y-76280977D01*
X136918748Y-76358143D01*
X136484414Y-76439334D01*
X136484408Y-76439335D01*
X136484394Y-76439338D01*
X135645497Y-76636645D01*
X135645490Y-76636647D01*
X134816615Y-76872483D01*
X134816586Y-76872492D01*
X133999480Y-77146358D01*
X133999467Y-77146362D01*
X133999467Y-77146363D01*
X133195858Y-77457683D01*
X133195849Y-77457687D01*
X133195835Y-77457692D01*
X133120601Y-77490911D01*
X133051322Y-77499982D01*
X132988138Y-77470157D01*
X132951108Y-77410907D01*
X132947578Y-77393666D01*
X132942100Y-77352053D01*
X132877451Y-77110778D01*
X132781861Y-76880006D01*
X132781858Y-76880001D01*
X132781857Y-76879998D01*
X132781856Y-76879997D01*
X132763146Y-76847591D01*
X132656968Y-76663685D01*
X132504908Y-76465516D01*
X132418065Y-76378673D01*
X132328287Y-76288895D01*
X132328280Y-76288889D01*
X132130121Y-76136836D01*
X132130119Y-76136834D01*
X132130113Y-76136830D01*
X132130108Y-76136827D01*
X132130105Y-76136825D01*
X131913799Y-76011940D01*
X131913783Y-76011932D01*
X131683018Y-75916347D01*
X131562383Y-75884023D01*
X131441746Y-75851699D01*
X131441740Y-75851698D01*
X131441735Y-75851697D01*
X131194097Y-75819096D01*
X131194096Y-75819096D01*
X130944310Y-75819096D01*
X130944302Y-75819096D01*
X130708580Y-75850130D01*
X130696660Y-75851700D01*
X130645669Y-75865362D01*
X130455386Y-75916348D01*
X130224605Y-76011942D01*
X130224604Y-76011943D01*
X129299885Y-76545831D01*
X129101717Y-76697889D01*
X129101711Y-76697894D01*
X128925095Y-76874511D01*
X128925089Y-76874518D01*
X128773036Y-77072677D01*
X128773026Y-77072692D01*
X128648138Y-77289004D01*
X128648134Y-77289013D01*
X128552551Y-77519770D01*
X128552548Y-77519780D01*
X128487900Y-77761051D01*
X128487897Y-77761064D01*
X128455296Y-78008703D01*
X128455296Y-78258497D01*
X128472226Y-78387084D01*
X128487900Y-78506139D01*
X128521904Y-78633046D01*
X128550023Y-78737990D01*
X128552549Y-78747415D01*
X128648138Y-78978186D01*
X128773032Y-79194507D01*
X128773034Y-79194510D01*
X128773038Y-79194516D01*
X128925089Y-79392674D01*
X128925094Y-79392680D01*
X129101711Y-79569296D01*
X129101718Y-79569302D01*
X129127312Y-79588941D01*
X129168515Y-79645368D01*
X129172670Y-79715114D01*
X129138458Y-79776035D01*
X129126553Y-79786271D01*
X128751719Y-80069333D01*
X128751677Y-80069366D01*
X128088682Y-80619911D01*
X128088667Y-80619923D01*
X127451829Y-81200478D01*
X127451778Y-81200527D01*
X126842431Y-81809874D01*
X126842382Y-81809925D01*
X126261827Y-82446763D01*
X126261815Y-82446778D01*
X125711270Y-83109773D01*
X125711237Y-83109815D01*
X125191920Y-83797502D01*
X125191906Y-83797520D01*
X125191903Y-83797526D01*
X124939744Y-84165633D01*
X124704864Y-84508516D01*
X124251192Y-85241221D01*
X124251179Y-85241243D01*
X123831835Y-85994109D01*
X123831815Y-85994146D01*
X123655639Y-86347956D01*
X123608136Y-86399193D01*
X123545074Y-86416683D01*
X112971156Y-86453784D01*
X112904048Y-86434335D01*
X112883040Y-86417466D01*
X110656890Y-84191316D01*
X110637183Y-84165633D01*
X110627783Y-84149351D01*
X110492960Y-83973646D01*
X110492954Y-83973639D01*
X110336360Y-83817045D01*
X110336353Y-83817039D01*
X110160658Y-83682224D01*
X110160656Y-83682222D01*
X110160650Y-83682218D01*
X110160645Y-83682215D01*
X110160642Y-83682213D01*
X109968857Y-83571485D01*
X109968846Y-83571480D01*
X109764239Y-83486729D01*
X109621620Y-83448515D01*
X109550312Y-83429408D01*
X109522865Y-83425794D01*
X109330743Y-83400500D01*
X109330736Y-83400500D01*
X109109264Y-83400500D01*
X109109256Y-83400500D01*
X108889688Y-83429408D01*
X108675760Y-83486729D01*
X108471153Y-83571480D01*
X108471142Y-83571485D01*
X108279357Y-83682213D01*
X108279341Y-83682224D01*
X108103646Y-83817039D01*
X108103639Y-83817045D01*
X107947045Y-83973639D01*
X107947039Y-83973646D01*
X107812224Y-84149341D01*
X107812213Y-84149357D01*
X107701485Y-84341142D01*
X107701480Y-84341153D01*
X107616729Y-84545760D01*
X107559408Y-84759688D01*
X107530500Y-84979256D01*
X107530500Y-85200743D01*
X107559408Y-85420311D01*
X107616729Y-85634239D01*
X107701480Y-85838846D01*
X107701485Y-85838857D01*
X107812213Y-86030642D01*
X107812224Y-86030658D01*
X107947039Y-86206353D01*
X107947045Y-86206360D01*
X108000536Y-86259851D01*
X108034021Y-86321174D01*
X108029037Y-86390866D01*
X107987165Y-86446799D01*
X107921701Y-86471216D01*
X107913290Y-86471531D01*
X106296935Y-86477202D01*
X106229827Y-86457753D01*
X106183887Y-86405110D01*
X106172500Y-86353203D01*
X106172500Y-79265379D01*
X106192185Y-79198340D01*
X106244989Y-79152585D01*
X106312683Y-79142440D01*
X106442264Y-79159500D01*
X106442271Y-79159500D01*
X106663729Y-79159500D01*
X106663736Y-79159500D01*
X106883312Y-79130592D01*
X107097237Y-79073271D01*
X107264620Y-79003938D01*
X107312073Y-78994500D01*
X108460927Y-78994500D01*
X108508380Y-79003939D01*
X108675760Y-79073270D01*
X108675761Y-79073270D01*
X108675763Y-79073271D01*
X108889688Y-79130592D01*
X109109264Y-79159500D01*
X109109271Y-79159500D01*
X109330729Y-79159500D01*
X109330736Y-79159500D01*
X109550312Y-79130592D01*
X109764237Y-79073271D01*
X109931620Y-79003938D01*
X109979073Y-78994500D01*
X112270927Y-78994500D01*
X112318380Y-79003939D01*
X112485760Y-79073270D01*
X112485761Y-79073270D01*
X112485763Y-79073271D01*
X112699688Y-79130592D01*
X112919264Y-79159500D01*
X112919271Y-79159500D01*
X113140729Y-79159500D01*
X113140736Y-79159500D01*
X113360312Y-79130592D01*
X113574237Y-79073271D01*
X113778850Y-78988518D01*
X113970650Y-78877782D01*
X114146355Y-78742959D01*
X114302959Y-78586355D01*
X114437782Y-78410650D01*
X114548518Y-78218850D01*
X114558016Y-78195921D01*
X114624584Y-78035210D01*
X114651464Y-77994981D01*
X115130000Y-77516445D01*
X115130000Y-77522661D01*
X115157259Y-77624394D01*
X115209920Y-77715606D01*
X115284394Y-77790080D01*
X115375606Y-77842741D01*
X115477339Y-77870000D01*
X115483553Y-77870000D01*
X114804076Y-78549474D01*
X114848650Y-78581859D01*
X115030968Y-78674755D01*
X115225582Y-78737990D01*
X115427683Y-78770000D01*
X115632317Y-78770000D01*
X115834417Y-78737990D01*
X116029031Y-78674755D01*
X116211349Y-78581859D01*
X116255921Y-78549474D01*
X115576447Y-77870000D01*
X115582661Y-77870000D01*
X115684394Y-77842741D01*
X115775606Y-77790080D01*
X115850080Y-77715606D01*
X115902741Y-77624394D01*
X115930000Y-77522661D01*
X115930000Y-77516447D01*
X116609474Y-78195921D01*
X116641859Y-78151349D01*
X116734755Y-77969031D01*
X116797990Y-77774417D01*
X116830000Y-77572317D01*
X116830000Y-77367682D01*
X116797990Y-77165582D01*
X116734755Y-76970968D01*
X116641857Y-76788647D01*
X116630278Y-76772709D01*
X116630276Y-76772707D01*
X116609474Y-76744077D01*
X116609474Y-76744076D01*
X115930000Y-77423551D01*
X115930000Y-77417339D01*
X115902741Y-77315606D01*
X115850080Y-77224394D01*
X115775606Y-77149920D01*
X115684394Y-77097259D01*
X115582661Y-77070000D01*
X115576446Y-77070000D01*
X115942574Y-76703872D01*
X119284500Y-76703872D01*
X119284500Y-76966127D01*
X119301765Y-77097259D01*
X119318730Y-77226116D01*
X119386602Y-77479418D01*
X119386605Y-77479428D01*
X119486953Y-77721690D01*
X119486958Y-77721700D01*
X119618075Y-77948803D01*
X119777718Y-78156851D01*
X119777726Y-78156860D01*
X119963140Y-78342274D01*
X119963148Y-78342281D01*
X120171196Y-78501924D01*
X120398299Y-78633041D01*
X120398309Y-78633046D01*
X120599578Y-78716414D01*
X120640581Y-78733398D01*
X120893884Y-78801270D01*
X121153880Y-78835500D01*
X121153887Y-78835500D01*
X121416113Y-78835500D01*
X121416120Y-78835500D01*
X121676116Y-78801270D01*
X121929419Y-78733398D01*
X122171697Y-78633043D01*
X122398803Y-78501924D01*
X122606851Y-78342282D01*
X122606855Y-78342277D01*
X122606860Y-78342274D01*
X122792274Y-78156860D01*
X122792277Y-78156855D01*
X122792282Y-78156851D01*
X122951924Y-77948803D01*
X123083043Y-77721697D01*
X123183398Y-77479419D01*
X123251270Y-77226116D01*
X123285500Y-76966120D01*
X123285500Y-76703880D01*
X123251270Y-76443884D01*
X123183398Y-76190581D01*
X123170005Y-76158248D01*
X123083046Y-75948309D01*
X123083041Y-75948299D01*
X122951924Y-75721196D01*
X122792281Y-75513148D01*
X122792274Y-75513140D01*
X122606860Y-75327726D01*
X122606851Y-75327718D01*
X122398803Y-75168075D01*
X122171700Y-75036958D01*
X122171690Y-75036953D01*
X121929428Y-74936605D01*
X121929421Y-74936603D01*
X121929419Y-74936602D01*
X121676116Y-74868730D01*
X121611501Y-74860223D01*
X121416127Y-74834500D01*
X121416120Y-74834500D01*
X121153880Y-74834500D01*
X121153872Y-74834500D01*
X120922772Y-74864926D01*
X120893884Y-74868730D01*
X120647747Y-74934682D01*
X120640581Y-74936602D01*
X120640571Y-74936605D01*
X120398309Y-75036953D01*
X120398299Y-75036958D01*
X120171196Y-75168075D01*
X119963148Y-75327718D01*
X119777718Y-75513148D01*
X119618075Y-75721196D01*
X119486958Y-75948299D01*
X119486953Y-75948309D01*
X119386605Y-76190571D01*
X119386602Y-76190581D01*
X119342910Y-76353645D01*
X119318730Y-76443885D01*
X119284500Y-76703872D01*
X115942574Y-76703872D01*
X116255922Y-76390524D01*
X116254989Y-76378673D01*
X116231917Y-76348754D01*
X116225936Y-76279140D01*
X116258541Y-76217345D01*
X116291173Y-76193278D01*
X116378346Y-76148861D01*
X116378347Y-76148861D01*
X116422921Y-76116474D01*
X115743447Y-75437000D01*
X115749661Y-75437000D01*
X115851394Y-75409741D01*
X115942606Y-75357080D01*
X116017080Y-75282606D01*
X116069741Y-75191394D01*
X116097000Y-75089661D01*
X116097000Y-75083448D01*
X116776474Y-75762922D01*
X116776474Y-75762921D01*
X116808859Y-75718349D01*
X116901755Y-75536031D01*
X116964990Y-75341417D01*
X116997000Y-75139317D01*
X116997000Y-74934682D01*
X116964990Y-74732582D01*
X116901755Y-74537968D01*
X116808859Y-74355650D01*
X116776474Y-74311077D01*
X116776474Y-74311076D01*
X116097000Y-74990551D01*
X116097000Y-74984339D01*
X116069741Y-74882606D01*
X116017080Y-74791394D01*
X115942606Y-74716920D01*
X115851394Y-74664259D01*
X115749661Y-74637000D01*
X115743446Y-74637000D01*
X116221981Y-74158464D01*
X116262210Y-74131584D01*
X116445841Y-74055522D01*
X116445844Y-74055520D01*
X116445850Y-74055518D01*
X116637650Y-73944782D01*
X116813355Y-73809959D01*
X116969959Y-73653355D01*
X117104782Y-73477650D01*
X117215518Y-73285850D01*
X117300271Y-73081237D01*
X117357592Y-72867312D01*
X117386500Y-72647736D01*
X117386500Y-72426264D01*
X117357592Y-72206688D01*
X117300271Y-71992763D01*
X117215518Y-71788150D01*
X117215516Y-71788147D01*
X117215514Y-71788142D01*
X117104786Y-71596357D01*
X117104782Y-71596350D01*
X116994994Y-71453271D01*
X116969960Y-71420646D01*
X116969954Y-71420639D01*
X116813360Y-71264045D01*
X116813353Y-71264039D01*
X116637658Y-71129224D01*
X116637656Y-71129222D01*
X116637650Y-71129218D01*
X116637645Y-71129215D01*
X116637642Y-71129213D01*
X116445857Y-71018485D01*
X116445845Y-71018480D01*
X116365569Y-70985228D01*
X116311166Y-70941387D01*
X116289101Y-70875093D01*
X116293057Y-70859589D01*
X116291437Y-70859462D01*
X116295921Y-70802474D01*
X115616447Y-70123000D01*
X115622661Y-70123000D01*
X115724394Y-70095741D01*
X115815606Y-70043080D01*
X115890080Y-69968606D01*
X115942741Y-69877394D01*
X115970000Y-69775661D01*
X115970000Y-69769448D01*
X116649474Y-70448922D01*
X116649474Y-70448921D01*
X116681859Y-70404349D01*
X116774755Y-70222031D01*
X116837990Y-70027417D01*
X116870000Y-69825317D01*
X116870000Y-69620682D01*
X116837990Y-69418582D01*
X116774755Y-69223968D01*
X116681859Y-69041650D01*
X116649474Y-68997077D01*
X116649474Y-68997076D01*
X115970000Y-69676551D01*
X115970000Y-69670339D01*
X115942741Y-69568606D01*
X115890080Y-69477394D01*
X115815606Y-69402920D01*
X115724394Y-69350259D01*
X115622661Y-69323000D01*
X115616446Y-69323000D01*
X116295922Y-68643524D01*
X116295921Y-68643523D01*
X116251359Y-68611147D01*
X116251350Y-68611141D01*
X116069031Y-68518244D01*
X115874417Y-68455009D01*
X115672317Y-68423000D01*
X115467683Y-68423000D01*
X115265582Y-68455009D01*
X115070968Y-68518244D01*
X114888644Y-68611143D01*
X114844077Y-68643523D01*
X114844077Y-68643524D01*
X115523554Y-69323000D01*
X115517339Y-69323000D01*
X115415606Y-69350259D01*
X115324394Y-69402920D01*
X115249920Y-69477394D01*
X115197259Y-69568606D01*
X115170000Y-69670339D01*
X115170000Y-69676553D01*
X114490524Y-68997077D01*
X114490523Y-68997077D01*
X114458143Y-69041644D01*
X114365244Y-69223968D01*
X114302009Y-69418582D01*
X114270000Y-69620682D01*
X114270000Y-69825317D01*
X114302009Y-70027417D01*
X114365244Y-70222031D01*
X114458141Y-70404350D01*
X114458147Y-70404359D01*
X114490523Y-70448921D01*
X114490524Y-70448922D01*
X115170000Y-69769446D01*
X115170000Y-69775661D01*
X115197259Y-69877394D01*
X115249920Y-69968606D01*
X115324394Y-70043080D01*
X115415606Y-70095741D01*
X115517339Y-70123000D01*
X115523553Y-70123000D01*
X114844076Y-70802474D01*
X114888657Y-70834864D01*
X114892803Y-70837405D01*
X114891773Y-70839085D01*
X114936514Y-70881346D01*
X114953304Y-70949168D01*
X114930761Y-71015301D01*
X114891419Y-71051235D01*
X114756350Y-71129218D01*
X114756341Y-71129224D01*
X114579633Y-71264817D01*
X114572203Y-71270752D01*
X114429855Y-71374175D01*
X114429852Y-71374178D01*
X113117681Y-72686350D01*
X113056358Y-72719835D01*
X112986666Y-72714851D01*
X112942319Y-72686350D01*
X109698603Y-69442634D01*
X109698601Y-69442631D01*
X109651046Y-69395077D01*
X109651013Y-69395016D01*
X109491344Y-69235350D01*
X109491335Y-69235342D01*
X109223646Y-69015660D01*
X109223644Y-69015658D01*
X109223641Y-69015656D01*
X108935710Y-68823270D01*
X108935704Y-68823267D01*
X108630299Y-68660029D01*
X108630295Y-68660028D01*
X108310371Y-68527515D01*
X108310363Y-68527512D01*
X107978982Y-68426992D01*
X107978976Y-68426991D01*
X107864704Y-68404262D01*
X107639331Y-68359436D01*
X107639327Y-68359435D01*
X107639324Y-68359435D01*
X107639317Y-68359434D01*
X107303429Y-68326356D01*
X107302705Y-68326174D01*
X107302327Y-68326243D01*
X107268129Y-68317514D01*
X107170609Y-68277120D01*
X107116206Y-68233279D01*
X107094141Y-68166985D01*
X107111420Y-68099286D01*
X107162557Y-68051675D01*
X107170597Y-68048003D01*
X107271437Y-68006234D01*
X107324003Y-67984461D01*
X107324006Y-67984459D01*
X107324012Y-67984457D01*
X107521488Y-67870444D01*
X107702393Y-67731631D01*
X107863631Y-67570393D01*
X108002444Y-67389488D01*
X108116457Y-67192012D01*
X108203719Y-66981344D01*
X108262736Y-66761088D01*
X108292500Y-66535013D01*
X108292500Y-66306987D01*
X108262736Y-66080912D01*
X108203719Y-65860656D01*
X108116457Y-65649988D01*
X108082688Y-65591499D01*
X108066216Y-65523601D01*
X108089068Y-65457574D01*
X108143989Y-65414383D01*
X108190076Y-65405500D01*
X108863911Y-65405500D01*
X108864612Y-65405472D01*
X108936882Y-65405473D01*
X109330466Y-65371044D01*
X109719552Y-65302443D01*
X110101179Y-65200192D01*
X110101189Y-65200188D01*
X110101197Y-65200186D01*
X110323936Y-65119117D01*
X110472441Y-65065068D01*
X110830514Y-64898101D01*
X111172672Y-64700561D01*
X111231826Y-64659140D01*
X111298030Y-64636815D01*
X111365797Y-64653825D01*
G37*
%TD.AperFunction*%
%TA.AperFunction,Conductor*%
G36*
X115297000Y-75089661D02*
G01*
X115324259Y-75191394D01*
X115376920Y-75282606D01*
X115451394Y-75357080D01*
X115542606Y-75409741D01*
X115644339Y-75437000D01*
X115650553Y-75437000D01*
X114971076Y-76116474D01*
X114972009Y-76128325D01*
X114995083Y-76158248D01*
X115001062Y-76227862D01*
X114968456Y-76289657D01*
X114935828Y-76313720D01*
X114848648Y-76358141D01*
X114848645Y-76358143D01*
X114804077Y-76390523D01*
X114804077Y-76390524D01*
X115483554Y-77070000D01*
X115477339Y-77070000D01*
X115375606Y-77097259D01*
X115284394Y-77149920D01*
X115209920Y-77224394D01*
X115157259Y-77315606D01*
X115130000Y-77417339D01*
X115130000Y-77423553D01*
X114651463Y-76945016D01*
X114624583Y-76904787D01*
X114548522Y-76721158D01*
X114548514Y-76721142D01*
X114437786Y-76529357D01*
X114437782Y-76529350D01*
X114437778Y-76529345D01*
X114437775Y-76529340D01*
X114425443Y-76513269D01*
X114302961Y-76353647D01*
X114298068Y-76348754D01*
X114236993Y-76287679D01*
X114203510Y-76226359D01*
X114208494Y-76156667D01*
X114236993Y-76112320D01*
X114302959Y-76046355D01*
X114437782Y-75870650D01*
X114465969Y-75821827D01*
X114516534Y-75773614D01*
X114583084Y-75760211D01*
X114617525Y-75762921D01*
X115297000Y-75083446D01*
X115297000Y-75089661D01*
G37*
%TD.AperFunction*%
%TA.AperFunction,Conductor*%
G36*
X107286247Y-71405441D02*
G01*
X107291874Y-71407148D01*
X107314327Y-71416447D01*
X107374185Y-71448441D01*
X107374999Y-71448876D01*
X107395212Y-71462382D01*
X107452968Y-71509781D01*
X107461984Y-71517953D01*
X111415269Y-75471238D01*
X111442149Y-75511466D01*
X111511480Y-75678846D01*
X111511485Y-75678857D01*
X111558045Y-75759500D01*
X111574518Y-75827400D01*
X111551666Y-75893427D01*
X111496744Y-75936617D01*
X111450658Y-75945500D01*
X109979073Y-75945500D01*
X109931620Y-75936061D01*
X109764239Y-75866729D01*
X109600497Y-75822855D01*
X109550312Y-75809408D01*
X109522865Y-75805794D01*
X109330743Y-75780500D01*
X109330736Y-75780500D01*
X109109264Y-75780500D01*
X109109256Y-75780500D01*
X108889688Y-75809408D01*
X108675760Y-75866729D01*
X108508380Y-75936061D01*
X108460927Y-75945500D01*
X107312073Y-75945500D01*
X107264620Y-75936061D01*
X107097239Y-75866729D01*
X106933497Y-75822855D01*
X106883312Y-75809408D01*
X106855865Y-75805794D01*
X106663743Y-75780500D01*
X106663736Y-75780500D01*
X106442264Y-75780500D01*
X106442258Y-75780500D01*
X106442253Y-75780501D01*
X106312685Y-75797559D01*
X106243650Y-75786793D01*
X106191394Y-75740413D01*
X106172500Y-75674620D01*
X106172500Y-71645379D01*
X106192185Y-71578340D01*
X106244989Y-71532585D01*
X106312683Y-71522440D01*
X106442264Y-71539500D01*
X106442271Y-71539500D01*
X106663729Y-71539500D01*
X106663736Y-71539500D01*
X106883312Y-71510592D01*
X107097237Y-71453271D01*
X107202808Y-71409541D01*
X107272274Y-71402073D01*
X107286247Y-71405441D01*
G37*
%TD.AperFunction*%
%TA.AperFunction,Conductor*%
G36*
X157659418Y-52832816D02*
G01*
X157874216Y-52848178D01*
X157891725Y-52850696D01*
X158017358Y-52878026D01*
X158078681Y-52911511D01*
X158112166Y-52972834D01*
X158115000Y-52999192D01*
X158115000Y-62726629D01*
X158095315Y-62793668D01*
X158082422Y-62810403D01*
X157911073Y-62997396D01*
X157907332Y-63001303D01*
X156898369Y-64010266D01*
X156898140Y-64010512D01*
X156807948Y-64100706D01*
X156488616Y-64464831D01*
X156488604Y-64464847D01*
X156193758Y-64849093D01*
X156193757Y-64849095D01*
X155924670Y-65251811D01*
X155682501Y-65671256D01*
X155468284Y-66105644D01*
X155468280Y-66105651D01*
X155282930Y-66553125D01*
X155137566Y-66981351D01*
X155127248Y-67011748D01*
X155077002Y-67199264D01*
X155001890Y-67479580D01*
X155001889Y-67479584D01*
X154907399Y-67954609D01*
X154907399Y-67954610D01*
X154844177Y-68434816D01*
X154821935Y-68774164D01*
X154797908Y-68839773D01*
X154794321Y-68844393D01*
X153687977Y-70201852D01*
X153630365Y-70241382D01*
X153593976Y-70247495D01*
X148601788Y-70332832D01*
X148534422Y-70314296D01*
X148487772Y-70262282D01*
X148476647Y-70193303D01*
X148504582Y-70129261D01*
X148542040Y-70099055D01*
X148687380Y-70022776D01*
X149179968Y-69724997D01*
X149653677Y-69398019D01*
X150106780Y-69043036D01*
X150537623Y-68661343D01*
X150651951Y-68547015D01*
X150651990Y-68546979D01*
X151145516Y-68053453D01*
X151145535Y-68053442D01*
X151181843Y-68017134D01*
X151385348Y-67813628D01*
X151767042Y-67382785D01*
X152122025Y-66929681D01*
X152449003Y-66455971D01*
X152746782Y-65963383D01*
X153014277Y-65453714D01*
X153250510Y-64928824D01*
X153454620Y-64390629D01*
X153625862Y-63841091D01*
X153763612Y-63282216D01*
X153867366Y-62716044D01*
X153936747Y-62144641D01*
X153971500Y-61570091D01*
X153971500Y-61282290D01*
X153971500Y-61162310D01*
X153971500Y-60737690D01*
X153988112Y-60675691D01*
X154084598Y-60508574D01*
X154100948Y-60469103D01*
X154124817Y-60411476D01*
X154166466Y-60310924D01*
X154210306Y-60256522D01*
X154276601Y-60234457D01*
X154344300Y-60251736D01*
X154368708Y-60270697D01*
X154474037Y-60376026D01*
X154527088Y-60411473D01*
X154613337Y-60469103D01*
X154768118Y-60533216D01*
X154932428Y-60565899D01*
X154932432Y-60565900D01*
X154932433Y-60565900D01*
X155099968Y-60565900D01*
X155099969Y-60565899D01*
X155264282Y-60533216D01*
X155419063Y-60469103D01*
X155558362Y-60376026D01*
X155676826Y-60257562D01*
X155769903Y-60118263D01*
X155834016Y-59963482D01*
X155866700Y-59799167D01*
X155866700Y-59631633D01*
X155834016Y-59467318D01*
X155769903Y-59312537D01*
X155723297Y-59242786D01*
X155676826Y-59173237D01*
X155558362Y-59054773D01*
X155419060Y-58961695D01*
X155264282Y-58897584D01*
X155264274Y-58897582D01*
X155099971Y-58864900D01*
X155099967Y-58864900D01*
X154932433Y-58864900D01*
X154932428Y-58864900D01*
X154768125Y-58897582D01*
X154768117Y-58897584D01*
X154613339Y-58961695D01*
X154474038Y-59054773D01*
X154368708Y-59160103D01*
X154307385Y-59193587D01*
X154237693Y-59188603D01*
X154181760Y-59146731D01*
X154166466Y-59119873D01*
X154084602Y-58922234D01*
X154084597Y-58922225D01*
X154005816Y-58785772D01*
X153989344Y-58717875D01*
X154012196Y-58651847D01*
X154067117Y-58608657D01*
X154077201Y-58605116D01*
X154095800Y-58599475D01*
X154415735Y-58466953D01*
X154721141Y-58303711D01*
X155009075Y-58111319D01*
X155276764Y-57891632D01*
X155521632Y-57646764D01*
X155741319Y-57379075D01*
X155933711Y-57091141D01*
X156096953Y-56785735D01*
X156229475Y-56465800D01*
X156329999Y-56134417D01*
X156330001Y-56134407D01*
X156330004Y-56134396D01*
X156397558Y-55794774D01*
X156398027Y-55790008D01*
X156431500Y-55450148D01*
X156431500Y-55277000D01*
X156431500Y-55157019D01*
X156431500Y-54512019D01*
X156427227Y-54485040D01*
X156425700Y-54465640D01*
X156425700Y-53938168D01*
X156389024Y-53706607D01*
X156335783Y-53542749D01*
X156316574Y-53483630D01*
X156316572Y-53483627D01*
X156316572Y-53483625D01*
X156210134Y-53274731D01*
X156202887Y-53264757D01*
X156191806Y-53249505D01*
X156168327Y-53183700D01*
X156184152Y-53115646D01*
X156234258Y-53066951D01*
X156302736Y-53053075D01*
X156311499Y-53054143D01*
X156440020Y-53074500D01*
X156440022Y-53074500D01*
X156679979Y-53074500D01*
X156679980Y-53074500D01*
X156916988Y-53036961D01*
X157145205Y-52962810D01*
X157359012Y-52853870D01*
X157359016Y-52853866D01*
X157359020Y-52853865D01*
X157363168Y-52851324D01*
X157364292Y-52853158D01*
X157375883Y-52849024D01*
X157393781Y-52837523D01*
X157417829Y-52834065D01*
X157421655Y-52832701D01*
X157428716Y-52832500D01*
X157545014Y-52832500D01*
X157650572Y-52832500D01*
X157659418Y-52832816D01*
G37*
%TD.AperFunction*%
%TA.AperFunction,Conductor*%
G36*
X110161393Y-59299904D02*
G01*
X110214845Y-59344900D01*
X110235485Y-59411651D01*
X110235498Y-59413419D01*
X110235500Y-59474922D01*
X110235500Y-60735639D01*
X110235498Y-60735693D01*
X110235499Y-60856314D01*
X110235234Y-60864423D01*
X110223410Y-61044861D01*
X110221293Y-61060942D01*
X110186813Y-61234299D01*
X110182615Y-61249967D01*
X110125802Y-61417338D01*
X110119595Y-61432323D01*
X110041424Y-61590843D01*
X110033314Y-61604891D01*
X109935116Y-61751858D01*
X109925242Y-61764726D01*
X109806309Y-61900345D01*
X109800764Y-61906265D01*
X109785583Y-61921447D01*
X109779657Y-61926998D01*
X109643709Y-62046219D01*
X109630841Y-62056093D01*
X109483880Y-62154287D01*
X109469832Y-62162397D01*
X109311310Y-62240569D01*
X109296325Y-62246776D01*
X109128960Y-62303587D01*
X109113293Y-62307785D01*
X108939940Y-62342265D01*
X108923858Y-62344382D01*
X108742981Y-62356234D01*
X108734872Y-62356499D01*
X108624090Y-62356498D01*
X108619399Y-62356498D01*
X108619398Y-62356498D01*
X108614692Y-62356498D01*
X108614640Y-62356500D01*
X108027402Y-62356500D01*
X107960363Y-62336815D01*
X107949365Y-62328865D01*
X107890126Y-62280893D01*
X107890123Y-62280891D01*
X107723522Y-62196005D01*
X107542912Y-62147611D01*
X107465263Y-62141500D01*
X107465258Y-62141500D01*
X105640742Y-62141500D01*
X105640736Y-62141500D01*
X105563087Y-62147611D01*
X105563086Y-62147611D01*
X105382477Y-62196005D01*
X105215877Y-62280890D01*
X105070564Y-62398564D01*
X104952890Y-62543877D01*
X104868005Y-62710477D01*
X104819611Y-62891086D01*
X104819611Y-62891087D01*
X104813500Y-62968736D01*
X104813500Y-64793263D01*
X104819611Y-64870912D01*
X104819611Y-64870913D01*
X104868005Y-65051522D01*
X104952890Y-65218122D01*
X104980171Y-65251811D01*
X105049786Y-65337778D01*
X105066214Y-65358064D01*
X105093106Y-65422551D01*
X105080864Y-65491340D01*
X105077235Y-65498100D01*
X104989546Y-65649980D01*
X104989541Y-65649991D01*
X104902284Y-65860648D01*
X104902279Y-65860662D01*
X104843264Y-66080912D01*
X104837620Y-66123779D01*
X104809352Y-66187675D01*
X104802362Y-66195273D01*
X104600978Y-66396658D01*
X104539655Y-66430143D01*
X104469964Y-66425159D01*
X104414030Y-66383288D01*
X104389613Y-66317823D01*
X104389297Y-66308977D01*
X104389297Y-61387092D01*
X104408982Y-61320053D01*
X104461786Y-61274298D01*
X104530944Y-61264354D01*
X104588781Y-61288715D01*
X104702674Y-61376108D01*
X104702681Y-61376112D01*
X104905818Y-61493394D01*
X104905823Y-61493396D01*
X104905826Y-61493398D01*
X105042487Y-61550005D01*
X105090998Y-61570099D01*
X105122550Y-61583168D01*
X105349137Y-61643881D01*
X105581710Y-61674500D01*
X105581717Y-61674500D01*
X107016283Y-61674500D01*
X107016290Y-61674500D01*
X107248863Y-61643881D01*
X107475450Y-61583168D01*
X107692174Y-61493398D01*
X107895326Y-61376108D01*
X108081431Y-61233304D01*
X108247304Y-61067431D01*
X108390108Y-60881326D01*
X108507398Y-60678174D01*
X108597168Y-60461450D01*
X108657881Y-60234863D01*
X108688500Y-60002290D01*
X108688500Y-59767710D01*
X108657881Y-59535137D01*
X108639247Y-59465592D01*
X108640910Y-59395744D01*
X108680072Y-59337881D01*
X108744301Y-59310377D01*
X108759022Y-59309500D01*
X109974985Y-59309500D01*
X110044075Y-59298556D01*
X110092100Y-59290950D01*
X110161393Y-59299904D01*
G37*
%TD.AperFunction*%
%TA.AperFunction,Conductor*%
G36*
X129567961Y-59200914D02*
G01*
X129623894Y-59242786D01*
X129648311Y-59308250D01*
X129642817Y-59354607D01*
X129620662Y-59424412D01*
X129620660Y-59424418D01*
X129619620Y-59427698D01*
X129616638Y-59447387D01*
X129616382Y-59448854D01*
X129616124Y-59449374D01*
X129613655Y-59460875D01*
X129613122Y-59462780D01*
X129608109Y-59477206D01*
X129600958Y-59494307D01*
X129600955Y-59494313D01*
X129579216Y-59583523D01*
X129578145Y-59587616D01*
X129557991Y-59659553D01*
X129553368Y-59676052D01*
X129551221Y-59694458D01*
X129548539Y-59709412D01*
X129548070Y-59711339D01*
X129543554Y-59725920D01*
X129536997Y-59743238D01*
X129536996Y-59743239D01*
X129518313Y-59833145D01*
X129517382Y-59837270D01*
X129495636Y-59926514D01*
X129494120Y-59944974D01*
X129491939Y-59960065D01*
X129491535Y-59962008D01*
X129487531Y-59976682D01*
X129481564Y-59994229D01*
X129481561Y-59994241D01*
X129465964Y-60084709D01*
X129465174Y-60088868D01*
X129446489Y-60178789D01*
X129445602Y-60197311D01*
X129443940Y-60212453D01*
X129443603Y-60214407D01*
X129440101Y-60229218D01*
X129434738Y-60246954D01*
X129422234Y-60337932D01*
X129421586Y-60342115D01*
X129405981Y-60432625D01*
X129405729Y-60451138D01*
X129404581Y-60466369D01*
X129404311Y-60468329D01*
X129401321Y-60483220D01*
X129396565Y-60501134D01*
X129396564Y-60501141D01*
X129393267Y-60533215D01*
X129386958Y-60594590D01*
X129374166Y-60687663D01*
X129374700Y-60713812D01*
X129373926Y-60721350D01*
X129373926Y-60721351D01*
X129373724Y-60723325D01*
X129371235Y-60738397D01*
X129367092Y-60756473D01*
X129360679Y-60850223D01*
X129351075Y-60943659D01*
X129352502Y-60969767D01*
X129351982Y-60977380D01*
X129351980Y-60977384D01*
X129351980Y-60977414D01*
X129351843Y-60979409D01*
X129349876Y-60994471D01*
X129346355Y-61012663D01*
X129343220Y-61104442D01*
X129343217Y-61104532D01*
X129343145Y-61106592D01*
X129336737Y-61200291D01*
X129338991Y-61225626D01*
X129338724Y-61233303D01*
X129337637Y-61236577D01*
X129337191Y-61248883D01*
X129334894Y-61263003D01*
X129334894Y-61263005D01*
X129334493Y-61358297D01*
X129334422Y-61361993D01*
X129334287Y-61365959D01*
X129333980Y-61371428D01*
X129333947Y-61371849D01*
X129333947Y-61373828D01*
X129333875Y-61378060D01*
X129331651Y-61443193D01*
X129331170Y-61457262D01*
X129333011Y-61472157D01*
X129333947Y-61487366D01*
X129333947Y-61488376D01*
X129333945Y-61488896D01*
X129333622Y-61566219D01*
X129333457Y-61605421D01*
X129333605Y-61607405D01*
X129333947Y-61616607D01*
X129333947Y-63969421D01*
X129327878Y-64007739D01*
X129247612Y-64254768D01*
X129247612Y-64254771D01*
X129206947Y-64511518D01*
X129206947Y-64771481D01*
X129247611Y-65028227D01*
X129327943Y-65275460D01*
X129394202Y-65405500D01*
X129445957Y-65507075D01*
X129598753Y-65717380D01*
X129782567Y-65901194D01*
X129992872Y-66053990D01*
X130067489Y-66092009D01*
X130224486Y-66172003D01*
X130224488Y-66172003D01*
X130224491Y-66172005D01*
X130244695Y-66178569D01*
X130302369Y-66218007D01*
X130329567Y-66282366D01*
X130317652Y-66351213D01*
X130270407Y-66402688D01*
X130206375Y-66420500D01*
X123890519Y-66420500D01*
X123823480Y-66400815D01*
X123777725Y-66348011D01*
X123767781Y-66278853D01*
X123796806Y-66215297D01*
X123852198Y-66178569D01*
X123872403Y-66172005D01*
X123872590Y-66171910D01*
X123921684Y-66146895D01*
X124104022Y-66053990D01*
X124314327Y-65901194D01*
X124498141Y-65717380D01*
X124650937Y-65507075D01*
X124737200Y-65337772D01*
X124759999Y-65306393D01*
X125397447Y-64668945D01*
X125397447Y-64691660D01*
X125423411Y-64788561D01*
X125473571Y-64875440D01*
X125544507Y-64946376D01*
X125631386Y-64996536D01*
X125728287Y-65022500D01*
X125751000Y-65022500D01*
X125079730Y-65693768D01*
X125079730Y-65693769D01*
X125117014Y-65720858D01*
X125294009Y-65811042D01*
X125482924Y-65872424D01*
X125679126Y-65903500D01*
X125877768Y-65903500D01*
X126073967Y-65872424D01*
X126073970Y-65872424D01*
X126262884Y-65811042D01*
X126439872Y-65720862D01*
X126477163Y-65693768D01*
X125805895Y-65022500D01*
X125828607Y-65022500D01*
X125925508Y-64996536D01*
X126012387Y-64946376D01*
X126083323Y-64875440D01*
X126133483Y-64788561D01*
X126159447Y-64691660D01*
X126159447Y-64668947D01*
X126830715Y-65340215D01*
X126857809Y-65302925D01*
X126947989Y-65125937D01*
X127009371Y-64937023D01*
X127009371Y-64937020D01*
X127040447Y-64740821D01*
X127040447Y-64542178D01*
X127009371Y-64345979D01*
X127009371Y-64345976D01*
X126947989Y-64157062D01*
X126857805Y-63980067D01*
X126830715Y-63942783D01*
X126159447Y-64614051D01*
X126159447Y-64591340D01*
X126133483Y-64494439D01*
X126083323Y-64407560D01*
X126012387Y-64336624D01*
X125925508Y-64286464D01*
X125828607Y-64260500D01*
X125805893Y-64260500D01*
X126477162Y-63589230D01*
X126439879Y-63562141D01*
X126262884Y-63471957D01*
X126073969Y-63410575D01*
X125877768Y-63379500D01*
X125679126Y-63379500D01*
X125589975Y-63393620D01*
X125520681Y-63384665D01*
X125467229Y-63339669D01*
X125446590Y-63272918D01*
X125465315Y-63205604D01*
X125482892Y-63183470D01*
X129436948Y-59229413D01*
X129498269Y-59195930D01*
X129567961Y-59200914D01*
G37*
%TD.AperFunction*%
%TA.AperFunction,Conductor*%
G36*
X143895385Y-59574716D02*
G01*
X143899347Y-59574147D01*
X143927743Y-59587115D01*
X143956894Y-59598285D01*
X143959263Y-59601509D01*
X143962903Y-59603172D01*
X143979778Y-59629431D01*
X143998264Y-59654590D01*
X143999136Y-59659553D01*
X144000677Y-59661950D01*
X144005700Y-59696885D01*
X144005700Y-59799171D01*
X144038382Y-59963474D01*
X144038384Y-59963482D01*
X144102495Y-60118260D01*
X144195573Y-60257562D01*
X144314037Y-60376026D01*
X144367088Y-60411473D01*
X144453337Y-60469103D01*
X144608118Y-60533216D01*
X144772428Y-60565899D01*
X144772432Y-60565900D01*
X144772433Y-60565900D01*
X144939968Y-60565900D01*
X144939969Y-60565899D01*
X145104282Y-60533216D01*
X145259063Y-60469103D01*
X145398362Y-60376026D01*
X145503692Y-60270695D01*
X145565013Y-60237212D01*
X145634705Y-60242196D01*
X145690639Y-60284067D01*
X145705933Y-60310925D01*
X145787800Y-60508570D01*
X145787805Y-60508581D01*
X145905087Y-60711718D01*
X145905092Y-60711726D01*
X146022261Y-60864423D01*
X146047900Y-60897836D01*
X146213763Y-61063699D01*
X146213767Y-61063702D01*
X146213769Y-61063704D01*
X146399874Y-61206508D01*
X146399881Y-61206512D01*
X146603018Y-61323794D01*
X146603023Y-61323796D01*
X146603026Y-61323798D01*
X146695237Y-61361993D01*
X146818255Y-61412949D01*
X146819750Y-61413568D01*
X147046337Y-61474281D01*
X147278910Y-61504900D01*
X147278917Y-61504900D01*
X147513483Y-61504900D01*
X147513490Y-61504900D01*
X147746063Y-61474281D01*
X147972650Y-61413568D01*
X147972661Y-61413563D01*
X147975566Y-61412785D01*
X147982459Y-61412949D01*
X147988700Y-61410018D01*
X148016936Y-61413769D01*
X148045416Y-61414448D01*
X148051126Y-61418312D01*
X148057961Y-61419221D01*
X148079687Y-61437643D01*
X148103279Y-61453610D01*
X148105992Y-61459947D01*
X148111252Y-61464407D01*
X148119570Y-61491654D01*
X148130783Y-61517839D01*
X148130127Y-61526234D01*
X148131653Y-61531232D01*
X148127004Y-61566219D01*
X148115833Y-61605828D01*
X148112825Y-61615088D01*
X147967386Y-62009316D01*
X147963660Y-62018311D01*
X147787740Y-62399912D01*
X147783319Y-62408587D01*
X147578013Y-62775187D01*
X147572926Y-62783489D01*
X147339477Y-63132869D01*
X147333754Y-63140746D01*
X147073615Y-63470731D01*
X147067292Y-63478134D01*
X146780353Y-63788542D01*
X146776978Y-63792052D01*
X146282567Y-64286464D01*
X145837108Y-64731923D01*
X145837107Y-64731924D01*
X145780470Y-64788561D01*
X145753992Y-64815039D01*
X145750482Y-64818413D01*
X145440136Y-65105294D01*
X145432733Y-65111617D01*
X145102749Y-65371756D01*
X145094872Y-65377479D01*
X144745491Y-65610928D01*
X144737189Y-65616015D01*
X144370589Y-65821321D01*
X144361914Y-65825742D01*
X143980313Y-66001663D01*
X143971318Y-66005389D01*
X143577089Y-66150828D01*
X143567829Y-66153836D01*
X143163422Y-66267891D01*
X143153954Y-66270164D01*
X142741838Y-66352139D01*
X142732222Y-66353662D01*
X142314945Y-66403051D01*
X142305238Y-66403815D01*
X141883023Y-66420404D01*
X141878155Y-66420500D01*
X139130519Y-66420500D01*
X139063480Y-66400815D01*
X139017725Y-66348011D01*
X139007781Y-66278853D01*
X139036806Y-66215297D01*
X139092198Y-66178569D01*
X139112403Y-66172005D01*
X139112590Y-66171910D01*
X139161684Y-66146895D01*
X139344022Y-66053990D01*
X139554327Y-65901194D01*
X139738141Y-65717380D01*
X139890937Y-65507075D01*
X140008952Y-65275456D01*
X140089282Y-65028227D01*
X140105026Y-64928824D01*
X140129947Y-64771481D01*
X140129947Y-64511518D01*
X140094301Y-64286464D01*
X140089282Y-64254773D01*
X140089281Y-64254769D01*
X140089281Y-64254768D01*
X140009016Y-64007739D01*
X140002947Y-63969421D01*
X140002947Y-63475145D01*
X140003213Y-63467035D01*
X140007658Y-63399220D01*
X140015039Y-63286602D01*
X140017154Y-63270535D01*
X140051641Y-63097159D01*
X140055834Y-63081512D01*
X140112655Y-62914120D01*
X140118852Y-62899158D01*
X140197037Y-62740615D01*
X140205139Y-62726580D01*
X140303350Y-62579596D01*
X140313211Y-62566745D01*
X140432386Y-62430848D01*
X140437905Y-62424956D01*
X141870434Y-60992428D01*
X141873289Y-60989665D01*
X142225923Y-60659388D01*
X142231994Y-60654064D01*
X142603886Y-60348861D01*
X142610319Y-60343926D01*
X143001358Y-60063711D01*
X143008099Y-60059208D01*
X143416628Y-59805168D01*
X143423634Y-59801124D01*
X143823249Y-59587526D01*
X143827165Y-59586711D01*
X143830189Y-59584091D01*
X143861089Y-59579647D01*
X143891650Y-59573285D01*
X143895385Y-59574716D01*
G37*
%TD.AperFunction*%
%TA.AperFunction,Conductor*%
G36*
X143361800Y-45555860D02*
G01*
X143362379Y-45555900D01*
X143436262Y-45555900D01*
X143501832Y-45555934D01*
X143501959Y-45555900D01*
X147111700Y-45555900D01*
X147178739Y-45575585D01*
X147224494Y-45628389D01*
X147235700Y-45679900D01*
X147235700Y-46144095D01*
X147270303Y-46318058D01*
X147270306Y-46318067D01*
X147338183Y-46481940D01*
X147338190Y-46481953D01*
X147436735Y-46629434D01*
X147436738Y-46629438D01*
X147448416Y-46641116D01*
X147481901Y-46702439D01*
X147476917Y-46772131D01*
X147435045Y-46828064D01*
X147433621Y-46829115D01*
X147258946Y-46956024D01*
X146994307Y-47194307D01*
X146756024Y-47458946D01*
X146756017Y-47458955D01*
X146546706Y-47747047D01*
X146546703Y-47747052D01*
X146368654Y-48055442D01*
X146368651Y-48055449D01*
X146223804Y-48380781D01*
X146113762Y-48719458D01*
X146113761Y-48719459D01*
X146039724Y-49067779D01*
X146039723Y-49067780D01*
X146009929Y-49351262D01*
X145983345Y-49415877D01*
X145926047Y-49455862D01*
X145856228Y-49458522D01*
X145796055Y-49423013D01*
X145764991Y-49362492D01*
X145754017Y-49307325D01*
X145754016Y-49307318D01*
X145689903Y-49152537D01*
X145633270Y-49067780D01*
X145596826Y-49013237D01*
X145478362Y-48894773D01*
X145339060Y-48801695D01*
X145184282Y-48737584D01*
X145184274Y-48737582D01*
X145019971Y-48704900D01*
X145019967Y-48704900D01*
X144852433Y-48704900D01*
X144852428Y-48704900D01*
X144688125Y-48737582D01*
X144688117Y-48737584D01*
X144533339Y-48801695D01*
X144394037Y-48894773D01*
X144275573Y-49013237D01*
X144182495Y-49152539D01*
X144118384Y-49307317D01*
X144118382Y-49307325D01*
X144085700Y-49471628D01*
X144085700Y-49518900D01*
X144066015Y-49585939D01*
X144013211Y-49631694D01*
X143961700Y-49642900D01*
X137772043Y-49642900D01*
X137771968Y-49642878D01*
X137492171Y-49642878D01*
X137036360Y-49675482D01*
X136584032Y-49740520D01*
X136137512Y-49837656D01*
X135699042Y-49966406D01*
X135270867Y-50126110D01*
X134855200Y-50315943D01*
X134454118Y-50534954D01*
X134454116Y-50534955D01*
X134069697Y-50782009D01*
X133703871Y-51055866D01*
X133358523Y-51355114D01*
X133358498Y-51355137D01*
X133274723Y-51438913D01*
X123291257Y-61422377D01*
X123242496Y-61452430D01*
X123231861Y-61455945D01*
X123231857Y-61455947D01*
X123018623Y-61565963D01*
X123018613Y-61565969D01*
X123018610Y-61565970D01*
X123018610Y-61565971D01*
X122984740Y-61590843D01*
X122825194Y-61708002D01*
X122762883Y-61770946D01*
X122762884Y-61770947D01*
X122758243Y-61775634D01*
X122728001Y-61800312D01*
X122673985Y-61860751D01*
X122671745Y-61863015D01*
X122671745Y-61863016D01*
X122616913Y-61918410D01*
X122616896Y-61918430D01*
X122614724Y-61921452D01*
X122608984Y-61928833D01*
X122603729Y-61935087D01*
X122592913Y-61944974D01*
X122545970Y-62003833D01*
X122544935Y-62005066D01*
X122544791Y-62005161D01*
X122542456Y-62007927D01*
X122493325Y-62062904D01*
X122488262Y-62070764D01*
X122483012Y-62078286D01*
X122478227Y-62084627D01*
X122466149Y-62096981D01*
X122422451Y-62158562D01*
X122421346Y-62160028D01*
X122421207Y-62160130D01*
X122419302Y-62162663D01*
X122373332Y-62220306D01*
X122373321Y-62220322D01*
X122368710Y-62228447D01*
X122363895Y-62236244D01*
X122359470Y-62242849D01*
X122348110Y-62255853D01*
X122307922Y-62319804D01*
X122306911Y-62321315D01*
X122306778Y-62321425D01*
X122305017Y-62324062D01*
X122262350Y-62384194D01*
X122262347Y-62384199D01*
X122258198Y-62392572D01*
X122253822Y-62400639D01*
X122249781Y-62407471D01*
X122239153Y-62421110D01*
X122202622Y-62487202D01*
X122201694Y-62488772D01*
X122201566Y-62488891D01*
X122199958Y-62491618D01*
X122160734Y-62554041D01*
X122157047Y-62562664D01*
X122153135Y-62570949D01*
X122149478Y-62578006D01*
X122139640Y-62592209D01*
X122106884Y-62660222D01*
X122106033Y-62661866D01*
X122105914Y-62661989D01*
X122104460Y-62664806D01*
X122068794Y-62729338D01*
X122068787Y-62729352D01*
X122065602Y-62738137D01*
X122062159Y-62746637D01*
X122058905Y-62753884D01*
X122049879Y-62768616D01*
X122020979Y-62838381D01*
X122020235Y-62840040D01*
X122020122Y-62840171D01*
X122018828Y-62843064D01*
X121986834Y-62909499D01*
X121986830Y-62909510D01*
X121984142Y-62918461D01*
X121981180Y-62927143D01*
X121978340Y-62934555D01*
X121970155Y-62949768D01*
X121945213Y-63021039D01*
X121944562Y-63022741D01*
X121944456Y-63022879D01*
X121943327Y-63025838D01*
X121915103Y-63093976D01*
X121912920Y-63103068D01*
X121910449Y-63111904D01*
X121908029Y-63119464D01*
X121900708Y-63135116D01*
X121879803Y-63207670D01*
X121879247Y-63209410D01*
X121879149Y-63209553D01*
X121878187Y-63212573D01*
X121853832Y-63282171D01*
X121853830Y-63282181D01*
X121852160Y-63291381D01*
X121845245Y-63315385D01*
X121841760Y-63324073D01*
X121841759Y-63324078D01*
X121825347Y-63395978D01*
X121824561Y-63399220D01*
X121824117Y-63400947D01*
X121803207Y-63473526D01*
X121801078Y-63490683D01*
X121799105Y-63498368D01*
X121798129Y-63500007D01*
X121796495Y-63507167D01*
X121793504Y-63516033D01*
X121793502Y-63516041D01*
X121781151Y-63588722D01*
X121780549Y-63592002D01*
X121780196Y-63593785D01*
X121763389Y-63667423D01*
X121762226Y-63684663D01*
X121760686Y-63692453D01*
X121759803Y-63694144D01*
X121758574Y-63701380D01*
X121756087Y-63710391D01*
X121756086Y-63710394D01*
X121747831Y-63783653D01*
X121746859Y-63790537D01*
X121734509Y-63863223D01*
X121734508Y-63863231D01*
X121734403Y-63872586D01*
X121733794Y-63883541D01*
X121733092Y-63890539D01*
X121729628Y-63906549D01*
X121727251Y-63948852D01*
X121726981Y-63951555D01*
X121723883Y-63959190D01*
X121714085Y-63995487D01*
X121707940Y-64007546D01*
X121627612Y-64254768D01*
X121627612Y-64254771D01*
X121586947Y-64511518D01*
X121586947Y-64771481D01*
X121627611Y-65028227D01*
X121707943Y-65275460D01*
X121774202Y-65405500D01*
X121825957Y-65507075D01*
X121978753Y-65717380D01*
X122162567Y-65901194D01*
X122248163Y-65963383D01*
X122349045Y-66036679D01*
X122361779Y-66053193D01*
X122378015Y-66066277D01*
X122382683Y-66080302D01*
X122391710Y-66092009D01*
X122393494Y-66112784D01*
X122400080Y-66132571D01*
X122396424Y-66146895D01*
X122397689Y-66161623D01*
X122387958Y-66180064D01*
X122382801Y-66200271D01*
X122371981Y-66210344D01*
X122365083Y-66223418D01*
X122346924Y-66233672D01*
X122331663Y-66247881D01*
X122317116Y-66250505D01*
X122304244Y-66257775D01*
X122283426Y-66256584D01*
X122262904Y-66260287D01*
X122238280Y-66254001D01*
X122234488Y-66253785D01*
X122228728Y-66251566D01*
X122088892Y-66193645D01*
X122051158Y-66178015D01*
X122038630Y-66171982D01*
X121807850Y-66044434D01*
X121796076Y-66037036D01*
X121581031Y-65884454D01*
X121570159Y-65875784D01*
X121370960Y-65697769D01*
X121365906Y-65692990D01*
X119711661Y-64038745D01*
X119688857Y-64007358D01*
X119664314Y-63959190D01*
X119637493Y-63906549D01*
X119570938Y-63775926D01*
X119547984Y-63744333D01*
X119418141Y-63565620D01*
X119234327Y-63381806D01*
X119024022Y-63229010D01*
X119007479Y-63220581D01*
X118792407Y-63110996D01*
X118545174Y-63030664D01*
X118288428Y-62990000D01*
X118288423Y-62990000D01*
X118028471Y-62990000D01*
X118028466Y-62990000D01*
X117771719Y-63030664D01*
X117524486Y-63110996D01*
X117292871Y-63229010D01*
X117219640Y-63282216D01*
X117082567Y-63381806D01*
X117082565Y-63381808D01*
X117082564Y-63381808D01*
X116898755Y-63565617D01*
X116898755Y-63565618D01*
X116898753Y-63565620D01*
X116835129Y-63653190D01*
X116745957Y-63775924D01*
X116659696Y-63945220D01*
X116636892Y-63976606D01*
X115999447Y-64614051D01*
X115999447Y-64591340D01*
X115973483Y-64494439D01*
X115923323Y-64407560D01*
X115852387Y-64336624D01*
X115765508Y-64286464D01*
X115668607Y-64260500D01*
X115645894Y-64260500D01*
X116317163Y-63589231D01*
X116317162Y-63589230D01*
X116279879Y-63562141D01*
X116102884Y-63471957D01*
X115913969Y-63410575D01*
X115717768Y-63379500D01*
X115519126Y-63379500D01*
X115322926Y-63410575D01*
X115322923Y-63410575D01*
X115134009Y-63471957D01*
X114957011Y-63562143D01*
X114919730Y-63589229D01*
X114919729Y-63589230D01*
X115591001Y-64260500D01*
X115568287Y-64260500D01*
X115471386Y-64286464D01*
X115384507Y-64336624D01*
X115313571Y-64407560D01*
X115263411Y-64494439D01*
X115237447Y-64591340D01*
X115237447Y-64614053D01*
X114599999Y-63976605D01*
X114577196Y-63945220D01*
X114499154Y-63792052D01*
X114490938Y-63775926D01*
X114443326Y-63710394D01*
X114338141Y-63565620D01*
X114154327Y-63381806D01*
X113944022Y-63229010D01*
X113927479Y-63220581D01*
X113712407Y-63110996D01*
X113465174Y-63030664D01*
X113208428Y-62990000D01*
X113208423Y-62990000D01*
X112953825Y-62990000D01*
X112886786Y-62970315D01*
X112841031Y-62917511D01*
X112831087Y-62848353D01*
X112841442Y-62813597D01*
X112944095Y-62593451D01*
X113006820Y-62421110D01*
X113079213Y-62222205D01*
X113079215Y-62222197D01*
X113079219Y-62222187D01*
X113181471Y-61840558D01*
X113229562Y-61567800D01*
X113260586Y-61505201D01*
X113320533Y-61469310D01*
X113383767Y-61469559D01*
X113490584Y-61498181D01*
X113723157Y-61528800D01*
X113723164Y-61528800D01*
X113957730Y-61528800D01*
X113957737Y-61528800D01*
X114190310Y-61498181D01*
X114416897Y-61437468D01*
X114633621Y-61347698D01*
X114836773Y-61230408D01*
X115022878Y-61087604D01*
X115188751Y-60921731D01*
X115331555Y-60735626D01*
X115448845Y-60532474D01*
X115538615Y-60315750D01*
X115599328Y-60089163D01*
X115629947Y-59856590D01*
X115629947Y-59622010D01*
X115599328Y-59389437D01*
X115538615Y-59162850D01*
X115538610Y-59162840D01*
X115538609Y-59162834D01*
X115512563Y-59099952D01*
X115505094Y-59030483D01*
X115536370Y-58968004D01*
X115596459Y-58932352D01*
X115627124Y-58928500D01*
X116653600Y-58928500D01*
X116653613Y-58928502D01*
X116767507Y-58928500D01*
X116779657Y-58929097D01*
X116854204Y-58936438D01*
X116878045Y-58941180D01*
X116919830Y-58953854D01*
X116943874Y-58961148D01*
X116966327Y-58970447D01*
X117026185Y-59002441D01*
X117026999Y-59002876D01*
X117047212Y-59016382D01*
X117095511Y-59056020D01*
X117134845Y-59113766D01*
X117136716Y-59183610D01*
X117093500Y-59344900D01*
X117081567Y-59389434D01*
X117081565Y-59389445D01*
X117050947Y-59622002D01*
X117050947Y-59856597D01*
X117069069Y-59994241D01*
X117081566Y-60089163D01*
X117142279Y-60315749D01*
X117142282Y-60315759D01*
X117232047Y-60532470D01*
X117232052Y-60532481D01*
X117349334Y-60735618D01*
X117349339Y-60735626D01*
X117461133Y-60881318D01*
X117492147Y-60921736D01*
X117658010Y-61087599D01*
X117658014Y-61087602D01*
X117658016Y-61087604D01*
X117844121Y-61230408D01*
X117844128Y-61230412D01*
X118047265Y-61347694D01*
X118047270Y-61347696D01*
X118047273Y-61347698D01*
X118125066Y-61379921D01*
X118206782Y-61413769D01*
X118263997Y-61437468D01*
X118490584Y-61498181D01*
X118723157Y-61528800D01*
X118723164Y-61528800D01*
X118957730Y-61528800D01*
X118957737Y-61528800D01*
X119190310Y-61498181D01*
X119416897Y-61437468D01*
X119633621Y-61347698D01*
X119836773Y-61230408D01*
X120022878Y-61087604D01*
X120188751Y-60921731D01*
X120331555Y-60735626D01*
X120448845Y-60532474D01*
X120538615Y-60315750D01*
X120599328Y-60089163D01*
X120629947Y-59856590D01*
X120629947Y-59622010D01*
X120599328Y-59389437D01*
X120538615Y-59162850D01*
X120538608Y-59162834D01*
X120473100Y-59004683D01*
X120448845Y-58946126D01*
X120448843Y-58946123D01*
X120448841Y-58946118D01*
X120333928Y-58747085D01*
X120331555Y-58742974D01*
X120291986Y-58691407D01*
X120268747Y-58640114D01*
X120263443Y-58613449D01*
X120162918Y-58282069D01*
X120030397Y-57962139D01*
X120030393Y-57962131D01*
X119867157Y-57656736D01*
X119674766Y-57368802D01*
X119455079Y-57101111D01*
X119421830Y-57067863D01*
X119417489Y-57063522D01*
X119417485Y-57063516D01*
X119354931Y-57000962D01*
X119354917Y-57000947D01*
X119303048Y-56949079D01*
X119303014Y-56949017D01*
X119143344Y-56789350D01*
X119143335Y-56789342D01*
X119138931Y-56785728D01*
X118875646Y-56569660D01*
X118875644Y-56569658D01*
X118875641Y-56569656D01*
X118587710Y-56377270D01*
X118587704Y-56377267D01*
X118282299Y-56214029D01*
X118282295Y-56214028D01*
X117962371Y-56081515D01*
X117962363Y-56081512D01*
X117630982Y-55980992D01*
X117630976Y-55980991D01*
X117516704Y-55958262D01*
X117291331Y-55913436D01*
X117291327Y-55913435D01*
X117291324Y-55913435D01*
X117291315Y-55913434D01*
X117088151Y-55893426D01*
X116946701Y-55879497D01*
X116946698Y-55879497D01*
X116773552Y-55879500D01*
X113712831Y-55879500D01*
X113683412Y-55870861D01*
X113653450Y-55864357D01*
X113648405Y-55860582D01*
X113645792Y-55859815D01*
X113625187Y-55843218D01*
X113575718Y-55793749D01*
X113575565Y-55793638D01*
X113571969Y-55790045D01*
X113571965Y-55790039D01*
X113571932Y-55790008D01*
X113507069Y-55725145D01*
X113507068Y-55725144D01*
X113507061Y-55725137D01*
X113176961Y-55443199D01*
X113176949Y-55443190D01*
X113014133Y-55324895D01*
X112971467Y-55269565D01*
X112965489Y-55199952D01*
X112998095Y-55138157D01*
X113058934Y-55103800D01*
X113128690Y-55107790D01*
X113134472Y-55110017D01*
X113257951Y-55161164D01*
X113263997Y-55163668D01*
X113490584Y-55224381D01*
X113723157Y-55255000D01*
X113723164Y-55255000D01*
X113957730Y-55255000D01*
X113957737Y-55255000D01*
X114190310Y-55224381D01*
X114416897Y-55163668D01*
X114633621Y-55073898D01*
X114836773Y-54956608D01*
X115014962Y-54819877D01*
X115080128Y-54794684D01*
X115148573Y-54808722D01*
X115165932Y-54819878D01*
X115186054Y-54835318D01*
X115344122Y-54956608D01*
X115344129Y-54956612D01*
X115547266Y-55073894D01*
X115547271Y-55073896D01*
X115547274Y-55073898D01*
X115603388Y-55097141D01*
X115757952Y-55161164D01*
X115763998Y-55163668D01*
X115990585Y-55224381D01*
X116223158Y-55255000D01*
X116223165Y-55255000D01*
X116457731Y-55255000D01*
X116457738Y-55255000D01*
X116690311Y-55224381D01*
X116916898Y-55163668D01*
X117133622Y-55073898D01*
X117336774Y-54956608D01*
X117514962Y-54819878D01*
X117580128Y-54794685D01*
X117648573Y-54808723D01*
X117665932Y-54819879D01*
X117822984Y-54940389D01*
X117844121Y-54956608D01*
X117844128Y-54956612D01*
X118047265Y-55073894D01*
X118047270Y-55073896D01*
X118047273Y-55073898D01*
X118103387Y-55097141D01*
X118257951Y-55161164D01*
X118263997Y-55163668D01*
X118490584Y-55224381D01*
X118723157Y-55255000D01*
X118723164Y-55255000D01*
X118957730Y-55255000D01*
X118957737Y-55255000D01*
X119190310Y-55224381D01*
X119416897Y-55163668D01*
X119633621Y-55073898D01*
X119836773Y-54956608D01*
X120022878Y-54813804D01*
X120188751Y-54647931D01*
X120331555Y-54461826D01*
X120448845Y-54258674D01*
X120538615Y-54041950D01*
X120599328Y-53815363D01*
X120629947Y-53582790D01*
X120629947Y-53348210D01*
X120599328Y-53115637D01*
X120538615Y-52889050D01*
X120521947Y-52848811D01*
X120474064Y-52733210D01*
X120448845Y-52672326D01*
X120448843Y-52672323D01*
X120448841Y-52672318D01*
X120331559Y-52469181D01*
X120331555Y-52469174D01*
X120194825Y-52290985D01*
X120169632Y-52225818D01*
X120183670Y-52157373D01*
X120194822Y-52140018D01*
X120331555Y-51961826D01*
X120448845Y-51758674D01*
X120538615Y-51541950D01*
X120599328Y-51315363D01*
X120629947Y-51082790D01*
X120629947Y-50848210D01*
X120599328Y-50615637D01*
X120538615Y-50389050D01*
X120448845Y-50172326D01*
X120448843Y-50172323D01*
X120448841Y-50172318D01*
X120331559Y-49969181D01*
X120331555Y-49969174D01*
X120188751Y-49783069D01*
X120188749Y-49783067D01*
X120188746Y-49783063D01*
X120022883Y-49617200D01*
X120022878Y-49617196D01*
X119836773Y-49474392D01*
X119836767Y-49474388D01*
X119836765Y-49474387D01*
X119633628Y-49357105D01*
X119633617Y-49357100D01*
X119416906Y-49267335D01*
X119416899Y-49267333D01*
X119416897Y-49267332D01*
X119190310Y-49206619D01*
X119151442Y-49201501D01*
X118957744Y-49176000D01*
X118957737Y-49176000D01*
X118723157Y-49176000D01*
X118723149Y-49176000D01*
X118501779Y-49205145D01*
X118490584Y-49206619D01*
X118263997Y-49267332D01*
X118263987Y-49267335D01*
X118047276Y-49357100D01*
X118047265Y-49357105D01*
X117844128Y-49474387D01*
X117844112Y-49474398D01*
X117665933Y-49611120D01*
X117600764Y-49636314D01*
X117532319Y-49622276D01*
X117514961Y-49611120D01*
X117336781Y-49474398D01*
X117336774Y-49474393D01*
X117336773Y-49474392D01*
X117336768Y-49474389D01*
X117336765Y-49474387D01*
X117133628Y-49357105D01*
X117133617Y-49357100D01*
X116916906Y-49267335D01*
X116916899Y-49267333D01*
X116916897Y-49267332D01*
X116690310Y-49206619D01*
X116651442Y-49201501D01*
X116457744Y-49176000D01*
X116457737Y-49176000D01*
X116223157Y-49176000D01*
X116223149Y-49176000D01*
X116001779Y-49205145D01*
X115990584Y-49206619D01*
X115763997Y-49267332D01*
X115763987Y-49267335D01*
X115547276Y-49357100D01*
X115547265Y-49357105D01*
X115344128Y-49474387D01*
X115344115Y-49474396D01*
X115316975Y-49495221D01*
X115251805Y-49520413D01*
X115183361Y-49506373D01*
X115159241Y-49488539D01*
X115158900Y-49488946D01*
X115154759Y-49485472D01*
X115154755Y-49485469D01*
X115154750Y-49485464D01*
X114962756Y-49351028D01*
X114962755Y-49351027D01*
X114962753Y-49351026D01*
X114850236Y-49298559D01*
X114750333Y-49251973D01*
X114750329Y-49251972D01*
X114750325Y-49251970D01*
X114523942Y-49191312D01*
X114523932Y-49191310D01*
X114348935Y-49176000D01*
X113331961Y-49176000D01*
X113331957Y-49176001D01*
X113191957Y-49188249D01*
X113156957Y-49191311D01*
X113156954Y-49191311D01*
X112930568Y-49251970D01*
X112930559Y-49251974D01*
X112718140Y-49351026D01*
X112625524Y-49415877D01*
X112526144Y-49485464D01*
X112526142Y-49485465D01*
X112526139Y-49485468D01*
X112360415Y-49651192D01*
X112360412Y-49651195D01*
X112360411Y-49651197D01*
X112299351Y-49738398D01*
X112225973Y-49843193D01*
X112126921Y-50055612D01*
X112126917Y-50055621D01*
X112066259Y-50282004D01*
X112066257Y-50282014D01*
X112050947Y-50457011D01*
X112050947Y-51473985D01*
X112050948Y-51473989D01*
X112066258Y-51648988D01*
X112066258Y-51648992D01*
X112126917Y-51875378D01*
X112126919Y-51875382D01*
X112126920Y-51875386D01*
X112160388Y-51947158D01*
X112225973Y-52087806D01*
X112225974Y-52087808D01*
X112225975Y-52087809D01*
X112360411Y-52279803D01*
X112360416Y-52279808D01*
X112360419Y-52279812D01*
X112363893Y-52283953D01*
X112362766Y-52284898D01*
X112392956Y-52340186D01*
X112387972Y-52409878D01*
X112370168Y-52442028D01*
X112349343Y-52469168D01*
X112349334Y-52469181D01*
X112232052Y-52672318D01*
X112232047Y-52672329D01*
X112142282Y-52889040D01*
X112142279Y-52889050D01*
X112089269Y-53086891D01*
X112081567Y-53115634D01*
X112081565Y-53115645D01*
X112050947Y-53348202D01*
X112050947Y-53582797D01*
X112075501Y-53769297D01*
X112081566Y-53815363D01*
X112133464Y-54009051D01*
X112142279Y-54041949D01*
X112142282Y-54041959D01*
X112232047Y-54258670D01*
X112232052Y-54258681D01*
X112291983Y-54362483D01*
X112349339Y-54461826D01*
X112453814Y-54597980D01*
X112492147Y-54647936D01*
X112618206Y-54773995D01*
X112651691Y-54835318D01*
X112646707Y-54905010D01*
X112604835Y-54960943D01*
X112539371Y-54985360D01*
X112471098Y-54970508D01*
X112465736Y-54967404D01*
X112455622Y-54961206D01*
X112455605Y-54961196D01*
X112068828Y-54764119D01*
X112068813Y-54764113D01*
X112025651Y-54746234D01*
X111667751Y-54597982D01*
X111254885Y-54463830D01*
X110832766Y-54362483D01*
X110832760Y-54362482D01*
X110404002Y-54294568D01*
X110403990Y-54294567D01*
X109971225Y-54260503D01*
X109971213Y-54260502D01*
X109877235Y-54260501D01*
X109877235Y-54260500D01*
X109874127Y-54260500D01*
X109754164Y-54260500D01*
X109634183Y-54260499D01*
X109634182Y-54260499D01*
X109629073Y-54260499D01*
X109629049Y-54260500D01*
X108528810Y-54260500D01*
X108461771Y-54240815D01*
X108416016Y-54188011D01*
X108406072Y-54118853D01*
X108406337Y-54117102D01*
X108438500Y-53914030D01*
X108438500Y-53655969D01*
X108398130Y-53401083D01*
X108318385Y-53155650D01*
X108318383Y-53155645D01*
X108257430Y-53036020D01*
X108237285Y-52996485D01*
X108224389Y-52927818D01*
X108249393Y-52864708D01*
X108390108Y-52681326D01*
X108507398Y-52478174D01*
X108597168Y-52261450D01*
X108657881Y-52034863D01*
X108688500Y-51802290D01*
X108688500Y-51567710D01*
X108657881Y-51335137D01*
X108597168Y-51108550D01*
X108507398Y-50891826D01*
X108507396Y-50891823D01*
X108507394Y-50891818D01*
X108390112Y-50688681D01*
X108390108Y-50688674D01*
X108247304Y-50502569D01*
X108247302Y-50502567D01*
X108247299Y-50502563D01*
X108081436Y-50336700D01*
X108010168Y-50282014D01*
X107895326Y-50193892D01*
X107895320Y-50193888D01*
X107895318Y-50193887D01*
X107692181Y-50076605D01*
X107692170Y-50076600D01*
X107475459Y-49986835D01*
X107475452Y-49986833D01*
X107475450Y-49986832D01*
X107248863Y-49926119D01*
X107209995Y-49921001D01*
X107016297Y-49895500D01*
X107016290Y-49895500D01*
X105581710Y-49895500D01*
X105581702Y-49895500D01*
X105360332Y-49924645D01*
X105349137Y-49926119D01*
X105175945Y-49972525D01*
X105122550Y-49986832D01*
X105122540Y-49986835D01*
X104905829Y-50076600D01*
X104905818Y-50076605D01*
X104729355Y-50178487D01*
X104661455Y-50194960D01*
X104595428Y-50172107D01*
X104552237Y-50117186D01*
X104545596Y-50047633D01*
X104548983Y-50034167D01*
X104843960Y-49089117D01*
X104853427Y-49066763D01*
X104929448Y-48927165D01*
X105364172Y-48128872D01*
X107219500Y-48128872D01*
X107219500Y-48391127D01*
X107240436Y-48550140D01*
X107253730Y-48651116D01*
X107321602Y-48904418D01*
X107321605Y-48904428D01*
X107421953Y-49146690D01*
X107421958Y-49146700D01*
X107553075Y-49373803D01*
X107712718Y-49581851D01*
X107712726Y-49581860D01*
X107898140Y-49767274D01*
X107898148Y-49767281D01*
X108106196Y-49926924D01*
X108333299Y-50058041D01*
X108333309Y-50058046D01*
X108561342Y-50152500D01*
X108575581Y-50158398D01*
X108828884Y-50226270D01*
X109088880Y-50260500D01*
X109088887Y-50260500D01*
X109351113Y-50260500D01*
X109351120Y-50260500D01*
X109611116Y-50226270D01*
X109864419Y-50158398D01*
X110053662Y-50080011D01*
X110106690Y-50058046D01*
X110106691Y-50058045D01*
X110106697Y-50058043D01*
X110333803Y-49926924D01*
X110541851Y-49767282D01*
X110541855Y-49767277D01*
X110541860Y-49767274D01*
X110727274Y-49581860D01*
X110727277Y-49581855D01*
X110727282Y-49581851D01*
X110886924Y-49373803D01*
X111018043Y-49146697D01*
X111118398Y-48904419D01*
X111186270Y-48651116D01*
X111220500Y-48391120D01*
X111220500Y-48128880D01*
X111186270Y-47868884D01*
X111118398Y-47615581D01*
X111065294Y-47487376D01*
X111018046Y-47373309D01*
X111018041Y-47373299D01*
X110886927Y-47146201D01*
X110806224Y-47041028D01*
X110806222Y-47041025D01*
X110752975Y-46971633D01*
X110752971Y-46971628D01*
X144085700Y-46971628D01*
X144085700Y-47139171D01*
X144118382Y-47303474D01*
X144118384Y-47303482D01*
X144182495Y-47458260D01*
X144275573Y-47597562D01*
X144394037Y-47716026D01*
X144440464Y-47747047D01*
X144533337Y-47809103D01*
X144688118Y-47873216D01*
X144852428Y-47905899D01*
X144852432Y-47905900D01*
X144852433Y-47905900D01*
X145019968Y-47905900D01*
X145019969Y-47905899D01*
X145184282Y-47873216D01*
X145339063Y-47809103D01*
X145478362Y-47716026D01*
X145596826Y-47597562D01*
X145689903Y-47458263D01*
X145754016Y-47303482D01*
X145786700Y-47139167D01*
X145786700Y-46971633D01*
X145754016Y-46807318D01*
X145689903Y-46652537D01*
X145640614Y-46578771D01*
X145596826Y-46513237D01*
X145478362Y-46394773D01*
X145339060Y-46301695D01*
X145184282Y-46237584D01*
X145184274Y-46237582D01*
X145019971Y-46204900D01*
X145019967Y-46204900D01*
X144852433Y-46204900D01*
X144852428Y-46204900D01*
X144688125Y-46237582D01*
X144688117Y-46237584D01*
X144533339Y-46301695D01*
X144394037Y-46394773D01*
X144275573Y-46513237D01*
X144182495Y-46652539D01*
X144118384Y-46807317D01*
X144118382Y-46807325D01*
X144085700Y-46971628D01*
X110752971Y-46971628D01*
X110727282Y-46938149D01*
X110727281Y-46938148D01*
X110727274Y-46938140D01*
X110541860Y-46752726D01*
X110541851Y-46752718D01*
X110333803Y-46593075D01*
X110106700Y-46461958D01*
X110106690Y-46461953D01*
X109864428Y-46361605D01*
X109864421Y-46361603D01*
X109864419Y-46361602D01*
X109611116Y-46293730D01*
X109553339Y-46286123D01*
X109351127Y-46259500D01*
X109351120Y-46259500D01*
X109088880Y-46259500D01*
X109088872Y-46259500D01*
X108857772Y-46289926D01*
X108828884Y-46293730D01*
X108738057Y-46318067D01*
X108575581Y-46361602D01*
X108575571Y-46361605D01*
X108333309Y-46461953D01*
X108333299Y-46461958D01*
X108106196Y-46593075D01*
X107898148Y-46752718D01*
X107712718Y-46938148D01*
X107553075Y-47146196D01*
X107421958Y-47373299D01*
X107421953Y-47373309D01*
X107321605Y-47615571D01*
X107321602Y-47615581D01*
X107286376Y-47747049D01*
X107253730Y-47868885D01*
X107219500Y-48128872D01*
X105364172Y-48128872D01*
X105376332Y-48106543D01*
X105389616Y-48086895D01*
X106082282Y-47248271D01*
X106098909Y-47231644D01*
X106937441Y-46539069D01*
X106957089Y-46525784D01*
X107917423Y-46002776D01*
X107939778Y-45993309D01*
X108998314Y-45662910D01*
X109022721Y-45657914D01*
X110190441Y-45539301D01*
X110203024Y-45538667D01*
X143361800Y-45555860D01*
G37*
%TD.AperFunction*%
%TA.AperFunction,Conductor*%
G36*
X143552313Y-56176185D02*
G01*
X143598068Y-56228989D01*
X143608012Y-56298147D01*
X143578987Y-56361703D01*
X143526229Y-56397540D01*
X143464926Y-56418992D01*
X143403069Y-56440636D01*
X143403063Y-56440638D01*
X142857453Y-56666636D01*
X142325375Y-56922871D01*
X142325372Y-56922872D01*
X141808486Y-57208544D01*
X141808484Y-57208545D01*
X141308427Y-57522750D01*
X140826759Y-57864511D01*
X140365031Y-58232725D01*
X139924682Y-58626244D01*
X139924673Y-58626253D01*
X139800715Y-58750210D01*
X139800714Y-58750210D01*
X139800710Y-58750215D01*
X138363974Y-60186950D01*
X138315455Y-60235469D01*
X138315437Y-60235478D01*
X138139442Y-60411476D01*
X137885492Y-60714129D01*
X137658882Y-61037764D01*
X137550005Y-61226348D01*
X137462416Y-61378060D01*
X137461335Y-61379932D01*
X137461332Y-61379937D01*
X137294372Y-61737986D01*
X137294369Y-61737994D01*
X137159243Y-62109253D01*
X137056989Y-62490871D01*
X137056987Y-62490882D01*
X136988383Y-62879950D01*
X136988383Y-62879952D01*
X136967302Y-63120904D01*
X136941849Y-63185972D01*
X136885258Y-63226951D01*
X136815496Y-63230829D01*
X136787479Y-63220581D01*
X136572407Y-63110996D01*
X136325174Y-63030664D01*
X136068428Y-62990000D01*
X136068423Y-62990000D01*
X135808471Y-62990000D01*
X135808466Y-62990000D01*
X135551719Y-63030664D01*
X135304483Y-63110997D01*
X135103241Y-63213535D01*
X135034572Y-63226431D01*
X134969832Y-63200154D01*
X134929575Y-63143048D01*
X134922947Y-63103050D01*
X134922947Y-61207665D01*
X134923096Y-61201581D01*
X134928695Y-61087599D01*
X134939382Y-60870032D01*
X134940575Y-60857928D01*
X134988833Y-60532591D01*
X134991200Y-60520689D01*
X135071124Y-60201617D01*
X135074647Y-60190006D01*
X135185449Y-59880333D01*
X135190094Y-59869118D01*
X135330728Y-59571770D01*
X135336452Y-59561062D01*
X135505543Y-59278953D01*
X135512286Y-59268860D01*
X135708217Y-59004678D01*
X135715934Y-58995277D01*
X135938850Y-58749328D01*
X135943027Y-58744940D01*
X137511371Y-57176596D01*
X137515710Y-57172464D01*
X137761742Y-56949471D01*
X137771133Y-56941766D01*
X137774403Y-56939341D01*
X138035308Y-56745838D01*
X138045396Y-56739097D01*
X138327527Y-56569992D01*
X138338228Y-56564273D01*
X138635566Y-56423641D01*
X138646771Y-56418999D01*
X138956465Y-56308187D01*
X138968073Y-56304665D01*
X139287156Y-56224736D01*
X139299043Y-56222372D01*
X139624393Y-56174109D01*
X139636496Y-56172917D01*
X139967597Y-56156648D01*
X139973682Y-56156500D01*
X143485274Y-56156500D01*
X143552313Y-56176185D01*
G37*
%TD.AperFunction*%
%TA.AperFunction,Conductor*%
G36*
X151506650Y-50708352D02*
G01*
X151555361Y-50758443D01*
X151566600Y-50788751D01*
X151581354Y-50853393D01*
X151581358Y-50853406D01*
X151688839Y-51160565D01*
X151688848Y-51160587D01*
X151830041Y-51453778D01*
X151885443Y-51541950D01*
X152003189Y-51729342D01*
X152154567Y-51919163D01*
X152206097Y-51983780D01*
X152436219Y-52213902D01*
X152537853Y-52294953D01*
X152577993Y-52352142D01*
X152580843Y-52421953D01*
X152545497Y-52482223D01*
X152483178Y-52513816D01*
X152460540Y-52515900D01*
X152325456Y-52515900D01*
X152105888Y-52544808D01*
X151891960Y-52602129D01*
X151687353Y-52686880D01*
X151687342Y-52686885D01*
X151495557Y-52797613D01*
X151495541Y-52797624D01*
X151319846Y-52932439D01*
X151319839Y-52932445D01*
X151163245Y-53089039D01*
X151163239Y-53089046D01*
X151028424Y-53264741D01*
X151028413Y-53264757D01*
X150917685Y-53456542D01*
X150917680Y-53456553D01*
X150832929Y-53661160D01*
X150775608Y-53875086D01*
X150771557Y-53905856D01*
X150743288Y-53969751D01*
X150684963Y-54008221D01*
X150615098Y-54009051D01*
X150560937Y-53977348D01*
X150478362Y-53894773D01*
X150339060Y-53801695D01*
X150184282Y-53737584D01*
X150184274Y-53737582D01*
X150019971Y-53704900D01*
X150019967Y-53704900D01*
X149852433Y-53704900D01*
X149852428Y-53704900D01*
X149688125Y-53737582D01*
X149688117Y-53737584D01*
X149533339Y-53801695D01*
X149394038Y-53894773D01*
X149323096Y-53965715D01*
X149261772Y-53999199D01*
X149192081Y-53994214D01*
X149136147Y-53952343D01*
X149112476Y-53894219D01*
X149103601Y-53826809D01*
X149101243Y-53808898D01*
X149112008Y-53739866D01*
X149158388Y-53687610D01*
X149173736Y-53679440D01*
X149480750Y-53542749D01*
X149789151Y-53364694D01*
X150077251Y-53155377D01*
X150341893Y-52917093D01*
X150580177Y-52652451D01*
X150789494Y-52364351D01*
X150967549Y-52055950D01*
X151112393Y-51730626D01*
X151222437Y-51391945D01*
X151296477Y-51043616D01*
X151321670Y-50803903D01*
X151334526Y-50772656D01*
X151346771Y-50741176D01*
X151347949Y-50740029D01*
X151348254Y-50739290D01*
X151372074Y-50716571D01*
X151372792Y-50716049D01*
X151438591Y-50692548D01*
X151506650Y-50708352D01*
G37*
%TD.AperFunction*%
%TA.AperFunction,Conductor*%
G36*
X157991174Y-45558055D02*
G01*
X158058184Y-45577833D01*
X158103866Y-45630700D01*
X158115000Y-45682055D01*
X158115000Y-49925264D01*
X158095315Y-49992303D01*
X158042511Y-50038058D01*
X157979559Y-50048735D01*
X157900850Y-50041442D01*
X157858309Y-50037500D01*
X157858306Y-50037500D01*
X157320022Y-50037500D01*
X157263726Y-50023984D01*
X157260203Y-50022189D01*
X157031989Y-49948038D01*
X156794986Y-49910500D01*
X156794981Y-49910500D01*
X156555020Y-49910500D01*
X156555015Y-49910500D01*
X156318011Y-49948038D01*
X156089797Y-50022188D01*
X156089794Y-50022189D01*
X155875979Y-50131134D01*
X155871832Y-50133676D01*
X155870707Y-50131841D01*
X155859116Y-50135975D01*
X155841219Y-50147477D01*
X155817170Y-50150934D01*
X155813345Y-50152299D01*
X155806284Y-50152500D01*
X155792105Y-50152500D01*
X155725066Y-50132815D01*
X155679311Y-50080011D01*
X155669367Y-50010853D01*
X155687390Y-49963820D01*
X155687034Y-49963630D01*
X155688549Y-49960795D01*
X155689004Y-49959608D01*
X155689903Y-49958263D01*
X155754016Y-49803482D01*
X155786700Y-49639167D01*
X155786700Y-49471633D01*
X155754016Y-49307318D01*
X155689903Y-49152537D01*
X155633270Y-49067780D01*
X155596826Y-49013237D01*
X155478362Y-48894773D01*
X155339060Y-48801695D01*
X155184282Y-48737584D01*
X155184274Y-48737582D01*
X155019971Y-48704900D01*
X155019967Y-48704900D01*
X154852433Y-48704900D01*
X154852428Y-48704900D01*
X154688125Y-48737582D01*
X154688117Y-48737584D01*
X154533339Y-48801695D01*
X154394037Y-48894773D01*
X154394036Y-48894774D01*
X154390138Y-48898673D01*
X154328813Y-48932154D01*
X154259121Y-48927165D01*
X154203190Y-48885290D01*
X154181173Y-48836769D01*
X154156237Y-48719455D01*
X154046193Y-48380774D01*
X153901349Y-48055450D01*
X153901346Y-48055446D01*
X153901345Y-48055442D01*
X153723296Y-47747052D01*
X153723293Y-47747047D01*
X153513982Y-47458955D01*
X153513975Y-47458946D01*
X153415759Y-47349866D01*
X153275693Y-47194307D01*
X153028387Y-46971632D01*
X153028383Y-46971628D01*
X154085700Y-46971628D01*
X154085700Y-47139171D01*
X154118382Y-47303474D01*
X154118384Y-47303482D01*
X154182495Y-47458260D01*
X154275573Y-47597562D01*
X154394037Y-47716026D01*
X154440464Y-47747047D01*
X154533337Y-47809103D01*
X154688118Y-47873216D01*
X154852428Y-47905899D01*
X154852432Y-47905900D01*
X154852433Y-47905900D01*
X155019968Y-47905900D01*
X155019969Y-47905899D01*
X155184282Y-47873216D01*
X155339063Y-47809103D01*
X155478362Y-47716026D01*
X155596826Y-47597562D01*
X155689903Y-47458263D01*
X155754016Y-47303482D01*
X155786700Y-47139167D01*
X155786700Y-46971633D01*
X155754016Y-46807318D01*
X155689903Y-46652537D01*
X155640614Y-46578771D01*
X155596826Y-46513237D01*
X155478362Y-46394773D01*
X155339060Y-46301695D01*
X155184282Y-46237584D01*
X155184274Y-46237582D01*
X155019971Y-46204900D01*
X155019967Y-46204900D01*
X154852433Y-46204900D01*
X154852428Y-46204900D01*
X154688125Y-46237582D01*
X154688117Y-46237584D01*
X154533339Y-46301695D01*
X154394037Y-46394773D01*
X154275573Y-46513237D01*
X154182495Y-46652539D01*
X154118384Y-46807317D01*
X154118382Y-46807325D01*
X154085700Y-46971628D01*
X153028383Y-46971628D01*
X153011053Y-46956024D01*
X153011044Y-46956017D01*
X152722952Y-46746706D01*
X152722947Y-46746703D01*
X152573751Y-46660565D01*
X152525535Y-46609998D01*
X152512312Y-46541391D01*
X152531535Y-46487416D01*
X152531344Y-46487314D01*
X152532025Y-46486038D01*
X152532650Y-46484286D01*
X152534213Y-46481947D01*
X152602094Y-46318066D01*
X152605351Y-46301695D01*
X152636699Y-46144095D01*
X152636700Y-46144093D01*
X152636700Y-45679900D01*
X152656385Y-45612861D01*
X152709189Y-45567106D01*
X152760700Y-45555900D01*
X156435987Y-45555900D01*
X157991174Y-45558055D01*
G37*
%TD.AperFunction*%
%TD*%
M02*
