%TF.GenerationSoftware,KiCad,Pcbnew,9.0.4*%
%TF.CreationDate,2025-09-18T23:21:34+02:00*%
%TF.ProjectId,X-DaysSynth,582d4461-7973-4537-996e-74682e6b6963,0.4*%
%TF.SameCoordinates,Original*%
%TF.FileFunction,Soldermask,Bot*%
%TF.FilePolarity,Negative*%
%FSLAX46Y46*%
G04 Gerber Fmt 4.6, Leading zero omitted, Abs format (unit mm)*
G04 Created by KiCad (PCBNEW 9.0.4) date 2025-09-18 23:21:34*
%MOMM*%
%LPD*%
G01*
G04 APERTURE LIST*
G04 Aperture macros list*
%AMRoundRect*
0 Rectangle with rounded corners*
0 $1 Rounding radius*
0 $2 $3 $4 $5 $6 $7 $8 $9 X,Y pos of 4 corners*
0 Add a 4 corners polygon primitive as box body*
4,1,4,$2,$3,$4,$5,$6,$7,$8,$9,$2,$3,0*
0 Add four circle primitives for the rounded corners*
1,1,$1+$1,$2,$3*
1,1,$1+$1,$4,$5*
1,1,$1+$1,$6,$7*
1,1,$1+$1,$8,$9*
0 Add four rect primitives between the rounded corners*
20,1,$1+$1,$2,$3,$4,$5,0*
20,1,$1+$1,$4,$5,$6,$7,0*
20,1,$1+$1,$6,$7,$8,$9,0*
20,1,$1+$1,$8,$9,$2,$3,0*%
%AMHorizOval*
0 Thick line with rounded ends*
0 $1 width*
0 $2 $3 position (X,Y) of the first rounded end (center of the circle)*
0 $4 $5 position (X,Y) of the second rounded end (center of the circle)*
0 Add line between two ends*
20,1,$1,$2,$3,$4,$5,0*
0 Add two circle primitives to create the rounded ends*
1,1,$1,$2,$3*
1,1,$1,$4,$5*%
G04 Aperture macros list end*
%ADD10R,1.700000X1.700000*%
%ADD11O,1.700000X1.700000*%
%ADD12C,1.200000*%
%ADD13C,1.800000*%
%ADD14O,2.200000X1.200000*%
%ADD15O,1.200000X2.200000*%
%ADD16O,1.600000X2.300000*%
%ADD17O,1.600000X2.500000*%
%ADD18C,1.600000*%
%ADD19C,1.700000*%
%ADD20R,1.600000X1.600000*%
%ADD21O,1.600000X1.600000*%
%ADD22C,10.000000*%
%ADD23R,1.524000X4.572000*%
%ADD24RoundRect,0.381000X0.381000X1.905000X-0.381000X1.905000X-0.381000X-1.905000X0.381000X-1.905000X0*%
%ADD25C,1.524000*%
%ADD26RoundRect,0.450000X0.450000X-0.450000X0.450000X0.450000X-0.450000X0.450000X-0.450000X-0.450000X0*%
%ADD27O,3.000000X1.800000*%
%ADD28R,2.500000X1.500000*%
%ADD29O,2.500000X1.500000*%
%ADD30HorizOval,2.032000X0.354204X0.204500X-0.354204X-0.204500X0*%
%ADD31HorizOval,2.032000X0.354204X-0.204500X-0.354204X0.204500X0*%
G04 APERTURE END LIST*
D10*
%TO.C,J9*%
X106553000Y-63881000D03*
D11*
X106553000Y-66421000D03*
%TD*%
D12*
%TO.C,J3*%
X155016200Y-59715400D03*
X154936200Y-49555400D03*
X154936200Y-47055400D03*
X149936200Y-54555400D03*
X144936200Y-49555400D03*
X144936200Y-47055400D03*
X144856200Y-59715400D03*
D13*
X149936200Y-59715400D03*
D14*
X149936200Y-49555400D03*
D13*
X147396200Y-59715400D03*
X152476200Y-59715400D03*
D15*
X154936200Y-54555400D03*
D16*
X152436200Y-54555400D03*
D15*
X144936200Y-54555400D03*
D17*
X147436200Y-54555400D03*
%TD*%
D18*
%TO.C,R3*%
X113030000Y-67310000D03*
X113030000Y-74930000D03*
%TD*%
%TO.C,C1*%
X113030000Y-77470000D03*
X115530000Y-77470000D03*
%TD*%
D10*
%TO.C,J4*%
X159385000Y-72390000D03*
D19*
X159385000Y-74930000D03*
X159385000Y-77470000D03*
%TD*%
D18*
%TO.C,R2*%
X106553000Y-69850000D03*
X106553000Y-77470000D03*
%TD*%
%TO.C,R8*%
X123190000Y-69723000D03*
X115570000Y-69723000D03*
%TD*%
D20*
%TO.C,D2*%
X169926000Y-78486000D03*
D21*
X169926000Y-70866000D03*
%TD*%
D18*
%TO.C,R1*%
X109220000Y-77470000D03*
X109220000Y-85090000D03*
%TD*%
D20*
%TO.C,D1*%
X173482000Y-78501000D03*
D21*
X173482000Y-70881000D03*
%TD*%
D22*
%TO.C,J1*%
X168910000Y-60960000D03*
%TD*%
D18*
%TO.C,C2*%
X115697000Y-72537000D03*
X115697000Y-75037000D03*
%TD*%
D23*
%TO.C,U1*%
X165100000Y-150114000D03*
D24*
X162559999Y-150114000D03*
X160020000Y-150114000D03*
X157479999Y-150114000D03*
X154940000Y-150114000D03*
X152399999Y-150114000D03*
X149860000Y-150114000D03*
X147320000Y-150114001D03*
X144780000Y-150114000D03*
X142240000Y-150114000D03*
X139700000Y-150114000D03*
X137160000Y-150114000D03*
X134620000Y-150114001D03*
X132080000Y-150114000D03*
X129540000Y-150114001D03*
X127000000Y-150114000D03*
X124460000Y-150114001D03*
X121920000Y-150114000D03*
X119380000Y-150114001D03*
X116840000Y-150114000D03*
X116840000Y-131826000D03*
X119380001Y-131826000D03*
X121920000Y-131826000D03*
X124460001Y-131826000D03*
X127000000Y-131826000D03*
X129540001Y-131826000D03*
X132080000Y-131826000D03*
X134620000Y-131825999D03*
X137160000Y-131826000D03*
X139700000Y-131826000D03*
X142240000Y-131826000D03*
X144780000Y-131826000D03*
X147320000Y-131825999D03*
X149860000Y-131826000D03*
X152400000Y-131825999D03*
X154940000Y-131826000D03*
X157480000Y-131825999D03*
X160020000Y-131826000D03*
X162560000Y-131825999D03*
X165100000Y-131826000D03*
%TD*%
D25*
%TO.C,AMP1*%
X138478447Y-64641500D03*
X135938447Y-64641500D03*
X133398447Y-64641500D03*
X130858447Y-64641500D03*
X125778447Y-64641500D03*
X123238447Y-64641500D03*
X118158447Y-64641500D03*
X115618447Y-64641500D03*
X113078447Y-64641500D03*
D26*
X113840447Y-50965500D03*
D13*
X116340447Y-50965500D03*
X118840447Y-50965500D03*
X113840447Y-53465500D03*
X116340448Y-53465500D03*
X118840447Y-53465500D03*
X113840447Y-59739300D03*
X118840447Y-59739300D03*
%TD*%
D27*
%TO.C,J2*%
X106299000Y-59885000D03*
X106299000Y-51685000D03*
D28*
X106299000Y-57785000D03*
D29*
X106299000Y-55785000D03*
X106299000Y-53785000D03*
%TD*%
D30*
%TO.C,LS1*%
X130715000Y-77929096D03*
D31*
X149987000Y-77929096D03*
%TD*%
M02*
