%TF.GenerationSoftware,KiCad,Pcbnew,9.0.4*%
%TF.CreationDate,2025-09-18T23:22:23+02:00*%
%TF.ProjectId,X-DaysSynth,582d4461-7973-4537-996e-74682e6b6963,0.4*%
%TF.SameCoordinates,Original*%
%TF.FileFunction,Plated,1,2,PTH,Mixed*%
%TF.FilePolarity,Positive*%
%FSLAX46Y46*%
G04 Gerber Fmt 4.6, Leading zero omitted, Abs format (unit mm)*
G04 Created by KiCad (PCBNEW 9.0.4) date 2025-09-18 23:22:23*
%MOMM*%
%LPD*%
G01*
G04 APERTURE LIST*
%TA.AperFunction,ViaDrill*%
%ADD10C,0.350000*%
%TD*%
G04 aperture for slot hole*
%TA.AperFunction,ComponentDrill*%
%ADD11C,0.400000*%
%TD*%
%TA.AperFunction,ComponentDrill*%
%ADD12C,0.762000*%
%TD*%
%TA.AperFunction,ComponentDrill*%
%ADD13C,0.800000*%
%TD*%
G04 aperture for slot hole*
%TA.AperFunction,ComponentDrill*%
%ADD14C,0.800000*%
%TD*%
%TA.AperFunction,ViaDrill*%
%ADD15C,0.812800*%
%TD*%
%TA.AperFunction,ComponentDrill*%
%ADD16C,0.900000*%
%TD*%
%TA.AperFunction,ComponentDrill*%
%ADD17C,1.000000*%
%TD*%
G04 aperture for slot hole*
%TA.AperFunction,ComponentDrill*%
%ADD18C,1.046000*%
%TD*%
%TA.AperFunction,ComponentDrill*%
%ADD19C,1.500000*%
%TD*%
%TA.AperFunction,ComponentDrill*%
%ADD20C,3.606800*%
%TD*%
G04 APERTURE END LIST*
D10*
X107188000Y-138938000D03*
X111379000Y-128524000D03*
X111379000Y-140843000D03*
X113157000Y-158496000D03*
X121783000Y-141742000D03*
X121903827Y-120573628D03*
X122047000Y-137531000D03*
X122047000Y-156835000D03*
X123698000Y-136652000D03*
X130810000Y-154940000D03*
X133096000Y-138938000D03*
X137795000Y-120269000D03*
X139700000Y-153924000D03*
X140970000Y-147329000D03*
X141986000Y-139001000D03*
X146050000Y-140970000D03*
X147955000Y-120269000D03*
X150114000Y-138293000D03*
X151130000Y-140716000D03*
X151130000Y-153099000D03*
X157734000Y-145542000D03*
X157810953Y-120345953D03*
X159004000Y-137859000D03*
X162814000Y-144399000D03*
X167767000Y-137287000D03*
X167767000Y-145034000D03*
D11*
%TO.C,J3*%
X144936200Y-55055400D02*
X144936200Y-54055400D01*
X149436200Y-49555400D02*
X150436200Y-49555400D01*
X154936200Y-54055400D02*
X154936200Y-55055400D01*
D12*
%TO.C,AMP1*%
X113078447Y-64641500D03*
X115618447Y-64641500D03*
X118158447Y-64641500D03*
X123238447Y-64641500D03*
X125778447Y-64641500D03*
X130858447Y-64641500D03*
X133398447Y-64641500D03*
X135938447Y-64641500D03*
X138478447Y-64641500D03*
D13*
%TO.C,R2*%
X106553000Y-69850000D03*
X106553000Y-77470000D03*
%TO.C,R1*%
X109220000Y-77470000D03*
X109220000Y-85090000D03*
%TO.C,R3*%
X113030000Y-67310000D03*
X113030000Y-74930000D03*
%TO.C,C1*%
X113030000Y-77470000D03*
X115530000Y-77470000D03*
%TO.C,R8*%
X115570000Y-69723000D03*
%TO.C,C2*%
X115697000Y-72537000D03*
X115697000Y-75037000D03*
%TO.C,R8*%
X123190000Y-69723000D03*
D14*
%TO.C,J3*%
X147436200Y-54905400D02*
X147436200Y-54205400D01*
X152436200Y-54205400D02*
X152436200Y-54905400D01*
D13*
%TO.C,D2*%
X169926000Y-70866000D03*
X169926000Y-78486000D03*
%TO.C,D1*%
X173482000Y-70881000D03*
X173482000Y-78501000D03*
%TD*%
D15*
X106680000Y-99695000D03*
X106680000Y-116840000D03*
X108585000Y-73660000D03*
X109220000Y-61595000D03*
X109855000Y-57785000D03*
X110490000Y-90805000D03*
X113665000Y-84455000D03*
X114300000Y-99695000D03*
X117348000Y-116967000D03*
X121920000Y-90805000D03*
X122555000Y-83185000D03*
X127000000Y-73025000D03*
X128905000Y-112395000D03*
X135890000Y-74295000D03*
X137160000Y-60325000D03*
X140970000Y-48260000D03*
X142875000Y-64770000D03*
X151765000Y-52070000D03*
X154305000Y-62865000D03*
X156845000Y-48895000D03*
X157480000Y-55245000D03*
X160655000Y-47625000D03*
X160655000Y-112395000D03*
X161290000Y-80010000D03*
X161925000Y-99060000D03*
X163830000Y-72390000D03*
X166370000Y-69215000D03*
X167259000Y-96469200D03*
X167487600Y-116154200D03*
X167640000Y-106578400D03*
X168021000Y-118618000D03*
X171475400Y-80645000D03*
X173990000Y-64135000D03*
X175260000Y-108585000D03*
X175260000Y-118110000D03*
D16*
%TO.C,J2*%
X106299000Y-53785000D03*
X106299000Y-55785000D03*
X106299000Y-57785000D03*
D17*
%TO.C,J9*%
X106553000Y-63881000D03*
X106553000Y-66421000D03*
%TO.C,AMP1*%
X113840447Y-50965500D03*
X113840447Y-53465500D03*
X113840447Y-59739300D03*
X116340447Y-50965500D03*
X116340448Y-53465500D03*
X118840447Y-50965500D03*
X118840447Y-53465500D03*
X118840447Y-59739300D03*
%TO.C,J3*%
X147396200Y-59715400D03*
X149936200Y-59715400D03*
X152476200Y-59715400D03*
%TO.C,J4*%
X159385000Y-72390000D03*
X159385000Y-74930000D03*
X159385000Y-77470000D03*
D18*
%TO.C,LS1*%
X130824985Y-77865596D02*
X130605015Y-77992596D01*
X150096985Y-77992596D02*
X149877015Y-77865596D01*
D19*
%TO.C,J2*%
X106299000Y-51685000D03*
X106299000Y-59885000D03*
D20*
%TO.C,J1*%
X168910000Y-60960000D03*
M02*
