%TF.GenerationSoftware,KiCad,Pcbnew,9.0.4*%
%TF.CreationDate,2025-09-18T23:21:34+02:00*%
%TF.ProjectId,X-DaysSynth,582d4461-7973-4537-996e-74682e6b6963,0.4*%
%TF.SameCoordinates,Original*%
%TF.FileFunction,Other,User*%
%FSLAX46Y46*%
G04 Gerber Fmt 4.6, Leading zero omitted, Abs format (unit mm)*
G04 Created by KiCad (PCBNEW 9.0.4) date 2025-09-18 23:21:34*
%MOMM*%
%LPD*%
G01*
G04 APERTURE LIST*
%ADD10C,0.050000*%
G04 APERTURE END LIST*
D10*
%TO.C,J9*%
X104753000Y-62081000D02*
X104753000Y-68231001D01*
X104753000Y-68231001D02*
X108353000Y-68231001D01*
X108353000Y-62081000D02*
X104753000Y-62081000D01*
X108353000Y-68231001D02*
X108353000Y-62081000D01*
%TO.C,J3*%
X143686200Y-44805400D02*
X143686200Y-45055400D01*
X143686200Y-45055400D02*
X143686200Y-62505400D01*
X143686200Y-62505400D02*
X156186200Y-62505400D01*
X146686199Y-43005400D02*
X146686200Y-44805399D01*
X146686200Y-44805399D02*
X143686200Y-44805400D01*
X153186200Y-43005401D02*
X146686199Y-43005400D01*
X153186201Y-44805400D02*
X153186200Y-43005401D01*
X156186200Y-44805400D02*
X153186201Y-44805400D01*
X156186200Y-62505400D02*
X156186200Y-44805400D01*
%TO.C,R3*%
X114530000Y-75980000D02*
X111530000Y-75980000D01*
X111530000Y-66260000D01*
X114530000Y-66260000D01*
X114530000Y-75980000D01*
%TO.C,C1*%
X111980000Y-76420000D02*
X116580000Y-76420000D01*
X116580000Y-78520000D01*
X111980000Y-78520000D01*
X111980000Y-76420000D01*
%TO.C,J4*%
X157615000Y-70620000D02*
X157615000Y-79240000D01*
X157615000Y-79240000D02*
X169925000Y-79240000D01*
X169925000Y-70620000D02*
X157615000Y-70620000D01*
X169925000Y-79240000D02*
X169925000Y-70620000D01*
%TO.C,R2*%
X108053000Y-78520000D02*
X105053000Y-78520000D01*
X105053000Y-68800000D01*
X108053000Y-68800000D01*
X108053000Y-78520000D01*
%TO.C,R8*%
X124240000Y-71223000D02*
X114520000Y-71223000D01*
X114520000Y-68223000D01*
X124240000Y-68223000D01*
X124240000Y-71223000D01*
%TO.C,D2*%
X168576000Y-69786000D02*
X168576000Y-79536000D01*
X168576000Y-79536000D02*
X171276000Y-79536000D01*
X171276000Y-69786000D02*
X168576000Y-69786000D01*
X171276000Y-79536000D02*
X171276000Y-69786000D01*
%TO.C,R1*%
X110720000Y-76420000D02*
X107720000Y-76420000D01*
X107720000Y-86140000D01*
X110720000Y-86140000D01*
X110720000Y-76420000D01*
%TO.C,D1*%
X172132000Y-69801000D02*
X172132000Y-79551000D01*
X172132000Y-79551000D02*
X174832000Y-79551000D01*
X174832000Y-69801000D02*
X172132000Y-69801000D01*
X174832000Y-79551000D02*
X174832000Y-69801000D01*
%TO.C,C2*%
X116747000Y-76087000D02*
X114647000Y-76087000D01*
X114647000Y-71487000D01*
X116747000Y-71487000D01*
X116747000Y-76087000D01*
%TD*%
M02*
