M48
; DRILL file {KiCad 9.0.4} date 2025-09-18T23:22:27+0200
; FORMAT={-:-/ absolute / metric / decimal}
; #@! TF.CreationDate,2025-09-18T23:22:27+02:00
; #@! TF.GenerationSoftware,Kicad,Pcbnew,9.0.4
; #@! TF.FileFunction,MixedPlating,1,2
FMAT,2
METRIC
; #@! TA.AperFunction,Plated,PTH,ViaDrill
T1C0.350
; #@! TA.AperFunction,Plated,PTH,ComponentDrill
T2C0.400
; #@! TA.AperFunction,Plated,PTH,ComponentDrill
T3C0.762
; #@! TA.AperFunction,Plated,PTH,ComponentDrill
T4C0.800
; #@! TA.AperFunction,Plated,PTH,ViaDrill
T5C0.813
; #@! TA.AperFunction,Plated,PTH,ComponentDrill
T6C0.900
; #@! TA.AperFunction,Plated,PTH,ComponentDrill
T7C1.000
; #@! TA.AperFunction,Plated,PTH,ComponentDrill
T8C1.046
; #@! TA.AperFunction,Plated,PTH,ComponentDrill
T9C1.500
; #@! TA.AperFunction,Plated,PTH,ComponentDrill
T10C3.607
; #@! TA.AperFunction,NonPlated,NPTH,ComponentDrill
T11C1.200
%
G90
G05
T1
X107.188Y-138.938
X111.379Y-128.524
X111.379Y-140.843
X113.157Y-158.496
X121.783Y-141.742
X121.904Y-120.574
X122.047Y-137.531
X122.047Y-156.835
X123.698Y-136.652
X130.81Y-154.94
X133.096Y-138.938
X137.795Y-120.269
X139.7Y-153.924
X140.97Y-147.329
X141.986Y-139.001
X146.05Y-140.97
X147.955Y-120.269
X150.114Y-138.293
X151.13Y-140.716
X151.13Y-153.099
X157.734Y-145.542
X157.811Y-120.346
X159.004Y-137.859
X162.814Y-144.399
X167.767Y-137.287
X167.767Y-145.034
T3
X113.078Y-64.641
X115.618Y-64.641
X118.158Y-64.641
X123.238Y-64.641
X125.778Y-64.641
X130.858Y-64.641
X133.398Y-64.641
X135.938Y-64.641
X138.478Y-64.641
T4
X106.553Y-69.85
X106.553Y-77.47
X109.22Y-77.47
X109.22Y-85.09
X113.03Y-67.31
X113.03Y-74.93
X113.03Y-77.47
X115.53Y-77.47
X115.57Y-69.723
X115.697Y-72.537
X115.697Y-75.037
X123.19Y-69.723
X169.926Y-70.866
X169.926Y-78.486
X173.482Y-70.881
X173.482Y-78.501
T5
X106.68Y-99.695
X106.68Y-116.84
X108.585Y-73.66
X109.22Y-61.595
X109.855Y-57.785
X110.49Y-90.805
X113.665Y-84.455
X114.3Y-99.695
X117.348Y-116.967
X121.92Y-90.805
X122.555Y-83.185
X127.0Y-73.025
X128.905Y-112.395
X135.89Y-74.295
X137.16Y-60.325
X140.97Y-48.26
X142.875Y-64.77
X151.765Y-52.07
X154.305Y-62.865
X156.845Y-48.895
X157.48Y-55.245
X160.655Y-47.625
X160.655Y-112.395
X161.29Y-80.01
X161.925Y-99.06
X163.83Y-72.39
X166.37Y-69.215
X167.259Y-96.469
X167.488Y-116.154
X167.64Y-106.578
X168.021Y-118.618
X171.475Y-80.645
X173.99Y-64.135
X175.26Y-108.585
X175.26Y-118.11
T6
X106.299Y-53.785
X106.299Y-55.785
X106.299Y-57.785
T7
X106.553Y-63.881
X106.553Y-66.421
X113.84Y-50.965
X113.84Y-53.465
X113.84Y-59.739
X116.34Y-50.965
X116.34Y-53.465
X118.84Y-50.965
X118.84Y-53.465
X118.84Y-59.739
X147.396Y-59.715
X149.936Y-59.715
X152.476Y-59.715
X159.385Y-72.39
X159.385Y-74.93
X159.385Y-77.47
T9
X106.299Y-51.685
X106.299Y-59.885
T10
X168.91Y-60.96
T11
X144.856Y-59.715
X144.936Y-47.055
X144.936Y-49.555
X149.936Y-54.555
X154.936Y-47.055
X154.936Y-49.555
X155.016Y-59.715
T2
G00X144.936Y-54.055
M15
G01X144.936Y-55.055
M16
G05
G00X150.436Y-49.555
M15
G01X149.436Y-49.555
M16
G05
G00X154.936Y-55.055
M15
G01X154.936Y-54.055
M16
G05
T4
G00X147.436Y-54.205
M15
G01X147.436Y-54.905
M16
G05
G00X152.436Y-54.905
M15
G01X152.436Y-54.205
M16
G05
T8
G00X130.605Y-77.993
M15
G01X130.825Y-77.866
M16
G05
G00X149.877Y-77.866
M15
G01X150.097Y-77.993
M16
G05
M30
